<?xml version="1.0" standalone="no"?>
<!DOCTYPE svg PUBLIC "-//W3C//DTD SVG 1.1//EN" "http://www.w3.org/Graphics/SVG/1.1/DTD/svg11.dtd" >
<svg xmlns="http://www.w3.org/2000/svg">
<metadata></metadata>
<defs>
<font id="octavaregular" horiz-adv-x="1105" >
<font-face units-per-em="2048" ascent="1638" descent="-410" />
<missing-glyph horiz-adv-x="477" />
<glyph horiz-adv-x="0" />
<glyph unicode="&#xd;" horiz-adv-x="2048" />
<glyph unicode=" "  horiz-adv-x="477" />
<glyph unicode="&#x09;" horiz-adv-x="477" />
<glyph unicode="&#xa0;" horiz-adv-x="477" />
<glyph unicode="!" horiz-adv-x="532" d="M143 94q0 51 36 87t87 36t87 -36t36 -87t-36 -87t-87 -36t-87 36t-36 87zM143 1313q0 149 123 149t123 -149q0 -41 -4.5 -88t-15 -127t-13.5 -109q-24 -224 -32 -383l-13 -287h-90l-12 287q-7 141 -33 383q-3 29 -13.5 109t-15 127t-4.5 88z" />
<glyph unicode="&#x22;" horiz-adv-x="860" d="M143 1434h226l-72 -451h-82zM492 1434h225l-72 -451h-82z" />
<glyph unicode="#" horiz-adv-x="1290" d="M102 373l29 164h234l59 323h-234l29 164h234l61 340h111l-62 -340h281l61 340h111l-62 -340h234l-29 -164h-233l-60 -323h234l-29 -164h-233l-62 -340h-110l61 340h-281l-61 -340h-111l62 340h-234zM475 537h281l59 323h-280z" />
<glyph unicode="$" d="M82 217q0 57 37.5 96.5t97.5 42.5q29 -131 96 -206q70 -78 170 -93l31 607q-167 72 -238 139q-112 102 -112 268q0 116 41 194t98 121q46 34 114 54t136 22l6 135h82l-6 -135q130 -3 229 -53q117 -59 117 -154q0 -58 -37.5 -97.5t-95.5 -39.5q-21 108 -78 178 q-58 72 -139 80l-27 -536q164 -72 246 -133q85 -64 119.5 -137.5t34.5 -163.5q0 -205 -146 -328q-123 -101 -297 -107l-8 -176h-82l8 176q-150 7 -260 60q-137 65 -137 186zM324 1128q0 -91 59 -155q51 -56 141 -96l25 499q-73 0 -129 -39q-96 -69 -96 -209zM565 57 q109 3 187 74q43 41 65.5 99t22.5 116q0 108 -80 184q-54 51 -166 101z" />
<glyph unicode="%" horiz-adv-x="1843" d="M123 1049q0 195 98 305q41 46 101.5 73t128.5 27q139 0 229 -100q98 -110 98 -305q0 -196 -98 -306q-90 -100 -229 -100q-68 0 -128.5 27t-101.5 73q-98 110 -98 306zM295 1049q0 -174 39 -254q21 -40 52.5 -61t64.5 -21q73 0 116 82q39 80 39 254t-39 254 q-41 81 -116 81q-77 0 -117 -81q-39 -80 -39 -254zM451 0l831 1434h111l-832 -1434h-110zM1065 385q0 195 98 305q41 46 101.5 73.5t128.5 27.5q138 0 229 -101q98 -110 98 -305t-98 -305q-90 -100 -229 -100q-68 0 -128.5 27t-101.5 73q-98 110 -98 305zM1237 385 q0 -174 39 -254q21 -40 52.5 -61t64.5 -21q73 0 116 82q39 80 39 254t-39 254q-41 82 -116 82q-76 0 -117 -82q-39 -80 -39 -254z" />
<glyph unicode="&#x26;" horiz-adv-x="1638" d="M82 385q0 169 119 307q79 94 202 166q-141 158 -141 316q0 145 96 223q82 65 207 65q138 0 213 -63q80 -66 80 -172q0 -102 -86 -195q-67 -73 -170 -139l463 -500q54 67 93.5 153t39.5 161q0 15 -2.5 29t-10.5 37t-30 40t-55 23l-74 12v61h516v-61q-42 -2 -77.5 -17 t-57 -32t-42.5 -47.5t-29 -45.5t-21 -44q-35 -78 -51.5 -113t-55 -99.5t-84.5 -121.5l109 -121q83 -92 160 -92q33 0 68 18t59 49l45 -43q-43 -52 -99 -96q-91 -72 -163 -72q-41 0 -82.5 21t-61 39t-47.5 47l-111 119q-214 -226 -479 -226q-176 0 -297 97q-143 115 -143 317 zM274 436q0 -134 82 -223q93 -98 254 -98q190 0 338 141l-491 541q-62 -46 -111 -121q-39 -59 -55.5 -114t-16.5 -126zM397 1217q0 -70 37.5 -131t114.5 -132q158 108 158 256q0 75 -35 122.5t-109 47.5q-77 0 -121.5 -46.5t-44.5 -116.5z" />
<glyph unicode="'" horiz-adv-x="532" d="M143 1434h246l-82 -451h-82z" />
<glyph unicode="(" horiz-adv-x="860" d="M205 512q0 405 262 741q131 166 303 291l49 -41q-73 -68 -140 -159.5t-110 -176.5q-73 -144 -110 -318t-37 -337t37 -337t110 -318q43 -85 110 -176.5t140 -159.5l-49 -41q-172 125 -303 291q-262 336 -262 741z" />
<glyph unicode=")" horiz-adv-x="860" d="M41 -479q73 68 140 159.5t110 176.5q73 144 110 318t37 337t-37 337t-110 318q-43 85 -110 176.5t-140 159.5l49 41q172 -125 303 -291q262 -336 262 -741t-262 -741q-131 -166 -303 -291z" />
<glyph unicode="*" horiz-adv-x="991" d="M164 1014l250 67v41l-250 68q0 51 20 92q24 47 70 64l182 -183l37 21l-67 250q44 28 90 28t90 -28l-68 -250l37 -21l182 183q47 -23 70 -64q20 -39 20 -92l-249 -68v-41l249 -67q0 -51 -20 -92q-24 -47 -70 -64l-182 182l-37 -20l68 -250q-45 -29 -90 -29t-90 29l67 250 l-37 20l-182 -182q-47 23 -70 64q-20 39 -20 92z" />
<glyph unicode="+" horiz-adv-x="1269" d="M143 565v99h443v442h98v-442h442v-99h-442v-442h-98v442h-443z" />
<glyph unicode="," horiz-adv-x="532" d="M131 115q0 58 37 92.5t98 34.5q69 0 113 -47q43 -46 43 -134q0 -120 -88 -208q-65 -62 -141 -99l-37 53q41 21 86 56q53 42 53 84q0 23 -23 35q-8 5 -29 9.5t-26 6.5q-35 11 -60.5 39.5t-25.5 77.5z" />
<glyph unicode="-" horiz-adv-x="819" d="M143 532v164h533v-164h-533z" />
<glyph unicode="." horiz-adv-x="532" d="M131 106q0 56 40 96t95 40t95 -40t40 -96t-39.5 -95.5t-95.5 -39.5t-95.5 39.5t-39.5 95.5z" />
<glyph unicode="/" horiz-adv-x="1024" d="M0 -492l922 2008h102l-922 -2008h-102z" />
<glyph unicode="0" d="M82 717q0 83 9 172t40 201.5t80 187.5q65 99 149 141.5t193 42.5t193 -42.5t149 -141.5q49 -75 80 -187.5t40 -201.5t9 -172t-9 -172t-40 -201.5t-80 -187.5q-65 -99 -149 -142t-193 -43t-193 43t-149 142q-49 75 -80 187.5t-40 201.5t-9 172zM291 717q0 -326 65 -492 q65 -164 197 -164t197 164q65 166 65 492q0 325 -65 491q-65 164 -197 164t-197 -164q-65 -166 -65 -491z" />
<glyph unicode="1" d="M164 0v61l233 31q74 6 74 78v1049q0 21 -5.5 34.5t-16 18.5t-18 6.5t-19.5 1.5q-38 0 -103 -10q-67 -12 -129 -29v90q121 14 209 41q102 32 197 90h114q-24 -98 -24 -233v-1059q0 -67 74 -78l213 -31v-61h-799z" />
<glyph unicode="2" d="M82 0v61q155 154 297.5 320t226.5 287q87 122 125.5 218.5t38.5 209.5q0 129 -51 198q-58 78 -168 78q-97 0 -158 -59q-74 -70 -53 -193q-53 -33 -104 -33q-44 0 -68.5 24.5t-24.5 64.5q0 59 48.5 120t127.5 101q133 65 304 65q151 0 245 -80q111 -95 111 -254 q0 -106 -53.5 -219t-159.5 -250q-127 -163 -430 -475h450q63 0 101 27q16 10 31.5 28.5t21.5 34.5l35 82h69l-106 -356h-856z" />
<glyph unicode="3" d="M82 109q0 54 37 86.5t94 25.5q9 -41 32 -71.5t47 -45t54 -23t44.5 -10t27.5 -1.5q69 0 141.5 28.5t122.5 77.5q55 53 84 128.5t29 156.5q0 126 -76 198q-68 64 -203 64q-109 0 -201 -41v82q127 37 217 108q86 67 131.5 154t45.5 166q0 72 -39 123q-26 35 -59.5 46 t-78.5 11q-103 0 -163 -47q-77 -61 -56 -164q-78 -33 -116 -33q-70 0 -70 70q0 58 54 115t128 90q130 59 293 59q68 0 135 -16.5t105 -50.5q35 -30 55.5 -79t20.5 -99q0 -123 -105 -232q-82 -85 -192 -154v-4q71 6 143.5 -11t122.5 -54q117 -92 117 -256q0 -147 -80 -267 t-234 -192q-164 -76 -387 -76q-123 0 -172 40.5t-49 97.5z" />
<glyph unicode="4" d="M61 406v81q172 271 267 402q224 312 475 573h69q-12 -90 -12 -159v-754q104 0 213 37h12l-77 -180h-148v-369l-192 -66v435h-607zM229 549h439v618h-4q-122 -127 -244 -305q-104 -151 -191 -313z" />
<glyph unicode="5" d="M82 109q0 54 37 86.5t94 25.5q15 -72 71.5 -111.5t133.5 -39.5q62 0 126 28t109 78q46 52 73.5 129t27.5 152q0 46 -11 90t-36 89t-74 82.5t-117 59.5q-67 21 -162.5 32t-183.5 9l195 615h415h12.5h14h14t15 1t14.5 2t15.5 3t15 4.5t16 6t14.5 7.5q48 29 64 78h69 l-96 -266q-108 -21 -229 -21h-316l-79 -266q172 -4 303 -43q98 -29 167.5 -80t104 -113.5t49.5 -122t15 -122.5q0 -158 -80 -273t-215 -182q-149 -76 -365 -76q-123 0 -172 40.5t-49 97.5z" />
<glyph unicode="6" d="M102 518q0 327 187 580q207 287 579 381l33 -62q-307 -130 -457 -393q-133 -233 -133 -522q0 -191 58 -305q69 -136 206 -136q58 0 105.5 26t77.5 67q57 78 57 233t-53 240q-67 108 -189 108q-90 0 -172 -63l-32 61q164 125 301 125q67 0 134 -29.5t118 -89.5 q102 -121 102 -303q0 -217 -137 -344q-131 -121 -336 -121q-214 0 -326 133q-60 70 -91.5 180.5t-31.5 233.5z" />
<glyph unicode="7" d="M61 1065l86 369h897v-62q-151 -280 -282 -579q-197 -449 -316 -822l-188 70q138 337 389 797q128 233 238 411h-584q-57 0 -90 -26q-35 -28 -53 -84l-27 -74h-70z" />
<glyph unicode="8" d="M82 342q0 155 131 283q82 80 207 141q-91 60 -141 113q-105 108 -105 241q0 76 35.5 147.5t97.5 116.5q107 78 281 78q183 0 282 -76q107 -82 107 -217q0 -69 -26.5 -120t-76.5 -99q-78 -76 -192 -137q157 -97 233 -182q109 -118 109 -273q0 -175 -133 -280 q-132 -107 -354 -107q-184 0 -301 78q-71 50 -112.5 129t-41.5 164zM250 362q0 -128 74 -208q89 -93 235 -93q128 0 203 68q74 64 74 174q0 123 -115 232q-81 78 -232 178q-86 -53 -143 -113q-96 -99 -96 -238zM362 1174q0 -77 56 -152q34 -44 87.5 -88.5t104.5 -73.5 q67 45 133 113q86 86 86 186q0 89 -67 152q-66 61 -174 61q-102 0 -162 -49q-64 -52 -64 -149z" />
<glyph unicode="9" d="M82 1004q0 190 125 321q132 137 364 137q213 0 330 -141q61 -73 92 -185t31 -241q0 -349 -227 -596q-177 -194 -498 -328l-33 62q114 66 220.5 157.5t175.5 188.5q153 213 153 512q0 229 -63 350q-69 131 -211 131q-97 0 -166 -69q-84 -88 -84 -259q0 -145 57 -237 q70 -117 203 -117q94 0 174 58l33 -62q-141 -102 -293 -102q-184 0 -287 123q-96 116 -96 297z" />
<glyph unicode=":" horiz-adv-x="532" d="M131 106q0 56 40 96t95 40t95 -40t40 -96t-39.5 -95.5t-95.5 -39.5t-95.5 39.5t-39.5 95.5zM131 918q0 56 39.5 95.5t95.5 39.5t95.5 -39.5t39.5 -95.5t-40 -96t-95 -40t-95 40t-40 96z" />
<glyph unicode=";" horiz-adv-x="532" d="M131 115q0 58 37 92.5t98 34.5q69 0 113 -47q43 -46 43 -134q0 -120 -88 -208q-65 -62 -141 -99l-37 53q41 21 86 56q53 42 53 84q0 23 -23 35q-8 5 -29 9.5t-26 6.5q-35 11 -60.5 39.5t-25.5 77.5zM131 918q0 56 39.5 95.5t95.5 39.5t95.5 -39.5t39.5 -95.5t-40 -96 t-95 -40t-95 40t-40 96z" />
<glyph unicode="&#x3c;" horiz-adv-x="1269" d="M123 584v61l975 492l49 -86l-864 -437l864 -436l-49 -86z" />
<glyph unicode="=" horiz-adv-x="1269" d="M143 393v99h983v-99h-983zM143 737v99h983v-99h-983z" />
<glyph unicode="&#x3e;" horiz-adv-x="1269" d="M123 178l864 436l-864 437l49 86l975 -492v-61l-975 -492z" />
<glyph unicode="?" horiz-adv-x="819" d="M143 94q0 51 36 87t87 36t87 -36t36 -87t-36 -87t-87 -36t-87 36t-36 87zM213 1380q0 34 27 58t79 24q80 0 161 -49t138 -127q99 -138 99 -319q0 -187 -84 -283q-85 -94 -236 -94q-32 0 -86 8v-279h-90v392l70 59q78 -16 141 -16q101 0 150 51q53 53 53 143 q0 123 -78 201q-51 51 -195 104q-24 8 -30.5 10.5t-30.5 12t-34.5 18t-25.5 21.5t-21.5 29.5t-6.5 35.5z" />
<glyph unicode="@" horiz-adv-x="1781" d="M123 653q0 106 19.5 200.5t51 164.5t75.5 131t88.5 101.5t95.5 74.5q205 137 495 137q276 0 451 -106q75 -45 128.5 -105t80.5 -124t39 -122t12 -118q0 -44 -5.5 -87t-23.5 -100.5t-47.5 -108.5t-82 -105.5t-122.5 -98.5q-65 -40 -139.5 -68t-128.5 -28q-50 0 -84 37 q-41 45 -41 121q0 40 14 108h-4q-72 -112 -161 -184q-98 -82 -201 -82q-68 0 -109 51q-49 62 -49 186q0 194 127 363q86 116 195 175.5t219 59.5q79 0 137 -49l98 49h56q-52 -136 -109 -325q-48 -160 -65 -229.5t-17 -116.5q0 -74 51 -74q33 0 83.5 22.5t86.5 47.5 q211 144 211 403q0 133 -51 237t-137 169q-159 120 -412 120q-254 0 -432 -129q-53 -38 -98.5 -88t-89.5 -121.5t-69.5 -169.5t-25.5 -210q0 -306 207 -478q158 -131 400 -131q263 0 463 111l34 -68q-224 -125 -506 -125q-253 0 -432 123q-276 192 -276 559zM631 551 q0 -65 16 -98q26 -47 70 -47q34 0 76.5 30t74.5 64q47 50 90 121t62 127l76 231q-13 28 -33 43q-33 22 -82 22q-146 0 -256 -167q-94 -144 -94 -326z" />
<glyph unicode="A" horiz-adv-x="1454" d="M41 0v70l43 12q42 13 82 47q29 29 51 84l432 1149q23 61 31 100h86q8 -41 31 -100l471 -1172q23 -55 59 -84q38 -31 86 -36v-70h-498v70l103 20q43 11 43 51q0 16 -14 49l-127 330h-463l-113 -323q-12 -37 -12 -58q0 -15 9.5 -30t29.5 -19l88 -20v-70h-418zM500 631h381 l-195 520h-4z" />
<glyph unicode="B" horiz-adv-x="1331" d="M82 0v70l139 32q6 1 12.5 4.5t14.5 10.5t13 21.5t5 33.5v1090q0 25 -9.5 41.5t-18 21.5t-17.5 6l-139 33v70h262q98 0 199 8q159 12 196 12q209 0 310 -94q46 -43 72 -107.5t26 -136.5q0 -122 -78 -213q-32 -36 -79.5 -64.5t-92.5 -43.5v-4q124 -18 213 -93 q119 -102 119 -280q0 -194 -135 -303q-67 -55 -167 -85t-202 -30h-643zM471 135q81 -37 182 -37q182 0 277 97q82 82 82 219q0 142 -72 223q-81 88 -244 88h-225v-590zM471 827h145q160 0 242 76q84 77 84 201q0 117 -70 184q-70 68 -213 68q-93 0 -188 -31v-498z" />
<glyph unicode="C" horiz-adv-x="1363" d="M106 702q0 184 62.5 338t169.5 254q183 168 469 168q133 0 262 -32q13 -3 47.5 -13t61.5 -15t65 -9l43 -377h-82l-49 139q-30 85 -108 139q-49 34 -117 52t-133 18q-205 0 -330 -143q-143 -161 -143 -471q0 -259 110 -447q42 -72 94.5 -122t105.5 -72t93.5 -30.5 t81.5 -8.5q67 0 142.5 21.5t119.5 53.5q75 55 107 142l43 123h82l-52 -349q-67 -11 -161 -38q-195 -52 -332 -52q-167 0 -289 61.5t-197 153.5q-81 98 -123.5 238t-42.5 278z" />
<glyph unicode="D" horiz-adv-x="1556" d="M82 0v70l139 32q6 1 12.5 4.5t14.5 10.5t13 21.5t5 33.5v1090q0 25 -9.5 41.5t-18 21.5t-17.5 6l-139 33v70h321q60 0 170 8q183 12 189 12q305 0 475 -147q213 -183 213 -545q0 -113 -20.5 -211t-56 -169t-71 -119.5t-77.5 -86.5q-87 -80 -207.5 -128t-263.5 -48h-672z M471 135q122 -37 248 -37q255 0 391 191q60 86 91.5 204.5t31.5 237.5q0 133 -36 258.5t-103 204.5q-61 71 -162.5 116.5t-235.5 45.5q-106 0 -225 -31v-1190z" />
<glyph unicode="E" horiz-adv-x="1228" d="M82 0v70l139 32q6 1 12.5 4.5t14.5 10.5t13 21.5t5 33.5v1090q0 25 -9.5 41.5t-18 21.5t-17.5 6l-139 33v70h1028v-328h-82l-27 127q-9 42 -43 65q-38 25 -106 25h-381v-516h270q51 0 82 31q24 28 31 69l10 76h82v-471h-82l-12 92q-7 42 -29 64q-26 28 -82 28h-270v-532 q0 -22 15 -37.5t38 -15.5h310q74 0 120 34q35 26 58 80l53 133h82l-57 -358h-1008z" />
<glyph unicode="F" horiz-adv-x="1167" d="M82 0v70l139 32q6 1 12.5 4.5t14.5 10.5t13 21.5t5 33.5v1090q0 25 -9.5 41.5t-18 21.5t-17.5 6l-139 33v70h1024v-328h-82l-27 127q-9 42 -43 65q-38 25 -106 25h-377v-545h287q51 0 82 31q22 22 30 70l11 75h82v-471h-82l-13 92q-8 44 -28 64q-27 29 -82 29h-287v-496 q0 -61 45 -70l160 -32v-70h-594z" />
<glyph unicode="G" horiz-adv-x="1486" d="M106 721q0 110 22.5 208t61 171t82 127t93.5 94q178 141 462 141q113 0 273 -32q23 -4 61.5 -12.5t70.5 -14.5t71 -10v-340h-82l-27 94q-26 96 -111 153q-15 11 -37 22t-83.5 26.5t-131.5 15.5q-201 0 -337 -141q-170 -178 -170 -490q0 -138 33.5 -264.5t99.5 -214.5 q70 -94 165.5 -139t198.5 -45q65 0 143 19t134 46v389q0 36 -15 51.5t-30 18.5l-140 33v69h533v-69l-98 -33q-45 -14 -45 -70v-477q-65 -9 -179 -33q-211 -43 -319 -43q-296 0 -481 179q-97 94 -157.5 240t-60.5 331z" />
<glyph unicode="H" horiz-adv-x="1597" d="M82 0v70l139 32q6 1 12.5 4.5t14.5 10.5t13 21.5t5 33.5v1090q0 25 -9.5 41.5t-18 21.5t-17.5 6l-139 33v70h573v-70l-139 -33q-9 -1 -17.5 -6t-18 -21.5t-9.5 -41.5v-447h655v447q0 25 -9.5 41.5t-18 21.5t-17.5 6l-139 33v70h574v-70l-140 -33q-9 -1 -17.5 -6 t-18 -21.5t-9.5 -41.5v-1090q0 -36 15 -51.5t30 -18.5l140 -32v-70h-574v70l139 32q6 1 12.5 4.5t14.5 10.5t13 21.5t5 33.5v533h-655v-533q0 -36 15 -51.5t30 -18.5l139 -32v-70h-573z" />
<glyph unicode="I" horiz-adv-x="737" d="M82 0v70l139 32q6 1 12.5 4.5t14.5 10.5t13 21.5t5 33.5v1090q0 25 -9.5 41.5t-18 21.5t-17.5 6l-139 33v70h573v-70l-139 -33q-9 -1 -17.5 -6t-18 -21.5t-9.5 -41.5v-1090q0 -36 15 -51.5t30 -18.5l139 -32v-70h-573z" />
<glyph unicode="J" horiz-adv-x="778" d="M-164 -381q0 66 58 107q29 21 63 21q35 0 76 -21q7 -34 34 -53t64 -19q77 0 127 76q49 75 49 209v1323q0 62 -45 69l-180 33v70h614v-70l-139 -33q-9 -1 -17.5 -6t-18 -21.5t-9.5 -41.5v-1186q0 -137 -65.5 -269.5t-172.5 -222.5q-125 -104 -264 -104q-85 0 -129.5 41.5 t-44.5 97.5z" />
<glyph unicode="K" horiz-adv-x="1413" d="M82 0v70l139 32q6 1 12.5 4.5t14.5 10.5t13 21.5t5 33.5v1090q0 25 -9.5 41.5t-18 21.5t-17.5 6l-139 33v70h573v-70l-139 -33q-9 -1 -17.5 -6t-18 -21.5t-9.5 -41.5v-502q38 3 73 23.5t52 43.5l350 430q31 40 31 60q0 11 -9.5 22t-31.5 15l-64 10v70h439v-70l-70 -14 q-102 -21 -162 -93l-399 -477l481 -579q82 -96 162 -117l49 -14v-70h-532v70l92 22q31 7 31 37q0 24 -21 49l-348 436q-48 60 -102 60h-21v-502q0 -36 15 -51.5t30 -18.5l139 -32v-70h-573z" />
<glyph unicode="L" horiz-adv-x="1208" d="M82 0v70l139 32q6 1 12.5 4.5t14.5 10.5t13 21.5t5 33.5v1090q0 25 -9.5 41.5t-18 21.5t-17.5 6l-139 33v70h573v-70l-139 -33q-9 -1 -17.5 -6t-18 -21.5t-9.5 -41.5v-1098q0 -22 15 -37.5t38 -15.5h330q75 0 121 34q34 25 57 80l53 133h82l-57 -358h-1028z" />
<glyph unicode="M" horiz-adv-x="1884" d="M82 0v70l119 32q45 13 45 70l41 1090q1 27 -11 45.5t-34 23.5l-140 33v70h385q2 -18 5.5 -36t5.5 -28.5t8 -28t7.5 -22t9.5 -24t9 -21.5l400 -969h4l424 969q42 100 45 160h360v-70l-139 -33q-45 -8 -45 -62v-7l37 -1090q0 -59 45 -70l139 -32v-70h-573v70l139 32 q45 10 45 70l-22 903h-5l-419 -977q-30 -70 -37 -127h-82q-7 57 -37 127l-416 977h-4l-26 -903v-7q0 -55 45 -63l139 -32v-70h-467z" />
<glyph unicode="N" horiz-adv-x="1597" d="M82 0v70l119 32q45 14 45 70v1081q-19 28 -51 56.5t-58 36.5l-55 18v70h332q20 -49 78 -121l737 -936v885q0 60 -45 69l-160 33v70h492v-70l-119 -33q-45 -13 -45 -69v-1291h-82q-18 59 -82 138l-819 1026v-963q0 -61 45 -70l159 -32v-70h-491z" />
<glyph unicode="O" horiz-adv-x="1515" d="M106 717q0 163 47 312t142 251q169 182 463 182t463 -182q95 -102 141.5 -251t46.5 -312t-46.5 -312t-141.5 -251q-170 -183 -463 -183t-463 183q-95 102 -142 251t-47 312zM324 717q0 -282 98 -451q57 -97 137.5 -146.5t198.5 -49.5t198.5 49.5t137.5 146.5 q98 169 98 451q0 281 -98 450q-57 97 -137.5 147t-198.5 50t-198.5 -50t-137.5 -147q-98 -169 -98 -450z" />
<glyph unicode="P" horiz-adv-x="1269" d="M82 0v70l139 32q6 1 12.5 4.5t14.5 10.5t13 21.5t5 33.5v1090q0 25 -9.5 41.5t-18 21.5t-17.5 6l-139 33v70h184q76 0 205 8q21 1 101.5 6.5t115.5 5.5q236 0 350 -80q63 -43 106.5 -122t43.5 -193q0 -202 -146 -314q-138 -110 -370 -110q-96 0 -201 24v-487 q0 -61 45 -70l160 -32v-70h-594zM471 774q89 -41 191 -41q140 0 231 84q90 83 90 227q0 146 -88 230q-42 39 -107.5 60.5t-138.5 21.5q-83 0 -178 -31v-551z" />
<glyph unicode="Q" horiz-adv-x="1515" d="M106 717q0 162 47 311.5t142 251.5q169 182 463 182t463 -182q95 -102 141.5 -251t46.5 -312t-46.5 -312.5t-141.5 -250.5q-91 -99 -230 -146q27 -121 111 -205q103 -106 274 -106q137 0 283 61v-98q-163 -61 -348 -61q-221 0 -373 118q-133 104 -180 254q-15 -1 -30 -1 q-129 0 -236 48q-118 52 -197 136q-93 98 -141 247t-48 316zM324 717q0 -282 98 -451q57 -97 137.5 -146.5t198.5 -49.5t198.5 49.5t137.5 146.5q98 169 98 451q0 281 -98 450q-57 97 -137.5 147t-198.5 50t-198.5 -50t-137.5 -147q-98 -169 -98 -450z" />
<glyph unicode="R" horiz-adv-x="1310" d="M82 0v70l139 32q6 1 12.5 4.5t14.5 10.5t13 21.5t5 33.5v1090q0 25 -9.5 41.5t-18 21.5t-17.5 6l-139 33v70h309q59 0 154 10q113 10 143 10q197 0 303 -88q61 -48 95 -121t34 -160q0 -171 -127 -278q-47 -39 -118.5 -68.5t-143.5 -40.5v-6q41 -19 79.5 -56t86.5 -110 l244 -376q47 -71 129 -80v-70h-283l-375 602q-45 78 -120 78h-21v-508q0 -36 15 -51.5t30 -18.5l139 -32v-70h-573zM471 786q70 -16 139 -16q152 0 232 94q36 42 54.5 102.5t18.5 120.5q0 120 -67 193q-68 76 -203 76q-86 0 -174 -31v-539z" />
<glyph unicode="S" horiz-adv-x="1085" d="M102 61v349h82l17 -86q18 -104 75 -164q38 -41 102 -65.5t132 -24.5q138 0 221 73q44 38 66 92t22 111q0 51 -16.5 92.5t-47 69.5t-55 44t-57.5 32l-258 129q-48 24 -84 49t-75.5 67t-61 103.5t-21.5 138.5q0 212 140 315q100 76 288 76q34 0 66.5 -3t51 -7t46 -10 t39.5 -8q111 -19 131 -21v-328h-82l-16 84q-6 32 -25 68.5t-43 60.5q-63 66 -180 66q-99 0 -160 -41q-96 -62 -96 -195q0 -135 146 -210l249 -127q32 -16 47 -24t50.5 -30.5t55.5 -41t49 -50.5t44.5 -65t27 -78.5t11.5 -95.5q0 -209 -145 -328q-130 -107 -324 -107 q-133 0 -285 58q-84 29 -127 32z" />
<glyph unicode="T" horiz-adv-x="1310" d="M61 1106v328h1188v-328h-82l-26 127q-9 42 -43 65q-38 25 -107 25h-233v-1151q0 -61 45 -70l160 -32v-70h-615v70l160 32q45 9 45 70v1151h-234q-69 0 -106 -25q-34 -23 -43 -65l-27 -127h-82z" />
<glyph unicode="U" horiz-adv-x="1515" d="M61 1364v70h574v-70l-139 -33q-9 -1 -17.5 -6t-18 -21.5t-9.5 -41.5v-865q0 -38 2 -62.5t9.5 -61.5t27 -68.5t49.5 -57.5q43 -38 115 -57.5t143 -19.5q139 0 239 71q131 97 131 285v836q0 25 -9.5 41.5t-18 21.5t-17.5 6l-139 33v70h471v-70l-119 -33q-45 -13 -45 -69 v-840q0 -50 -7 -92t-25 -88.5t-54.5 -90.5t-91.5 -81q-144 -99 -344 -99q-189 0 -315 66q-207 107 -207 334v891q0 25 -9.5 41.5t-18 21.5t-17.5 6z" />
<glyph unicode="V" horiz-adv-x="1413" d="M41 1364v70h528v-70l-73 -8q-84 -10 -84 -74q0 -28 20 -90l303 -885h4l332 834q33 87 33 123q0 80 -84 92l-86 8v70h438v-70l-35 -10q-46 -13 -84 -78q-26 -45 -69 -146l-416 -1026q-33 -83 -43 -133h-82q-8 41 -41 138l-407 1105q-25 68 -55 97.5t-68 42.5z" />
<glyph unicode="W" horiz-adv-x="2007" d="M41 1364v70h541v-70l-103 -16q-90 -15 -90 -91q0 -9 2 -19t7 -26t8 -26l231 -871h4l322 955q34 98 49 192h82q12 -82 49 -192l311 -955h4l228 869q16 62 16 88q0 70 -88 80l-90 12v70h442v-70l-33 -10q-42 -12 -80 -56q-35 -40 -51 -102l-317 -1100q-3 -10 -10.5 -31.5 t-10.5 -31.5t-9 -31t-9 -31h-82q-7 50 -31 125l-321 940h-4l-342 -940q-33 -102 -39 -125h-82q-19 80 -31 125l-326 1114q-21 69 -46 100t-62 42z" />
<glyph unicode="X" horiz-adv-x="1474" d="M41 0v70l74 22q62 19 128.5 71.5t114.5 123.5l289 432l-336 502q-76 111 -172 133l-45 10v70h576v-70l-92 -12q-62 -9 -62 -54q0 -20 23 -57l241 -362l213 331q37 60 37 84q0 49 -55 58l-72 12v70h457v-70l-45 -8q-137 -23 -230 -170l-249 -389l393 -590 q72 -107 151 -125l54 -12v-70h-549v70l78 10q57 7 57 53q0 27 -33 76l-285 426l-243 -375q-43 -65 -43 -106q0 -59 73 -74l56 -10v-70h-504z" />
<glyph unicode="Y" horiz-adv-x="1290" d="M41 1364v70h508v-70l-76 -10q-61 -10 -61 -58q0 -27 22 -67l264 -447l224 383q45 83 45 117q0 28 -21 48t-59 24l-80 10v70h442v-70l-45 -14q-74 -23 -145 -146l-311 -540v-492q0 -61 45 -70l159 -32v-70h-614v70l160 32q45 9 45 70v492l-346 577q-50 86 -117 109z" />
<glyph unicode="Z" horiz-adv-x="1249" d="M41 0v70q51 35 94 98l774 1155h-569q-61 0 -102 -25q-38 -25 -50 -77l-32 -136h-82l37 349h1097v-70q-51 -35 -94 -98l-774 -1155h555q75 0 121 34q34 25 57 80l53 133h82l-57 -358h-1110z" />
<glyph unicode="[" horiz-adv-x="778" d="M246 -492v2008h450v-62h-209q-22 0 -35.5 -13.5t-13.5 -35.5v-1786q0 -22 13.5 -35.5t35.5 -13.5h209v-62h-450z" />
<glyph unicode="\" horiz-adv-x="1024" d="M0 1516h102l922 -2008h-102z" />
<glyph unicode="]" horiz-adv-x="778" d="M82 -430h209q22 0 35.5 13.5t13.5 35.5v1786q0 22 -13.5 35.5t-35.5 13.5h-209v62h450v-2008h-450v62z" />
<glyph unicode="^" horiz-adv-x="1024" d="M61 819l451 643l451 -643h-103l-348 488l-348 -488h-103z" />
<glyph unicode="_" horiz-adv-x="1187" d="M0 -393h1188v-99h-1188v99z" />
<glyph unicode="`" horiz-adv-x="942" d="M143 1466v50h226l204 -287v-21h-81z" />
<glyph unicode="a" horiz-adv-x="983" d="M82 246q0 144 96 223q47 38 109.5 61t152.5 43l183 41v213q0 67 -23 101q-30 43 -96 43q-39 0 -81 -13t-69 -34q-56 -45 -56 -119q0 -21 5 -45q-74 -33 -119 -33q-69 0 -69 61q0 53 44 109.5t107 91.5q119 64 266 64q130 0 197 -56q70 -59 70 -170v-663q0 -47 16 -78 q16 -25 35 -25q36 0 72 29v-61q-88 -58 -152 -58q-60 0 -98 58q-27 47 -35 94q-51 -54 -121 -96q-95 -56 -188 -56q-94 0 -162 62q-84 75 -84 213zM258 276q0 -70 27 -122q36 -68 112 -68q91 0 158 76q68 79 68 184v186l-142 -34q-112 -28 -159 -68q-64 -52 -64 -154z" />
<glyph unicode="b" horiz-adv-x="1089" d="M20 1466v62q149 22 283 69h37v-675q36 41 100 77q94 54 191 54q157 0 256 -107q117 -131 117 -399q0 -304 -160 -459q-122 -117 -291 -117q-172 0 -274 109l-70 -109h-45v1422q0 9 -3 17t-7 12.5t-9.5 8.5t-9 6t-7.5 3l-5 2zM340 156q87 -103 199 -103q125 0 196 107 q76 119 76 368q0 227 -53 328q-57 107 -174 107q-89 0 -160 -68q-84 -79 -84 -193v-546z" />
<glyph unicode="c" horiz-adv-x="892" d="M86 479q0 124 32 237t93 189q64 79 145.5 113.5t190.5 34.5q124 0 196 -43q45 -28 71 -68.5t26 -83.5q0 -42 -29 -65t-72 -23q-35 0 -63 14v31q0 68 -41 113q-43 43 -107 43q-120 0 -186 -119q-63 -113 -63 -317q0 -207 63 -312q77 -129 223 -129q120 0 254 90l33 -61 q-66 -49 -152 -90q-135 -62 -231 -62q-89 0 -160.5 38.5t-118.5 99.5q-104 134 -104 370z" />
<glyph unicode="d" horiz-adv-x="1110" d="M86 494q0 248 113 397q121 162 319 162q145 0 232 -111v451q0 9 -3 17t-7 12.5t-9.5 8.5t-9 6t-7.5 3l-5 2l-103 24v62q149 22 283 69h37v-1421q0 -9 3 -17t7 -12.5t9.5 -8.5t9 -6t7.5 -4l5 -1l102 -25v-61q-142 -18 -283 -70h-16v109q-114 -109 -278 -109 q-197 0 -299 133q-107 136 -107 390zM279 481q0 -221 57 -319q59 -109 182 -109q73 0 133 40t99 93v504q0 37 -2.5 63t-14.5 62.5t-35 65.5q-61 77 -159 77q-117 0 -183 -100q-77 -117 -77 -377z" />
<glyph unicode="e" horiz-adv-x="946" d="M86 475q0 107 27 223t84 197q63 89 143 123.5t182 34.5q28 0 52 -2t56.5 -10t59.5 -22t56.5 -40t52.5 -61q34 -54 49.5 -129.5t15.5 -145.5v-51l-49 -53h-534q-2 -22 -2 -46q0 -54 11 -117q16 -91 52 -153q73 -129 223 -129q66 0 138.5 27t127.5 63l33 -61 q-61 -46 -155 -90q-135 -62 -240 -62q-89 0 -160.5 38.5t-118.5 99.5q-104 144 -104 366zM287 629h303q54 0 76 20q22 17 22 66q0 106 -33 168q-45 88 -143 88q-115 0 -174 -115q-47 -90 -51 -227z" />
<glyph unicode="f" horiz-adv-x="667" d="M41 913v111h164v133q0 218 160 350q110 90 253 90q49 0 82 -11.5t46.5 -30t18.5 -32.5t5 -28q0 -43 -37.5 -63.5t-83.5 -22.5q-2 35 -26 68q-34 39 -84 39q-73 0 -119 -58q-39 -50 -39 -139v-295h246v-111l-246 21v-799q0 -19 11 -32.5t30 -16.5l143 -25v-61h-504v61 l103 25l4 2q5 1 8.5 3t9 6t9.5 8.5t7 12.5t3 17v799z" />
<glyph unicode="g" horiz-adv-x="1073" d="M37 -248q0 90 84 158q60 51 149 90q-61 3 -105 40.5t-44 102.5q0 71 65 140q55 58 109 92q-154 98 -154 293q0 175 107 282q99 103 266 103q117 0 211 -60q63 6 162 29q78 19 133 45q24 -27 24 -68q0 -48 -28.5 -72t-77.5 -24q-29 0 -147 21q81 -98 81 -238 q0 -171 -108 -272q-102 -95 -262 -95q-74 0 -148 27q-78 -55 -78 -121q0 -38 26.5 -58t64.5 -20h346q153 0 211 -38q84 -51 84 -170q0 -92 -47.5 -177t-122.5 -141q-155 -113 -406 -113q-171 0 -278 62q-117 68 -117 182zM221 -236q0 -78 64 -124q65 -50 188 -50 q79 0 158 24.5t133 68.5q46 38 71 88.5t25 95.5q0 62 -39 98q-37 35 -135 35h-313q-41 -33 -88 -86q-20 -24 -32 -41.5t-22 -46.5t-10 -62zM326 682q0 -124 45 -193q55 -88 155 -88q82 0 125 78q37 68 37 197q0 139 -49 217q-50 78 -135 78q-88 0 -139 -90q-39 -80 -39 -199 z" />
<glyph unicode="h" horiz-adv-x="1146" d="M49 1466v62q149 22 283 69h37v-675q43 45 108 82q91 49 191 49q139 0 213 -74q36 -35 55.5 -86t23 -86.5t3.5 -83.5v-592q0 -39 41 -49l81 -21v-61h-421v61l81 21q41 10 41 49v592q0 40 -1.5 64.5t-10.5 59t-26 58.5q-44 58 -123 58q-98 0 -170 -72q-86 -83 -86 -189 v-571q0 -39 41 -49l82 -21v-61h-422v61l82 21q41 10 41 49v1262q0 9 -3 17t-7 12.5t-9.5 8.5t-9 6t-8.5 3l-4 2z" />
<glyph unicode="i" horiz-adv-x="561" d="M49 922v61q142 18 283 70h37v-922q0 -39 41 -49l82 -21v-61h-422v61l82 21q41 10 41 49v717q0 9 -3 17t-7 12.5t-9.5 8.5t-9 6t-8.5 4l-4 1zM156 1372q0 51 36 87t87 36t86.5 -36t35.5 -87t-35.5 -87t-86.5 -36t-87 36t-36 87z" />
<glyph unicode="j" horiz-adv-x="544" d="M-102 -420q0 72 49 105q40 -45 106 -45q65 0 97 41q43 48 43 182v985q0 9 -3 17t-7 12.5t-9.5 8.5t-9 6t-8.5 4l-4 1l-103 25v61q142 18 283 70h37v-977q0 -160 -59 -294t-152 -224q-82 -78 -166 -78q-45 0 -69.5 27.5t-24.5 72.5zM156 1372q0 51 36 87t87 36t86.5 -36 t35.5 -87t-35.5 -87t-86.5 -36t-87 36t-36 87z" />
<glyph unicode="k" d="M49 1466v62q149 22 283 69h37v-964q31 0 63.5 11t50.5 30l152 157q1 1 7 7.5t8 9t7 9t7 11t5 11t4 13.5t1 15q0 29 -24.5 44t-57.5 12v61h430v-61q-54 -4 -102 -21q-70 -25 -125 -80l-230 -229l389 -494q53 -67 131 -78v-61h-409v61l45 9q31 5 31 34q0 12 -19 41 l-282 375q-26 31 -58 31h-24v-420q0 -39 41 -49l82 -21v-61h-422v61l82 21q41 10 41 49v1262q0 9 -3 17t-7 12.5t-9.5 8.5t-9 6t-8.5 3l-4 2z" />
<glyph unicode="l" horiz-adv-x="561" d="M49 1466v62q149 22 283 69h37v-1466q0 -39 41 -49l82 -21v-61h-422v61l82 21q41 10 41 49v1262q0 9 -3 17t-7 12.5t-9.5 8.5t-9 6t-8.5 3l-4 2z" />
<glyph unicode="m" horiz-adv-x="1650" d="M49 922v61q142 18 283 70h16v-152q51 51 103 86q100 66 202 66q74 0 135 -35q67 -41 109 -117q49 53 102 90q94 62 195 62q55 0 109 -19.5t88 -54.5q75 -77 75 -256v-592q0 -39 41 -49l82 -21v-61h-422v61l82 21q41 10 41 49v592q0 130 -35 182q-40 58 -108 58 q-89 0 -158 -72q-71 -73 -71 -189v-571q0 -39 40 -49l82 -21v-61h-422v61l82 21q41 10 41 49v592q0 132 -34 182q-40 58 -109 58q-89 0 -158 -72q-71 -73 -71 -189v-571q0 -39 41 -49l82 -21v-61h-422v61l82 21q41 10 41 49v717q0 9 -3 17t-7 12.5t-9.5 8.5t-9 6t-8.5 4 l-4 1z" />
<glyph unicode="n" horiz-adv-x="1146" d="M49 922v61q142 18 283 70h16v-152q54 54 121 96q91 56 197 56q141 0 215 -74q82 -78 82 -256v-592q0 -39 41 -49l81 -21v-61h-421v61l81 21q41 10 41 49v592q0 40 -1.5 64.5t-10.5 59t-26 58.5q-44 58 -123 58q-104 0 -176 -72q-80 -76 -80 -189v-571q0 -39 41 -49 l82 -21v-61h-422v61l82 21q41 10 41 49v717q0 9 -3 17t-7 12.5t-9.5 8.5t-9 6t-8.5 4l-4 1z" />
<glyph unicode="o" d="M86 512q0 135 37.5 241.5t105.5 174.5q125 125 324 125t324 -125q68 -68 105.5 -174.5t37.5 -241.5t-37.5 -241.5t-105.5 -174.5q-125 -125 -324 -125t-324 125q-68 68 -105.5 174.5t-37.5 241.5zM279 512q0 -225 63 -334q36 -63 86 -94t125 -31t125 31t86 94 q63 109 63 334t-63 334q-36 63 -86 94t-125 31t-125 -31t-86 -94q-63 -109 -63 -334z" />
<glyph unicode="p" horiz-adv-x="1110" d="M49 -430l103 24l4 2q5 1 8.5 3t9 6t9.5 9t7 13t3 17v1204q0 9 -3 17t-7 12.5t-9.5 8.5t-9 6t-8.5 4l-4 1l-103 25v61q142 18 283 70h16v-152q45 57 107 96q86 56 194 56q165 0 262 -109q113 -130 113 -399q0 -305 -156 -457q-58 -57 -134.5 -87t-149.5 -30 q-47 0 -108 15.5t-107 54.5v-397q0 -19 11 -33t30 -17l143 -24v-62h-504v62zM369 147q85 -94 198 -94q127 0 195 107q69 111 69 344q0 94 -16 186t-47 148q-61 112 -190 112q-89 0 -146 -61q-63 -65 -63 -187v-555z" />
<glyph unicode="q" horiz-adv-x="1089" d="M86 498q0 253 111 395q53 70 139.5 115t202.5 45q165 0 266 -90l69 90h70q-26 -74 -26 -166v-1243q0 -8 2 -15t5.5 -12t7 -8.5t8 -6t7.5 -4.5t6 -3l4 -1l103 -24v-62h-504v62l143 24q19 3 30 17t11 33v448q-139 -121 -280 -121q-189 0 -289 168q-86 149 -86 359zM279 512 q0 -196 53 -311q63 -140 184 -140q100 0 225 138v544q0 118 -57 175q-53 53 -135 53q-132 0 -203 -123q-67 -123 -67 -336z" />
<glyph unicode="r" horiz-adv-x="798" d="M49 922v61q142 18 283 70h16v-193q41 74 96 123q81 70 179 70q65 0 100 -34t35 -87q0 -63 -48 -93q-26 -16 -54 -16q-24 0 -50 11q2 11 2 21q0 25 -12 45q-18 30 -57 30q-56 0 -111 -74q-59 -83 -59 -194v-531q0 -19 11 -32.5t30 -16.5l102 -21v-61h-442v61l82 21 q41 10 41 49v717q0 9 -3 17t-7 12.5t-9.5 8.5t-9 6t-8.5 4l-4 1z" />
<glyph unicode="s" horiz-adv-x="815" d="M74 307h69q22 -114 88 -180q74 -74 193 -74q75 0 123 39q47 41 47 107q0 36 -15.5 67t-31 46t-41.5 34l-254 178q-27 19 -45.5 35.5t-41.5 45.5t-35.5 68t-12.5 87q0 146 102 227q83 66 221 66q44 0 146 -21q14 -3 39 -8t43 -8.5t24 -5.5l17 -248h-70q-5 41 -24 85 t-46 71q-53 53 -145 53q-67 0 -113 -41q-47 -44 -47 -109q0 -47 27.5 -83t83.5 -76l248 -179q118 -84 118 -227t-112 -221q-87 -64 -232 -64q-32 0 -62 4t-43 7t-47.5 13.5t-41.5 12.5q-62 17 -99 25z" />
<glyph unicode="t" horiz-adv-x="675" d="M20 934v61q92 55 168 146q66 81 111 190h61q-15 -54 -26 -119q-15 -101 -15 -141v-47h275v-111l-275 21v-737q0 -103 78 -103q41 0 93 30.5t83 59.5l41 -61q-72 -59 -135 -94q-101 -58 -178 -58q-82 0 -125 66q-33 53 -33 160v737h-123z" />
<glyph unicode="u" horiz-adv-x="1146" d="M41 922v61q142 18 283 70h57q-21 -118 -21 -250v-537q0 -104 39 -151q42 -54 117 -54q50 0 100 23t86 59q84 84 84 209v496q0 9 -3 17t-7 12.5t-9.5 8.5t-9 6t-7.5 4l-5 1l-102 25v61q142 18 283 70h37v-877q0 -9 3 -17t7 -12.5t9.5 -8.5t9 -6t8.5 -4l4 -1l102 -25v-61 q-142 -18 -283 -70h-16v150q-65 -58 -125 -92q-104 -58 -207 -58q-159 0 -235 105q-56 78 -56 215v557q0 9 -3 17t-7 12.5t-9.5 8.5t-9 6t-7.5 4l-5 1z" />
<glyph unicode="v" horiz-adv-x="1003" d="M20 961v63h412v-61l-61 -13q-37 -7 -51.5 -22t-14.5 -41q0 -30 12 -60l218 -575h4l188 528q25 68 25 103q0 24 -12.5 40t-23.5 20.5t-22 6.5l-61 13v61h350v-61l-25 -7q-30 -6 -67 -47q-7 -7 -12 -14t-10 -15l-7.5 -12t-7 -15t-5.5 -13.5t-6.5 -16.5t-6.5 -16l-279 -715 q-24 -61 -35 -121h-69q-12 72 -33 121l-324 801q-25 61 -76 68z" />
<glyph unicode="w" horiz-adv-x="1474" d="M20 963v61h406v-61l-61 -13q-35 -7 -51.5 -18t-16.5 -39q0 -10 8 -43l170 -584h4l234 654q33 91 35 133h69q5 -53 27 -133l209 -654h4l166 541q16 51 16 84q0 46 -53 55l-80 17v61h348v-61l-37 -9q-50 -11 -92 -127l-256 -733q-24 -74 -27 -123h-69q-3 65 -23 123 l-215 631h-4l-242 -633q-24 -60 -30 -121h-70q-3 23 -7 41.5t-12 42.5t-10 31l-241 754q-14 49 -37 82q-22 32 -62 41z" />
<glyph unicode="x" horiz-adv-x="1044" d="M41 0v61q50 10 102 50q66 51 111 116l192 283l-180 305q-38 66 -98 105q-59 38 -127 43v61h451v-61q-30 0 -55 -14.5t-25 -43.5q0 -19 14 -43l127 -217l141 215q17 27 17 51q0 28 -31 35l-70 17v61h373v-61q-56 -4 -100 -25q-49 -22 -99 -94l-186 -275l219 -370 q39 -64 86 -97q43 -28 101 -41v-61h-443v61l70 17q24 5 31.5 13.5t7.5 21.5t-17 47l-159 270l-150 -225q-29 -44 -29 -72q0 -20 12.5 -35.5t32.5 -19.5l70 -17v-61h-389z" />
<glyph unicode="y" horiz-adv-x="1003" d="M20 -408q0 34 20.5 66.5t57.5 50.5q47 -57 117 -57q67 0 113 59q24 32 50 80t38 84l43 125l-348 895q-13 31 -29 43q-25 22 -62 25v61h418v-61l-67 -9q-60 -8 -60 -63q0 -31 19 -82l223 -569h4l176 534q3 9 8 25t7.5 25t5 22t2.5 24q0 33 -18 56.5t-48 27.5l-51 9v61h344 v-61q-57 -19 -92 -68q-34 -45 -62 -127l-340 -936q-57 -156 -131 -248q-86 -104 -206 -104q-61 0 -96.5 31t-35.5 81z" />
<glyph unicode="z" horiz-adv-x="901" d="M41 0v61q57 41 100 111l473 762h-274q-56 0 -96 -27q-37 -25 -64 -94l-28 -76h-70l31 287h723v-61q-46 -49 -99 -136l-452 -737h338q47 0 79 27q33 25 46 57l43 113h69l-47 -287h-772z" />
<glyph unicode="{" horiz-adv-x="778" d="M123 481v62q97 6 147 102q43 82 43 246q0 57 -5 140.5t-5 127.5q0 204 135 307q91 72 217 78v-61q-69 -10 -112 -64q-47 -56 -47 -157q0 -80 5 -161t5 -147q0 -92 -17.5 -166.5t-68.5 -140.5q-73 -93 -191 -135q118 -42 191 -135q51 -66 68.5 -140.5t17.5 -166.5 q0 -66 -5 -147t-5 -161q0 -101 47 -157q43 -54 112 -64v-61q-126 6 -217 78q-135 103 -135 307q0 44 5 127.5t5 140.5q0 164 -43 246q-50 96 -147 102z" />
<glyph unicode="|" horiz-adv-x="520" d="M205 -492v2089h110v-2089h-110z" />
<glyph unicode="}" horiz-adv-x="778" d="M123 -459q70 10 113 64q47 56 47 157q0 80 -5.5 161t-5.5 147q0 92 17.5 166.5t68.5 140.5q73 93 191 135q-118 42 -191 135q-51 66 -68.5 140.5t-17.5 166.5q0 66 5.5 147t5.5 161q0 101 -47 157q-43 54 -113 64v61q126 -6 217 -78q135 -103 135 -307q0 -44 -5 -127.5 t-5 -140.5q0 -164 43 -246q50 -96 147 -102v-62q-97 -6 -147 -102q-43 -82 -43 -246q0 -57 5 -140.5t5 -127.5q0 -204 -135 -307q-91 -72 -217 -78v61z" />
<glyph unicode="~" horiz-adv-x="1269" d="M143 492q22 81 68 149q84 129 221 129q42 0 95.5 -13.5t82 -24.5t43.5 -19l66 -31q119 -55 170 -55q63 0 110 57q26 32 37 66h90q-24 -85 -67 -150q-84 -129 -221 -129q-42 0 -95.5 13.5t-82.5 24.5t-44 19l-65 31q-119 55 -170 55q-64 0 -111 -57q-26 -33 -37 -65h-90z " />
<glyph unicode="&#xa2;" d="M156 684q0 124 36 237t105 189q50 56 132 99.5t194 47.5l8 164h69l-8 -164q112 0 191 -43q100 -55 100 -151q0 -42 -29 -65t-71 -23q-36 0 -64 14v31q0 70 -45 113q-37 34 -86 41l-43 -875q81 2 156 23q81 23 153 67l37 -61q-66 -50 -143 -90q-109 -54 -209 -62l-8 -176 h-70l8 176q-96 5 -170.5 44.5t-122.5 92.5q-120 136 -120 371zM348 725q0 -188 66 -299q60 -101 161 -123l43 871q-118 -12 -190 -117q-80 -115 -80 -332z" />
<glyph unicode="&#xa3;" d="M33 49q31 10 75 32.5t66 41.5q37 33 48 78t11 114v406l-188 -21v111h188v199q0 209 129 336q116 116 310 116q132 0 243 -57q55 -30 86 -70.5t31 -79.5q0 -40 -33.5 -76t-91.5 -40q-26 84 -90 153q-81 88 -178 88q-113 0 -170 -106q-43 -82 -43 -264v-199h344v-111 l-344 21v-211q0 -112 -43 -217q-37 -84 -86 -141l2 -5q146 58 252 58q79 0 158 -33q11 -5 39.5 -17t38.5 -15.5t27 -8t30 -4.5q45 0 90.5 27t77.5 65l53 -49q-59 -71 -102 -111q-99 -88 -193 -88q-24 0 -52 7t-77.5 24.5t-81.5 26.5q-108 32 -192 32q-160 0 -289 -90z" />
<glyph unicode="&#xa5;" d="M0 1372v62h483v-62l-75 -10q-22 -4 -42 -21t-20 -45q0 -20 23 -67l225 -443l188 379q41 80 41 119q0 31 -22.5 52t-57.5 26l-79 10v62h442v-62l-45 -14q-41 -12 -80.5 -56t-67.5 -98l-251 -499h323v-82h-348v-172h348v-82h-348v-205q0 -61 45 -70l160 -33v-61h-586v61 l160 33q45 9 45 70v205h-348v82h348v172h-348v82h323l-282 536q-52 95 -115 117z" />
<glyph unicode="&#xa8;" horiz-adv-x="942" d="M172 1372q0 46 34.5 80.5t80.5 34.5t80 -34.5t34 -80.5t-34 -80.5t-80 -34.5t-80.5 34.5t-34.5 80.5zM541 1372q0 46 34 80.5t80 34.5t80.5 -34.5t34.5 -80.5t-34.5 -80.5t-80.5 -34.5t-80 34.5t-34 80.5z" />
<glyph unicode="&#xa9;" horiz-adv-x="1761" d="M123 717q0 152 59.5 290t160.5 237.5t242 158.5t296 59t295.5 -59t241.5 -158.5t160.5 -237.5t59.5 -290q0 -203 -100.5 -374.5t-275 -271.5t-381.5 -100q-155 0 -296 59t-242 159t-160.5 238t-59.5 290zM213 717q0 -182 89 -334.5t242.5 -241t336.5 -88.5 q137 0 260.5 52.5t212.5 141t141.5 211.5t52.5 259t-52.5 259t-141.5 211.5t-212.5 140.5t-260.5 52t-260.5 -52t-213 -140.5t-142 -211.5t-52.5 -259zM438 713q0 228 156 354q122 100 311 100q95 0 166 -18q11 -2 31 -7.5t38.5 -9t43.5 -6.5l28 -225h-57l-35 84 q-8 19 -26.5 40.5t-38.5 33.5q-52 35 -152 35q-123 0 -201 -84q-88 -97 -88 -277q0 -150 62 -252q25 -41 57 -69t65 -41t58.5 -18t50.5 -5q91 0 156 41q24 15 45.5 36t28.5 40l30 74h58l-35 -209q-43 -6 -107 -23q-135 -33 -211 -33q-90 0 -175.5 33.5t-147.5 98.5 q-111 116 -111 307z" />
<glyph unicode="&#xab;" d="M123 532l622 472l46 -41l-402 -431l402 -430l-46 -41zM555 532l387 338l41 -36l-235 -302l235 -301l-41 -36z" />
<glyph unicode="&#xad;" horiz-adv-x="819" d="M143 532v164h533v-164h-533z" />
<glyph unicode="&#xae;" horiz-adv-x="1761" d="M123 717q0 152 59.5 290t160.5 237.5t242 158.5t296 59t295.5 -59t241.5 -158.5t160.5 -237.5t59.5 -290q0 -203 -100.5 -374.5t-275 -271.5t-381.5 -100q-155 0 -296 59t-242 159t-160.5 238t-59.5 290zM213 717q0 -182 89 -334.5t242.5 -241t336.5 -88.5 q137 0 260.5 52.5t212.5 141t141.5 211.5t52.5 259t-52.5 259t-141.5 211.5t-212.5 140.5t-260.5 52t-260.5 -52t-213 -140.5t-142 -211.5t-52.5 -259zM506 287v49l90 18q11 3 16.5 5.5t11 12t5.5 25.5v639q0 16 -5.5 25.5t-11 12t-16.5 5.5l-90 19v49h213q51 0 104 6t99 6 q129 0 206 -53q91 -65 91 -168q0 -100 -89 -166q-73 -54 -176 -65v-5q73 -24 117 -100l127 -225q21 -41 66 -41v-49h-187l-207 362q-12 20 -35.5 32.5t-48.5 12.5h-10v-297q0 -16 5.5 -25.5t11 -12t16.5 -5.5l90 -18v-49h-393zM776 770q44 -12 92 -12q37 0 82 14.5t72 40.5 q49 46 49 125q0 67 -47 111q-43 41 -131 41q-62 0 -117 -19v-301z" />
<glyph unicode="&#xb4;" horiz-adv-x="942" d="M369 1208v21l204 287h226v-50l-348 -258h-82z" />
<glyph unicode="&#xb8;" horiz-adv-x="942" d="M328 -492l20 74h49q105 0 154 21q63 30 63 88q0 47 -34 71q-32 25 -103 25h-71l63 213h70l-35 -123h49q106 0 162 -39q63 -40 63 -131q0 -99 -96 -153q-52 -29 -114 -37.5t-156 -8.5h-84z" />
<glyph unicode="&#xbb;" d="M123 231l235 301l-235 302l41 36l387 -338l-387 -337zM315 102l402 430l-402 431l45 41l623 -472l-623 -471z" />
<glyph unicode="&#x2c6;" horiz-adv-x="942" d="M102 1208v21l287 287h164l287 -287v-21h-99l-270 176l-270 -176h-99z" />
<glyph unicode="&#x2da;" horiz-adv-x="942" d="M246 1372q0 45 19 86.5t48 67.5q60 51 158 51t158 -51q29 -26 48 -67.5t19 -86.5t-19 -86t-48 -67q-61 -52 -158 -52t-158 52q-29 26 -48 67t-19 86zM340 1372q0 -60 33 -96q35 -39 98 -39t98 39q33 36 33 96t-33 96q-35 39 -98 39t-98 -39q-33 -36 -33 -96z" />
<glyph unicode="&#x2dc;" horiz-adv-x="942" d="M131 1311q31 74 88 125q53 47 123 47q61 0 170 -53q76 -37 119 -37q39 0 74 30q25 22 45 60l61 -41q-31 -74 -88 -125q-53 -47 -123 -47q-61 0 -170 53q-76 37 -119 37q-37 0 -73 -31q-26 -23 -45 -59z" />
<glyph unicode="&#x401;" horiz-adv-x="1228" d="M82 0v70l139 32q6 1 12.5 4.5t14.5 10.5t13 21.5t5 33.5v1090q0 25 -9.5 41.5t-18 21.5t-17.5 6l-139 33v70h1028v-328h-82l-27 127q-9 42 -43 65q-38 25 -106 25h-381v-516h270q51 0 82 31q24 28 31 69l10 76h82v-471h-82l-12 92q-7 42 -29 64q-26 28 -82 28h-270v-532 q0 -22 15 -37.5t38 -15.5h310q74 0 120 34q35 26 58 80l53 133h82l-57 -358h-1008zM354 1679q0 51 36 87t87 36t87 -36t36 -87t-36 -87t-87 -36t-87 36t-36 87zM723 1679q0 51 36 87t87 36t87 -36t36 -87t-36 -87t-87 -36t-87 36t-36 87z" />
<glyph unicode="&#x402;" horiz-adv-x="1597" d="M61 1106v328h1188v-328h-82l-26 127q-7 43 -43 65q-36 25 -107 25h-233v-586q164 62 329 62q235 0 340 -129q89 -111 89 -281q0 -102 -31 -189t-88 -139q-96 -90 -279 -90q-124 0 -186 37q-72 45 -72 123q0 54 35 80.5t80 26.5q34 0 69 -21q-3 -55 17 -94q25 -53 90 -53 q72 0 111 75q36 66 36 211q0 198 -63 273q-59 71 -180 71q-159 0 -297 -77v-623h-389v70l139 32q6 1 12.5 4.5t14.5 10.5t13 21.5t5 33.5v1151h-234q-70 0 -106 -25q-36 -22 -43 -65l-27 -127h-82z" />
<glyph unicode="&#x403;" horiz-adv-x="1146" d="M82 0v70l139 32q6 1 12.5 4.5t14.5 10.5t13 21.5t5 33.5v1090q0 25 -9.5 41.5t-18 21.5t-17.5 6l-139 33v70h1003v-328h-81l-27 127q-9 42 -43 65q-38 25 -107 25h-356v-1151q0 -61 45 -70l160 -32v-70h-594zM492 1556v21l266 266h246v-61l-422 -226h-90z" />
<glyph unicode="&#x404;" horiz-adv-x="1363" d="M106 700q0 193 65 344t173 250q189 168 483 168q124 0 263 -22q140 -24 174 -27l18 -328h-82l-24 95q-20 80 -109 133q-87 51 -244 51q-223 0 -350 -147q-71 -82 -111 -200.5t-38 -238.5h467q47 0 81 31q27 27 31 70l10 75h82v-471h-82l-12 92q-7 42 -29 64 q-27 29 -81 29h-467q5 -93 31.5 -190.5t70.5 -174.5q41 -72 95.5 -122t110 -72t98.5 -30.5t85 -8.5q147 0 256 75q14 10 31.5 25t43 48.5t36.5 68.5l39 123h82l-41 -349q-27 -4 -52 -9t-37 -8t-42.5 -12t-40.5 -12q-166 -49 -326 -49q-155 0 -274 50t-214 165 q-170 203 -170 514z" />
<glyph unicode="&#x405;" horiz-adv-x="1064" d="M102 61v349h82l17 -86q18 -104 75 -164q38 -41 102 -65.5t132 -24.5q138 0 221 73q88 78 88 199q0 43 -13.5 80t-30.5 60.5t-45.5 46.5t-44.5 32t-42 23l-258 129q-40 20 -70 38.5t-64.5 49.5t-56.5 66.5t-36.5 87t-14.5 112.5q0 107 38 190t102 129q105 76 290 76 q34 0 65.5 -3t50 -7t46 -10t39.5 -8q111 -19 131 -21v-328h-82l-16 84q-6 32 -25 68.5t-43 60.5q-63 66 -176 66q-101 0 -164 -41q-96 -62 -96 -199q0 -132 146 -206l249 -127q32 -16 47 -24t50.5 -30.5t55.5 -41t49 -50.5t44.5 -65t27 -78.5t11.5 -95.5q0 -209 -145 -328 q-130 -107 -324 -107q-133 0 -285 58q-84 29 -127 32z" />
<glyph unicode="&#x406;" horiz-adv-x="737" d="M82 0v70l139 32q6 1 12.5 4.5t14.5 10.5t13 21.5t5 33.5v1090q0 25 -9.5 41.5t-18 21.5t-17.5 6l-139 33v70h573v-70l-139 -33q-9 -1 -17.5 -6t-18 -21.5t-9.5 -41.5v-1090q0 -36 15 -51.5t30 -18.5l139 -32v-70h-573z" />
<glyph unicode="&#x407;" horiz-adv-x="737" d="M82 0v70l139 32q6 1 12.5 4.5t14.5 10.5t13 21.5t5 33.5v1090q0 25 -9.5 41.5t-18 21.5t-17.5 6l-139 33v70h573v-70l-139 -33q-9 -1 -17.5 -6t-18 -21.5t-9.5 -41.5v-1090q0 -36 15 -51.5t30 -18.5l139 -32v-70h-573zM82 1679q0 51 36 87t87 36t87 -36t36 -87t-36 -87 t-87 -36t-87 36t-36 87zM410 1679q0 51 35.5 87t86.5 36t87 -36t36 -87t-36 -87t-87 -36t-86.5 36t-35.5 87z" />
<glyph unicode="&#x408;" horiz-adv-x="778" d="M-164 -381q0 66 58 107.5t139 -0.5q7 -34 34 -53t64 -19q77 0 127 76q49 75 49 209v1323q0 62 -45 69l-180 33v70h614v-70l-139 -33q-9 -1 -17.5 -6t-18 -21.5t-9.5 -41.5v-1186q0 -137 -65.5 -269.5t-172.5 -222.5q-125 -104 -264 -104q-85 0 -129.5 41.5t-44.5 97.5z " />
<glyph unicode="&#x409;" horiz-adv-x="2007" d="M41 98q0 51 29 87t84 36q27 0 55 -14q2 -21 15 -34t34 -13q57 0 84 84q53 141 90 528q23 253 23 395q0 90 -25 125q-12 16 -29 26.5t-26.5 13t-30.5 7.5l-119 25v70h1127v-70l-140 -33q-9 -1 -17.5 -6t-18 -21.5t-9.5 -41.5v-463q123 20 238 20q233 0 371 -106 q149 -115 149 -303q0 -184 -135 -297q-65 -54 -166.5 -83.5t-202.5 -29.5h-643v70l140 32q6 1 12.5 4.5t14.5 10.5t13 21.5t5 33.5v1151h-258q-53 0 -84 -39q-21 -27 -29.5 -82t-17.5 -188q0 -10 -0.5 -15.5t-1 -14.5t-1.5 -17q-15 -217 -45 -443q-40 -294 -112 -415 q-80 -138 -224 -138q-67 0 -106 31q-43 30 -43 96zM1167 139q87 -41 191 -41q164 0 254 80q96 83 96 234q0 147 -96 233q-86 76 -238 76q-99 0 -207 -33v-549z" />
<glyph unicode="&#x40a;" horiz-adv-x="2170" d="M82 0v70l139 32q6 1 12.5 4.5t14.5 10.5t13 21.5t5 33.5v1090q0 25 -9.5 41.5t-18 21.5t-17.5 6l-139 33v70h573v-70l-139 -33q-9 -1 -17.5 -6t-18 -21.5t-9.5 -41.5v-447h655v447q0 25 -9.5 41.5t-18 21.5t-17.5 6l-139 33v70h574v-70l-140 -33q-9 -1 -17.5 -6 t-18 -21.5t-9.5 -41.5v-463q123 20 238 20q232 0 370 -106q150 -116 150 -303q0 -184 -135 -297q-65 -54 -166.5 -83.5t-202.5 -29.5h-643v70l139 32q6 1 12.5 4.5t14.5 10.5t13 21.5t5 33.5v533h-655v-533q0 -36 15 -51.5t30 -18.5l139 -32v-70h-573zM1331 139 q87 -41 191 -41q164 0 254 80q96 83 96 234q0 147 -96 233q-86 76 -238 76q-99 0 -207 -33v-549z" />
<glyph unicode="&#x40b;" horiz-adv-x="1720" d="M61 1106v328h1188v-328h-82l-26 127q-7 43 -43 65q-36 25 -107 25h-233v-586q162 62 344 62q204 0 301 -72q92 -67 92 -201v-354q0 -36 15 -51.5t30 -18.5l139 -32v-70h-573v70l139 32q6 1 12.5 4.5t14.5 10.5t13 21.5t5 33.5v340q0 29 -2 48t-13 45.5t-32 45.5 q-53 49 -168 49q-172 0 -317 -77v-451q0 -36 15 -51.5t30 -18.5l139 -32v-70h-573v70l139 32q6 1 12.5 4.5t14.5 10.5t13 21.5t5 33.5v1151h-234q-70 0 -106 -25q-36 -22 -43 -65l-27 -127h-82z" />
<glyph unicode="&#x40c;" horiz-adv-x="1433" d="M82 0v70l139 32q6 1 12.5 4.5t14.5 10.5t13 21.5t5 33.5v1090q0 25 -9.5 41.5t-18 21.5t-17.5 6l-139 33v70h573v-70l-139 -33q-9 -1 -17.5 -6t-18 -21.5t-9.5 -41.5v-467h84q81 0 123 32q47 34 92 136l104 243q3 6 15 34t19 42t19.5 37.5t26 41.5t29.5 34q67 67 156 67 q71 0 115 -38t44 -103q0 -60 -44 -98.5t-101 -14.5q-1 26 -19 40t-44 14q-44 0 -78 -43q-28 -37 -54 -101l-84 -200q-28 -65 -61.5 -108.5t-89.5 -68.5v-4q70 -6 131 -41q62 -37 113 -129l196 -372q10 -18 18.5 -30.5t24.5 -29t38 -25t50 -8.5q57 0 99 31v-82 q-49 -34 -82 -49q-71 -31 -140 -31q-55 0 -102 29q-22 13 -47 42.5t-39 55.5l-219 422q-44 83 -78 117q-47 47 -113 47h-102v-512q0 -36 15 -51.5t30 -18.5l139 -32v-70h-573zM655 1556v21l267 266h245v-61l-422 -226h-90z" />
<glyph unicode="&#x40e;" horiz-adv-x="1380" d="M41 1364v70h520v-70l-78 -12q-55 -9 -55 -56q0 -23 25 -75l321 -648l219 500q24 56 34 79.5t20 56t10 53.5q0 66 -74 81l-90 21v70h446v-70q-43 -10 -77 -33q-46 -34 -74 -96l-473 -1012q-19 -41 -30.5 -63.5t-33.5 -55t-49 -59.5q-71 -74 -172 -74q-69 0 -113 33 q-51 39 -51 109q0 71 55 108t117 10q1 -32 22.5 -51.5t53.5 -19.5q43 0 72 29t43 61l41 86l-465 901q-17 35 -49 69.5t-80 47.5zM377 1749q0 45 31.5 69.5t74.5 24.5q42 0 78 -31q-4 -65 23 -110q16 -27 54 -45.5t99 -18.5t99.5 18.5t54.5 45.5q26 44 22 110q36 31 78 31 q43 0 75 -24.5t32 -69.5q0 -50 -25.5 -82.5t-73.5 -58.5q-64 -33 -125 -42.5t-137 -9.5q-49 0 -83 2.5t-84 14.5t-95 35q-48 26 -73 58.5t-25 82.5z" />
<glyph unicode="&#x40f;" horiz-adv-x="1576" d="M82 0v70l139 32q6 1 12.5 4.5t14.5 10.5t13 21.5t5 33.5v1090q0 25 -9.5 41.5t-18 21.5t-17.5 6l-139 33v70h573v-70l-139 -33q-9 -1 -17.5 -6t-18 -21.5t-9.5 -41.5v-1151h635v1151q0 25 -9.5 41.5t-18 21.5t-17.5 6l-139 33v70h573v-70l-139 -33q-9 -1 -17.5 -6 t-18 -21.5t-9.5 -41.5v-1090q0 -36 15 -51.5t30 -18.5l139 -32v-70h-657l63 -418q0 -45 -31 -73.5t-82 -28.5q-50 0 -81 28.5t-31 73.5l63 418h-657z" />
<glyph unicode="&#x410;" horiz-adv-x="1454" d="M41 0v70l43 12q42 13 82 47q29 29 51 84l432 1149q23 61 31 100h86q8 -41 31 -100l471 -1172q23 -55 59 -84q38 -31 86 -36v-70h-498v70l103 20q43 11 43 51q0 16 -14 49l-127 330h-463l-113 -323q-12 -37 -12 -58q0 -15 9.5 -30t29.5 -19l88 -20v-70h-418zM500 631h381 l-195 520h-4z" />
<glyph unicode="&#x411;" horiz-adv-x="1310" d="M82 0v70l139 32q6 1 12.5 4.5t14.5 10.5t13 21.5t5 33.5v1090q0 25 -9.5 41.5t-18 21.5t-17.5 6l-139 33v70h1044v-328h-82l-26 127q-9 42 -43 65q-37 25 -107 25h-397v-504q133 21 238 21q229 0 370 -111q150 -122 150 -311q0 -190 -135 -303q-67 -55 -167 -85t-202 -30 h-643zM471 139q90 -41 191 -41q163 0 253 82q97 86 97 240q0 75 -27 139.5t-70 104.5q-85 77 -237 77q-99 0 -207 -32v-570z" />
<glyph unicode="&#x412;" horiz-adv-x="1331" d="M82 0v70l139 32q6 1 12.5 4.5t14.5 10.5t13 21.5t5 33.5v1090q0 25 -9.5 41.5t-18 21.5t-17.5 6l-139 33v70h262q98 0 199 8q159 12 196 12q209 0 310 -94q46 -43 72 -107.5t26 -136.5q0 -122 -78 -213q-32 -36 -79.5 -64.5t-92.5 -43.5v-4q124 -18 213 -93 q119 -102 119 -280q0 -194 -135 -303q-67 -55 -167 -85t-202 -30h-643zM471 135q81 -37 182 -37q182 0 277 97q82 82 82 219q0 142 -72 223q-81 88 -244 88h-225v-590zM471 827h145q160 0 242 76q84 77 84 201q0 117 -70 184q-70 68 -213 68q-93 0 -188 -31v-498z" />
<glyph unicode="&#x413;" horiz-adv-x="1146" d="M82 0v70l139 32q6 1 12.5 4.5t14.5 10.5t13 21.5t5 33.5v1090q0 25 -9.5 41.5t-18 21.5t-17.5 6l-139 33v70h1003v-328h-81l-27 127q-9 42 -43 65q-38 25 -107 25h-356v-1151q0 -61 45 -70l160 -32v-70h-594z" />
<glyph unicode="&#x414;" horiz-adv-x="1433" d="M61 111h37q47 0 109 73q88 105 158 340q41 144 65.5 321.5t24.5 328.5q0 48 -8 79.5t-24.5 48.5t-33.5 24.5t-45 12.5l-119 25v70h1127v-70l-140 -33q-9 -1 -17.5 -6t-18 -21.5t-9.5 -41.5v-1098q0 -22 15.5 -37.5t38.5 -15.5h131v-459h-82l-31 176q-13 90 -55 129 q-45 43 -140 43h-675q-95 0 -140 -43q-42 -39 -55 -129l-31 -176h-82v459zM315 111h648v1212h-254q-51 0 -84 -39q-7 -8 -12.5 -19t-9.5 -21.5t-8 -28.5t-6 -31t-5.5 -40t-5 -44t-5.5 -53.5t-6 -59.5q-29 -289 -92 -508q-60 -207 -160 -368z" />
<glyph unicode="&#x415;" horiz-adv-x="1228" d="M82 0v70l139 32q6 1 12.5 4.5t14.5 10.5t13 21.5t5 33.5v1090q0 25 -9.5 41.5t-18 21.5t-17.5 6l-139 33v70h1028v-328h-82l-27 127q-9 42 -43 65q-38 25 -106 25h-381v-516h270q51 0 82 31q24 28 31 69l10 76h82v-471h-82l-12 92q-7 42 -29 64q-26 28 -82 28h-270v-532 q0 -22 15 -37.5t38 -15.5h310q74 0 120 34q35 26 58 80l53 133h82l-57 -358h-1008z" />
<glyph unicode="&#x416;" horiz-adv-x="2007" d="M41 51v82q46 -31 98 -31q30 0 52 9t36.5 26t20.5 28.5t14 29.5l148 342q23 52 49.5 88t68.5 63q61 41 134 49v4q-49 21 -81 61t-44 75l-91 241q-21 65 -49 107q-28 45 -73 45q-27 0 -43.5 -14.5t-16.5 -38.5q-58 -24 -101.5 11t-43.5 93q0 65 44 103t113 38q86 0 150 -67 q9 -9 16.5 -18.5t15.5 -22t13.5 -20.5t12.5 -23.5t10.5 -21.5t10.5 -24t8.5 -21t8.5 -22l8 -20l109 -284q23 -60 70 -91q46 -32 118 -32h74v467q0 25 -9.5 41.5t-18 21.5t-17.5 6l-139 33v70h573v-70l-139 -33q-9 -1 -17.5 -6t-18 -21.5t-9.5 -41.5v-467h74q72 0 118 32 q47 31 70 91l109 284l7 20q8 19 9.5 22t8.5 21t10.5 24t10.5 21.5t12.5 23.5t13.5 20.5t15.5 22t16.5 18.5q64 67 150 67q69 0 113 -38t44 -103q0 -58 -43.5 -93t-101.5 -11q0 24 -16.5 38.5t-43.5 14.5q-45 0 -73 -45q-28 -42 -49 -107l-91 -241q-12 -36 -43.5 -75.5 t-80.5 -60.5v-4q72 -8 133 -49q42 -27 68.5 -63t49.5 -88l148 -342q8 -18 14 -29.5t20.5 -28.5t36.5 -26t52 -9q52 0 98 31v-82q-49 -34 -82 -49q-67 -31 -133 -31q-63 0 -109 27q-48 29 -77 100l-183 422q-38 82 -75 117q-47 47 -119 47h-82v-512q0 -36 15 -51.5t30 -18.5 l139 -32v-70h-573v70l139 32q6 1 12.5 4.5t14.5 10.5t13 21.5t5 33.5v512h-82q-72 0 -119 -47q-37 -35 -75 -117l-183 -422q-29 -71 -77 -100q-47 -27 -109 -27q-66 0 -133 31q-33 15 -82 49z" />
<glyph unicode="&#x417;" d="M61 61v349h82l25 -105q26 -115 108 -178q72 -53 185 -53q132 0 223 78q102 87 102 256q0 160 -96 245q-82 72 -219 72q-70 0 -131 -20v122h123q143 0 217 74t74 207q0 116 -68 182q-72 70 -209 70q-94 0 -149 -33q-83 -46 -109 -151l-22 -91h-82v328q111 14 161 23 q8 1 32.5 5.5t35.5 6.5t33.5 5.5t39.5 5t40.5 2.5t48.5 1q222 0 336 -92q116 -95 116 -248q0 -132 -86 -221q-70 -74 -176 -106v-4q106 -20 183 -86q125 -108 125 -291q0 -220 -173 -344q-69 -48 -168 -73.5t-208 -25.5q-128 0 -240 41q-10 4 -29.5 12.5t-28.5 11.5t-25 8.5 t-33 9.5t-38 7z" />
<glyph unicode="&#x418;" horiz-adv-x="1638" d="M82 0v70l139 32q6 1 12.5 4.5t14.5 10.5t13 21.5t5 33.5v1090q0 25 -9.5 41.5t-18 21.5t-17.5 6l-139 33v70h573v-70l-139 -33q-9 -1 -17.5 -6t-18 -21.5t-9.5 -41.5v-889l696 864v25q0 25 -9.5 41.5t-18 21.5t-17.5 6l-139 33v70h573v-70l-139 -33q-9 -1 -17.5 -6 t-18 -21.5t-9.5 -41.5v-1090q0 -36 15 -51.5t30 -18.5l139 -32v-70h-573v70l139 32q6 1 12.5 4.5t14.5 10.5t13 21.5t5 33.5v901l-696 -864v-37q0 -36 15 -51.5t30 -18.5l139 -32v-70h-573z" />
<glyph unicode="&#x419;" horiz-adv-x="1638" d="M82 0v70l139 32q6 1 12.5 4.5t14.5 10.5t13 21.5t5 33.5v1090q0 25 -9.5 41.5t-18 21.5t-17.5 6l-139 33v70h573v-70l-139 -33q-9 -1 -17.5 -6t-18 -21.5t-9.5 -41.5v-889l696 864v25q0 25 -9.5 41.5t-18 21.5t-17.5 6l-139 33v70h573v-70l-139 -33q-9 -1 -17.5 -6 t-18 -21.5t-9.5 -41.5v-1090q0 -36 15 -51.5t30 -18.5l139 -32v-70h-573v70l139 32q6 1 12.5 4.5t14.5 10.5t13 21.5t5 33.5v901l-696 -864v-37q0 -36 15 -51.5t30 -18.5l139 -32v-70h-573zM459 1749q0 45 31.5 69.5t74.5 24.5q42 0 78 -31q-4 -65 23 -110q16 -27 54 -45.5 t99 -18.5t99.5 18.5t54.5 45.5q26 44 22 110q36 31 78 31q43 0 75 -24.5t32 -69.5q0 -50 -25.5 -82.5t-73.5 -58.5q-64 -33 -125 -42.5t-137 -9.5q-49 0 -83 2.5t-84 14.5t-95 35q-48 26 -73 58.5t-25 82.5z" />
<glyph unicode="&#x41a;" horiz-adv-x="1433" d="M82 0v70l139 32q6 1 12.5 4.5t14.5 10.5t13 21.5t5 33.5v1090q0 25 -9.5 41.5t-18 21.5t-17.5 6l-139 33v70h573v-70l-139 -33q-9 -1 -17.5 -6t-18 -21.5t-9.5 -41.5v-467h84q81 0 123 32q47 34 92 136l104 243q3 6 15 34t19 42t19.5 37.5t26 41.5t29.5 34q67 67 156 67 q71 0 115 -38t44 -103q0 -60 -44 -98.5t-101 -14.5q-1 26 -19 40t-44 14q-44 0 -78 -43q-28 -37 -54 -101l-84 -200q-28 -65 -61.5 -108.5t-89.5 -68.5v-4q70 -6 131 -41q62 -37 113 -129l196 -372q10 -18 18.5 -30.5t24.5 -29t38 -25t50 -8.5q57 0 99 31v-82 q-49 -34 -82 -49q-71 -31 -140 -31q-55 0 -102 29q-22 13 -47 42.5t-39 55.5l-219 422q-44 83 -78 117q-47 47 -113 47h-102v-512q0 -36 15 -51.5t30 -18.5l139 -32v-70h-573z" />
<glyph unicode="&#x41b;" horiz-adv-x="1433" d="M41 98q0 51 29 87t84 36q27 0 55 -14q2 -21 15 -34t34 -13q57 0 84 84q53 141 90 528q23 253 23 395q0 90 -25 125q-12 16 -29 26.5t-26.5 13t-30.5 7.5l-119 25v70h1127v-70l-140 -33q-9 -1 -17.5 -6t-18 -21.5t-9.5 -41.5v-1090q0 -36 15 -51.5t30 -18.5l140 -32v-70 h-574v70l140 32q6 1 12.5 4.5t14.5 10.5t13 21.5t5 33.5v1151h-258q-53 0 -84 -39q-21 -27 -29.5 -82t-17.5 -188q0 -10 -0.5 -15.5t-1 -14.5t-1.5 -17q-15 -217 -45 -443q-40 -294 -112 -415q-80 -138 -224 -138q-67 0 -106 31q-43 30 -43 96z" />
<glyph unicode="&#x41c;" horiz-adv-x="1884" d="M82 0v70l119 32q45 13 45 70l41 1090q1 27 -11 45.5t-34 23.5l-140 33v70h385q2 -18 5.5 -36t5.5 -28.5t8 -28t7.5 -22t9.5 -24t9 -21.5l400 -969h4l424 969q42 100 45 160h360v-70l-139 -33q-48 -9 -45 -69l37 -1090q0 -59 45 -70l139 -32v-70h-573v70l139 32 q45 10 45 70l-22 903h-5l-419 -977q-30 -70 -37 -127h-82q-7 57 -37 127l-416 977h-4l-26 -903q-3 -61 45 -70l139 -32v-70h-467z" />
<glyph unicode="&#x41d;" horiz-adv-x="1597" d="M82 0v70l139 32q6 1 12.5 4.5t14.5 10.5t13 21.5t5 33.5v1090q0 25 -9.5 41.5t-18 21.5t-17.5 6l-139 33v70h573v-70l-139 -33q-9 -1 -17.5 -6t-18 -21.5t-9.5 -41.5v-447h655v447q0 25 -9.5 41.5t-18 21.5t-17.5 6l-139 33v70h574v-70l-140 -33q-9 -1 -17.5 -6 t-18 -21.5t-9.5 -41.5v-1090q0 -36 15 -51.5t30 -18.5l140 -32v-70h-574v70l139 32q6 1 12.5 4.5t14.5 10.5t13 21.5t5 33.5v533h-655v-533q0 -36 15 -51.5t30 -18.5l139 -32v-70h-573z" />
<glyph unicode="&#x41e;" horiz-adv-x="1515" d="M106 717q0 163 47 312t142 251q169 182 463 182t463 -182q95 -102 141.5 -251t46.5 -312t-46.5 -312t-141.5 -251q-170 -183 -463 -183t-463 183q-95 102 -142 251t-47 312zM324 717q0 -282 98 -451q57 -97 137.5 -146.5t198.5 -49.5t198.5 49.5t137.5 146.5 q98 169 98 451q0 281 -98 450q-57 97 -137.5 147t-198.5 50t-198.5 -50t-137.5 -147q-98 -169 -98 -450z" />
<glyph unicode="&#x41f;" horiz-adv-x="1585" d="M82 0v70l139 32q6 1 12.5 4.5t14.5 10.5t13 21.5t5 33.5v1090q0 25 -9.5 41.5t-18 21.5t-17.5 6l-139 33v70h1421v-70l-139 -33q-9 -1 -17.5 -6t-18 -21.5t-9.5 -41.5v-1090q0 -36 15 -51.5t30 -18.5l139 -32v-70h-573v70l139 32q6 1 12.5 4.5t14.5 10.5t13 21.5t5 33.5 v1151h-643v-1151q0 -36 15 -51.5t30 -18.5l139 -32v-70h-573z" />
<glyph unicode="&#x420;" horiz-adv-x="1269" d="M82 0v70l139 32q6 1 12.5 4.5t14.5 10.5t13 21.5t5 33.5v1090q0 25 -9.5 41.5t-18 21.5t-17.5 6l-139 33v70h184q76 0 205 8q21 1 101.5 6.5t115.5 5.5q236 0 350 -80q63 -43 106.5 -122t43.5 -193q0 -202 -146 -314q-138 -110 -370 -110q-96 0 -201 24v-487 q0 -61 45 -70l160 -32v-70h-594zM471 774q89 -41 191 -41q140 0 231 84q90 83 90 227q0 146 -88 230q-42 39 -107.5 60.5t-138.5 21.5q-83 0 -178 -31v-551z" />
<glyph unicode="&#x421;" horiz-adv-x="1363" d="M106 702q0 184 62.5 338t169.5 254q183 168 469 168q133 0 262 -32q13 -3 47.5 -13t61.5 -15t65 -9l43 -377h-82l-49 139q-30 85 -108 139q-49 34 -117 52t-133 18q-205 0 -330 -143q-143 -161 -143 -471q0 -259 110 -447q42 -72 94.5 -122t105.5 -72t93.5 -30.5 t81.5 -8.5q67 0 142.5 21.5t119.5 53.5q75 55 107 142l43 123h82l-52 -349q-67 -11 -161 -38q-195 -52 -332 -52q-167 0 -289 61.5t-197 153.5q-81 98 -123.5 238t-42.5 278z" />
<glyph unicode="&#x422;" horiz-adv-x="1310" d="M61 1106v328h1188v-328h-82l-26 127q-9 42 -43 65q-38 25 -107 25h-233v-1151q0 -61 45 -70l160 -32v-70h-615v70l160 32q45 9 45 70v1151h-234q-69 0 -106 -25q-34 -23 -43 -65l-27 -127h-82z" />
<glyph unicode="&#x423;" horiz-adv-x="1380" d="M41 1364v70h520v-70l-78 -12q-55 -9 -55 -56q0 -23 25 -75l321 -648l219 500q24 56 34 79.5t20 56t10 53.5q0 66 -74 81l-90 21v70h446v-70q-43 -10 -77 -33q-46 -34 -74 -96l-473 -1012q-19 -41 -30.5 -63.5t-33.5 -55t-49 -59.5q-71 -74 -172 -74q-69 0 -113 33 q-51 39 -51 109q0 71 55 108t117 10q1 -32 22.5 -51.5t53.5 -19.5q43 0 72 29t43 61l41 86l-465 901q-17 35 -49 69.5t-80 47.5z" />
<glyph unicode="&#x424;" horiz-adv-x="1744" d="M106 774q0 150 62 262t160 176q78 51 185.5 77t215.5 26h41v49q0 36 -15 51.5t-30 18.5l-139 32v70h573v-70l-139 -32q-6 -1 -12.5 -4.5t-14.5 -10.5t-13 -21.5t-5 -33.5v-49h41q108 0 215.5 -26t185.5 -77q97 -64 159 -176t62 -262t-62 -262t-159 -176 q-78 -51 -185.5 -77t-215.5 -26h-41v-61q0 -36 15 -51.5t30 -18.5l139 -32v-70h-573v70l139 32q6 1 12.5 4.5t14.5 10.5t13 21.5t5 33.5v61h-41q-108 0 -215.5 26t-185.5 77q-98 64 -160 176t-62 262zM324 774q0 -237 137 -350q123 -92 276 -92h33v885h-33q-152 0 -276 -93 q-137 -113 -137 -350zM975 332h33q153 0 276 92q137 113 137 350t-137 350q-124 93 -276 93h-33v-885z" />
<glyph unicode="&#x425;" horiz-adv-x="1474" d="M41 0v70l74 22q62 19 128.5 71.5t114.5 123.5l289 432l-336 502q-76 111 -172 133l-45 10v70h576v-70l-92 -12q-62 -9 -62 -54q0 -20 23 -57l241 -362l213 331q37 60 37 84q0 49 -55 58l-72 12v70h457v-70l-45 -8q-137 -23 -230 -170l-249 -389l393 -590 q72 -107 151 -125l54 -12v-70h-549v70l78 10q57 7 57 53q0 27 -33 76l-285 426l-243 -375q-43 -65 -43 -106q0 -59 73 -74l56 -10v-70h-504z" />
<glyph unicode="&#x426;" horiz-adv-x="1576" d="M82 0v70l139 32q6 1 12.5 4.5t14.5 10.5t13 21.5t5 33.5v1090q0 25 -9.5 41.5t-18 21.5t-17.5 6l-139 33v70h573v-70l-139 -33q-9 -1 -17.5 -6t-18 -21.5t-9.5 -41.5v-1151h635v1151q0 25 -9.5 41.5t-18 21.5t-17.5 6l-139 33v70h573v-70l-139 -33q-9 -1 -17.5 -6 t-18 -21.5t-9.5 -41.5v-1098q0 -22 15 -37.5t38 -15.5h131v-459h-82l-31 176q-13 90 -55 129q-45 43 -139 43h-1106z" />
<glyph unicode="&#x427;" horiz-adv-x="1433" d="M41 1364v70h573v-70l-139 -33q-9 -1 -17.5 -6t-18 -21.5t-9.5 -41.5v-340q0 -29 2 -48.5t13 -46t32 -45.5q53 -49 170 -49q169 0 316 78v451q0 25 -9.5 41.5t-18 21.5t-17.5 6l-140 33v70h574v-70l-140 -33q-9 -1 -17.5 -6t-18 -21.5t-9.5 -41.5v-1090q0 -36 15 -51.5 t30 -18.5l140 -32v-70h-594v70l160 32q45 9 45 70v524q-158 -61 -342 -61q-208 0 -304 72q-92 67 -92 200v355q0 25 -9.5 41.5t-18 21.5t-17.5 6z" />
<glyph unicode="&#x428;" horiz-adv-x="2170" d="M82 0v70l139 32q6 1 12.5 4.5t14.5 10.5t13 21.5t5 33.5v1090q0 25 -9.5 41.5t-18 21.5t-17.5 6l-139 33v70h573v-70l-139 -33q-9 -1 -17.5 -6t-18 -21.5t-9.5 -41.5v-1151h512v1151q0 25 -9.5 41.5t-18 21.5t-17.5 6l-139 33v70h573v-70l-139 -33q-9 -1 -17.5 -6 t-18 -21.5t-9.5 -41.5v-1151h512v1151q0 25 -9.5 41.5t-18 21.5t-17.5 6l-139 33v70h573v-70l-139 -33q-9 -1 -17.5 -6t-18 -21.5t-9.5 -41.5v-1090q0 -36 15 -51.5t30 -18.5l139 -32v-70h-2007z" />
<glyph unicode="&#x429;" horiz-adv-x="2170" d="M82 0v70l139 32q6 1 12.5 4.5t14.5 10.5t13 21.5t5 33.5v1090q0 25 -9.5 41.5t-18 21.5t-17.5 6l-139 33v70h573v-70l-139 -33q-9 -1 -17.5 -6t-18 -21.5t-9.5 -41.5v-1151h512v1151q0 25 -9.5 41.5t-18 21.5t-17.5 6l-139 33v70h573v-70l-139 -33q-9 -1 -17.5 -6 t-18 -21.5t-9.5 -41.5v-1151h512v1151q0 25 -9.5 41.5t-18 21.5t-17.5 6l-139 33v70h573v-70l-139 -33q-9 -1 -17.5 -6t-18 -21.5t-9.5 -41.5v-1098q0 -22 15 -37.5t38 -15.5h131v-459h-82l-31 176q-13 90 -55 129q-45 43 -139 43h-1700z" />
<glyph unicode="&#x42a;" horiz-adv-x="1536" d="M61 1106v328h820v-70l-140 -33q-9 -1 -17.5 -6t-18 -21.5t-9.5 -41.5v-463q123 20 238 20q233 0 371 -106q149 -115 149 -303q0 -184 -135 -297q-65 -54 -166.5 -83.5t-202.5 -29.5h-643v70l139 32q6 1 12.5 4.5t14.5 10.5t13.5 21.5t5.5 33.5v1151h-173q-69 0 -106 -25 q-34 -23 -43 -65l-27 -127h-82zM696 139q87 -41 191 -41q164 0 254 80q96 83 96 234q0 147 -96 233q-86 76 -238 76q-99 0 -207 -33v-549z" />
<glyph unicode="&#x42b;" horiz-adv-x="1884" d="M82 0v70l139 32q6 1 12.5 4.5t14.5 10.5t13 21.5t5 33.5v1090q0 25 -9.5 41.5t-18 21.5t-17.5 6l-139 33v70h573v-70l-139 -33q-9 -1 -17.5 -6t-18 -21.5t-9.5 -41.5v-463q123 20 238 20q232 0 370 -106q150 -116 150 -303q0 -184 -135 -297q-65 -54 -166.5 -83.5 t-202.5 -29.5h-643zM471 139q87 -41 191 -41q163 0 253 80q97 83 97 234q0 147 -97 233q-86 76 -237 76q-99 0 -207 -33v-549zM1229 0v70l139 32q6 1 12.5 4.5t14.5 10.5t13 21.5t5 33.5v1090q0 25 -9.5 41.5t-18 21.5t-17.5 6l-139 33v70h573v-70l-139 -33q-9 -1 -17.5 -6 t-18 -21.5t-9.5 -41.5v-1090q0 -36 15 -51.5t30 -18.5l139 -32v-70h-573z" />
<glyph unicode="&#x42c;" horiz-adv-x="1310" d="M82 0v70l139 32q6 1 12.5 4.5t14.5 10.5t13 21.5t5 33.5v1090q0 25 -9.5 41.5t-18 21.5t-17.5 6l-139 33v70h573v-70l-139 -33q-9 -1 -17.5 -6t-18 -21.5t-9.5 -41.5v-463q123 20 238 20q232 0 370 -106q150 -116 150 -303q0 -184 -135 -297q-65 -54 -166.5 -83.5 t-202.5 -29.5h-643zM471 139q87 -41 191 -41q163 0 253 80q97 83 97 234q0 147 -97 233q-86 76 -237 76q-99 0 -207 -33v-549z" />
<glyph unicode="&#x42d;" horiz-adv-x="1363" d="M82 61v349h82l16 -95q12 -70 51 -116t78 -68q46 -27 114.5 -44t125.5 -17q111 0 202 45.5t150 120.5q65 82 101 207.5t38 232.5h-467q-54 0 -81 -29q-22 -22 -29 -63l-12 -92h-82v471h82l10 -76q4 -43 31 -70q34 -31 81 -31h467q-3 124 -46.5 247t-110.5 196 q-122 135 -318 135q-148 0 -239 -49q-44 -24 -68.5 -56t-36.5 -79l-24 -95h-82v328q67 2 192 23q163 26 264 26q302 0 473 -164q106 -100 159.5 -253t53.5 -310q0 -152 -55.5 -310.5t-161.5 -266.5q-184 -187 -485 -187q-140 0 -279 41q-16 5 -44.5 14t-44 13.5t-44 10.5 t-61.5 11z" />
<glyph unicode="&#x42e;" horiz-adv-x="2121" d="M82 0v70l139 32q6 1 12.5 4.5t14.5 10.5t13 21.5t5 33.5v1090q0 25 -9.5 41.5t-18 21.5t-17.5 6l-139 33v70h573v-70l-139 -33q-9 -1 -17.5 -6t-18 -21.5t-9.5 -41.5v-476h262q6 135 54.5 271t130.5 225q165 180 454 180q291 0 457 -182q94 -102 140 -251.5t46 -311.5 t-46 -311.5t-140 -251.5q-167 -183 -457 -183q-288 0 -454 181q-89 98 -136 243.5t-49 280.5h-262v-504q0 -36 15 -51.5t30 -18.5l139 -32v-70h-573zM946 717q0 -267 96 -451q55 -96 134.5 -146t195.5 -50t195.5 50t134.5 146q96 184 96 451q0 266 -96 450 q-112 197 -330 197t-330 -197q-96 -184 -96 -450z" />
<glyph unicode="&#x42f;" horiz-adv-x="1351" d="M41 41v82q45 -29 88 -29q48 0 78.5 32t60.5 93l123 260q50 106 105 154q53 44 122 61v4q-156 3 -270 82q-143 101 -143 277q0 99 42 177.5t111 127.5q70 51 155 67.5t192 16.5q21 0 161 -8q70 -4 146 -4h258v-70l-140 -33q-9 -1 -17.5 -6t-18 -21.5t-9.5 -41.5v-1090 q0 -36 15 -51.5t30 -18.5l140 -32v-70h-574v70l140 32q6 1 12.5 4.5t14.5 10.5t13 21.5t5 33.5v504h-54q-66 0 -118 -45q-11 -9 -20.5 -19.5t-19 -24t-16 -23.5t-15.5 -27t-13 -25l-13.5 -27t-11.5 -24l-129 -266q-50 -105 -94 -154q-65 -70 -158 -70q-79 0 -178 70z M410 1057q0 -137 86 -209q84 -70 233 -70h152v553q-106 17 -166 17q-154 0 -232 -80q-73 -78 -73 -211z" />
<glyph unicode="&#x430;" horiz-adv-x="983" d="M82 246q0 144 96 223q47 38 109.5 61t152.5 43l183 41v213q0 67 -23 101q-30 43 -96 43q-39 0 -81 -13t-69 -34q-72 -58 -51 -164q-74 -33 -119 -33q-69 0 -69 61q0 53 44 109.5t107 91.5q119 64 266 64q130 0 197 -56q70 -59 70 -170v-663q0 -47 16 -78q16 -25 35 -25 q36 0 72 29v-61q-88 -58 -152 -58q-60 0 -98 58q-27 47 -35 94q-51 -54 -121 -96q-95 -56 -188 -56q-94 0 -162 62q-84 75 -84 213zM258 276q0 -70 27 -122q36 -68 112 -68q91 0 158 76q68 79 68 184v186l-142 -34q-112 -28 -159 -68q-64 -52 -64 -154z" />
<glyph unicode="&#x431;" horiz-adv-x="1114" d="M94 590q0 299 58 493q24 83 59.5 146.5t71.5 102t83.5 66.5t84.5 40.5t86 23.5l143 33q131 30 174 53q66 37 72 90h69q-9 -85 -37.5 -141t-78.5 -96q-20 -16 -43 -30t-39.5 -22.5t-43.5 -17.5t-38 -12.5t-41.5 -11t-36.5 -9.5l-156 -43q-103 -28 -157.5 -87.5 t-83.5 -145.5q-38 -117 -50 -260h9q42 103 110 166q109 96 264 96q188 0 312 -121q143 -143 143 -405q0 -131 -38 -235.5t-105 -170.5q-58 -56 -141 -88.5t-183 -32.5q-202 0 -325 127q-59 61 -92 150.5t-41.5 166t-8.5 175.5zM287 498q0 -217 63 -324q70 -121 211 -121 t211 121q64 109 64 324q0 214 -64 323q-70 121 -211 121t-211 -121q-63 -107 -63 -323z" />
<glyph unicode="&#x432;" horiz-adv-x="1024" d="M70 0v61l82 21q41 10 41 49v762q0 39 -41 49l-82 21v61h229q20 0 42 1t49 2.5t42 2.5q71 6 139 6q148 0 226 -57q92 -71 92 -195q0 -86 -64 -153q-58 -58 -135 -76v-4q97 -17 162 -76q86 -75 86 -199q0 -155 -133 -227q-91 -49 -264 -49h-471zM369 111q73 -21 137 -21 q110 0 174 49q70 55 70 160q0 96 -58 145q-54 48 -160 48h-163v-381zM369 582h108q113 0 174 55q58 53 58 145q0 75 -39 119q-51 53 -166 53q-63 0 -135 -16v-356z" />
<glyph unicode="&#x433;" horiz-adv-x="847" d="M70 0v61l82 21q41 10 41 49v762q0 39 -41 49l-82 21v61h737v-344h-70l-32 135q-16 62 -35 86q-26 33 -68 33h-233v-803q0 -19 11 -32.5t30 -16.5l102 -21v-61h-442z" />
<glyph unicode="&#x434;" horiz-adv-x="1064" d="M33 90h28q13 0 19.5 1.5t21 8t31 25.5t35.5 49q50 77 78.5 160.5t52.5 189.5q41 192 41 316q0 57 -14 78q-17 27 -60 32l-94 13v61h823v-61l-82 -21q-41 -10 -41 -49v-782q0 -21 25 -21h98v-364h-69l-35 147q-13 60 -37 94q-26 33 -68 33h-544q-42 0 -68 -33 q-24 -34 -37 -94l-35 -147h-69v364zM231 90h469v844h-147q-52 0 -80 -39q-25 -33 -39 -147q-34 -264 -88 -424q-45 -132 -115 -234z" />
<glyph unicode="&#x435;" horiz-adv-x="946" d="M86 475q0 107 27 223t84 197q63 89 143 123.5t182 34.5q28 0 52 -2t56.5 -10t59.5 -22t56.5 -40t52.5 -61q34 -54 49.5 -129.5t15.5 -145.5v-51l-49 -53h-534q-7 -72 9 -163t52 -153q73 -129 223 -129q66 0 138.5 27t127.5 63l33 -61q-61 -46 -155 -90q-135 -62 -240 -62 q-89 0 -160.5 38.5t-118.5 99.5q-104 144 -104 366zM287 629h303q54 0 76 20q22 17 22 66q0 106 -33 168q-45 88 -143 88q-115 0 -174 -115q-47 -90 -51 -227z" />
<glyph unicode="&#x436;" horiz-adv-x="1503" d="M41 29v61q36 -29 72 -29q17 0 31.5 8t23.5 17.5t19 29t14.5 31t12.5 36t11 32.5q61 166 105 229q63 84 153 91v4q-40 15 -66 48t-55 105l-47 117q-8 21 -15 33.5t-23.5 25.5t-38.5 13q-51 0 -74 -41q-37 11 -55.5 41.5t-18.5 64.5q0 43 32 75t89 32q31 0 56 -10t42 -23.5 t32.5 -38t24.5 -42.5t21 -48l51 -129l10.5 -24.5t10.5 -25.5t10 -22.5t11.5 -22.5t11 -19t13.5 -19t15 -15q39 -32 96 -32h48v311q0 39 -41 49l-82 21v61h422v-61l-82 -21q-41 -10 -41 -49v-311h47q57 0 96 32q9 8 17.5 19.5t14 19.5t14.5 26t11.5 24.5t12.5 30t12 28.5 l51 129q12 30 21 48t24.5 42.5t32.5 38t42 23.5t56 10q57 0 89 -32t32 -75q0 -34 -18.5 -64.5t-55.5 -41.5q-23 41 -73 41q-22 0 -38.5 -12.5t-24 -26t-15.5 -33.5l-47 -117q-29 -72 -55 -105t-66 -48v-4q91 -7 154 -91q42 -60 104 -229q3 -7 11.5 -32.5t13 -36.5t14.5 -31 t19 -29t23.5 -17t31.5 -8q35 0 71 29v-61q-82 -58 -149 -58q-110 0 -176 129q-20 38 -55 131.5t-56 143.5q-11 26 -20 41.5t-25 35.5t-38.5 30t-51.5 10h-51v-361q0 -39 41 -49l82 -21v-61h-431v61l82 21q50 12 50 49v361h-52q-29 0 -51.5 -10t-38.5 -30t-25 -35.5 t-20 -41.5q-22 -53 -56.5 -145.5t-53.5 -129.5q-66 -129 -177 -129q-67 0 -149 58z" />
<glyph unicode="&#x437;" horiz-adv-x="901" d="M61 160q0 34 15.5 57t40 31t53 6.5t55.5 -12.5q0 -72 33 -119q46 -70 148 -70q105 0 163 58q58 62 58 176q0 113 -62 168q-54 49 -166 49q-57 0 -112 -12v102h129q88 0 139 55q43 46 43 137q0 95 -53 144q-43 41 -137 41q-75 0 -117 -31q-42 -29 -64 -90l-47 -133h-69 l24 307q44 2 141 10q167 19 189 19q150 0 227 -54q43 -29 68.5 -77t25.5 -107q0 -98 -61 -168q-60 -63 -156 -86v-4q97 -11 160 -63q86 -70 86 -203q0 -92 -40 -154t-91 -96q-103 -70 -293 -70q-160 0 -241 49q-89 52 -89 140z" />
<glyph unicode="&#x438;" horiz-adv-x="1187" d="M70 0v61l82 21q41 10 41 49v762q0 39 -41 49l-82 21v61h422v-61l-82 -21q-41 -10 -41 -49v-586l450 578v8q0 39 -41 49l-82 21v61h422v-61l-82 -21q-41 -10 -41 -49v-762q0 -39 41 -49l82 -21v-61h-422v61l82 21q41 10 41 49v619l-450 -578v-41q0 -39 41 -49l82 -21v-61 h-422z" />
<glyph unicode="&#x439;" horiz-adv-x="1187" d="M70 0v61l82 21q41 10 41 49v762q0 39 -41 49l-82 21v61h422v-61l-82 -21q-41 -10 -41 -49v-586l450 578v8q0 39 -41 49l-82 21v61h422v-61l-82 -21q-41 -10 -41 -49v-762q0 -39 41 -49l82 -21v-61h-422v61l82 21q41 10 41 49v619l-450 -578v-41q0 -39 41 -49l82 -21v-61 h-422zM287 1409q0 50 30.5 78.5t75.5 28.5q39 0 66 -31q-13 -44 -13 -84q0 -63 39 -92q36 -31 109 -31q72 0 108 31q39 29 39 92q0 43 -12 84q27 31 66 31q45 0 75.5 -28.5t30.5 -78.5q0 -90 -80 -145q-82 -56 -227 -56t-227 56q-80 55 -80 145z" />
<glyph unicode="&#x43a;" horiz-adv-x="1077" d="M70 0v61l82 21q41 10 41 49v762q0 39 -41 49l-82 21v61h422v-61l-82 -21q-41 -10 -41 -49v-311h55q71 0 115 34q52 41 100 148l55 127q16 37 29 60t34.5 49.5t50.5 39.5t66 13q56 0 88.5 -33t32.5 -78q0 -36 -19.5 -64t-53.5 -38q-23 41 -74 41q-53 0 -86 -72l-51 -117 q-42 -99 -133 -145v-4q89 -16 153 -90q9 -11 17.5 -24t15 -25t17 -34.5t17 -38.5t21.5 -52l25 -60q41 -94 63 -122q29 -35 62 -36q28 0 67 29v-61q-83 -58 -153 -58q-36 0 -66.5 12t-52.5 35t-35.5 42t-28.5 46q-28 53 -64 145t-50 124q-12 25 -22 41.5t-27.5 36t-41.5 29.5 t-55 10h-71v-361q0 -39 41 -49l82 -21v-61h-422z" />
<glyph unicode="&#x43b;" d="M29 80q0 58 37.5 87.5t99.5 10.5q4 -23 18.5 -33t28.5 -10q65 0 100 131q29 106 49 309q19 215 19 261q0 61 -14 82q-17 27 -60 32l-94 13v61h823v-61l-82 -21q-41 -10 -41 -49v-762q0 -39 41 -49l82 -21v-61h-422v61l82 21q41 10 41 49v803h-139q-57 0 -88 -39 q-17 -21 -25 -60t-14 -124q-30 -386 -82 -537q-69 -203 -233 -203q-62 0 -94.5 30t-32.5 79z" />
<glyph unicode="&#x43c;" horiz-adv-x="1376" d="M61 0v61l80 17q45 9 45 53l35 737q1 17 -0.5 28t-13.5 24t-37 20l-84 23v61h336q4 -47 16 -76l267 -665h4l260 667q14 40 14 74h311v-61l-80 -19q-42 -7 -40 -51l32 -770q2 -36 45 -47l64 -15v-61h-441v61l111 21q49 8 49 41l-24 674h-4l-275 -709q-24 -60 -33 -108h-69 q-3 19 -6 34t-7 28t-6 20t-7 20t-7 18l-285 697h-4l-18 -666q0 -41 41 -49l102 -21v-61h-371z" />
<glyph unicode="&#x43d;" horiz-adv-x="1167" d="M70 0v61l82 21q41 10 41 49v762q0 39 -41 49l-82 21v61h422v-61l-82 -21q-41 -10 -41 -49v-311h430v311q0 39 -41 49l-82 21v61h422v-61l-82 -21q-41 -10 -41 -49v-762q0 -39 41 -49l82 -21v-61h-422v61l82 21q41 10 41 49v361h-430v-361q0 -39 41 -49l82 -21v-61h-422z " />
<glyph unicode="&#x43e;" d="M86 512q0 135 37.5 241.5t105.5 174.5q125 125 324 125t324 -125q68 -68 105.5 -174.5t37.5 -241.5t-37.5 -241.5t-105.5 -174.5q-125 -125 -324 -125t-324 125q-68 68 -105.5 174.5t-37.5 241.5zM279 512q0 -225 63 -334q36 -63 86 -94t125 -31t125 31t86 94 q63 109 63 334t-63 334q-36 63 -86 94t-125 31t-125 -31t-86 -94q-63 -109 -63 -334z" />
<glyph unicode="&#x43f;" horiz-adv-x="1146" d="M70 0v61l82 21q41 10 41 49v762q0 39 -41 49l-82 21v61h1007v-61l-82 -21q-41 -10 -41 -49v-762q0 -39 41 -49l82 -21v-61h-422v61l82 21q41 10 41 49v803h-409v-803q0 -39 41 -49l82 -21v-61h-422z" />
<glyph unicode="&#x440;" horiz-adv-x="1110" d="M49 -430l103 24l4 2q5 1 8.5 3t9 6t9.5 9t7 13t3 17v1204q0 9 -3 17t-7 12.5t-9.5 8.5t-9 6t-8.5 4l-4 1l-103 25v61q142 18 283 70h16v-152q45 57 107 96q86 56 194 56q165 0 262 -109q113 -130 113 -399q0 -305 -156 -457q-58 -57 -134.5 -87t-149.5 -30 q-47 0 -108 15.5t-107 54.5v-397q0 -19 11 -33t30 -17l143 -24v-62h-504v62zM369 147q85 -94 198 -94q127 0 195 107q69 111 69 344q0 94 -16 186t-47 148q-61 112 -190 112q-89 0 -146 -61q-63 -65 -63 -187v-555z" />
<glyph unicode="&#x441;" horiz-adv-x="892" d="M86 479q0 124 32 237t93 189q64 79 145.5 113.5t190.5 34.5q124 0 196 -43q45 -28 71 -68.5t26 -83.5q0 -42 -29 -65t-72 -23q-35 0 -63 14v31q0 68 -41 113q-43 43 -107 43q-120 0 -186 -119q-63 -113 -63 -317q0 -207 63 -312q77 -129 223 -129q120 0 254 90l33 -61 q-66 -49 -152 -90q-135 -62 -231 -62q-89 0 -160.5 38.5t-118.5 99.5q-104 134 -104 370z" />
<glyph unicode="&#x442;" horiz-adv-x="942" d="M41 680v344h860v-344h-70l-32 135q-16 62 -35 86q-26 33 -68 33h-137v-803q0 -19 11 -32.5t30 -16.5l102 -21v-61h-462v61l102 21q19 3 30 16.5t11 32.5v803h-137q-42 0 -68 -33q-19 -24 -35 -86l-32 -135h-70z" />
<glyph unicode="&#x443;" horiz-adv-x="1003" d="M20 -408q0 34 20.5 66.5t57.5 50.5q47 -57 117 -57q67 0 113 59q24 32 50 80t38 84l43 125l-348 895q-13 31 -29 43q-25 22 -62 25v61h418v-61l-67 -9q-60 -8 -60 -63q0 -31 19 -82l223 -569h4l176 534q3 9 8 25t7.5 25t5 22t2.5 24q0 33 -18 56.5t-48 27.5l-51 9v61h344 v-61q-57 -19 -92 -68q-34 -45 -62 -127l-340 -936q-57 -156 -131 -248q-86 -104 -206 -104q-61 0 -96.5 31t-35.5 81z" />
<glyph unicode="&#x444;" horiz-adv-x="1417" d="M86 512q0 88 19.5 164.5t46 125t63.5 89t62 59t51 33.5q130 72 293 70v340q0 9 -3 17t-7 12.5t-9.5 8.5t-9 6t-8.5 3l-4 2l-103 24v62q145 20 291 69h29v-544q163 2 293 -70q26 -15 51 -33.5t61.5 -59t63 -89t46 -125t19.5 -164.5t-19.5 -164.5t-46 -125t-63 -89 t-61.5 -59t-51 -33.5q-130 -72 -293 -70v-327q0 -19 11 -33t30 -17l143 -24v-62h-545v62l144 24q19 3 30 17t11 33v327q-163 -2 -293 70q-26 15 -51 33.5t-62 59t-63.5 89t-46 125t-19.5 164.5zM279 512q0 -240 106 -358q92 -101 236 -101v918q-144 0 -236 -101 q-106 -118 -106 -358zM797 53q143 0 235 101q107 119 107 358t-107 358q-92 101 -235 101v-918z" />
<glyph unicode="&#x445;" horiz-adv-x="1085" d="M61 0v61q51 10 103 50q64 49 110 116l193 283l-180 305q-38 65 -99 105q-59 38 -127 43v61h451v-61q-30 0 -55 -14.5t-25 -43.5q0 -19 14 -43l127 -217l142 215q16 26 16 51q0 28 -31 35l-69 17v61h373v-61q-57 -4 -101 -25q-47 -21 -98 -94l-187 -275l220 -370 q39 -64 86 -97q43 -29 100 -41v-61h-442v61l69 17q24 5 31.5 13.5t7.5 21.5q0 15 -16 47l-160 270l-149 -225q-29 -44 -29 -72q0 -20 12.5 -35.5t32.5 -19.5l70 -17v-61h-390z" />
<glyph unicode="&#x446;" horiz-adv-x="1146" d="M70 0v61l82 21q41 10 41 49v762q0 39 -41 49l-82 21v61h422v-61l-82 -21q-41 -10 -41 -49v-803h409v803q0 39 -41 49l-82 21v61h422v-61l-82 -21q-41 -10 -41 -49v-782q0 -21 25 -21h98v-364h-69l-35 147q-13 60 -37 94q-26 33 -68 33h-798z" />
<glyph unicode="&#x447;" horiz-adv-x="1093" d="M41 963v61h422v-61l-82 -21q-41 -10 -41 -49v-197q0 -35 0.5 -50.5t9 -44.5t25.5 -48q43 -47 135 -47q105 0 215 57v330q0 39 -41 49l-82 21v61h422v-61l-82 -21q-41 -10 -41 -49v-762q0 -39 41 -49l82 -21v-61h-442v61l102 21q19 3 30 16.5t11 32.5v342 q-130 -49 -248 -49q-160 0 -233 61q-37 30 -56 73t-21.5 69.5t-2.5 68.5v197q0 39 -41 49z" />
<glyph unicode="&#x448;" horiz-adv-x="1609" d="M70 0v61l82 21q41 10 41 49v762q0 39 -41 49l-82 21v61h422v-61l-82 -21q-41 -10 -41 -49v-803h348v803q0 39 -41 49l-82 21v61h422v-61l-82 -21q-41 -10 -41 -49v-803h348v803q0 39 -41 49l-82 21v61h422v-61l-82 -21q-41 -10 -41 -49v-762q0 -39 41 -49l82 -21v-61 h-1470z" />
<glyph unicode="&#x449;" horiz-adv-x="1609" d="M70 0v61l82 21q41 10 41 49v762q0 39 -41 49l-82 21v61h422v-61l-82 -21q-41 -10 -41 -49v-803h348v803q0 39 -41 49l-82 21v61h422v-61l-82 -21q-41 -10 -41 -49v-803h348v803q0 39 -41 49l-82 21v61h422v-61l-82 -21q-41 -10 -41 -49v-782q0 -21 25 -21h98v-364h-70 l-34 147q-13 60 -37 94q-26 33 -68 33h-1261z" />
<glyph unicode="&#x44a;" horiz-adv-x="1220" d="M61 680v344h627v-61l-82 -21q-41 -10 -41 -49v-320q111 21 185 21q193 0 292 -84q97 -84 97 -225q0 -69 -23 -120t-76 -91q-96 -74 -254 -74h-540v61l102 21q19 3 30 16.5t11 32.5v803h-123q-41 0 -67 -33q-19 -24 -35 -86l-33 -135h-70zM565 111q63 -29 133 -29 q119 0 183 53q69 58 69 164q0 97 -61 156q-59 57 -178 57q-76 0 -146 -20v-381z" />
<glyph unicode="&#x44b;" horiz-adv-x="1503" d="M70 0v61l102 21q19 3 30 16.5t11 32.5v762q0 39 -41 49l-82 21v61h422v-61l-82 -21q-41 -10 -41 -49v-320q111 21 184 21q194 0 293 -84q97 -84 97 -225q0 -69 -23 -120t-76 -91q-96 -74 -254 -74h-540zM389 111q63 -29 133 -29q119 0 183 53q69 58 69 164q0 97 -61 156 q-59 57 -178 57q-76 0 -146 -20v-381zM1012 0v61l82 21q41 10 41 49v762q0 39 -41 49l-82 21v61h422v-61l-82 -21q-41 -10 -41 -49v-762q0 -39 41 -49l82 -21v-61h-422z" />
<glyph unicode="&#x44c;" horiz-adv-x="1044" d="M70 0v61l102 21q19 3 30 16.5t11 32.5v762q0 39 -41 49l-82 21v61h422v-61l-82 -21q-41 -10 -41 -49v-320q111 21 184 21q194 0 293 -84q97 -84 97 -225q0 -69 -23 -120t-76 -91q-96 -74 -254 -74h-540zM389 111q63 -29 133 -29q119 0 183 53q69 58 69 164q0 97 -61 156 q-59 57 -178 57q-76 0 -146 -20v-381z" />
<glyph unicode="&#x44d;" horiz-adv-x="958" d="M61 160q0 34 15.5 57t40 31t53 6.5t55.5 -12.5q0 -75 33 -119q49 -70 148 -70q153 0 223 154q27 57 40 142.5t11 158.5h-64q-163 0 -331 -33v123h395q0 59 -16.5 129t-45.5 121q-71 123 -212 123q-78 0 -134 -33q-54 -30 -73 -88l-47 -133h-70l24 307q64 2 142 12 q117 17 160 17q193 0 311 -103q153 -137 153 -407q0 -152 -46 -265t-117 -184q-126 -123 -320 -123q-156 0 -239 49q-89 52 -89 140z" />
<glyph unicode="&#x44e;" horiz-adv-x="1597" d="M70 0v61l82 21q41 10 41 49v762q0 39 -41 49l-82 21v61h422v-61l-82 -21q-41 -10 -41 -49v-311h219q6 99 44 192t95 154q121 125 317 125q197 0 318 -125q65 -68 103 -175.5t38 -240.5t-38 -240.5t-103 -175.5q-121 -125 -318 -125q-196 0 -317 125q-64 66 -103 173.5 t-38 222.5h-217v-361q0 -39 41 -49l82 -21v-61h-422zM778 512q0 -222 62 -334q35 -63 83.5 -94t120.5 -31q136 0 205 125q62 112 62 334t-62 334q-69 125 -205 125q-72 0 -120.5 -31t-83.5 -94q-62 -112 -62 -334z" />
<glyph unicode="&#x44f;" horiz-adv-x="1081" d="M41 33v61q35 -28 70 -28q17 0 30 6.5t25.5 25.5t17 28t16.5 37q3 8 5 11l78 184q45 105 153 129l-2 9q-109 3 -184 59q-90 68 -90 190q0 81 37 142.5t96 95.5q90 53 272 53q63 0 131 -6q56 -6 107 -6h209v-61l-82 -21q-41 -10 -41 -49v-762q0 -39 41 -49l82 -21v-61h-422 v61l82 21q41 10 41 49v348h-74q-78 0 -121 -35q-46 -37 -76 -116l-80 -209q-28 -71 -76.5 -107.5t-101.5 -36.5q-82 0 -143 58zM352 752q0 -92 64 -144q59 -47 168 -47q61 0 129 14v369q-58 10 -113 10q-110 0 -170 -41q-78 -52 -78 -161z" />
<glyph unicode="&#x451;" horiz-adv-x="946" d="M86 475q0 107 27 223t84 197q63 89 143 123.5t182 34.5q28 0 52 -2t56.5 -10t59.5 -22t56.5 -40t52.5 -61q34 -54 49.5 -129.5t15.5 -145.5v-51l-49 -53h-534q-7 -72 9 -163t52 -153q73 -129 223 -129q66 0 138.5 27t127.5 63l33 -61q-61 -46 -155 -90q-135 -62 -240 -62 q-89 0 -160.5 38.5t-118.5 99.5q-104 144 -104 366zM217 1372q0 46 34.5 80.5t80.5 34.5t80 -34.5t34 -80.5t-34 -80.5t-80 -34.5t-80.5 34.5t-34.5 80.5zM287 629h303q54 0 76 20q22 17 22 66q0 106 -33 168q-45 88 -143 88q-115 0 -174 -115q-47 -90 -51 -227zM586 1372 q0 46 34 80.5t80 34.5t80.5 -34.5t34.5 -80.5t-34.5 -80.5t-80.5 -34.5t-80 34.5t-34 80.5z" />
<glyph unicode="&#x452;" horiz-adv-x="1138" d="M29 1221v90h164v82q0 9 -3 17t-7 12.5t-9.5 8.5t-9 6t-8.5 3l-4 2l-103 24v62q149 22 283 69h37v-286h409v-90h-409v-299q43 45 108 82q91 49 191 49q139 0 213 -74q36 -35 55.5 -86t23 -86.5t3.5 -83.5v-578q0 -77 -20.5 -151t-53.5 -130.5t-65.5 -96.5t-65.5 -68 q-82 -68 -172 -68q-32 0 -53 12.5t-29 33t-10 32t-2 23.5q0 71 49 104q38 -45 110 -45q59 0 92 33q43 43 43 149v750q0 40 -1.5 64.5t-10.5 59t-26 58.5q-45 58 -130 58q-88 0 -163 -72q-86 -83 -86 -189v-571q0 -39 41 -49l82 -21v-61h-422v61l82 21q41 10 41 49v1090h-164 z" />
<glyph unicode="&#x453;" horiz-adv-x="847" d="M70 0v61l82 21q41 10 41 49v762q0 39 -41 49l-82 21v61h737v-344h-70l-32 135q-16 62 -35 86q-26 33 -68 33h-233v-803q0 -19 11 -32.5t30 -16.5l102 -21v-61h-442zM369 1208v21l204 287h226v-50l-348 -258h-82z" />
<glyph unicode="&#x454;" horiz-adv-x="892" d="M86 479q0 124 32 237t93 189q117 148 332 148q47 0 147 -17q56 -10 117 -12l24 -307h-69l-47 133q-22 61 -60 88q-44 33 -120 33q-129 0 -195 -123q-57 -106 -61 -266h374v-123q-155 33 -311 33h-63q0 -69 16.5 -143.5t46.5 -125.5q75 -129 223 -129q120 0 254 90l33 -61 q-88 -65 -192.5 -108.5t-190.5 -43.5q-89 0 -160.5 38.5t-118.5 99.5q-104 134 -104 370z" />
<glyph unicode="&#x455;" horiz-adv-x="790" d="M61 307h70q22 -114 88 -180q74 -74 191 -74q80 0 125 39q47 41 47 107q0 36 -15.5 67t-31 46t-41.5 34l-254 178q-30 21 -47.5 36t-41.5 43.5t-35.5 67t-11.5 87.5q0 73 28.5 132t74.5 97q83 66 221 66q43 0 145 -21l40 -8t43 -8.5t24 -5.5l16 -248h-69q-5 41 -24 85 t-46 71q-53 53 -143 53q-71 0 -115 -41q-47 -44 -47 -109q0 -47 27.5 -83.5t82.5 -75.5l248 -179q119 -85 119 -227t-113 -221q-92 -64 -231 -64q-26 0 -48.5 2t-44 6.5t-33 7.5t-36 10.5t-33.5 10.5q-39 13 -98 25z" />
<glyph unicode="&#x456;" horiz-adv-x="561" d="M49 922v61q142 18 283 70h37v-922q0 -39 41 -49l82 -21v-61h-422v61l82 21q41 10 41 49v717q0 9 -3 17t-7 12.5t-9.5 8.5t-9 6t-8.5 4l-4 1zM156 1372q0 51 36 87t87 36t86.5 -36t35.5 -87t-35.5 -87t-86.5 -36t-87 36t-36 87z" />
<glyph unicode="&#x457;" horiz-adv-x="561" d="M25 1372q0 46 34 80.5t80 34.5t80.5 -34.5t34.5 -80.5t-34.5 -80.5t-80.5 -34.5t-80 34.5t-34 80.5zM49 922v61q142 18 283 70h37v-922q0 -39 41 -49l82 -21v-61h-422v61l82 21q41 10 41 49v717q0 9 -3 17t-7 12.5t-9.5 8.5t-9 6t-8.5 4l-4 1zM311 1372q0 46 34.5 80.5 t80.5 34.5t80.5 -34.5t34.5 -80.5t-34.5 -80.5t-80.5 -34.5t-80.5 34.5t-34.5 80.5z" />
<glyph unicode="&#x458;" horiz-adv-x="544" d="M-102 -440q0 75 49 104q39 -45 96 -45q62 0 107 62q43 61 43 182v985q0 9 -3 17t-7 12.5t-9.5 8.5t-9 6t-8.5 4l-4 1l-103 25v61q142 18 283 70h37v-977q0 -159 -59.5 -296t-151.5 -222q-82 -78 -174 -78q-28 0 -47.5 10t-26.5 26t-9.5 26t-2.5 18zM156 1372q0 51 36 87 t87 36t86.5 -36t35.5 -87t-35.5 -87t-86.5 -36t-87 36t-36 87z" />
<glyph unicode="&#x459;" horiz-adv-x="1568" d="M29 80q0 58 37.5 87.5t99.5 10.5q4 -23 18.5 -33t28.5 -10q65 0 100 131q29 106 49 309q19 215 19 261q0 61 -14 82q-17 27 -60 32l-94 13v61h823v-61l-82 -21q-41 -10 -41 -49v-320q111 21 185 21q194 0 293 -84q96 -83 96 -225q0 -69 -22.5 -120t-75.5 -91 q-96 -74 -254 -74h-521v61l82 21q41 10 41 49v803h-139q-57 0 -88 -39q-17 -21 -25 -60t-14 -124q-30 -386 -82 -537q-69 -203 -233 -203q-62 0 -94.5 30t-32.5 79zM913 111q63 -29 134 -29q118 0 182 53q69 58 69 164q0 97 -61 156q-59 57 -178 57q-76 0 -146 -20v-381z " />
<glyph unicode="&#x45a;" horiz-adv-x="1630" d="M70 0v61l82 21q41 10 41 49v762q0 39 -41 49l-82 21v61h422v-61l-82 -21q-41 -10 -41 -49v-311h430v311q0 39 -41 49l-82 21v61h422v-61l-82 -21q-41 -10 -41 -49v-320q111 21 184 21q194 0 293 -84q96 -83 96 -225q0 -69 -22.5 -120t-75.5 -91q-96 -74 -254 -74h-520v61 l82 21q41 10 41 49v361h-430v-361q0 -39 41 -49l82 -21v-61h-422zM975 111q63 -29 133 -29q118 0 182 53q70 59 70 164q0 96 -62 156q-59 57 -178 57q-75 0 -145 -20v-381z" />
<glyph unicode="&#x45b;" horiz-adv-x="1146" d="M29 1221v90h164v82q0 9 -3 17t-7 12.5t-9.5 8.5t-9 6t-8.5 3l-4 2l-103 24v62q149 22 283 69h37v-286h409v-90h-409v-299q43 45 108 82q91 49 191 49q139 0 213 -74q36 -35 55.5 -86t23 -86.5t3.5 -83.5v-592q0 -39 41 -49l81 -21v-61h-421v61l81 21q41 10 41 49v592 q0 40 -1.5 64.5t-10.5 59t-26 58.5q-44 58 -123 58q-98 0 -170 -72q-86 -83 -86 -189v-571q0 -39 41 -49l82 -21v-61h-422v61l82 21q41 10 41 49v1090h-164z" />
<glyph unicode="&#x45c;" horiz-adv-x="1077" d="M70 0v61l82 21q41 10 41 49v762q0 39 -41 49l-82 21v61h422v-61l-82 -21q-41 -10 -41 -49v-311h55q71 0 115 34q52 41 100 148l55 127q16 37 29 60t34.5 49.5t50.5 39.5t66 13q56 0 88.5 -33t32.5 -78q0 -36 -19.5 -64t-53.5 -38q-23 41 -74 41q-53 0 -86 -72l-51 -117 q-42 -99 -133 -145v-4q89 -16 153 -90q9 -11 17.5 -24t15 -25t17 -34.5t17 -38.5t21.5 -52l25 -60q41 -94 63 -122q29 -35 62 -36q28 0 67 29v-61q-83 -58 -153 -58q-36 0 -66.5 12t-52.5 35t-35.5 42t-28.5 46q-28 53 -64 145t-50 124q-12 25 -22 41.5t-27.5 36t-41.5 29.5 t-55 10h-71v-361q0 -39 41 -49l82 -21v-61h-422zM492 1208v21l204 287h226v-50l-349 -258h-81z" />
<glyph unicode="&#x45e;" horiz-adv-x="1003" d="M20 -408q0 34 20.5 66.5t57.5 50.5q47 -57 117 -57q67 0 113 59q24 32 50 80t38 84l43 125l-348 895q-13 31 -29 43q-25 22 -62 25v61h418v-61l-67 -9q-60 -8 -60 -63q0 -31 19 -82l223 -569h4l176 534q3 9 8 25t7.5 25t5 22t2.5 24q0 33 -18 56.5t-48 27.5l-51 9v61h344 v-61q-57 -19 -92 -68q-34 -45 -62 -127l-340 -936q-57 -156 -131 -248q-86 -104 -206 -104q-61 0 -96.5 31t-35.5 81zM225 1409q0 50 31 78.5t76 28.5q38 0 65 -31q-12 -41 -12 -84q0 -63 39 -92q36 -31 108 -31q73 0 109 31q39 29 39 92q0 43 -12 84q27 31 65 31 q45 0 76 -28.5t31 -78.5q0 -90 -80 -145q-82 -56 -228 -56q-145 0 -227 56q-80 55 -80 145z" />
<glyph unicode="&#x45f;" horiz-adv-x="1146" d="M70 0v61l82 21q41 10 41 49v762q0 39 -41 49l-82 21v61h422v-61l-82 -21q-41 -10 -41 -49v-803h409v803q0 39 -41 49l-82 21v61h422v-61l-82 -21q-41 -10 -41 -49v-762q0 -39 41 -49l82 -21v-61h-463l62 -393q0 -46 -31.5 -72.5t-71.5 -26.5t-71 26.5t-31 72.5l61 393 h-462z" />
<glyph unicode="&#x462;" horiz-adv-x="1536" d="M61 987v328h431v49q0 36 -15.5 51.5t-30.5 18.5l-139 32v70h574v-70l-140 -32q-6 -1 -12.5 -4.5t-14.5 -10.5t-13 -21.5t-5 -33.5v-49h471v-328h-82l-26 127q-9 43 -43 66q-36 24 -107 24h-213v-405q123 20 238 20q233 0 371 -106q149 -115 149 -303q0 -184 -135 -297 q-65 -54 -166.5 -83.5t-202.5 -29.5h-643v70l139 32q6 1 12.5 4.5t14.5 10.5t13.5 21.5t5.5 33.5v1032h-173q-70 0 -106 -24q-34 -23 -43 -66l-27 -127h-82zM696 139q87 -41 191 -41q164 0 254 80q96 83 96 234q0 147 -96 233q-86 76 -238 76q-99 0 -207 -33v-549z" />
<glyph unicode="&#x463;" horiz-adv-x="1220" d="M61 680v344h328v369q0 9 -3 17t-7 12.5t-9.5 8.5t-9 6t-8.5 3l-4 2l-102 24v62q147 21 282 69h37v-573h410v-324h-70l-28 115q-16 62 -35 86q-26 33 -68 33h-209v-361q111 21 185 21q193 0 292 -84q97 -84 97 -225q0 -69 -23 -120t-76 -91q-96 -74 -254 -74h-540v61 l102 21q19 3 30 16.5t11 32.5v803h-123q-41 0 -67 -33q-19 -24 -35 -86l-33 -135h-70zM565 111q63 -29 133 -29q119 0 183 53q69 58 69 164q0 97 -61 156q-59 57 -178 57q-76 0 -146 -20v-381z" />
<glyph unicode="&#x472;" horiz-adv-x="1515" d="M106 717q0 163 47 312t142 251q169 182 463 182t463 -182q95 -102 141.5 -251t46.5 -312t-46.5 -312t-141.5 -251q-170 -183 -463 -183t-463 183q-95 102 -142 251t-47 312zM324 676q2 -109 28.5 -222t69.5 -188q57 -97 137.5 -146.5t198.5 -49.5t198.5 49.5t137.5 146.5 q43 75 69.5 188t28.5 222h-868zM326 786h864q-3 95 -28 199.5t-68 181.5q-57 97 -137.5 147t-198.5 50t-198.5 -50t-137.5 -147q-43 -77 -68 -181.5t-28 -199.5z" />
<glyph unicode="&#x473;" d="M86 512q0 135 37.5 241.5t105.5 174.5q125 125 324 125t324 -125q68 -68 105.5 -174.5t37.5 -241.5t-37.5 -241.5t-105.5 -174.5q-125 -125 -324 -125t-324 125q-68 68 -105.5 174.5t-37.5 241.5zM279 492q-3 -75 13.5 -165t49.5 -149q36 -63 86 -94t125 -31t125 31 t86 94q33 59 49.5 149t13.5 165h-548zM281 582h544q0 62 -15 135.5t-46 128.5q-36 63 -86 94t-125 31t-125 -31t-86 -94q-31 -55 -46 -128.5t-15 -135.5z" />
<glyph unicode="&#x474;" horiz-adv-x="1515" d="M41 1364v70h528v-70l-73 -8q-84 -10 -84 -74q0 -28 20 -90l303 -885h4l297 860q57 164 123 228q67 67 158 67q70 0 114 -35.5t44 -97.5q0 -60 -45 -98t-101 -14q-1 25 -20.5 37t-42.5 12q-47 0 -78 -43q-33 -42 -55 -105l-365 -1014q-34 -95 -43 -133h-82q-8 41 -41 138 l-407 1105q-25 68 -55 97.5t-68 42.5z" />
<glyph unicode="&#x475;" horiz-adv-x="1064" d="M20 961v63h412v-61l-61 -13q-37 -7 -51.5 -22t-14.5 -41q0 -30 12 -60l218 -575h4l194 602q11 33 18.5 53t23.5 49.5t34 46t47 29t64 12.5q57 0 90.5 -27t33.5 -69q0 -35 -19.5 -61t-53.5 -33q-19 31 -62 31q-25 0 -43 -7t-29.5 -21t-17 -25.5t-12.5 -30.5l-250 -709 q-2 -6 -9.5 -25.5t-13.5 -41t-12 -54.5h-69q-12 72 -33 121l-324 801q-25 61 -76 68z" />
<glyph unicode="&#x490;" d="M82 0v70l139 32q6 1 12.5 4.5t14.5 10.5t13 21.5t5 33.5v1090q0 25 -9.5 41.5t-18 21.5t-17.5 6l-139 33v70h704q71 0 107 24q33 22 43 66l27 135h81v-336h-573v-1151q0 -61 45 -70l160 -32v-70h-594z" />
<glyph unicode="&#x491;" horiz-adv-x="819" d="M70 0v61l82 21q41 10 41 49v762q0 39 -41 49l-82 21v61h503q42 0 68 33q19 24 35 86l33 135h69v-344h-409v-803q0 -19 11 -32.5t30 -16.5l102 -21v-61h-442z" />
<glyph unicode="&#x492;" horiz-adv-x="1146" d="M41 668v110h225v484q0 25 -9.5 41.5t-18 21.5t-17.5 6l-139 33v70h1003v-328h-81l-27 127q-9 42 -43 65q-38 25 -107 25h-356v-545h369v-110h-369v-496q0 -61 45 -70l160 -32v-70h-594v70l139 32q6 1 12.5 4.5t14.5 10.5t13 21.5t5 33.5v496h-225z" />
<glyph unicode="&#x493;" horiz-adv-x="847" d="M29 463v90h164v340q0 39 -41 49l-82 21v61h737v-344h-70l-32 135q-16 62 -35 86q-26 33 -68 33h-233v-381h245v-90h-245v-332q0 -19 11 -32.5t30 -16.5l102 -21v-61h-442v61l82 21q41 10 41 49v332h-164z" />
<glyph unicode="&#x494;" horiz-adv-x="1310" d="M82 0v70l139 32q6 1 12.5 4.5t14.5 10.5t13 21.5t5 33.5v1090q0 25 -9.5 41.5t-18 21.5t-17.5 6l-139 33v70h1003v-328h-81l-27 127q-9 42 -43 65q-38 25 -107 25h-356v-586q164 62 330 62q235 0 340 -129q88 -109 88 -281q0 -102 -31 -189t-88 -139q-96 -90 -279 -90 q-124 0 -186 37q-72 45 -72 123q0 54 35 80.5t80 26.5q35 0 70 -21q-3 -57 16 -94q25 -53 90 -53q72 0 111 75q37 68 37 211q0 197 -64 273q-59 71 -180 71q-159 0 -297 -77v-623h-389z" />
<glyph unicode="&#x495;" horiz-adv-x="1064" d="M70 0v61l82 21q41 10 41 49v762q0 39 -41 49l-82 21v61h798v-307h-69l-25 98q-16 62 -35 86q-26 33 -67 33h-303v-496q38 41 98 76q83 47 178 47q127 0 205 -78q113 -113 113 -346q0 -298 -177 -430q-104 -76 -233 -76q-99 0 -154 31q-71 41 -71 102q0 43 28.5 70 t75.5 27q42 0 76 -21q0 -51 16 -82q27 -45 84 -45q80 0 121 80q49 91 49 270q0 182 -30 281q-38 127 -152 127q-80 0 -154 -70q-48 -45 -73 -102v-168q0 -19 11 -32.5t30 -16.5l102 -21v-61h-442z" />
<glyph unicode="&#x496;" horiz-adv-x="2007" d="M41 51v82q46 -31 98 -31q30 0 52 9t36.5 26t20.5 28.5t14 29.5l148 342q23 52 49.5 88t68.5 63q61 41 134 49v4q-49 21 -81 61t-44 75l-91 241q-21 65 -49 107q-28 45 -73 45q-27 0 -43.5 -14.5t-16.5 -38.5q-58 -24 -101.5 11t-43.5 93q0 65 44 103t113 38q86 0 150 -67 q9 -9 16.5 -18.5t15.5 -22t13.5 -20.5t12.5 -23.5t10.5 -21.5t10.5 -24t8.5 -21t8.5 -22l8 -20l109 -284q23 -60 70 -91q46 -32 118 -32h74v467q0 25 -9.5 41.5t-18 21.5t-17.5 6l-139 33v70h573v-70l-139 -33q-9 -1 -17.5 -6t-18 -21.5t-9.5 -41.5v-467h74q72 0 118 32 q47 31 70 91l109 284l7 20q8 19 9.5 22t8.5 21t10.5 24t10.5 21.5t12.5 23.5t13.5 20.5t15.5 22t16.5 18.5q64 67 150 67q69 0 113 -38t44 -103q0 -58 -43.5 -93t-101.5 -11q0 24 -16.5 38.5t-43.5 14.5q-45 0 -73 -45q-28 -42 -49 -107l-91 -241q-12 -36 -43.5 -75.5 t-80.5 -60.5v-4q72 -8 133 -49q42 -27 68.5 -63t49.5 -88l148 -342q15 -36 33 -56t29.5 -24t27.5 -4h152v-459h-82l-31 176q-18 91 -53 129q-39 43 -109 43h-8q-96 0 -154 133l-168 387q-38 82 -75 117q-47 47 -119 47h-82v-512q0 -36 15 -51.5t30 -18.5l139 -32v-70h-573 v70l139 32q6 1 12.5 4.5t14.5 10.5t13 21.5t5 33.5v512h-82q-72 0 -119 -47q-37 -35 -75 -117l-183 -422q-29 -71 -77 -100q-47 -27 -109 -27q-66 0 -133 31q-33 15 -82 49z" />
<glyph unicode="&#x497;" horiz-adv-x="1519" d="M41 29v61q36 -29 72 -29q17 0 31.5 8t23.5 17.5t19 29t14.5 31t12.5 36t11 32.5q61 166 105 229q63 84 153 91v4q-37 14 -65 46t-56 107l-45 117q-31 84 -90 84q-50 0 -67 -45q-35 8 -58.5 35t-23.5 67q0 43 32.5 73t92.5 30q75 0 116 -44t72 -122l47 -125 q44 -117 82 -148q39 -32 96 -32h48v311q0 39 -41 49l-82 21v61h422v-61l-82 -21q-41 -10 -41 -49v-311h47q57 0 96 32q38 31 82 148l47 125q31 78 72 122t116 44q60 0 92.5 -30t32.5 -73q0 -40 -23.5 -67t-58.5 -35q-17 45 -67 45q-59 0 -90 -84l-45 -117q-28 -75 -56 -107 t-65 -46v-4q91 -7 154 -91q9 -13 18.5 -30t16.5 -30.5t17.5 -38t15.5 -37.5t17.5 -45t18.5 -46q35 -84 55 -106q17 -21 39 -21h107v-364h-70l-35 147q-4 21 -15 54t-22 46q-19 27 -53 27h-8q-32 0 -61 19t-52 53.5t-36 61t-29 63.5q-6 16 -18.5 46t-18.5 46q-6 14 -17.5 43 t-17.5 43q-11 26 -20 41.5t-25 35.5t-38.5 30t-51.5 10h-51v-361q0 -39 41 -49l82 -21v-61h-431v61l82 21q50 12 50 49v361h-52q-29 0 -51.5 -10t-38.5 -30t-25 -35.5t-20 -41.5q-22 -53 -56.5 -145.5t-53.5 -129.5q-66 -129 -177 -129q-67 0 -149 58z" />
<glyph unicode="&#x498;" d="M61 61v349h82l25 -105q26 -115 108 -178q72 -53 185 -53q132 0 223 78q102 87 102 256q0 160 -96 245q-82 72 -219 72q-70 0 -131 -20v122h123q143 0 217 74t74 207q0 116 -68 182q-72 70 -209 70q-94 0 -149 -33q-83 -46 -109 -151l-22 -91h-82v328q111 14 161 23 q8 1 32.5 5.5t35.5 6.5t33.5 5.5t39.5 5t40.5 2.5t48.5 1q222 0 336 -92q116 -95 116 -248q0 -132 -86 -221q-70 -74 -176 -106v-4q106 -20 183 -86q125 -108 125 -291q0 -122 -50 -207.5t-123 -136.5q-61 -42 -140 -66t-148 -29l59 -393q0 -45 -31 -73.5t-82 -28.5 q-50 0 -81 28.5t-31 73.5l59 389q-116 3 -221 41q-12 5 -37 15t-36 14t-33 10t-48 10z" />
<glyph unicode="&#x499;" horiz-adv-x="901" d="M61 160q0 34 15.5 57t40 31t53 6.5t55.5 -12.5q0 -72 33 -119q46 -70 148 -70q105 0 163 58q58 62 58 176q0 113 -62 168q-54 49 -166 49q-57 0 -112 -12v102h129q88 0 139 55q43 46 43 137q0 95 -53 144q-43 41 -137 41q-75 0 -117 -31q-42 -29 -64 -90l-47 -133h-69 l24 307q44 2 141 10q167 19 189 19q150 0 227 -54q43 -29 68.5 -77t25.5 -107q0 -98 -61 -168q-60 -63 -156 -86v-4q97 -11 160 -63q86 -70 86 -203q0 -86 -37 -149t-94 -101q-48 -32 -111 -49t-118 -19l57 -366q0 -46 -31 -72.5t-71 -26.5t-71.5 26.5t-31.5 72.5l58 364 q-59 0 -118.5 13t-96.5 36q-89 54 -89 140z" />
<glyph unicode="&#x49a;" horiz-adv-x="1454" d="M82 0v70l139 32q6 1 12.5 4.5t14.5 10.5t13 21.5t5 33.5v1090q0 25 -9.5 41.5t-18 21.5t-17.5 6l-139 33v70h573v-70l-139 -33q-9 -1 -17.5 -6t-18 -21.5t-9.5 -41.5v-467h84q81 0 123 32q47 34 92 136l104 243q3 6 15 34t19 42t19.5 37.5t26 41.5t29.5 34q67 67 156 67 q71 0 115 -38t44 -103q0 -60 -44 -98.5t-101 -14.5q-1 26 -19 40t-44 14q-44 0 -78 -43q-28 -37 -54 -101l-84 -200q-28 -65 -61.5 -108.5t-89.5 -68.5v-4q70 -6 131 -41q62 -37 113 -129l196 -372q43 -84 99 -84h151v-459h-82l-31 176q-18 91 -53 129q-39 43 -108 43h-9 q-94 0 -163 129l-203 391q-44 83 -78 117q-47 47 -113 47h-102v-512q0 -36 15 -51.5t30 -18.5l139 -32v-70h-573z" />
<glyph unicode="&#x49b;" horiz-adv-x="1085" d="M70 0v61l82 21q41 10 41 49v762q0 39 -41 49l-82 21v61h422v-61l-82 -21q-41 -10 -41 -49v-311h55q71 0 115 34q52 41 100 148l55 127q16 37 29 60t34.5 49.5t50.5 39.5t66 13q56 0 88.5 -33t32.5 -78q0 -36 -19.5 -64t-53.5 -38q-23 41 -74 41q-53 0 -86 -72l-51 -117 q-42 -99 -133 -145v-4q100 -19 161 -99q14 -18 28 -44.5t22 -46.5t26.5 -66t28.5 -70q35 -84 55 -106q17 -21 39 -21h106v-364h-69l-35 147q-4 21 -15 54t-22 46q-19 27 -53 27h-8q-106 0 -185 197q-24 57 -42.5 106t-28.5 72q-22 52 -55 84.5t-91 32.5h-71v-361 q0 -39 41 -49l82 -21v-61h-422z" />
<glyph unicode="&#x49c;" horiz-adv-x="1576" d="M82 0v70l139 32q6 1 12.5 4.5t14.5 10.5t13 21.5t5 33.5v1090q0 25 -9.5 41.5t-18 21.5t-17.5 6l-139 33v70h573v-70l-139 -33q-9 -1 -17.5 -6t-18 -21.5t-9.5 -41.5v-467h176v270h111v-270h20q58 0 99 30q12 10 22.5 22.5t19.5 30.5t13 27.5t12.5 32t9.5 25.5l97 243 q56 134 108 189q67 67 156 67q72 0 116 -38t44 -103q0 -60 -44.5 -98.5t-101.5 -14.5q-1 26 -19 40t-44 14q-44 0 -78 -43q-27 -34 -53 -101l-76 -200q-1 -2 -6 -16.5t-7 -19t-7.5 -18.5t-9 -20.5t-10.5 -19t-13 -19.5l-15 -17.5t-18 -17.5t-20.5 -15t-24.5 -14v-4 q78 -11 133 -41q74 -43 106 -129l129 -350q42 -115 140 -115q54 0 100 31v-82q-49 -34 -82 -49q-67 -31 -137 -31q-61 0 -111 29q-79 45 -116 152l-127 368q-6 19 -25 55.5t-45 61.5q-50 47 -115 47h-20v-287h-111v287h-176v-512q0 -36 15 -51.5t30 -18.5l139 -32v-70h-573z " />
<glyph unicode="&#x49d;" horiz-adv-x="1146" d="M70 0v61l82 21q41 10 41 49v762q0 39 -41 49l-82 21v61h422v-61l-82 -21q-41 -10 -41 -49v-311h127v204h98v-204q42 0 74 28q41 39 65 129l45 152q48 162 178 162q56 0 88.5 -33t32.5 -78q0 -36 -19.5 -64t-53.5 -38q-23 41 -74 41q-28 0 -49 -19t-28.5 -36t-12.5 -35 l-27 -93q-19 -66 -42 -100t-62 -51v-4q102 -17 155 -90q21 -27 38.5 -75t47.5 -159q2 -8 7 -26.5t8 -30t9 -29t12 -28.5t14 -22t18 -16.5t22 -5.5q10 0 31.5 10t34.5 19v-61q-82 -58 -152 -58q-28 0 -52 12.5t-39.5 29t-30.5 44t-22 47t-17 48.5q-14 45 -28 93t-23 76 t-19 54q-8 24 -17 41.5t-24 37t-37.5 29.5t-50.5 9v-226h-98v226h-127v-361q0 -39 41 -49l82 -21v-61h-422z" />
<glyph unicode="&#x4a0;" horiz-adv-x="1679" d="M61 1106v328h840v-70l-139 -33q-9 -1 -17.5 -6t-18 -21.5t-9.5 -41.5v-467h84q81 0 123 32q47 34 92 136l104 243q3 6 15 34t19 42t19.5 37.5t26 41.5t29.5 34q67 67 155 67q72 0 116 -38t44 -103q0 -60 -44 -98.5t-101 -14.5q-1 26 -19.5 40t-44.5 14q-44 0 -78 -43 q-26 -34 -53 -101l-84 -200q-28 -65 -61.5 -108.5t-89.5 -68.5v-4q70 -6 131 -41q60 -36 112 -129l197 -372q12 -22 19.5 -33t23.5 -28t37 -24.5t49 -7.5q56 0 100 31v-82q-49 -34 -82 -49q-67 -31 -135 -31q-59 0 -106 29q-22 13 -47 42.5t-39 55.5l-219 422 q-44 83 -78 117q-47 47 -113 47h-102v-512q0 -36 15 -51.5t30 -18.5l139 -32v-70h-573v70l139 32q6 1 12.5 4.5t14.5 10.5t13 21.5t5 33.5v1151h-193q-69 0 -106 -25q-34 -23 -43 -65l-27 -127h-82z" />
<glyph unicode="&#x4a1;" horiz-adv-x="1310" d="M61 680v344h664v-61l-82 -21q-41 -10 -41 -49v-311h55q71 0 115 34q52 41 100 148l56 127q16 37 29 60t34.5 49.5t50.5 39.5t66 13q56 0 88.5 -33t32.5 -78q0 -36 -19.5 -64t-54.5 -38q-23 41 -74 41q-53 0 -86 -72l-51 -117q-42 -99 -133 -145v-4q91 -16 154 -90 q11 -13 20 -26.5t20 -37t18 -40.5l24.5 -59.5t29.5 -70.5q41 -94 63 -122q28 -36 62 -36q29 0 68 29v-61q-83 -58 -154 -58q-36 0 -66 12t-52.5 35t-35.5 42t-28 46q-28 53 -64.5 146t-50.5 123q-12 25 -22 41.5t-27 36t-41 29.5t-55 10h-72v-361q0 -39 41 -49l82 -21v-61 h-422v61l82 21q41 10 41 49v803h-160q-41 0 -67 -33q-19 -24 -35 -86l-33 -135h-70z" />
<glyph unicode="&#x4a2;" horiz-adv-x="1597" d="M82 0v70l139 32q6 1 12.5 4.5t14.5 10.5t13 21.5t5 33.5v1090q0 25 -9.5 41.5t-18 21.5t-17.5 6l-139 33v70h573v-70l-139 -33q-9 -1 -17.5 -6t-18 -21.5t-9.5 -41.5v-447h655v447q0 25 -9.5 41.5t-18 21.5t-17.5 6l-139 33v70h574v-70l-140 -33q-9 -1 -17.5 -6 t-18 -21.5t-9.5 -41.5v-1098q0 -22 15 -37.5t38 -15.5h132v-459h-82l-31 176q-13 90 -55 129q-45 43 -140 43h-266v70l139 32q6 1 12.5 4.5t14.5 10.5t13 21.5t5 33.5v533h-655v-533q0 -36 15 -51.5t30 -18.5l139 -32v-70h-573z" />
<glyph unicode="&#x4a3;" horiz-adv-x="1167" d="M70 0v61l82 21q41 10 41 49v762q0 39 -41 49l-82 21v61h422v-61l-82 -21q-41 -10 -41 -49v-311h430v311q0 39 -41 49l-82 21v61h422v-61l-82 -21q-41 -10 -41 -49v-782q0 -21 24 -21h99v-364h-70l-35 147q-13 60 -37 94q-26 33 -67 33h-213v61l82 21q41 10 41 49v361 h-430v-361q0 -39 41 -49l82 -21v-61h-422z" />
<glyph unicode="&#x4a4;" horiz-adv-x="1884" d="M82 0v70l139 32q6 1 12.5 4.5t14.5 10.5t13 21.5t5 33.5v1090q0 25 -9.5 41.5t-18 21.5t-17.5 6l-139 33v70h573v-70l-139 -33q-9 -1 -17.5 -6t-18 -21.5t-9.5 -41.5v-447h655v447q0 25 -9.5 41.5t-18 21.5t-17.5 6l-139 33v70h881v-328h-82l-27 127q-9 42 -43 65 q-37 25 -106 25h-234v-1151q0 -36 15 -51.5t30 -18.5l140 -32v-70h-574v70l139 32q6 1 12.5 4.5t14.5 10.5t13 21.5t5 33.5v533h-655v-533q0 -36 15 -51.5t30 -18.5l139 -32v-70h-573z" />
<glyph unicode="&#x4a5;" horiz-adv-x="1392" d="M70 0v61l82 21q41 10 41 49v762q0 39 -41 49l-82 21v61h422v-61l-82 -21q-41 -10 -41 -49v-311h430v311q0 39 -41 49l-82 21v61h676v-344h-70l-33 135q-16 62 -35 86q-26 33 -67 33h-172v-803q0 -39 41 -49l82 -21v-61h-422v61l82 21q41 10 41 49v361h-430v-361 q0 -39 41 -49l82 -21v-61h-422z" />
<glyph unicode="&#x4aa;" horiz-adv-x="1363" d="M106 702q0 184 62.5 338t169.5 254q183 168 469 168q133 0 262 -32q13 -3 47.5 -13t61.5 -15t65 -9l43 -377h-82l-49 139q-30 85 -108 139q-49 34 -117 52t-133 18q-205 0 -330 -143q-143 -161 -143 -471q0 -259 110 -447q42 -72 94.5 -122t105.5 -72t93.5 -30.5 t81.5 -8.5q67 0 142.5 21.5t119.5 53.5q75 55 107 142l43 123h82l-52 -349q-33 -5 -55.5 -10.5t-56 -14.5t-49.5 -13q-152 -39 -263 -48l60 -393q0 -45 -31 -73.5t-82 -28.5q-50 0 -81 28.5t-31 73.5l59 389q-107 4 -201.5 40.5t-149.5 79.5t-98 95q-81 97 -123.5 238 t-42.5 278z" />
<glyph unicode="&#x4ab;" horiz-adv-x="892" d="M86 479q0 124 32 237t93 189q64 79 145.5 113.5t190.5 34.5q124 0 196 -43q45 -28 71 -68.5t26 -83.5q0 -42 -29 -65t-72 -23q-35 0 -63 14v31q0 68 -41 113q-43 43 -107 43q-120 0 -186 -119q-63 -113 -63 -317q0 -207 63 -312q77 -129 223 -129q120 0 254 90l33 -61 q-74 -55 -155.5 -91.5t-119 -45.5t-59.5 -11l57 -368q0 -46 -31 -72.5t-71 -26.5t-71 26.5t-31 72.5l57 368q-144 12 -238 134q-104 134 -104 370z" />
<glyph unicode="&#x4ae;" horiz-adv-x="1290" d="M41 1364v70h508v-70l-76 -10q-61 -10 -61 -58q0 -27 22 -67l264 -447l224 383q45 83 45 117q0 28 -21 48t-59 24l-80 10v70h442v-70l-45 -14q-74 -23 -145 -146l-311 -540v-492q0 -61 45 -70l159 -32v-70h-614v70l160 32q45 9 45 70v492l-346 577q-50 86 -117 109z" />
<glyph unicode="&#x4af;" horiz-adv-x="1003" d="M20 961v63h412v-61l-61 -13q-37 -7 -51.5 -22t-14.5 -41q0 -33 12 -60l218 -559h4l188 512q25 68 25 103q0 55 -58 67l-61 13v61h350v-61l-27 -7q-30 -7 -65 -47q-32 -39 -55 -102l-254 -662v-501q0 -19 11 -33t30 -17l122 -24v-62h-503v62l123 24q19 3 30 17t11 33v493 l-310 756q-25 61 -76 68z" />
<glyph unicode="&#x4b0;" horiz-adv-x="1290" d="M41 1364v70h508v-70l-76 -10q-61 -10 -61 -58q0 -27 22 -67l264 -447l224 383q45 83 45 117q0 28 -21 48t-59 24l-80 10v70h442v-70l-45 -14q-74 -23 -145 -146l-311 -540v-123h327v-111h-327v-258q0 -61 45 -70l159 -32v-70h-614v70l160 32q45 9 45 70v258h-328v111h328 v123l-346 577q-50 86 -117 109z" />
<glyph unicode="&#x4b1;" horiz-adv-x="1003" d="M20 961v63h412v-61l-61 -13q-37 -7 -51.5 -22t-14.5 -41q0 -33 12 -60l218 -559h4l188 512q25 68 25 103q0 55 -58 67l-61 13v61h350v-61l-27 -7q-30 -7 -65 -47q-32 -39 -55 -102l-254 -662v-145h245v-90h-245v-266q0 -19 11 -33t30 -17l122 -24v-62h-503v62l123 24 q19 3 30 17t11 33v266h-246v90h246v137l-310 756q-25 61 -76 68z" />
<glyph unicode="&#x4b2;" horiz-adv-x="1474" d="M41 0v70l74 22q62 19 128.5 71.5t114.5 123.5l289 432l-336 502q-76 111 -172 133l-45 10v70h576v-70l-92 -12q-62 -9 -62 -54q0 -20 23 -57l241 -362l213 331q37 60 37 84q0 49 -55 58l-72 12v70h457v-70l-45 -8q-137 -23 -230 -170l-249 -389l419 -633q35 -53 84 -53 h115v-459h-82l-31 176q-13 90 -55 129q-45 43 -139 43h-262v70l78 10q57 7 57 53q0 27 -33 76l-285 426l-243 -375q-43 -65 -43 -106q0 -59 73 -74l56 -10v-70h-504z" />
<glyph unicode="&#x4b3;" horiz-adv-x="1044" d="M41 0v61q50 10 102 50q66 51 111 116l192 283l-180 305q-38 66 -98 105q-59 38 -127 43v61h451v-61q-30 0 -55 -14.5t-25 -43.5q0 -19 14 -43l127 -217l141 215q17 27 17 51q0 28 -31 35l-70 17v61h373v-61q-56 -4 -100 -25q-49 -22 -99 -94l-186 -275l274 -458 q10 -21 33 -21h99v-364h-70l-35 147q-13 60 -37 94q-26 33 -67 33h-234v61l70 17q24 5 31.5 13.5t7.5 21.5t-17 47l-159 270l-150 -225q-29 -44 -29 -72q0 -20 12.5 -35.5t32.5 -19.5l70 -17v-61h-389z" />
<glyph unicode="&#x4b6;" horiz-adv-x="1433" d="M41 1364v70h573v-70l-139 -33q-9 -1 -17.5 -6t-18 -21.5t-9.5 -41.5v-340q0 -29 2 -48.5t13 -46t32 -45.5q53 -49 170 -49q169 0 316 78v451q0 25 -9.5 41.5t-18 21.5t-17.5 6l-140 33v70h574v-70l-140 -33q-9 -1 -17.5 -6t-18 -21.5t-9.5 -41.5v-1098q0 -22 15.5 -37.5 t38.5 -15.5h131v-459h-82l-31 176q-13 90 -55 129q-45 43 -140 43h-286v70l160 32q45 9 45 70v524q-158 -61 -342 -61q-208 0 -304 72q-92 67 -92 200v355q0 25 -9.5 41.5t-18 21.5t-17.5 6z" />
<glyph unicode="&#x4b7;" horiz-adv-x="1093" d="M41 963v61h422v-61l-82 -21q-41 -10 -41 -49v-197q0 -35 0.5 -50.5t9 -44.5t25.5 -48q43 -47 135 -47q105 0 215 57v330q0 39 -41 49l-82 21v61h422v-61l-82 -21q-41 -10 -41 -49v-782q0 -21 25 -21h98v-364h-70l-34 147q-13 60 -37 94q-26 33 -68 33h-233v61l102 21 q19 3 30 16.5t11 32.5v342q-130 -49 -248 -49q-160 0 -233 61q-37 30 -56 73t-21.5 69.5t-2.5 68.5v197q0 39 -41 49z" />
<glyph unicode="&#x4b8;" horiz-adv-x="1474" d="M41 1364v70h573v-70l-139 -33q-9 -1 -17.5 -6t-18 -21.5t-9.5 -41.5v-340q0 -98 57 -142q29 -22 76.5 -33.5t91.5 -9.5v287h111v-287q135 15 238 74v451q0 19 -5 33.5t-13.5 21.5t-15 10t-12.5 4l-139 33v70h574v-70l-140 -33q-9 -1 -17.5 -6t-18 -21.5t-9.5 -41.5v-1090 q0 -36 15 -51.5t30 -18.5l140 -32v-70h-594v70l159 32q46 9 46 70v524q-141 -52 -238 -57v-283h-111v283q-82 -3 -177 16t-150 56q-103 68 -103 196v355q0 25 -9.5 41.5t-18 21.5t-17.5 6z" />
<glyph unicode="&#x4b9;" horiz-adv-x="1146" d="M41 963v61h422v-61l-82 -21q-41 -10 -41 -49v-197v-14v-14.5t0.5 -14t1 -15.5t2 -14.5t3.5 -15.5t5 -14.5t6.5 -14.5t9 -13t11.5 -13q22 -20 58 -31.5t67 -11.5v235h98v-235q89 8 176 53v330q0 39 -41 49l-82 21v61h422v-61l-82 -21q-41 -10 -41 -49v-762q0 -39 41 -49 l82 -21v-61h-442v61l102 21q19 3 30 16.5t11 32.5v342q-86 -34 -176 -45v-223h-98v223q-165 -4 -252 61q-88 67 -88 207v197q0 39 -41 49z" />
<glyph unicode="&#x4ba;" horiz-adv-x="1433" d="M82 0v70l139 32q6 1 12.5 4.5t14.5 10.5t13 21.5t5 33.5v1090q0 25 -9.5 41.5t-18 21.5t-17.5 6l-139 33v70h594v-70l-160 -33q-45 -9 -45 -69v-484q160 62 342 62q207 0 303 -72q92 -67 92 -201v-395q0 -36 15 -51.5t30 -18.5l140 -32v-70h-574v70l139 32q6 1 12.5 4.5 t14.5 10.5t13.5 21.5t5.5 33.5v381q0 95 -48 139q-53 49 -170 49q-170 0 -315 -77v-492q0 -36 15 -51.5t30 -18.5l139 -32v-70h-573z" />
<glyph unicode="&#x4bb;" horiz-adv-x="1146" d="M49 1466v62q149 22 283 69h37v-675q43 45 108 82q91 49 191 49q139 0 213 -74q36 -35 55.5 -86t23 -86.5t3.5 -83.5v-592q0 -39 41 -49l81 -21v-61h-421v61l81 21q41 10 41 49v592q0 40 -1.5 64.5t-10.5 59t-26 58.5q-44 58 -123 58q-98 0 -170 -72q-86 -83 -86 -189 v-571q0 -39 41 -49l82 -21v-61h-422v61l82 21q41 10 41 49v1262q0 9 -3 17t-7 12.5t-9.5 8.5t-9 6t-8.5 3l-4 2z" />
<glyph unicode="&#x4c0;" horiz-adv-x="540" d="M49 0v61l82 21q41 10 41 49v1172q0 39 -41 49l-82 20v62h422v-62l-82 -20q-41 -10 -41 -49v-1172q0 -39 41 -49l82 -21v-61h-422z" />
<glyph unicode="&#x4c3;" horiz-adv-x="1380" d="M82 0v70l139 32q6 1 12.5 4.5t14.5 10.5t13 21.5t5 33.5v1090q0 25 -9.5 41.5t-18 21.5t-17.5 6l-139 33v70h573v-70l-139 -33q-9 -1 -17.5 -6t-18 -21.5t-9.5 -41.5v-467h84q81 0 123 32q47 34 92 136l104 243q3 6 15 34t19 42t19.5 37.5t26 41.5t29.5 34q67 67 156 67 q71 0 115 -38t44 -103q0 -60 -44 -98.5t-101 -14.5q-1 26 -19 40t-44 14q-44 0 -78 -43q-28 -37 -54 -101l-84 -200q-30 -72 -59.5 -105.5t-64.5 -46.5l2 -6q42 -3 85.5 -12t100.5 -29t114.5 -61t102.5 -97q72 -91 97.5 -194.5t25.5 -227.5q0 -280 -131 -428 q-108 -121 -279 -121q-108 0 -174 39q-71 44 -71 121q0 50 31.5 78.5t82.5 28.5q39 0 86 -21q0 -62 13 -94q23 -53 75 -53q82 0 117 114q33 109 33 273q0 240 -78 385q-51 95 -142 159t-218 64h-152v-512q0 -36 15 -51.5t30 -18.5l139 -32v-70h-573z" />
<glyph unicode="&#x4c4;" horiz-adv-x="1036" d="M70 0v61l82 21q41 10 41 49v762q0 39 -41 49l-82 21v61h422v-61l-82 -21q-41 -10 -41 -49v-311h55q71 0 115 34q52 41 100 148l55 127q16 37 29 60t34.5 49.5t50.5 39.5t66 13q56 0 88.5 -33t32.5 -78q0 -36 -19.5 -64t-53.5 -38q-23 41 -74 41q-53 0 -86 -72l-51 -117 q-42 -99 -133 -145v-4q82 -9 156.5 -45.5t125.5 -91.5q25 -26 47.5 -61.5t45 -110.5t22.5 -162q0 -128 -45.5 -221t-114.5 -144q-101 -76 -233 -76q-92 0 -154 31q-72 42 -72 102q0 43 29 70t76 27q41 0 76 -21q0 -51 16 -82q11 -20 33 -32.5t49 -12.5q74 0 117 80 q39 76 39 227q0 166 -56 289q-17 35 -37 62.5t-53.5 57.5t-86 46.5t-118.5 16.5h-71v-361q0 -39 41 -49l82 -21v-61h-422z" />
<glyph unicode="&#x4c7;" horiz-adv-x="1597" d="M82 0v70l139 32q6 1 12.5 4.5t14.5 10.5t13 21.5t5 33.5v1090q0 25 -9.5 41.5t-18 21.5t-17.5 6l-139 33v70h573v-70l-139 -33q-9 -1 -17.5 -6t-18 -21.5t-9.5 -41.5v-447h655v447q0 25 -9.5 41.5t-18 21.5t-17.5 6l-139 33v70h574v-70l-140 -33q-9 -1 -17.5 -6 t-18 -21.5t-9.5 -41.5v-1254q0 -217 -123 -327q-103 -91 -274 -91q-106 0 -174 39q-72 45 -72 121q0 50 32 78.5t83 28.5q39 0 86 -21q0 -64 12 -94q21 -53 78 -53q70 0 111 75q36 62 36 211v730h-655v-533q0 -36 15 -51.5t30 -18.5l139 -32v-70h-573z" />
<glyph unicode="&#x4c8;" horiz-adv-x="1167" d="M70 0v61l82 21q41 10 41 49v762q0 39 -41 49l-82 21v61h422v-61l-82 -21q-41 -10 -41 -49v-311h430v311q0 39 -41 49l-82 21v61h422v-61l-82 -21q-41 -10 -41 -49v-782q0 -87 -14.5 -160t-38.5 -120t-40.5 -71t-33.5 -41q-91 -88 -234 -88q-77 0 -133 31q-71 40 -71 102 q0 38 25.5 67.5t78.5 29.5q42 0 76 -21q0 -51 16 -82q23 -45 68 -45q16 0 31.5 5t37 27t33.5 60q23 76 23 236v451h-430v-361q0 -39 41 -49l82 -21v-61h-422z" />
<glyph unicode="&#x4d0;" horiz-adv-x="1454" d="M41 0v70l43 12q42 13 82 47q29 29 51 84l432 1149q23 61 31 100h86q8 -41 31 -100l471 -1172q23 -55 59 -84q38 -31 86 -36v-70h-498v70l103 20q43 11 43 51q0 16 -14 49l-127 330h-463l-113 -323q-12 -37 -12 -58q0 -15 9.5 -30t29.5 -19l88 -20v-70h-418zM367 1749 q0 45 31.5 69.5t74.5 24.5q42 0 78 -31q-4 -66 22 -110q16 -27 54.5 -45.5t99.5 -18.5t99.5 18.5t54.5 45.5q26 44 22 110q36 31 78 31q43 0 74.5 -24.5t31.5 -69.5q0 -50 -25 -82.5t-73 -58.5q-64 -33 -125 -42.5t-137 -9.5q-49 0 -83 2.5t-84 14.5t-95 35q-48 26 -73 58.5 t-25 82.5zM500 631h381l-195 520h-4z" />
<glyph unicode="&#x4d1;" horiz-adv-x="983" d="M82 246q0 144 96 223q47 38 109.5 61t152.5 43l183 41v213q0 67 -23 101q-30 43 -96 43q-39 0 -81 -13t-69 -34q-72 -58 -51 -164q-74 -33 -119 -33q-69 0 -69 61q0 53 44 109.5t107 91.5q119 64 266 64q130 0 197 -56q70 -59 70 -170v-663q0 -47 16 -78q16 -25 35 -25 q36 0 72 29v-61q-88 -58 -152 -58q-60 0 -98 58q-27 47 -35 94q-51 -54 -121 -96q-95 -56 -188 -56q-94 0 -162 62q-84 75 -84 213zM184 1409q0 50 31 78.5t76 28.5q38 0 65 -31q-12 -41 -12 -84q0 -63 39 -92q36 -31 109 -31q72 0 108 31q39 29 39 92q0 43 -12 84 q27 31 65 31q45 0 76 -28.5t31 -78.5q0 -90 -80 -145q-82 -56 -227 -56q-146 0 -228 56q-80 55 -80 145zM258 276q0 -70 27 -122q36 -68 112 -68q91 0 158 76q68 79 68 184v186l-142 -34q-112 -28 -159 -68q-64 -52 -64 -154z" />
<glyph unicode="&#x4d2;" horiz-adv-x="1454" d="M41 0v70l43 12q42 13 82 47q29 29 51 84l432 1149q23 61 31 100h86q8 -41 31 -100l471 -1172q23 -55 59 -84q38 -31 86 -36v-70h-498v70l103 20q43 11 43 51q0 16 -14 49l-127 330h-463l-113 -323q-12 -37 -12 -58q0 -15 9.5 -30t29.5 -19l88 -20v-70h-418zM420 1679 q0 51 36 87t87 36t87 -36t36 -87t-36 -87t-87 -36t-87 36t-36 87zM500 631h381l-195 520h-4zM788 1679q0 51 36 87t87 36t87 -36t36 -87t-36 -87t-87 -36t-87 36t-36 87z" />
<glyph unicode="&#x4d3;" horiz-adv-x="983" d="M82 246q0 144 96 223q47 38 109.5 61t152.5 43l183 41v213q0 67 -23 101q-30 43 -96 43q-39 0 -81 -13t-69 -34q-72 -58 -51 -164q-74 -33 -119 -33q-69 0 -69 61q0 53 44 109.5t107 91.5q119 64 266 64q130 0 197 -56q70 -59 70 -170v-663q0 -47 16 -78q16 -25 35 -25 q36 0 72 29v-61q-88 -58 -152 -58q-60 0 -98 58q-27 47 -35 94q-51 -54 -121 -96q-95 -56 -188 -56q-94 0 -162 62q-84 75 -84 213zM193 1372q0 46 34 80.5t80 34.5t80.5 -34.5t34.5 -80.5t-34.5 -80.5t-80.5 -34.5t-80 34.5t-34 80.5zM258 276q0 -70 27 -122 q36 -68 112 -68q91 0 158 76q68 79 68 184v186l-142 -34q-112 -28 -159 -68q-64 -52 -64 -154zM561 1372q0 46 34.5 80.5t80.5 34.5t80.5 -34.5t34.5 -80.5t-34.5 -80.5t-80.5 -34.5t-80.5 34.5t-34.5 80.5z" />
<glyph unicode="&#x4d4;" horiz-adv-x="2041" d="M41 0v70l59 22q54 21 105 68q41 39 98 127l576 911q24 37 24 68t-16.5 44t-44.5 19l-164 35v70h1245v-328h-82l-26 127q-9 42 -43 65q-38 25 -107 25h-381v-516h270q51 0 82 31q24 28 31 69l10 76h82v-471h-82l-12 92q-7 42 -29 64q-26 28 -82 28h-270v-532 q0 -22 15 -37.5t38 -15.5h310q74 0 120 34q35 26 58 80l53 133h82l-57 -358h-1008v70l139 32q6 1 12.5 4.5t14.5 10.5t13 21.5t5 33.5v348h-491l-162 -260q-43 -67 -43 -108q0 -59 74 -72l55 -10v-70h-471zM659 631h420v672h-4z" />
<glyph unicode="&#x4d5;" horiz-adv-x="1466" d="M82 246q0 144 96 223q47 38 109.5 61t152.5 43l183 41v213q0 67 -23 101q-30 43 -96 43q-39 0 -81 -13t-69 -34q-72 -58 -51 -164q-74 -33 -119 -33q-69 0 -69 61q0 53 44 109.5t107 91.5q52 30 125.5 47t140.5 17q109 0 173 -62q40 -40 49 -86q38 52 92 90q83 58 209 58 q178 0 264 -135q34 -54 49.5 -129.5t15.5 -145.5v-51l-49 -53h-534q-7 -72 9 -163t52 -153q73 -129 223 -129q67 0 139 27t128 63l32 -61q-61 -46 -155 -90q-141 -62 -236 -62q-120 0 -217 72q-70 53 -102 121q-61 -81 -158 -137q-112 -56 -188 -56q-93 0 -162 62 q-84 75 -84 213zM258 276q0 -70 27 -122q36 -68 112 -68q91 0 158 76q68 79 68 184v186l-142 -34q-112 -28 -159 -68q-64 -52 -64 -154zM807 629h303q54 0 76 20q22 17 22 66q0 108 -32 168q-45 88 -144 88q-115 0 -174 -115q-47 -90 -51 -227z" />
<glyph unicode="&#x4d6;" horiz-adv-x="1228" d="M82 0v70l139 32q6 1 12.5 4.5t14.5 10.5t13 21.5t5 33.5v1090q0 25 -9.5 41.5t-18 21.5t-17.5 6l-139 33v70h1028v-328h-82l-27 127q-9 42 -43 65q-38 25 -106 25h-381v-516h270q51 0 82 31q24 28 31 69l10 76h82v-471h-82l-12 92q-7 42 -29 64q-26 28 -82 28h-270v-532 q0 -22 15 -37.5t38 -15.5h310q74 0 120 34q35 26 58 80l53 133h82l-57 -358h-1008zM295 1749q0 45 31.5 69.5t74.5 24.5q42 0 78 -31q-4 -65 23 -110q16 -27 54 -45.5t99 -18.5t99.5 18.5t54.5 45.5q26 44 22 110q36 31 78 31q43 0 75 -24.5t32 -69.5q0 -50 -25 -82.5 t-73 -58.5q-45 -23 -95.5 -35t-84.5 -14.5t-83 -2.5t-83 2.5t-84 14.5t-95 35q-48 26 -73 58.5t-25 82.5z" />
<glyph unicode="&#x4d7;" horiz-adv-x="946" d="M86 475q0 107 27 223t84 197q63 89 143 123.5t182 34.5q28 0 52 -2t56.5 -10t59.5 -22t56.5 -40t52.5 -61q34 -54 49.5 -129.5t15.5 -145.5v-51l-49 -53h-534q-7 -72 9 -163t52 -153q73 -129 223 -129q66 0 138.5 27t127.5 63l33 -61q-61 -46 -155 -90q-135 -62 -240 -62 q-89 0 -160.5 38.5t-118.5 99.5q-104 144 -104 366zM205 1409q0 50 30.5 78.5t75.5 28.5q39 0 66 -31q-12 -41 -12 -84q0 -63 38 -92q36 -31 109 -31t109 31q38 29 38 92q0 43 -12 84q27 31 66 31q45 0 75.5 -28.5t30.5 -78.5q0 -90 -80 -145q-82 -56 -227 -56t-227 56 q-80 55 -80 145zM287 629h303q54 0 76 20q22 17 22 66q0 106 -33 168q-45 88 -143 88q-115 0 -174 -115q-47 -90 -51 -227z" />
<glyph unicode="&#x4d8;" horiz-adv-x="1454" d="M107 668.5q2 44.5 8 89.5h1015q3 114 -33.5 251.5t-109.5 219.5q-122 135 -325 135q-63 0 -139 -13t-122 -36q-85 -42 -110 -135l-25 -95h-82l33 328q69 2 201 23q160 26 278 26q285 0 451 -164q201 -197 201 -571q0 -187 -50.5 -332.5t-138.5 -240.5 q-170 -183 -461 -183q-267 0 -422 162q-56 58 -93.5 133.5t-53 141.5t-20 141t-2.5 119.5zM311 500q0 -68 19.5 -143.5t60.5 -133.5q47 -66 130.5 -109.5t193.5 -43.5q216 0 325 190q42 72 66 179t24 208h-729q-49 0 -69 -29q-21 -35 -21 -118z" />
<glyph unicode="&#x4d9;" horiz-adv-x="962" d="M86 414v86l49 53h553q0 198 -55 303q-30 58 -75 86.5t-114 28.5q-80 0 -133 -33q-52 -33 -71 -88l-33 -92h-70l21 266q53 0 135 12q104 17 156 17q183 0 288 -103q69 -68 106.5 -176.5t37.5 -232.5q0 -117 -28 -229t-79 -183q-113 -158 -317 -158q-185 0 -281 135 q-42 57 -66 145t-24 163zM262 354q0 -108 37 -186q52 -115 164 -115q116 0 172 121q24 50 37.5 131.5t13.5 157.5h-326q-54 0 -75 -21q-23 -20 -23 -88z" />
<glyph unicode="&#x4da;" horiz-adv-x="1454" d="M107 668.5q2 44.5 8 89.5h1015q3 114 -33.5 251.5t-109.5 219.5q-122 135 -325 135q-63 0 -139 -13t-122 -36q-85 -42 -110 -135l-25 -95h-82l33 328q69 2 201 23q160 26 278 26q285 0 451 -164q201 -197 201 -571q0 -187 -50.5 -332.5t-138.5 -240.5 q-170 -183 -461 -183q-267 0 -422 162q-56 58 -93.5 133.5t-53 141.5t-20 141t-2.5 119.5zM311 500q0 -68 19.5 -143.5t60.5 -133.5q47 -66 130.5 -109.5t193.5 -43.5q216 0 325 190q42 72 66 179t24 208h-729q-49 0 -69 -29q-21 -35 -21 -118zM389 1679q0 51 36 87t87 36 t87 -36t36 -87t-36 -87t-87 -36t-87 36t-36 87zM758 1679q0 51 36 87t87 36t87 -36t36 -87t-36 -87t-87 -36t-87 36t-36 87z" />
<glyph unicode="&#x4db;" horiz-adv-x="962" d="M86 414v86l49 53h553q0 198 -55 303q-30 58 -75 86.5t-114 28.5q-80 0 -133 -33q-52 -33 -71 -88l-33 -92h-70l21 266q53 0 135 12q104 17 156 17q183 0 288 -103q69 -68 106.5 -176.5t37.5 -232.5q0 -117 -28 -229t-79 -183q-113 -158 -317 -158q-185 0 -281 135 q-42 57 -66 145t-24 163zM182 1372q0 46 34.5 80.5t80.5 34.5t80.5 -34.5t34.5 -80.5t-34.5 -80.5t-80.5 -34.5t-80.5 34.5t-34.5 80.5zM262 354q0 -108 37 -186q52 -115 164 -115q116 0 172 121q24 50 37.5 131.5t13.5 157.5h-326q-54 0 -75 -21q-23 -20 -23 -88zM551 1372 q0 46 34.5 80.5t80.5 34.5t80 -34.5t34 -80.5t-34 -80.5t-80 -34.5t-80.5 34.5t-34.5 80.5z" />
<glyph unicode="&#x4dc;" horiz-adv-x="2007" d="M41 51v82q46 -31 98 -31q30 0 52 9t36.5 26t20.5 28.5t14 29.5l148 342q23 52 49.5 88t68.5 63q61 41 134 49v4q-49 21 -81 61t-44 75l-91 241q-21 65 -49 107q-28 45 -73 45q-27 0 -43.5 -14.5t-16.5 -38.5q-58 -24 -101.5 11t-43.5 93q0 65 44 103t113 38q86 0 150 -67 q9 -9 16.5 -18.5t15.5 -22t13.5 -20.5t12.5 -23.5t10.5 -21.5t10.5 -24t8.5 -21t8.5 -22l8 -20l109 -284q23 -60 70 -91q46 -32 118 -32h74v467q0 25 -9.5 41.5t-18 21.5t-17.5 6l-139 33v70h573v-70l-139 -33q-9 -1 -17.5 -6t-18 -21.5t-9.5 -41.5v-467h74q72 0 118 32 q47 31 70 91l109 284l7 20q8 19 9.5 22t8.5 21t10.5 24t10.5 21.5t12.5 23.5t13.5 20.5t15.5 22t16.5 18.5q64 67 150 67q69 0 113 -38t44 -103q0 -58 -43.5 -93t-101.5 -11q0 24 -16.5 38.5t-43.5 14.5q-45 0 -73 -45q-28 -42 -49 -107l-91 -241q-12 -36 -43.5 -75.5 t-80.5 -60.5v-4q72 -8 133 -49q42 -27 68.5 -63t49.5 -88l148 -342q8 -18 14 -29.5t20.5 -28.5t36.5 -26t52 -9q52 0 98 31v-82q-49 -34 -82 -49q-67 -31 -133 -31q-63 0 -109 27q-48 29 -77 100l-183 422q-38 82 -75 117q-47 47 -119 47h-82v-512q0 -36 15 -51.5t30 -18.5 l139 -32v-70h-573v70l139 32q6 1 12.5 4.5t14.5 10.5t13 21.5t5 33.5v512h-82q-72 0 -119 -47q-37 -35 -75 -117l-183 -422q-29 -71 -77 -100q-47 -27 -109 -27q-66 0 -133 31q-33 15 -82 49zM696 1679q0 51 36 87t87 36t87 -36t36 -87t-36 -87t-87 -36t-87 36t-36 87z M1065 1679q0 51 36 87t87 36t87 -36t36 -87t-36 -87t-87 -36t-87 36t-36 87z" />
<glyph unicode="&#x4dd;" horiz-adv-x="1503" d="M41 29v61q36 -29 72 -29q17 0 31.5 8t23.5 17.5t19 29t14.5 31t12.5 36t11 32.5q61 166 105 229q63 84 153 91v4q-40 15 -66 48t-55 105l-47 117q-8 21 -15 33.5t-23.5 25.5t-38.5 13q-51 0 -74 -41q-37 11 -55.5 41.5t-18.5 64.5q0 43 32 75t89 32q31 0 56 -10t42 -23.5 t32.5 -38t24.5 -42.5t21 -48l51 -129l10.5 -24.5t10.5 -25.5t10 -22.5t11.5 -22.5t11 -19t13.5 -19t15 -15q39 -32 96 -32h48v311q0 39 -41 49l-82 21v61h422v-61l-82 -21q-41 -10 -41 -49v-311h47q57 0 96 32q9 8 17.5 19.5t14 19.5t14.5 26t11.5 24.5t12.5 30t12 28.5 l51 129q12 30 21 48t24.5 42.5t32.5 38t42 23.5t56 10q57 0 89 -32t32 -75q0 -34 -18.5 -64.5t-55.5 -41.5q-23 41 -73 41q-22 0 -38.5 -12.5t-24 -26t-15.5 -33.5l-47 -117q-29 -72 -55 -105t-66 -48v-4q91 -7 154 -91q42 -60 104 -229q3 -7 11.5 -32.5t13 -36.5t14.5 -31 t19 -29t23.5 -17t31.5 -8q35 0 71 29v-61q-82 -58 -149 -58q-110 0 -176 129q-20 38 -55 131.5t-56 143.5q-11 26 -20 41.5t-25 35.5t-38.5 30t-51.5 10h-51v-361q0 -39 41 -49l82 -21v-61h-431v61l82 21q50 12 50 49v361h-52q-29 0 -51.5 -10t-38.5 -30t-25 -35.5 t-20 -41.5q-22 -53 -56.5 -145.5t-53.5 -129.5q-66 -129 -177 -129q-67 0 -149 58zM453 1372q0 46 34 80.5t80 34.5t80.5 -34.5t34.5 -80.5t-34.5 -80.5t-80.5 -34.5t-80 34.5t-34 80.5zM821 1372q0 46 34.5 80.5t80.5 34.5t80.5 -34.5t34.5 -80.5t-34.5 -80.5t-80.5 -34.5 t-80.5 34.5t-34.5 80.5z" />
<glyph unicode="&#x4de;" d="M61 61v349h82l25 -105q26 -115 108 -178q72 -53 185 -53q132 0 223 78q102 87 102 256q0 160 -96 245q-82 72 -219 72q-70 0 -131 -20v122h123q143 0 217 74t74 207q0 116 -68 182q-72 70 -209 70q-94 0 -149 -33q-83 -46 -109 -151l-22 -91h-82v328q111 14 161 23 q8 1 32.5 5.5t35.5 6.5t33.5 5.5t39.5 5t40.5 2.5t48.5 1q222 0 336 -92q116 -95 116 -248q0 -132 -86 -221q-70 -74 -176 -106v-4q106 -20 183 -86q125 -108 125 -291q0 -220 -173 -344q-69 -48 -168 -73.5t-208 -25.5q-128 0 -240 41q-10 4 -29.5 12.5t-28.5 11.5t-25 8.5 t-33 9.5t-38 7zM205 1679q0 51 36 87t87 36t87 -36t36 -87t-36 -87t-87 -36t-87 36t-36 87zM573 1679q0 51 36 87t87 36t87 -36t36 -87t-36 -87t-87 -36t-87 36t-36 87z" />
<glyph unicode="&#x4df;" horiz-adv-x="901" d="M61 160q0 34 15.5 57t40 31t53 6.5t55.5 -12.5q0 -72 33 -119q46 -70 148 -70q105 0 163 58q58 62 58 176q0 113 -62 168q-54 49 -166 49q-57 0 -112 -12v102h129q88 0 139 55q43 46 43 137q0 95 -53 144q-43 41 -137 41q-75 0 -117 -31q-42 -29 -64 -90l-47 -133h-69 l24 307q44 2 141 10q167 19 189 19q150 0 227 -54q43 -29 68.5 -77t25.5 -107q0 -98 -61 -168q-60 -63 -156 -86v-4q97 -11 160 -63q86 -70 86 -203q0 -92 -40 -154t-91 -96q-103 -70 -293 -70q-160 0 -241 49q-89 52 -89 140zM152 1372q0 46 34 80.5t80 34.5t80.5 -34.5 t34.5 -80.5t-34.5 -80.5t-80.5 -34.5t-80 34.5t-34 80.5zM520 1372q0 46 34.5 80.5t80.5 34.5t80.5 -34.5t34.5 -80.5t-34.5 -80.5t-80.5 -34.5t-80.5 34.5t-34.5 80.5z" />
<glyph unicode="&#x4e2;" horiz-adv-x="1638" d="M82 0v70l139 32q6 1 12.5 4.5t14.5 10.5t13 21.5t5 33.5v1090q0 25 -9.5 41.5t-18 21.5t-17.5 6l-139 33v70h573v-70l-139 -33q-9 -1 -17.5 -6t-18 -21.5t-9.5 -41.5v-889l696 864v25q0 25 -9.5 41.5t-18 21.5t-17.5 6l-139 33v70h573v-70l-139 -33q-9 -1 -17.5 -6 t-18 -21.5t-9.5 -41.5v-1090q0 -36 15 -51.5t30 -18.5l139 -32v-70h-573v70l139 32q6 1 12.5 4.5t14.5 10.5t13 21.5t5 33.5v901l-696 -864v-37q0 -36 15 -51.5t30 -18.5l139 -32v-70h-573zM512 1577v106h614v-106h-614z" />
<glyph unicode="&#x4e3;" horiz-adv-x="1187" d="M70 0v61l82 21q41 10 41 49v762q0 39 -41 49l-82 21v61h422v-61l-82 -21q-41 -10 -41 -49v-586l450 578v8q0 39 -41 49l-82 21v61h422v-61l-82 -21q-41 -10 -41 -49v-762q0 -39 41 -49l82 -21v-61h-422v61l82 21q41 10 41 49v619l-450 -578v-41q0 -39 41 -49l82 -21v-61 h-422zM328 1274v98h532v-98h-532z" />
<glyph unicode="&#x4e4;" horiz-adv-x="1638" d="M82 0v70l139 32q6 1 12.5 4.5t14.5 10.5t13 21.5t5 33.5v1090q0 25 -9.5 41.5t-18 21.5t-17.5 6l-139 33v70h573v-70l-139 -33q-9 -1 -17.5 -6t-18 -21.5t-9.5 -41.5v-889l696 864v25q0 25 -9.5 41.5t-18 21.5t-17.5 6l-139 33v70h573v-70l-139 -33q-9 -1 -17.5 -6 t-18 -21.5t-9.5 -41.5v-1090q0 -36 15 -51.5t30 -18.5l139 -32v-70h-573v70l139 32q6 1 12.5 4.5t14.5 10.5t13 21.5t5 33.5v901l-696 -864v-37q0 -36 15 -51.5t30 -18.5l139 -32v-70h-573zM512 1679q0 51 36 87t87 36t87 -36t36 -87t-36 -87t-87 -36t-87 36t-36 87z M881 1679q0 51 36 87t87 36t86.5 -36t35.5 -87t-35.5 -87t-86.5 -36t-87 36t-36 87z" />
<glyph unicode="&#x4e5;" horiz-adv-x="1187" d="M70 0v61l82 21q41 10 41 49v762q0 39 -41 49l-82 21v61h422v-61l-82 -21q-41 -10 -41 -49v-586l450 578v8q0 39 -41 49l-82 21v61h422v-61l-82 -21q-41 -10 -41 -49v-762q0 -39 41 -49l82 -21v-61h-422v61l82 21q41 10 41 49v619l-450 -578v-41q0 -39 41 -49l82 -21v-61 h-422zM295 1372q0 46 34.5 80.5t80.5 34.5t80 -34.5t34 -80.5t-34 -80.5t-80 -34.5t-80.5 34.5t-34.5 80.5zM664 1372q0 46 34 80.5t80 34.5t80.5 -34.5t34.5 -80.5t-34.5 -80.5t-80.5 -34.5t-80 34.5t-34 80.5z" />
<glyph unicode="&#x4e6;" horiz-adv-x="1515" d="M106 717q0 163 47 312t142 251q169 182 463 182t463 -182q95 -102 141.5 -251t46.5 -312t-46.5 -312t-141.5 -251q-170 -183 -463 -183t-463 183q-95 102 -142 251t-47 312zM324 717q0 -282 98 -451q57 -97 137.5 -146.5t198.5 -49.5t198.5 49.5t137.5 146.5 q98 169 98 451q0 281 -98 450q-57 97 -137.5 147t-198.5 50t-198.5 -50t-137.5 -147q-98 -169 -98 -450zM451 1679q0 51 35.5 87t86.5 36t87 -36t36 -87t-36 -87t-87 -36t-86.5 36t-35.5 87zM819 1679q0 51 36 87t87 36t87 -36t36 -87t-36 -87t-87 -36t-87 36t-36 87z" />
<glyph unicode="&#x4e7;" d="M86 512q0 135 37.5 241.5t105.5 174.5q125 125 324 125t324 -125q68 -68 105.5 -174.5t37.5 -241.5t-37.5 -241.5t-105.5 -174.5q-125 -125 -324 -125t-324 125q-68 68 -105.5 174.5t-37.5 241.5zM254 1372q0 46 34.5 80.5t80.5 34.5t80 -34.5t34 -80.5t-34 -80.5 t-80 -34.5t-80.5 34.5t-34.5 80.5zM279 512q0 -225 63 -334q36 -63 86 -94t125 -31t125 31t86 94q63 109 63 334t-63 334q-36 63 -86 94t-125 31t-125 -31t-86 -94q-63 -109 -63 -334zM623 1372q0 46 34 80.5t80 34.5t80.5 -34.5t34.5 -80.5t-34.5 -80.5t-80.5 -34.5 t-80 34.5t-34 80.5z" />
<glyph unicode="&#x4e8;" horiz-adv-x="1515" d="M106 717q0 163 47 312t142 251q169 182 463 182t463 -182q95 -102 141.5 -251t46.5 -312t-46.5 -312t-141.5 -251q-170 -183 -463 -183t-463 183q-95 102 -142 251t-47 312zM324 676q2 -109 28.5 -222t69.5 -188q57 -97 137.5 -146.5t198.5 -49.5t198.5 49.5t137.5 146.5 q43 75 69.5 188t28.5 222h-868zM326 786h864q-3 95 -28 199.5t-68 181.5q-57 97 -137.5 147t-198.5 50t-198.5 -50t-137.5 -147q-43 -77 -68 -181.5t-28 -199.5z" />
<glyph unicode="&#x4e9;" d="M86 512q0 135 37.5 241.5t105.5 174.5q125 125 324 125t324 -125q68 -68 105.5 -174.5t37.5 -241.5t-37.5 -241.5t-105.5 -174.5q-125 -125 -324 -125t-324 125q-68 68 -105.5 174.5t-37.5 241.5zM279 492q-3 -75 13.5 -165t49.5 -149q36 -63 86 -94t125 -31t125 31 t86 94q33 59 49.5 149t13.5 165h-548zM281 582h544q0 62 -15 135.5t-46 128.5q-36 63 -86 94t-125 31t-125 -31t-86 -94q-31 -55 -46 -128.5t-15 -135.5z" />
<glyph unicode="&#x4ea;" horiz-adv-x="1515" d="M106 717q0 163 47 312t142 251q169 182 463 182t463 -182q95 -102 141.5 -251t46.5 -312t-46.5 -312t-141.5 -251q-170 -183 -463 -183t-463 183q-95 102 -142 251t-47 312zM324 676q2 -109 28.5 -222t69.5 -188q57 -97 137.5 -146.5t198.5 -49.5t198.5 49.5t137.5 146.5 q43 75 69.5 188t28.5 222h-868zM326 786h864q-3 95 -28 199.5t-68 181.5q-57 97 -137.5 147t-198.5 50t-198.5 -50t-137.5 -147q-43 -77 -68 -181.5t-28 -199.5zM451 1679q0 51 35.5 87t86.5 36t87 -36t36 -87t-36 -87t-87 -36t-86.5 36t-35.5 87zM819 1679q0 51 36 87 t87 36t87 -36t36 -87t-36 -87t-87 -36t-87 36t-36 87z" />
<glyph unicode="&#x4eb;" d="M86 512q0 135 37.5 241.5t105.5 174.5q125 125 324 125t324 -125q68 -68 105.5 -174.5t37.5 -241.5t-37.5 -241.5t-105.5 -174.5q-125 -125 -324 -125t-324 125q-68 68 -105.5 174.5t-37.5 241.5zM254 1372q0 46 34.5 80.5t80.5 34.5t80 -34.5t34 -80.5t-34 -80.5 t-80 -34.5t-80.5 34.5t-34.5 80.5zM279 492q-3 -75 13.5 -165t49.5 -149q36 -63 86 -94t125 -31t125 31t86 94q33 59 49.5 149t13.5 165h-548zM281 582h544q0 62 -15 135.5t-46 128.5q-36 63 -86 94t-125 31t-125 -31t-86 -94q-31 -55 -46 -128.5t-15 -135.5zM623 1372 q0 46 34 80.5t80 34.5t80.5 -34.5t34.5 -80.5t-34.5 -80.5t-80.5 -34.5t-80 34.5t-34 80.5z" />
<glyph unicode="&#x4ee;" horiz-adv-x="1380" d="M41 1364v70h520v-70l-78 -12q-55 -9 -55 -56q0 -23 25 -75l321 -648l219 500q24 56 34 79.5t20 56t10 53.5q0 66 -74 81l-90 21v70h446v-70q-43 -10 -77 -33q-46 -34 -74 -96l-473 -1012q-19 -41 -30.5 -63.5t-33.5 -55t-49 -59.5q-71 -74 -172 -74q-69 0 -113 33 q-51 39 -51 109q0 71 55 108t117 10q1 -32 22.5 -51.5t53.5 -19.5q43 0 72 29t43 61l41 86l-465 901q-17 35 -49 69.5t-80 47.5zM430 1577v106h614v-106h-614z" />
<glyph unicode="&#x4ef;" horiz-adv-x="1003" d="M20 -408q0 34 20.5 66.5t57.5 50.5q47 -57 117 -57q67 0 113 59q24 32 50 80t38 84l43 125l-348 895q-13 31 -29 43q-25 22 -62 25v61h418v-61l-67 -9q-60 -8 -60 -63q0 -31 19 -82l223 -569h4l176 534q3 9 8 25t7.5 25t5 22t2.5 24q0 33 -18 56.5t-48 27.5l-51 9v61h344 v-61q-57 -19 -92 -68q-34 -45 -62 -127l-340 -936q-57 -156 -131 -248q-86 -104 -206 -104q-61 0 -96.5 31t-35.5 81zM266 1274v98h533v-98h-533z" />
<glyph unicode="&#x4f0;" horiz-adv-x="1380" d="M41 1364v70h520v-70l-78 -12q-55 -9 -55 -56q0 -23 25 -75l321 -648l219 500q24 56 34 79.5t20 56t10 53.5q0 66 -74 81l-90 21v70h446v-70q-43 -10 -77 -33q-46 -34 -74 -96l-473 -1012q-19 -41 -30.5 -63.5t-33.5 -55t-49 -59.5q-71 -74 -172 -74q-69 0 -113 33 q-51 39 -51 109q0 71 55 108t117 10q1 -32 22.5 -51.5t53.5 -19.5q43 0 72 29t43 61l41 86l-465 901q-17 35 -49 69.5t-80 47.5zM430 1679q0 51 36 87t87 36t87 -36t36 -87t-36 -87t-87 -36t-87 36t-36 87zM799 1679q0 51 36 87t87 36t86.5 -36t35.5 -87t-35.5 -87 t-86.5 -36t-87 36t-36 87z" />
<glyph unicode="&#x4f1;" horiz-adv-x="1003" d="M20 -408q0 34 20.5 66.5t57.5 50.5q47 -57 117 -57q67 0 113 59q24 32 50 80t38 84l43 125l-348 895q-13 31 -29 43q-25 22 -62 25v61h418v-61l-67 -9q-60 -8 -60 -63q0 -31 19 -82l223 -569h4l176 534q3 9 8 25t7.5 25t5 22t2.5 24q0 33 -18 56.5t-48 27.5l-51 9v61h344 v-61q-57 -19 -92 -68q-34 -45 -62 -127l-340 -936q-57 -156 -131 -248q-86 -104 -206 -104q-61 0 -96.5 31t-35.5 81zM233 1372q0 46 34.5 80.5t80.5 34.5t80.5 -34.5t34.5 -80.5t-34.5 -80.5t-80.5 -34.5t-80.5 34.5t-34.5 80.5zM602 1372q0 46 34.5 80.5t80.5 34.5 t80 -34.5t34 -80.5t-34 -80.5t-80 -34.5t-80.5 34.5t-34.5 80.5z" />
<glyph unicode="&#x4f2;" horiz-adv-x="1380" d="M41 1364v70h520v-70l-78 -12q-55 -9 -55 -56q0 -23 25 -75l321 -648l219 500q24 56 34 79.5t20 56t10 53.5q0 66 -74 81l-90 21v70h446v-70q-43 -10 -77 -33q-46 -34 -74 -96l-473 -1012q-19 -41 -30.5 -63.5t-33.5 -55t-49 -59.5q-71 -74 -172 -74q-69 0 -113 33 q-51 39 -51 109q0 71 55 108t117 10q1 -32 22.5 -51.5t53.5 -19.5q43 0 72 29t43 61l41 86l-465 901q-17 35 -49 69.5t-80 47.5zM430 1556v21l262 266h209v-61l-381 -226h-90zM840 1556v21l286 266h226v-61l-422 -226h-90z" />
<glyph unicode="&#x4f3;" horiz-adv-x="1003" d="M20 -408q0 34 20.5 66.5t57.5 50.5q47 -57 117 -57q67 0 113 59q24 32 50 80t38 84l43 125l-348 895q-13 31 -29 43q-25 22 -62 25v61h418v-61l-67 -9q-60 -8 -60 -63q0 -31 19 -82l223 -569h4l176 534q3 9 8 25t7.5 25t5 22t2.5 24q0 33 -18 56.5t-48 27.5l-51 9v61h344 v-61q-57 -19 -92 -68q-34 -45 -62 -127l-340 -936q-57 -156 -131 -248q-86 -104 -206 -104q-61 0 -96.5 31t-35.5 81zM256 1208v21l184 287h205v-50l-307 -258h-82zM604 1208v21l234 287h217v-50l-361 -258h-90z" />
<glyph unicode="&#x4f4;" horiz-adv-x="1433" d="M41 1364v70h573v-70l-139 -33q-9 -1 -17.5 -6t-18 -21.5t-9.5 -41.5v-340q0 -29 2 -48.5t13 -46t32 -45.5q53 -49 170 -49q169 0 316 78v451q0 25 -9.5 41.5t-18 21.5t-17.5 6l-140 33v70h574v-70l-140 -33q-9 -1 -17.5 -6t-18 -21.5t-9.5 -41.5v-1090q0 -36 15 -51.5 t30 -18.5l140 -32v-70h-594v70l160 32q45 9 45 70v524q-158 -61 -342 -61q-208 0 -304 72q-92 67 -92 200v355q0 25 -9.5 41.5t-18 21.5t-17.5 6zM410 1679q0 51 35.5 87t86.5 36t87 -36t36 -87t-36 -87t-87 -36t-86.5 36t-35.5 87zM778 1679q0 51 36 87t87 36t87 -36 t36 -87t-36 -87t-87 -36t-87 36t-36 87z" />
<glyph unicode="&#x4f5;" horiz-adv-x="1093" d="M41 963v61h422v-61l-82 -21q-41 -10 -41 -49v-197q0 -35 0.5 -50.5t9 -44.5t25.5 -48q43 -47 135 -47q105 0 215 57v330q0 39 -41 49l-82 21v61h422v-61l-82 -21q-41 -10 -41 -49v-762q0 -39 41 -49l82 -21v-61h-442v61l102 21q19 3 30 16.5t11 32.5v342 q-130 -49 -248 -49q-160 0 -233 61q-37 30 -56 73t-21.5 69.5t-2.5 68.5v197q0 39 -41 49zM248 1372q0 46 34 80.5t80 34.5t80.5 -34.5t34.5 -80.5t-34.5 -80.5t-80.5 -34.5t-80 34.5t-34 80.5zM616 1372q0 46 34.5 80.5t80.5 34.5t80.5 -34.5t34.5 -80.5t-34.5 -80.5 t-80.5 -34.5t-80.5 34.5t-34.5 80.5z" />
<glyph unicode="&#x4f8;" horiz-adv-x="1884" d="M82 0v70l139 32q6 1 12.5 4.5t14.5 10.5t13 21.5t5 33.5v1090q0 25 -9.5 41.5t-18 21.5t-17.5 6l-139 33v70h573v-70l-139 -33q-9 -1 -17.5 -6t-18 -21.5t-9.5 -41.5v-463q123 20 238 20q232 0 370 -106q150 -116 150 -303q0 -184 -135 -297q-65 -54 -166.5 -83.5 t-202.5 -29.5h-643zM471 139q87 -41 191 -41q163 0 253 80q97 83 97 234q0 147 -97 233q-86 76 -237 76q-99 0 -207 -33v-549zM635 1679q0 51 36 87t87 36t87 -36t36 -87t-36 -87t-87 -36t-87 36t-36 87zM1004 1679q0 51 35.5 87t86.5 36t87 -36t36 -87t-36 -87t-87 -36 t-86.5 36t-35.5 87zM1229 0v70l139 32q6 1 12.5 4.5t14.5 10.5t13 21.5t5 33.5v1090q0 25 -9.5 41.5t-18 21.5t-17.5 6l-139 33v70h573v-70l-139 -33q-9 -1 -17.5 -6t-18 -21.5t-9.5 -41.5v-1090q0 -36 15 -51.5t30 -18.5l139 -32v-70h-573z" />
<glyph unicode="&#x4f9;" horiz-adv-x="1503" d="M70 0v61l102 21q19 3 30 16.5t11 32.5v762q0 39 -41 49l-82 21v61h422v-61l-82 -21q-41 -10 -41 -49v-320q111 21 184 21q194 0 293 -84q97 -84 97 -225q0 -69 -23 -120t-76 -91q-96 -74 -254 -74h-540zM389 111q63 -29 133 -29q119 0 183 53q69 58 69 164q0 97 -61 156 q-59 57 -178 57q-76 0 -146 -20v-381zM449 1372q0 46 34 80.5t80 34.5t80.5 -34.5t34.5 -80.5t-34.5 -80.5t-80.5 -34.5t-80 34.5t-34 80.5zM817 1372q0 46 34.5 80.5t80.5 34.5t80.5 -34.5t34.5 -80.5t-34.5 -80.5t-80.5 -34.5t-80.5 34.5t-34.5 80.5zM1012 0v61l82 21 q41 10 41 49v762q0 39 -41 49l-82 21v61h422v-61l-82 -21q-41 -10 -41 -49v-762q0 -39 41 -49l82 -21v-61h-422z" />
<glyph unicode="&#x2000;" horiz-adv-x="921" />
<glyph unicode="&#x2001;" horiz-adv-x="1843" />
<glyph unicode="&#x2002;" horiz-adv-x="921" />
<glyph unicode="&#x2003;" horiz-adv-x="1843" />
<glyph unicode="&#x2004;" horiz-adv-x="614" />
<glyph unicode="&#x2005;" horiz-adv-x="460" />
<glyph unicode="&#x2006;" horiz-adv-x="307" />
<glyph unicode="&#x2007;" horiz-adv-x="307" />
<glyph unicode="&#x2008;" horiz-adv-x="230" />
<glyph unicode="&#x2009;" horiz-adv-x="368" />
<glyph unicode="&#x200a;" horiz-adv-x="102" />
<glyph unicode="&#x2010;" horiz-adv-x="819" d="M143 532v164h533v-164h-533z" />
<glyph unicode="&#x2011;" horiz-adv-x="819" d="M143 532v164h533v-164h-533z" />
<glyph unicode="&#x2012;" horiz-adv-x="819" d="M143 532v164h533v-164h-533z" />
<glyph unicode="&#x2013;" horiz-adv-x="1269" d="M143 565v99h983v-99h-983z" />
<glyph unicode="&#x2014;" horiz-adv-x="1802" d="M205 565v99h1392v-99h-1392z" />
<glyph unicode="&#x2018;" horiz-adv-x="512" d="M123 1161q0 114 84 203q49 49 133 98l37 -53q-45 -23 -86 -55q-53 -42 -53 -84q0 -24 22 -35q8 -5 29 -9.5t26 -6.5q74 -25 74 -101q0 -59 -36.5 -89t-86.5 -30q-61 0 -102 41t-41 121z" />
<glyph unicode="&#x2019;" horiz-adv-x="512" d="M123 1343q0 59 36.5 89t86.5 30q61 0 102 -41t41 -121q0 -113 -84 -202q-52 -52 -133 -99l-37 54q45 23 86 55q53 42 53 84q0 24 -22 35q-8 5 -29 9.5t-26 6.5q-74 25 -74 100z" />
<glyph unicode="&#x201a;" horiz-adv-x="512" d="M123 98q0 59 36.5 89t86.5 30q61 0 102 -41t41 -121q0 -113 -84 -202q-52 -52 -133 -99l-37 53q41 21 86 56q53 42 53 84q0 24 -22 35q-8 5 -29 9.5t-26 6.5q-74 25 -74 100z" />
<glyph unicode="&#x201c;" horiz-adv-x="819" d="M123 1157q0 124 78 207q51 53 131 98l37 -53q-39 -17 -86 -55q-21 -17 -37.5 -40.5t-16.5 -43.5q0 -24 23 -35q7 -4 25.5 -8.5t29.5 -9.5q62 -27 62 -99q0 -57 -37.5 -88t-85.5 -31q-52 0 -88 41q-35 42 -35 117zM451 1157q0 125 77 207q51 53 131 98l37 -53 q-39 -17 -86 -55q-21 -17 -37 -40.5t-16 -43.5q0 -24 23 -35q7 -4 25.5 -8.5t29.5 -9.5q61 -27 61 -99q0 -57 -37.5 -88t-85.5 -31q-52 0 -88 41q-34 41 -34 117z" />
<glyph unicode="&#x201d;" horiz-adv-x="819" d="M123 1053q39 17 86 55q21 17 37 40.5t16 43.5q0 24 -22 35q-7 4 -26 8.5t-30 9.5q-61 27 -61 98q0 57 37.5 88t85.5 31q52 0 88 -41q35 -42 35 -116q0 -124 -78 -207q-53 -55 -131 -99zM451 1053q39 17 86 55q21 17 37 40.5t16 43.5q0 24 -23 35q-7 4 -25.5 8.5 t-29.5 9.5q-61 27 -61 98q0 57 37 88t85 31q53 0 89 -41q34 -41 34 -116q0 -124 -78 -207q-53 -55 -131 -99z" />
<glyph unicode="&#x201e;" horiz-adv-x="819" d="M123 98q0 57 37.5 88t85.5 31q52 0 88 -41q35 -42 35 -117q0 -123 -78 -206q-53 -55 -131 -99l-37 53q36 16 86 56q21 17 37 40.5t16 43.5q0 24 -22 35q-7 4 -26 8.5t-30 9.5q-61 27 -61 98zM451 98q0 57 37 88t85 31q53 0 89 -41q34 -41 34 -117q0 -123 -78 -206 q-53 -55 -131 -99l-36 53q36 16 86 56q21 17 37 40.5t16 43.5q0 23 -23 35q-7 4 -25.5 8.5t-29.5 9.5q-61 27 -61 98z" />
<glyph unicode="&#x2026;" horiz-adv-x="1351" d="M102 94q0 51 36 87t87 36t87 -36t36 -87t-36 -87t-87 -36t-87 36t-36 87zM553 94q0 51 36 87t87 36t87 -36t36 -87t-36 -87t-87 -36t-87 36t-36 87zM1004 94q0 51 35.5 87t86.5 36t87 -36t36 -87t-36 -87t-87 -36t-86.5 36t-35.5 87z" />
<glyph unicode="&#x202f;" horiz-adv-x="368" />
<glyph unicode="&#x2039;" horiz-adv-x="921" d="M123 532l622 472l54 -50l-402 -422l402 -421l-54 -50z" />
<glyph unicode="&#x203a;" horiz-adv-x="921" d="M123 111l401 421l-401 422l53 50l623 -472l-623 -471z" />
<glyph unicode="&#x205f;" horiz-adv-x="460" />
<glyph unicode="&#x20ac;" d="M-61 532l36 82h136q-7 97 -2 172h-170l36 82h144q13 123 62 237t120 189q155 168 399 168q101 0 189 -32q9 -3 26.5 -10t28.5 -11t30 -8.5t40 -7.5l30 -377h-69l-41 139q-28 97 -80 152q-69 73 -170 73q-69 0 -137.5 -37t-118.5 -110q-47 -69 -75.5 -171.5t-33.5 -193.5 h601l-37 -82h-570q-6 -87 4 -172h510l-36 -82h-465q15 -125 67 -239q32 -73 74.5 -124t84.5 -74.5t75.5 -32.5t64.5 -9q102 0 174 82q55 65 78 154l31 121h69l-38 -349q-19 -4 -35.5 -8.5t-26 -8t-27 -10.5t-28.5 -11q-131 -52 -238 -52q-28 0 -56 2.5t-76 15t-90.5 34 t-92.5 63.5t-90 100q-100 143 -127 346h-180z" />
<glyph unicode="&#x2122;" horiz-adv-x="2293" d="M82 1196v238h827v-238h-57l-21 96q-10 35 -28 51q-26 21 -76 21h-154v-680q0 -18 10 -28.5t21 -12.5l109 -20v-50h-432v50l106 20q31 8 31 41v680h-156q-49 0 -76 -16q-7 -5 -12 -10t-7.5 -11.5t-4 -10.5t-2.5 -12.5t-2 -11.5l-19 -96h-57zM1008 573v50l82 20q30 7 32 41 l29 639q0 34 -33 41l-96 20v50h281q8 -49 32 -97l267 -581h2l284 581q26 59 33 97h264v-50l-94 -20q-31 -8 -31 -41l23 -639q2 -35 31 -41l98 -20v-50h-410v50l96 20q33 6 33 41l-16 535h-4l-285 -586q-19 -39 -27 -76h-57q0 27 -24 76l-291 586h-4l-19 -535q0 -35 33 -41 l96 -20v-50h-325z" />
<glyph unicode="&#x25fc;" horiz-adv-x="1024" d="M0 0v1024h1024v-1024h-1024z" />
</font>
</defs>
</svg>
