<?xml version="1.0" standalone="no"?>
<!DOCTYPE svg PUBLIC "-//W3C//DTD SVG 1.1//EN" "http://www.w3.org/Graphics/SVG/1.1/DTD/svg11.dtd" >
<svg xmlns="http://www.w3.org/2000/svg">
<metadata></metadata>
<defs>
<font id="octavabold" horiz-adv-x="1269" >
<font-face units-per-em="2048" ascent="1638" descent="-410" />
<missing-glyph horiz-adv-x="477" />
<glyph horiz-adv-x="0" />
<glyph unicode="&#xd;" horiz-adv-x="2048" />
<glyph unicode=" "  horiz-adv-x="477" />
<glyph unicode="&#x09;" horiz-adv-x="477" />
<glyph unicode="&#xa0;" horiz-adv-x="477" />
<glyph unicode="!" horiz-adv-x="532" d="M86 1303q0 44 13.5 75.5t31.5 47t46 24.5t46 10.5t43 1.5t43 -1.5t46 -10.5t46 -24.5t31.5 -47t13.5 -75.5q0 -41 -40 -306q-39 -260 -50 -391l-18 -221h-143l-19 221q-13 147 -49 391q-6 40 -13.5 89.5t-11 71.5t-7.5 49.5t-5.5 41t-2.5 28t-1 26.5zM111 127 q0 65 45.5 110.5t109.5 45.5t110 -45.5t46 -110.5t-46 -110.5t-110 -45.5t-109.5 45.5t-45.5 110.5z" />
<glyph unicode="&#x22;" horiz-adv-x="1024" d="M143 1434h308l-91 -533h-127zM573 1434h308l-90 -533h-127z" />
<glyph unicode="#" horiz-adv-x="1351" d="M102 338l37 197h213l60 339h-213l37 197h213l53 301h143l-53 -301h301l53 301h144l-54 -301h213l-37 -197h-213l-59 -339h213l-37 -197h-213l-53 -301h-143l53 301h-301l-53 -301h-144l53 301h-213zM496 535h301l59 339h-301z" />
<glyph unicode="$" d="M113 217q0 79 63.5 139t165.5 54q-6 -118 53 -207q46 -70 121 -88l55 467l-176 96q-32 17 -52.5 30.5t-56 45.5t-57 67t-38.5 92t-17 123q0 234 180 346q62 37 149 58.5t171 21.5l16 135h123l-16 -139q128 -5 221 -49q59 -28 90 -69t31 -105q0 -76 -51 -124t-127 -46 q-7 110 -66 178q-52 56 -115 70l-47 -393l160 -89q40 -22 65.5 -38t67.5 -52.5t67 -74.5t44.5 -98t19.5 -130q0 -237 -176 -360q-67 -47 -165 -75t-193 -30l-21 -178h-123l21 176q-129 0 -226 39q-46 18 -79 44.5t-50 55.5t-24.5 55.5t-7.5 51.5zM489 1141q0 -65 36.5 -108 t88.5 -66l43 354q-53 0 -100 -31q-68 -48 -68 -149zM639 115q69 0 125 45q70 60 70 164q0 149 -144 211z" />
<glyph unicode="%" horiz-adv-x="2035" d="M123 1049q0 84 26.5 168.5t77.5 136.5q98 100 285 100t285 -100q51 -52 77.5 -136.5t26.5 -168.5t-26.5 -169t-77.5 -137q-98 -100 -285 -100t-285 100q-51 52 -77.5 137t-26.5 169zM369 1049q0 -160 32 -228q36 -76 111 -76t111 76q32 68 32 228q0 159 -32 227 q-36 76 -111 76t-111 -76q-32 -68 -32 -227zM526 0l840 1434h143l-839 -1434h-144zM1135 385q0 84 26.5 168.5t77.5 136.5q99 101 285 101q185 0 284 -101q51 -53 78 -137t27 -168t-27 -168t-78 -137q-98 -100 -284 -100q-187 0 -285 100q-51 52 -77.5 136.5t-26.5 168.5z M1380 385q0 -157 33 -227q36 -76 111 -76q74 0 110 76q33 70 33 227t-33 227q-36 76 -110 76q-75 0 -111 -76q-33 -70 -33 -227z" />
<glyph unicode="&#x26;" horiz-adv-x="1720" d="M82 383q0 177 117 311q86 99 225 156q-121 145 -121 301q0 148 107 235q92 76 241 76q139 0 219 -65q82 -69 82 -178q0 -117 -67 -207q-41 -54 -117 -119l401 -436q40 40 71.5 110t31.5 125q0 12 -2 24t-9.5 33.5t-28.5 37.5t-54 22l-58 10v90h516v-90 q-58 -10 -100.5 -50.5t-93.5 -133.5q-15 -28 -39.5 -72.5t-35.5 -64.5t-29 -49t-34.5 -52t-37.5 -47l90 -102q62 -72 131 -72q84 0 139 76l62 -72q-58 -65 -99 -106q-103 -103 -225 -103q-47 0 -90 14t-79 41.5t-54 44.5t-45 46l-27 28q-216 -174 -532 -174q-85 0 -155 15.5 t-138 64.5q-162 117 -162 332zM418 410q0 -105 69 -174q76 -76 207 -76q155 0 273 96l-418 461q-62 -56 -92 -125q-39 -80 -39 -182zM561 1221q0 -113 115 -224q104 81 104 203q0 65 -28.5 102t-77.5 37q-43 0 -78 -28.5t-35 -89.5z" />
<glyph unicode="'" horiz-adv-x="614" d="M143 1434h328l-102 -533h-123z" />
<glyph unicode="(" horiz-adv-x="921" d="M184 512q0 404 285 741q138 166 330 291l82 -86q-141 -144 -219 -301q-146 -286 -146 -645t146 -645q78 -157 219 -301l-82 -86q-192 125 -330 291q-285 337 -285 741z" />
<glyph unicode=")" horiz-adv-x="921" d="M41 -434q141 144 219 301q146 286 146 645t-146 645q-78 157 -219 301l82 86q192 -125 330 -291q284 -336 284 -741t-284 -741q-138 -166 -330 -291z" />
<glyph unicode="*" horiz-adv-x="929" d="M104 1075q-8 66 15 137q20 65 67 115l203 -164l39 29l-96 242q66 28 133 28t133 -28l-96 -242l39 -29l202 164q48 -51 68 -115q22 -69 14 -137l-262 19l-14 -47l221 -142q-35 -60 -90 -102q-46 -36 -125 -55l-66 256h-49l-65 -256q-79 19 -125 55q-55 42 -90 102l221 142 l-14 47z" />
<glyph unicode="+" d="M143 553v123h430v430h123v-430h430v-123h-430v-430h-123v430h-430z" />
<glyph unicode="," horiz-adv-x="532" d="M86 156q0 73 45 124.5t127 51.5q88 0 141 -62q47 -55 47 -151q0 -160 -106 -277q-60 -67 -164 -129l-61 88q53 32 102 78q49 43 49 88q0 19 -16 27q-6 3 -22.5 7t-30.5 9q-111 39 -111 146z" />
<glyph unicode="-" horiz-adv-x="819" d="M102 512v205h615v-205h-615z" />
<glyph unicode="." horiz-adv-x="532" d="M86 152q0 74 53 127t127 53t127 -53t53 -127t-53.5 -127.5t-126.5 -53.5t-126.5 53.5t-53.5 127.5z" />
<glyph unicode="/" horiz-adv-x="1024" d="M0 -492l881 2008h143l-881 -2008h-143z" />
<glyph unicode="0" d="M82 717q0 101 13 192t30 149t40.5 109t37.5 72t28 39q44 57 96 95t106 56.5t101 25.5t101 7t100.5 -7t101 -25.5t106 -56.5t95.5 -95q14 -18 28 -39t38 -72t41 -109t30 -149t13 -192t-13 -192t-30 -149t-41 -109t-38 -72t-28 -39q-84 -107 -185.5 -146t-217.5 -39 q-260 0 -404 185q-14 18 -28 39t-37.5 72t-40.5 109t-30 149t-13 192zM451 717q0 -306 41 -467q41 -156 143 -156t143 156q41 161 41 467t-41 467q-41 155 -143 155t-143 -155q-41 -161 -41 -467z" />
<glyph unicode="1" d="M205 0v90l172 37q46 9 60 29.5t14 50.5v991q0 21 -5.5 34.5t-16 19t-19 7t-19.5 1.5q-21 0 -82 -11q-60 -14 -104 -28v110q61 9 164 41q117 41 196 90h271q-17 -92 -17 -233v-1022q0 -14 2 -24t9 -22t23 -20.5t40 -13.5l172 -37v-90h-860z" />
<glyph unicode="2" d="M61 0v82q139 132 287 290t238 279q85 115 124.5 209t39.5 207q0 126 -39 195q-42 77 -133 77q-41 0 -75.5 -20t-56.5 -51q-44 -66 -28 -221q-64 -50 -144 -50q-73 0 -118 37t-45 101q0 75 50 147t146 117q134 63 344 63q213 0 332 -90q69 -52 102 -125t33 -147 q0 -108 -60 -207.5t-167 -202.5q-131 -127 -475 -403h514q64 0 100 26q36 22 53 64l35 82h111l-137 -459h-1031z" />
<glyph unicode="3" d="M61 178q0 83 72.5 138t181.5 34q-6 -66 13 -121t67.5 -91t120.5 -36q127 0 217 103q86 99 86 250q0 123 -65 188q-59 59 -176 59q-112 0 -201 -40v110q204 26 291 150q27 39 44 95.5t17 112.5q0 81 -31 138q-43 71 -137 71q-71 0 -119 -51q-27 -29 -40.5 -67t-13 -71 t4.5 -63q-68 -40 -135 -40q-139 0 -139 104q0 67 52.5 135.5t160.5 114.5q144 61 346 61q207 0 305 -67t98 -176q0 -129 -118 -238q-83 -77 -220 -154v-4q79 3 163.5 -14t140.5 -51q141 -86 141 -260q0 -83 -32 -160t-115.5 -154.5t-213.5 -132.5q-192 -80 -409 -80 q-177 0 -267 59t-90 148z" />
<glyph unicode="4" d="M41 365v122q144 233 266 402q257 355 475 573h185q-13 -97 -13 -159v-693q124 0 254 37h33l-119 -282h-168v-273l-327 -121v394h-586zM270 610h357v475h-4q-104 -97 -205 -241q-96 -135 -148 -234z" />
<glyph unicode="5" d="M61 178q0 83 72.5 138t181.5 34q-10 -111 47 -179.5t152 -68.5q103 0 176 95q64 85 64 209q0 54 -13.5 98t-34.5 72.5t-51.5 50.5t-59 34t-63.5 21q-117 31 -315 31l189 721h495h21h25t23 1.5t27.5 4.5t23.5 8.5t26 13.5q51 31 71 94h111l-125 -389q-103 -20 -230 -20 h-415l-53 -213q192 0 356 -47q80 -23 142.5 -59t100 -78.5t62.5 -83.5t36 -86t15 -75t4 -61q0 -136 -76 -237t-217 -162q-175 -74 -411 -74q-82 0 -146.5 13.5t-103.5 34.5t-64 49.5t-34 55t-9 54.5z" />
<glyph unicode="6" d="M82 522q0 323 215 576q72 85 161 153t181 112t171.5 71.5t160.5 44.5l53 -103q-149 -61 -263 -161t-181 -214q-59 -99 -94 -236.5t-35 -277.5q0 -160 47 -268q60 -125 184 -125q95 0 149 82q50 79 50 213q0 127 -37 209q-43 96 -127 96q-35 0 -70.5 -18t-60.5 -45 l-74 102q163 125 315 125q162 0 267 -113q114 -124 114 -307q0 -221 -161 -348q-154 -119 -402 -119q-270 0 -407 133q-71 68 -113.5 176.5t-42.5 241.5z" />
<glyph unicode="7" d="M61 963l111 471h1036v-62q-53 -99 -96.5 -178t-57.5 -103.5t-36 -66.5t-42.5 -86t-66.5 -143q-76 -165 -121 -267t-106.5 -255t-112.5 -302l-352 111q175 326 451 702q139 190 278 363h-604q-56 0 -90 -27q-35 -28 -53 -84l-27 -73h-111z" />
<glyph unicode="8" d="M82 342q0 157 139 285q87 79 219 139q-94 57 -153 113q-113 108 -113 241q0 76 42 147.5t116 116.5q125 78 338 78q223 0 344 -76q127 -78 127 -217q0 -121 -109 -219q-70 -65 -207 -137q153 -77 250 -182q113 -127 113 -271q0 -174 -154 -282q-154 -107 -418 -107 q-217 0 -352 78q-95 56 -138.5 134t-43.5 159zM389 356q0 -112 55 -180q65 -82 181 -82q91 0 157 62q58 56 58 153q0 63 -21.5 113t-68.5 106q-86 92 -179 144q-61 -40 -108 -101q-74 -100 -74 -215zM502 1176q0 -83 43 -140q21 -31 65.5 -70.5t81.5 -64.5q67 58 99 96 q63 75 63 162q0 78 -51 129t-133 51q-72 0 -119 -41q-49 -44 -49 -122z" />
<glyph unicode="9" d="M61 1001q0 216 162 342q152 119 408 119q259 0 401 -133q156 -146 156 -414q0 -333 -215 -579q-63 -73 -145 -134t-153.5 -98t-153.5 -67.5t-128 -43t-94 -22.5l-53 103q308 138 444 358q61 99 95 235t34 279q0 170 -47 268q-60 125 -184 125q-96 0 -150 -82 q-49 -77 -49 -213q0 -126 37 -208q44 -97 127 -97q35 0 70.5 18.5t60.5 45.5l74 -103q-66 -58 -152.5 -91.5t-163.5 -33.5q-162 0 -266 113q-115 122 -115 313z" />
<glyph unicode=":" horiz-adv-x="532" d="M86 152q0 74 53 127t127 53t127 -53t53 -127t-53.5 -127.5t-126.5 -53.5t-126.5 53.5t-53.5 127.5zM86 872q0 74 53.5 127.5t126.5 53.5t126.5 -53.5t53.5 -127.5t-53 -127t-127 -53t-127 53t-53 127z" />
<glyph unicode=";" horiz-adv-x="532" d="M86 156q0 73 45 124.5t127 51.5q88 0 141 -62q47 -55 47 -151q0 -160 -106 -277q-60 -67 -164 -129l-61 88q53 32 102 78q49 43 49 88q0 19 -16 27q-6 3 -22.5 7t-30.5 9q-111 39 -111 146zM86 872q0 74 53.5 127.5t126.5 53.5t126.5 -53.5t53.5 -127.5t-53 -127 t-127 -53t-127 53t-53 127z" />
<glyph unicode="&#x3c;" d="M123 553v123l971 461l53 -115l-860 -408l860 -407l-53 -115z" />
<glyph unicode="=" d="M143 389v123h983v-123h-983zM143 717v123h983v-123h-983z" />
<glyph unicode="&#x3e;" d="M123 207l860 407l-860 408l53 115l971 -461v-123l-971 -461z" />
<glyph unicode="?" horiz-adv-x="778" d="M90 127q0 65 46 110.5t110 45.5t109.5 -45.5t45.5 -110.5t-45.5 -110.5t-109.5 -45.5t-110 45.5t-46 110.5zM154 1356q0 29 10.5 50t24 31.5t32.5 16.5t30.5 7t24.5 1q209 0 326 -176q94 -138 94 -330q0 -209 -75 -315q-77 -109 -232 -109q-31 0 -72 9v-156h-143v358 l70 60q66 -25 145 -25q11 0 20.5 0.5t34.5 4t44.5 13.5t40.5 25t32.5 42t11.5 63q0 98 -71 157q-19 16 -50 33t-54.5 28t-94.5 42q-32 15 -52.5 27t-45.5 32.5t-38 48.5t-13 62z" />
<glyph unicode="@" horiz-adv-x="1781" d="M123 653q0 106 19.5 200.5t51 164.5t75.5 131t88.5 101.5t95.5 74.5q205 137 497 137q274 0 449 -106q75 -45 129 -105t81 -124t38.5 -122t11.5 -118q0 -121 -38 -227t-103 -179q-63 -70 -164 -130t-203 -60q-101 0 -152 76q-22 32 -33 78.5t-8 89.5h-2 q-61 -101 -122 -160q-84 -84 -181 -84q-76 0 -127 51q-59 59 -59 190q0 185 106 355q148 239 357 239q96 0 157 -57l123 57h97q-66 -151 -119 -335q-66 -229 -66 -291q0 -40 21.5 -63t56.5 -23q58 0 130 48t120 118q86 126 86 274q0 122 -51 222.5t-133 162.5 q-152 113 -404 113q-250 0 -424 -123q-53 -37 -98.5 -85t-88 -116.5t-67 -162.5t-24.5 -203q0 -291 203 -455q154 -125 391 -125q254 0 463 111l34 -97q-224 -125 -506 -125q-253 0 -432 123q-276 192 -276 559zM705 567q0 -38 10 -63q13 -23 37 -23q22 0 49 19.5t45 42.5 q25 29 53.5 78t38.5 86l72 256q-5 26 -25 49q-21 24 -51 24q-99 0 -168 -178q-61 -160 -61 -291z" />
<glyph unicode="A" horiz-adv-x="1536" d="M20 0v90l43 12q35 10 68 39q26 24 45 72l436 1149q22 62 33 100h246q21 -71 33 -100l467 -1172q17 -42 51 -69q38 -27 74 -31v-90h-629v90l76 16q51 11 51 46q0 11 -15 55l-104 272h-451l-88 -243q-16 -50 -16 -78q0 -38 49 -52l62 -16v-90h-431zM492 623h348l-176 458 h-5z" />
<glyph unicode="B" horiz-adv-x="1392" d="M70 0v90l102 33q41 15 41 61v1065q0 47 -41 62l-102 32v91h286q97 0 199 6q113 6 190 6q249 0 369 -90q115 -85 115 -234q0 -139 -90 -225q-80 -77 -201 -102v-4q139 -19 238 -89q135 -97 135 -284q0 -188 -137 -303q-140 -115 -375 -115h-729zM582 164q62 -25 118 -25 q123 0 183 82q51 69 51 205q0 132 -53 201q-20 26 -44.5 43t-53 24t-49.5 9t-52 2h-100v-541zM582 848h84q107 0 161 61t54 176q0 104 -41 158q-49 64 -150 64q-48 0 -108 -17v-442z" />
<glyph unicode="C" horiz-adv-x="1392" d="M94 709q0 186 72 336.5t192 248.5q207 168 525 168q129 0 243 -32q13 -4 35 -10.5t35.5 -10.5t37 -8.5t50.5 -7.5l43 -398h-123l-43 119q-29 84 -90 139q-78 70 -190 70q-179 0 -279 -139q-39 -54 -64.5 -125t-35 -142t-12.5 -111.5t-3 -76.5q0 -243 86 -407 q33 -63 77.5 -107.5t91 -65.5t86 -29.5t79.5 -8.5q108 0 185 77q22 22 49 63.5t39 72.5l41 106h122l-51 -369q-30 -5 -51.5 -10t-52.5 -14.5t-45 -13.5q-171 -52 -316 -52q-168 0 -307.5 57t-234.5 158q-91 99 -141 240t-50 283z" />
<glyph unicode="D" horiz-adv-x="1658" d="M70 0v90l102 33q41 15 41 61v1065q0 47 -41 62l-102 32v91h362q60 0 170 8q132 12 189 12q345 0 534 -147q240 -181 240 -545q0 -112 -24 -210.5t-64 -169.5t-79.5 -119.5t-84.5 -86.5q-204 -176 -531 -176h-712zM582 176q92 -37 186 -37q201 0 307 178q48 79 72 189.5 t24 224.5q0 112 -26.5 232t-83.5 200q-107 152 -311 152q-85 0 -168 -31v-1108z" />
<glyph unicode="E" d="M70 0v90l102 33q41 15 41 61v1065q0 47 -41 62l-102 32v91h1097v-390h-123l-28 107q-24 71 -58 98q-39 33 -110 33h-266v-475h163q45 0 70 22q24 21 33 60l20 74h111v-471h-111l-20 81q-11 40 -33 60q-25 22 -70 22h-163v-454q0 -19 14.5 -34t34.5 -15h209q76 0 123 38 q45 32 65 84l49 125h123l-57 -399h-1073z" />
<glyph unicode="F" horiz-adv-x="1208" d="M70 0v90l102 33q41 15 41 61v1065q0 47 -41 62l-102 32v91h1097v-390h-123l-28 107q-24 71 -58 98q-39 33 -110 33h-266v-496h176q43 0 69 23q10 9 20 27t13 32l21 74h110v-471h-110l-21 82q-10 39 -33 59q-26 23 -69 23h-176v-451q0 -49 41 -61l122 -33v-90h-675z" />
<glyph unicode="G" horiz-adv-x="1556" d="M94 709q0 186 72 336.5t192 248.5q204 168 525 168q146 0 295 -32q15 -3 50 -12t67 -15t73 -10v-398h-123l-39 119q-28 91 -86 143q-73 66 -200 66q-193 0 -306 -139q-67 -84 -97 -205.5t-30 -249.5q0 -247 82 -407q32 -63 74 -107.5t86 -65.5t80.5 -29.5t71.5 -8.5 q87 0 159 41v360q0 49 -41 61l-122 33v90h655v-90l-82 -33q-41 -15 -41 -61v-465q-10 -1 -195 -33q-215 -43 -366 -43q-365 0 -563 215q-91 99 -141 240t-50 283z" />
<glyph unicode="H" horiz-adv-x="1638" d="M70 0v90l102 33q41 15 41 61v1065q0 47 -41 62l-102 32v91h655v-91l-102 -32q-41 -15 -41 -62v-413h475v413q0 47 -41 62l-103 32v91h656v-91l-103 -32q-41 -15 -41 -62v-1065q0 -46 41 -61l103 -33v-90h-656v90l103 33q41 15 41 61v500h-475v-500q0 -46 41 -61l102 -33 v-90h-655z" />
<glyph unicode="I" horiz-adv-x="794" d="M70 0v90l102 33q41 15 41 61v1065q0 47 -41 62l-102 32v91h655v-91l-102 -32q-41 -15 -41 -62v-1065q0 -46 41 -61l102 -33v-90h-655z" />
<glyph unicode="J" horiz-adv-x="794" d="M-279 -332q0 114 83 166q45 29 100 29q45 0 96 -19q18 -98 96 -98q74 0 109 64q28 52 28 190v1249q0 27 -11.5 43t-28.5 19l-144 32v91h696v-91l-102 -32q-41 -15 -41 -62v-1112q0 -80 -30 -163t-79.5 -153t-104 -126.5t-112.5 -100.5q-77 -59 -153 -86.5t-170 -27.5 q-14 0 -28.5 1t-45 6t-55 17.5t-49.5 32t-39.5 53.5t-14.5 78z" />
<glyph unicode="K" horiz-adv-x="1515" d="M70 0v90l102 33q41 15 41 61v1065q0 47 -41 62l-102 32v91h655v-91l-102 -32q-41 -15 -41 -62v-456h4q36 0 69 18q35 19 52 41l268 319q20 24 28 34.5t16.5 30.5t8.5 40q0 19 -11.5 32t-22 17t-19.5 6l-57 12v91h548v-91l-65 -14q-59 -13 -103.5 -45.5t-101.5 -99.5 l-270 -320l454 -676q21 -29 51.5 -56t55.5 -34l29 -8v-90h-676v90l45 8q27 5 46 24t19 48q0 31 -39 90l-213 334q-38 59 -96 59h-20v-469q0 -46 41 -61l102 -33v-90h-655z" />
<glyph unicode="L" horiz-adv-x="1249" d="M70 0v90l102 33q41 15 41 61v1065q0 47 -41 62l-102 32v91h655v-91l-102 -32q-41 -15 -41 -62v-1048q0 -19 14.5 -34t34.5 -15h227q73 0 123 38q18 13 39 42t27 47l51 131h123l-60 -410h-1091z" />
<glyph unicode="M" horiz-adv-x="1925" d="M61 0v90l82 33q13 6 19 9.5t13.5 17t8.5 34.5l41 1065q0 49 -41 62l-102 32v91h512q7 -72 39 -160l317 -803h4l320 803q36 90 45 160h508v-91l-103 -32q-41 -12 -41 -62l37 -1065q0 -48 41 -61l103 -33v-90h-656v90l103 33q41 12 41 61l-25 809h-4l-356 -895 q-31 -77 -37 -127h-164q-2 43 -35 127l-352 895h-4l-19 -809q0 -49 41 -61l103 -33v-90h-439z" />
<glyph unicode="N" horiz-adv-x="1622" d="M70 0v90l102 33q41 15 41 61v1049q-14 27 -39.5 54.5t-52.5 37.5l-51 18v91h524q22 -59 68 -121l575 -760v688q0 57 -45 70l-119 32v91h479v-91l-102 -32q-41 -15 -41 -62v-1249h-258q-27 66 -82 137l-684 916v-860q0 -57 45 -70l119 -33v-90h-479z" />
<glyph unicode="O" horiz-adv-x="1597" d="M94 717q0 102 20 194t54 161t69.5 118.5t77.5 89.5q84 81 207 131.5t277 50.5t276.5 -50.5t206.5 -131.5q42 -40 77.5 -89.5t69.5 -118.5t54 -161t20 -194t-20 -194t-54 -161t-69.5 -118.5t-77.5 -89.5q-85 -81 -207 -132t-276 -51t-277 51t-207 132q-42 40 -77.5 89.5 t-69.5 118.5t-54 161t-20 194zM487 717q0 -116 16.5 -219t30 -143t23.5 -60q80 -184 242 -184q161 0 241 184q10 20 23.5 60t30 143t16.5 219t-16.5 219t-30 143t-23.5 60q-80 184 -241 184q-162 0 -242 -184q-10 -20 -23.5 -60t-30 -143t-16.5 -219z" />
<glyph unicode="P" horiz-adv-x="1351" d="M70 0v90l102 33q41 15 41 61v1065q0 47 -41 62l-102 32v91h286q29 0 185 6q147 6 211 6q250 0 374 -84q156 -108 156 -330q0 -110 -37.5 -191t-93.5 -130q-14 -12 -36.5 -26.5t-70.5 -37.5t-123.5 -38t-162.5 -15q-85 0 -176 16v-426q0 -49 41 -61l122 -33v-90h-675z M582 762q54 -29 123 -29q97 0 153 72q55 69 55 229q0 140 -51 203q-56 70 -166 70q-59 0 -114 -17v-528z" />
<glyph unicode="Q" horiz-adv-x="1597" d="M94 717q0 102 20 194t54 161t69.5 118.5t77.5 89.5q84 81 207 131.5t277 50.5t276.5 -50.5t206.5 -131.5q42 -40 77.5 -89.5t69.5 -118.5t54 -161t20 -194q0 -93 -17 -178t-41 -143t-57.5 -110.5t-57 -80t-48.5 -51.5q-70 -64 -154 -107q9 -68 35.5 -136.5t61.5 -115.5 q87 -114 237 -114q111 0 258 61v-139q-168 -62 -334 -62q-264 0 -440 135q-62 47 -117 121.5t-86 175.5q-135 8 -244 58.5t-184 122.5q-25 24 -49.5 51.5t-57.5 80t-56.5 110.5t-40.5 143t-17 178zM487 717q0 -116 16.5 -219t30 -143t23.5 -60q80 -184 242 -184 q161 0 241 184q10 20 23.5 60t30 143t16.5 219t-16.5 219t-30 143t-23.5 60q-80 184 -241 184q-162 0 -242 -184q-10 -20 -23.5 -60t-30 -143t-16.5 -219z" />
<glyph unicode="R" horiz-adv-x="1433" d="M70 0v90l102 33q41 15 41 61v1065q0 47 -41 62l-102 32v91h315q61 0 213 10q159 10 201 10q219 0 336 -86q67 -48 105 -123.5t38 -163.5q0 -166 -129 -274q-50 -40 -121 -69t-141 -40v-6q53 -7 97 -29t76.5 -56t52 -62t40.5 -66l168 -309q34 -71 113 -80v-90h-451 l-274 582q-15 33 -45.5 55t-61.5 22h-20v-475q0 -46 41 -61l102 -33v-90h-655zM582 807q40 -16 98 -16q113 0 174 88q55 75 55 198q0 112 -53 174q-53 64 -162 64q-57 0 -112 -25v-483z" />
<glyph unicode="S" horiz-adv-x="1187" d="M82 41v389h123l16 -86q18 -92 68 -151q8 -9 20 -19t36.5 -26.5t62.5 -26.5t81 -10q117 0 185 57q71 59 71 156q0 38 -12.5 71.5t-26.5 53t-42.5 42t-40.5 29.5t-41 23l-238 129q-26 14 -49 29.5t-56.5 48t-57.5 69.5t-41 94.5t-17 122.5q0 234 180 346q127 80 352 80 q88 0 224 -16q93 -10 149 -12v-385h-123l-16 84q-19 84 -58 127q-54 63 -155 63q-72 0 -123 -31q-74 -46 -74 -145q0 -53 26.5 -98.5t106.5 -90.5l230 -127q40 -22 65.5 -38t67.5 -52.5t67 -74.5t44.5 -98t19.5 -130q0 -235 -176 -360q-150 -107 -395 -107q-129 0 -314 45 q-84 23 -139 25z" />
<glyph unicode="T" horiz-adv-x="1351" d="M41 1004v430h1270v-430h-123l-37 147q-14 63 -57 98q-39 33 -111 33h-123v-1098q0 -49 41 -61l123 -33v-90h-696v90l123 33q41 12 41 61v1098h-123q-72 0 -111 -33q-43 -35 -57 -98l-37 -147h-123z" />
<glyph unicode="U" horiz-adv-x="1474" d="M49 1343v91h656v-91l-103 -32q-41 -15 -41 -62v-823q0 -162 70 -238q74 -77 209 -77q106 0 174 57q59 49 77.5 111t18.5 147v815q0 57 -45 70l-119 32v91h479v-91l-102 -32q-41 -15 -41 -62v-827q0 -115 -38 -203.5t-144 -157.5q-137 -90 -355 -90q-209 0 -339 72 q-24 14 -45.5 30t-54 49.5t-56 71.5t-40.5 96t-17 122v837q0 47 -41 62z" />
<glyph unicode="V" horiz-adv-x="1454" d="M20 1343v91h644v-91l-70 -16q-47 -10 -47 -57q0 -35 16 -78l277 -750h4l252 697q18 52 18 102q0 68 -70 86l-69 16v91h459v-91l-35 -10q-23 -7 -47 -28t-41 -45q-41 -55 -74 -148l-356 -1008q-22 -60 -33 -133h-246q-12 87 -31 138l-405 1126q-12 33 -41 61.5t-70 38.5z " />
<glyph unicode="W" horiz-adv-x="2048" d="M20 1343v91h627v-91l-69 -16q-22 -5 -35 -20t-13 -37q0 -20 15 -78l196 -709h4l252 787q37 120 45 192h164q12 -101 45 -192l279 -787h4l162 650q16 64 16 108q0 15 -1.5 25t-8 23t-22.5 22.5t-42 15.5l-69 16v91h459v-91l-35 -10q-51 -15 -90 -71q-39 -53 -60 -140 l-260 -1030q-4 -17 -22 -121h-246q-8 70 -25 119l-262 811h-4l-258 -803q-18 -60 -29 -127h-245q0 2 -3.5 28t-8.5 56t-9 45l-317 1135q-28 83 -99 100z" />
<glyph unicode="X" horiz-adv-x="1531" d="M41 0v90l61 21q49 16 104 66.5t95 109.5l285 405l-348 529q-59 88 -148 110l-49 12v91h676v-91l-55 -12q-56 -13 -56 -57q0 -34 31 -82l182 -277l174 277q31 55 31 82q0 43 -47 53l-72 16v91h500v-91q-66 -9 -109 -32q-65 -37 -120 -123l-263 -404l373 -567 q26 -38 70 -71.5t86 -43.5l49 -12v-90h-676v90l45 8q27 5 46.5 24t19.5 48q0 9 -2 18t-7.5 19.5t-9 16.5t-12 19.5t-10.5 16.5l-201 301l-197 -299q-28 -45 -28 -84q0 -63 65 -76l58 -12v-90h-541z" />
<glyph unicode="Y" horiz-adv-x="1392" d="M20 1343v91h680v-91l-67 -14q-51 -12 -51 -55q0 -28 30 -82l199 -352l182 331q29 56 29 93q0 17 -5.5 29.5t-16.5 19.5t-19 10.5t-23 7.5l-65 17v86h479v-91l-37 -8q-49 -11 -81 -46.5t-68 -100.5l-293 -537v-467q0 -49 41 -61l123 -33v-90h-697v90l123 33q41 12 41 61 v467l-331 570q-50 86 -130 110z" />
<glyph unicode="Z" d="M20 0v90q65 57 93 105l665 1087h-397q-61 0 -102 -27q-12 -8 -20 -16.5t-14.5 -22.5t-8.5 -19t-9 -26l-55 -167h-123l21 430h1179v-91q-54 -41 -90 -102l-659 -1089h387q78 0 121 34q37 29 57 80l61 164h123l-20 -430h-1209z" />
<glyph unicode="[" horiz-adv-x="901" d="M246 -492v2008h573v-123h-217q-22 0 -35.5 -14t-13.5 -36v-1662q0 -22 13.5 -36t35.5 -14h217v-123h-573z" />
<glyph unicode="\" horiz-adv-x="1024" d="M0 1516h143l881 -2008h-143z" />
<glyph unicode="]" horiz-adv-x="892" d="M82 -369h209q22 0 35.5 14t13.5 36v1662q0 22 -13.5 36t-35.5 14h-209v123h565v-2008h-565v123z" />
<glyph unicode="^" horiz-adv-x="1024" d="M61 819l451 643l451 -643h-205l-246 357l-246 -357h-205z" />
<glyph unicode="_" horiz-adv-x="1187" d="M0 -369h1188v-123h-1188v123z" />
<glyph unicode="`" horiz-adv-x="983" d="M123 1487v69h307l205 -286v-41h-103z" />
<glyph unicode="a" horiz-adv-x="1126" d="M61 244q0 157 105 241q82 66 278 109l183 41v213q0 48 -19 72q-20 30 -76 30q-67 0 -110 -43q-41 -39 -41 -105q0 -22 4 -46q-90 -33 -160 -33q-131 0 -131 88q0 59 47.5 115.5t145.5 93.5q146 53 323 53q190 0 264 -59q89 -64 89 -207v-606q0 -36 22 -62q20 -20 51 -20 q27 0 49 16v-102q-117 -62 -221 -62q-88 0 -143 49q-38 33 -64 91q-60 -60 -118 -91q-88 -49 -187 -49q-110 0 -192 62q-99 72 -99 211zM381 283q0 -73 27 -111q28 -37 79 -37q53 0 97 47q43 47 43 123v207l-101 -25q-77 -18 -112 -69q-33 -49 -33 -135z" />
<glyph unicode="b" horiz-adv-x="1228" d="M20 1446v82q179 20 340 69h103v-659q31 45 86 80q89 55 203 55q178 0 280 -112q62 -66 92.5 -177.5t30.5 -238.5q0 -302 -168 -457q-63 -57 -147.5 -87t-165.5 -30q-169 0 -273 109l-155 -109h-103v1401q0 40 -41 51zM463 188q30 -43 72 -68.5t86 -25.5q96 0 147 96 q51 97 51 299q0 220 -47 322q-45 98 -139 98q-70 0 -119 -57q-51 -60 -51 -170v-494z" />
<glyph unicode="c" horiz-adv-x="1024" d="M74 483q0 140 42.5 255t114.5 190q143 145 385 145q153 0 246 -53q101 -59 101 -160q0 -56 -42.5 -83t-105.5 -27q-44 0 -102 14v31q0 68 -31 112q-32 43 -84 43q-94 0 -141 -108q-47 -94 -47 -307q0 -201 59 -295q64 -101 190 -101t267 90l57 -106q-63 -44 -168 -90 q-144 -62 -266 -62q-73 0 -136.5 16t-107 42.5t-65.5 44t-39 35.5q-127 137 -127 374z" />
<glyph unicode="d" horiz-adv-x="1228" d="M74 494q0 254 121 411q132 168 337 168q155 0 234 -123v422q0 40 -41 51l-82 23v82q179 20 340 69h102v-1400q0 -41 41 -52l82 -22v-82q-173 -20 -340 -70h-82v103q-135 -103 -288 -103q-199 0 -310 133q-114 139 -114 390zM410 481q0 -191 45 -288q46 -99 141 -99 q48 0 93.5 26.5t76.5 67.5v502q0 102 -37 156q-43 63 -115 63q-90 0 -143 -90q-61 -104 -61 -338z" />
<glyph unicode="e" horiz-adv-x="1064" d="M74 494q0 123 34 239t103 195q131 145 358 145q237 0 349 -149q86 -116 86 -303v-41l-58 -58h-536q0 -195 57 -282q66 -101 197 -101q133 0 278 90l57 -106q-68 -45 -172 -90q-152 -62 -264 -62q-109 0 -205 36t-157 102q-127 137 -127 385zM412 649h190q36 0 57 19 q25 20 25 65q0 31 -8.5 75t-20.5 71q-30 71 -96 71q-83 0 -119 -102q-28 -83 -28 -199z" />
<glyph unicode="f" horiz-adv-x="696" d="M-20 901v143h163v113q0 213 215 350q143 90 328 90q74 0 125 -15t73 -39t30 -44t8 -41q0 -74 -82 -120q-66 -37 -149 -37q-21 0 -44 2q1 10 1 20q0 47 -13 80q-21 51 -66 51q-44 0 -77 -57q-29 -50 -29 -140v-213h213v-143l-213 21v-777q0 -18 10 -28.5t21 -12.5l112 -22 v-82h-565v82l72 22q30 9 30 41v777z" />
<glyph unicode="g" horiz-adv-x="1085" d="M20 -297q0 104 84 180q58 56 150 88q-69 10 -119.5 58.5t-50.5 128.5q0 84 66 153q56 56 114 86q-77 43 -118.5 118t-41.5 173q0 175 119 283q113 102 295 102q128 0 232 -53q75 7 159 29q75 18 131 45q25 -40 25 -93q0 -118 -117 -118q-28 0 -96 10q63 -88 63 -191 q0 -168 -120 -268q-117 -94 -289 -94q-51 0 -119 14q-57 -32 -57 -75q0 -54 69 -54h277q56 0 90 -1.5t87.5 -14.5t90.5 -37q109 -74 109 -225q0 -97 -46 -188.5t-137 -157.5q-166 -121 -432 -121q-176 0 -295 51q-123 60 -123 172zM266 -252q0 -55 47 -90q54 -43 168 -43 q148 0 244 74q82 62 82 139q0 54 -35 82q-35 29 -123 29h-272q-42 -33 -66 -66q-45 -59 -45 -125zM391 719q0 -121 29 -180q36 -76 110 -76q51 0 76 59q23 52 23 174q0 127 -31 191q-35 63 -90 63q-57 0 -90 -73q-27 -70 -27 -158z" />
<glyph unicode="h" horiz-adv-x="1282" d="M41 1446v82q179 20 340 69h102v-667q54 56 119 90q95 53 201 53q144 0 227 -74q30 -28 49.5 -60.5t27 -70t9.5 -62.5t2 -63v-598q0 -32 31 -41l72 -22v-82h-525v82l72 22q31 9 31 41v553q0 112 -29 160q-30 51 -92 51q-76 0 -133 -63q-62 -69 -62 -168v-533q0 -32 31 -41 l72 -22v-82h-525v82l72 22q31 9 31 41v1227q0 40 -41 51z" />
<glyph unicode="i" horiz-adv-x="647" d="M41 922v82q179 20 340 69h102v-928q0 -32 31 -41l72 -22v-82h-525v82l72 22q31 9 31 41v703q0 40 -41 51zM135 1413q0 77 53.5 130.5t130.5 53.5t131 -54t54 -130t-54 -130t-131 -54t-130.5 53.5t-53.5 130.5z" />
<glyph unicode="j" horiz-adv-x="614" d="M-266 -381q0 68 48.5 112.5t119.5 47.5q10 -36 43.5 -55t79.5 -19q64 0 100 41q39 43 39 133v969q0 40 -41 51l-82 23v82q179 20 340 69h102v-915q0 -99 -28.5 -189t-65 -147.5t-92.5 -124.5q-95 -112 -177 -164.5t-183 -52.5q-94 0 -148.5 37.5t-54.5 101.5zM135 1413 q0 77 53.5 130.5t130.5 53.5t131 -54t54 -130t-54 -130t-131 -54t-130.5 53.5t-53.5 130.5z" />
<glyph unicode="k" d="M41 1446v82q179 20 340 69h102v-950q6 -1 12 -1q36 0 66 26l168 157q41 37 41 82q0 23 -15.5 36t-30 15t-28.5 1v81h512v-81q-54 -2 -106.5 -24t-83 -44.5t-72.5 -60.5l-160 -146l373 -528q47 -66 111 -78v-82h-545v82l45 8q10 1 16.5 13t6.5 22q0 25 -11 41l-221 328 q-20 30 -53 30h-25v-379q0 -32 31 -41l72 -22v-82h-525v82l72 22q31 9 31 41v1227q0 40 -41 51z" />
<glyph unicode="l" horiz-adv-x="647" d="M41 1446v82q179 20 340 69h102v-1452q0 -32 31 -41l72 -22v-82h-525v82l72 22q31 9 31 41v1227q0 40 -41 51z" />
<glyph unicode="m" horiz-adv-x="1835" d="M41 922v82q179 20 340 69h82v-151q50 57 112 96q89 55 195 55q98 0 162 -35q77 -39 112 -116q48 52 107 90q94 61 203 61q145 0 229 -78q30 -28 49.5 -63t27 -75t9.5 -67t2 -67v-578q0 -32 31 -41l72 -22v-82h-512v82l59 22q31 10 31 41v553q0 110 -25 160q-26 51 -80 51 q-63 0 -114 -63q-56 -68 -56 -168v-533q0 -31 31 -41l59 -22v-82h-499v82l59 22q31 10 31 41v553q0 110 -25 160q-26 51 -80 51q-63 0 -114 -63q-56 -68 -56 -168v-533q0 -31 31 -41l59 -22v-82h-512v82l72 22q31 9 31 41v703q0 40 -41 51z" />
<glyph unicode="n" horiz-adv-x="1282" d="M41 922v82q179 20 340 69h82v-151q53 56 119 96q93 55 200 55q66 0 124 -17t81 -30.5t37 -26.5q42 -36 64 -86.5t26 -85.5t4 -84v-598q0 -32 31 -41l72 -22v-82h-525v82l72 22q31 9 31 41v553q0 112 -29 160q-30 51 -92 51q-76 0 -133 -63q-62 -69 -62 -168v-533 q0 -32 31 -41l72 -22v-82h-525v82l72 22q31 9 31 41v703q0 40 -41 51z" />
<glyph unicode="o" horiz-adv-x="1187" d="M74 522q0 136 44 247t118 179q137 125 358 125t358 -125q74 -68 118 -179t44 -247t-44 -247t-118 -179q-137 -125 -358 -125t-358 125q-74 68 -118 179t-44 247zM410 522q0 -210 41 -313q47 -115 143 -115t143 115q41 103 41 313q0 212 -41 314q-22 53 -55 83.5t-88 30.5 q-96 0 -143 -114q-41 -102 -41 -314z" />
<glyph unicode="p" horiz-adv-x="1249" d="M41 922v82q179 20 340 69h82v-151q45 57 106 96q89 55 203 55q179 0 281 -112q62 -66 92.5 -177.5t30.5 -238.5q0 -167 -48.5 -280t-119.5 -177q-60 -54 -145 -85.5t-161 -31.5q-50 0 -111.5 15.5t-107.5 54.5v-387q0 -18 10 -28.5t21 -12.5l133 -23v-82h-598v82l84 23 q31 8 31 41v1194q0 40 -41 51zM483 188q30 -43 72 -68.5t86 -25.5q96 0 147 96q52 99 52 299q0 220 -47 322q-45 98 -140 98q-69 0 -118 -57q-52 -61 -52 -170v-494z" />
<glyph unicode="q" horiz-adv-x="1208" d="M74 498q0 261 121 409q59 72 153.5 119t220.5 47q172 0 269 -110l159 110h123q-26 -74 -26 -166v-1253q0 -34 30 -41l84 -23v-82h-598v82l133 23q11 2 21 12.5t10 28.5v420q-112 -103 -270 -103q-222 0 -334 168q-96 144 -96 359zM410 485q0 -189 47 -292q46 -99 137 -99 q50 0 98 31t82 80v485q0 102 -37 156q-43 63 -114 63q-93 0 -150 -90q-63 -99 -63 -334z" />
<glyph unicode="r" horiz-adv-x="962" d="M41 922v82q179 20 340 69h82v-151q34 56 88 96q75 55 190 55q108 0 160.5 -49t52.5 -117q0 -51 -27 -89t-69 -54t-93 -18h-9q-46 0 -90 18q3 25 3 46q0 37 -10 61q-16 38 -51 38q-48 0 -84 -59q-41 -63 -41 -168v-537q0 -31 31 -41l92 -22v-82h-545v82l72 22q31 9 31 41 v703q0 40 -41 51z" />
<glyph unicode="s" horiz-adv-x="860" d="M41 319h115q19 -101 77 -159q66 -66 162 -66q64 0 101 29q36 28 36 84q0 67 -51 98l-254 158q-68 41 -108.5 116.5t-40.5 161.5q0 172 131 263q101 69 276 69q48 0 162 -14q35 -6 111 -15l8 -286h-115q-14 97 -55 143q-45 49 -117 49q-59 0 -94 -28q-37 -29 -37 -82 q0 -34 19 -64t45 -45l247 -158q160 -103 160 -282q0 -167 -137 -252q-108 -68 -285 -68q-97 0 -223 23q-20 3 -54.5 8.5t-58.5 9.5z" />
<glyph unicode="t" horiz-adv-x="716" d="M0 922v94q128 61 229 162q93 93 152 215h123q-19 -66 -27 -127q-14 -89 -14 -174v-48h233v-141l-233 19v-705q0 -42 19 -62t48 -20q33 0 68.5 23.5t56.5 46.5l62 -82q-67 -67 -144 -105q-108 -47 -194 -47q-126 0 -186 66q-50 54 -50 160v725h-143z" />
<glyph unicode="u" horiz-adv-x="1228" d="M20 922v82q179 20 340 69h123q-20 -112 -20 -250v-532q0 -79 26 -115q27 -41 84 -41q74 0 134 68q63 70 63 176v469q0 40 -41 51l-82 23v82q179 20 340 69h103v-876q0 -20 11 -33.5t29 -18.5l82 -22v-82q-173 -20 -340 -70h-81v152q-55 -61 -117 -96q-93 -56 -201 -56 q-147 0 -233 74q-33 28 -54 61t-29.5 69t-11 62.5t-2.5 63.5v547q0 40 -41 51z" />
<glyph unicode="v" horiz-adv-x="1105" d="M20 961v83h562v-81l-60 -13q-65 -11 -65 -67q0 -25 12 -56l162 -417h4l143 378q25 69 25 97q0 54 -55 65l-56 11v83h393v-81l-24 -7q-18 -5 -41 -28q-13 -15 -33 -60l-309 -755q-25 -60 -35 -142h-172q-2 71 -33 142l-342 780q-26 57 -76 68z" />
<glyph unicode="w" horiz-adv-x="1597" d="M20 963v81h529v-81l-47 -13q-53 -13 -53 -59q0 -21 8 -41l123 -399h4l178 469q35 92 35 153h172q0 -78 30 -153l177 -469h4l100 356q16 62 16 82q0 46 -49 57l-63 17v81h393v-81l-29 -9q-18 -5 -31.5 -16.5t-24.5 -33.5t-15.5 -34t-14.5 -43l-237 -708q-25 -76 -27 -148 h-172q-3 78 -27 144l-200 499h-4l-193 -501q-24 -66 -33 -142h-172q-6 73 -28 135l-250 734q-20 60 -37 82q-25 35 -62 41z" />
<glyph unicode="x" horiz-adv-x="1126" d="M41 0v82q49 20 84 53q59 54 86 92l203 273l-209 342q-30 45 -64 73q-48 40 -100 48v81h549v-81l-37 -9q-43 -10 -43 -43q0 -28 14 -49l105 -174l121 172q18 29 18 47q0 31 -31 41l-49 15v81h373v-81q-36 -3 -74 -27q-45 -31 -88 -92l-201 -283l207 -340q37 -60 90 -96 q49 -32 90 -43v-82h-553v82l43 14q41 14 41 45q0 9 -16 41l-113 191l-118 -166q-21 -29 -21 -53q0 -36 37 -54l49 -18v-82h-393z" />
<glyph unicode="y" horiz-adv-x="1146" d="M20 963v81h566v-81l-51 -9q-11 -2 -13.5 -2.5t-12.5 -4.5t-14 -8t-8 -12.5t-4 -19.5q0 -30 23 -82l182 -415h4l142 389q20 57 20 92q0 27 -14.5 39.5t-42.5 19.5l-52 13v81h381v-81q-36 -3 -61 -25q-16 -12 -29 -43l-415 -1067q-3 -7 -15 -39t-16.5 -42t-16 -36.5 t-19.5 -40t-20.5 -34.5t-26.5 -38t-30 -34q-81 -84 -188 -84q-92 0 -139.5 49.5t-47.5 118.5q0 28 9.5 56t28 53.5t52.5 38.5q23 9 51 9q13 0 27 -2q5 -25 24.5 -39t31.5 -16t22 -2q86 0 127 113l51 141l-413 895q-14 29 -31 43q-25 22 -62 25z" />
<glyph unicode="z" horiz-adv-x="983" d="M20 0v82q61 39 101 111l411 712h-186q-57 0 -96 -26q-45 -31 -70 -109l-28 -86h-115l12 360h893v-81q-26 -21 -47.5 -49t-52.5 -83l-404 -692h226q47 0 79 27q15 12 32.5 36.5t23.5 41.5l49 116h115l-21 -360h-922z" />
<glyph unicode="{" horiz-adv-x="892" d="M123 451v122q99 9 149 93q41 68 41 225q0 76 -5 140.5t-5 109.5q0 116 40.5 191.5t137.5 133.5q112 67 289 78v-123q-71 -10 -113 -63q-47 -56 -47 -158q0 -53 5.5 -123.5t5.5 -122.5q0 -194 -86 -307q-73 -93 -191 -135q118 -42 191 -135q86 -113 86 -307 q0 -52 -5.5 -122.5t-5.5 -123.5q0 -102 47 -158q42 -53 113 -63v-123q-177 11 -289 78q-97 58 -137.5 133.5t-40.5 191.5q0 45 5 109.5t5 140.5q0 157 -41 225q-50 84 -149 93z" />
<glyph unicode="|" horiz-adv-x="655" d="M246 -492v2089h164v-2089h-164z" />
<glyph unicode="}" horiz-adv-x="892" d="M123 -397q71 10 113 63q47 56 47 158q0 53 -5.5 123.5t-5.5 122.5q0 194 86 307q73 93 191 135q-118 42 -191 135q-86 113 -86 307q0 52 5.5 122.5t5.5 123.5q0 102 -47 158q-42 53 -113 63v123q177 -11 289 -78q97 -58 137.5 -133.5t40.5 -191.5q0 -45 -5 -109.5 t-5 -140.5q0 -157 41 -225q50 -84 149 -93v-122q-99 -9 -149 -93q-41 -68 -41 -225q0 -76 5 -140.5t5 -109.5q0 -116 -40.5 -191.5t-137.5 -133.5q-112 -67 -289 -78v123z" />
<glyph unicode="~" d="M143 463q25 91 68 166q84 141 225 141q95 0 207 -49l64 -27q113 -47 161 -47q58 0 97 47q19 24 30 56h131q-25 -94 -67 -166q-84 -142 -225 -142q-93 0 -207 50l-64 26q-113 47 -162 47q-56 0 -94 -47q-18 -20 -33 -55h-131z" />
<glyph unicode="&#xa2;" d="M176 676q0 141 45.5 255.5t124.5 188.5q65 61 158 100.5t201 43.5l10 178h102l-10 -178q119 -4 199 -52q100 -58 100 -159q0 -51 -33.5 -81t-93.5 -30q-43 0 -94 14v31q0 68 -29 109q-23 34 -55 45l-39 -811q152 0 307 92l57 -107q-80 -54 -176 -92q-104 -43 -196 -53 l-9 -170h-102l8 164q-103 1 -193.5 39t-148.5 98q-62 63 -97.5 160t-35.5 215zM483 711q0 -176 56 -279q44 -76 120 -96l39 805q-95 -9 -151 -107q-64 -112 -64 -323z" />
<glyph unicode="&#xa3;" d="M33 90q87 31 133 74q37 35 48 79t11 113v344l-188 -20v151h188v179q0 210 166 336q148 116 400 116q158 0 253 -53q107 -61 107 -158q0 -81 -68 -129t-155 -45q-5 108 -33 166q-47 96 -152 96q-96 0 -149 -94q-41 -73 -41 -235v-179h336v-151l-336 20v-67 q0 -140 -51 -248q-31 -64 -107 -152l2 -4q132 78 250 78q69 0 178 -37q116 -44 161 -49q14 -2 28 -2q72 0 116 82l99 -74q-74 -106 -103 -141q-45 -56 -96 -85.5t-139 -29.5q-81 0 -234 43q-184 47 -264 47q-161 0 -295 -90z" />
<glyph unicode="&#xa5;" d="M0 1343v91h618v-91l-67 -14q-51 -12 -51 -55q0 -28 30 -82l207 -365l191 344q28 54 28 93q0 33 -16.5 46t-46.5 21l-66 17v86h443v-91q-44 -3 -82 -36q-12 -10 -21.5 -20.5t-18.5 -24t-14 -21.5t-15.5 -26.5t-14.5 -26.5l-273 -483h267v-123h-287v-131h287v-123h-287 v-144q0 -49 41 -61l123 -33v-90h-656v90l123 33q41 12 41 61v144h-286v123h286v131h-286v123h266l-311 516q-1 2 -6 10t-6 10.5t-5.5 10t-7 10.5t-7.5 9.5t-9 10.5t-9 9.5t-11 10t-13 9.5q-35 22 -78 32z" />
<glyph unicode="&#xa8;" horiz-adv-x="983" d="M102 1413q0 67 48 115.5t116 48.5t116 -48.5t48 -115.5t-48 -115.5t-116 -48.5t-116 48.5t-48 115.5zM553 1413q0 67 48.5 115.5t115.5 48.5t115.5 -48.5t48.5 -115.5t-48.5 -115.5t-115.5 -48.5t-115.5 48.5t-48.5 115.5z" />
<glyph unicode="&#xa9;" horiz-adv-x="1761" d="M123 717q0 152 59.5 290t160.5 237.5t242 158.5t296 59t295.5 -59t241.5 -158.5t160.5 -237.5t59.5 -290q0 -203 -100.5 -374.5t-275 -271.5t-381.5 -100q-155 0 -296 59t-242 159t-160.5 238t-59.5 290zM254 717q0 -128 49 -243t132.5 -198.5t200 -132.5t245.5 -49 q172 0 316 83t227 226.5t83 313.5t-83 313t-227 226t-316 83t-316.5 -83t-227.5 -226t-83 -313zM461 715q0 124 46 214t116 142q61 48 143 72t166 24q80 0 158 -20q73 -20 94 -23l26 -237h-90l-26 71q-15 42 -56 72q-45 35 -112 35q-98 0 -156 -80q-63 -91 -63 -258 q0 -140 47 -229q33 -61 84.5 -91t103.5 -30q60 0 111 39q41 32 53 69l24 64h91l-31 -221q-29 -4 -90 -23q-103 -31 -189 -31q-207 0 -331 129q-119 126 -119 312z" />
<glyph unicode="&#xab;" horiz-adv-x="1024" d="M82 532l623 472l73 -78l-389 -394l389 -393l-73 -78zM512 532l381 318l49 -57l-205 -261l205 -260l-49 -57z" />
<glyph unicode="&#xad;" horiz-adv-x="819" d="M102 512v205h615v-205h-615z" />
<glyph unicode="&#xae;" horiz-adv-x="1761" d="M123 717q0 152 59.5 290t160.5 237.5t242 158.5t296 59t295.5 -59t241.5 -158.5t160.5 -237.5t59.5 -290q0 -203 -100.5 -374.5t-275 -271.5t-381.5 -100q-155 0 -296 59t-242 159t-160.5 238t-59.5 290zM254 717q0 -128 49 -243t132.5 -198.5t200 -132.5t245.5 -49 q172 0 316 83t227 226.5t83 313.5t-83 313t-227 226t-316 83t-316.5 -83t-227.5 -226t-83 -313zM508 307v74l59 18q25 7 25 37v582q0 30 -25 37l-59 18v74h184q63 0 125 6q63 6 117 6q130 0 199 -51q37 -27 60.5 -73t23.5 -95q0 -94 -76 -160q-57 -48 -154 -63v-4 q40 -6 73 -28t49.5 -44t33.5 -53l82 -152q27 -51 61 -55v-74h-244l-153 326q-24 49 -70 49h-12v-246q0 -29 24 -37l60 -18v-74h-383zM807 788q27 -10 55 -10q76 0 111 49q26 36 26 105q0 64 -30 94q-31 31 -86 31q-45 0 -76 -15v-254z" />
<glyph unicode="&#xb4;" horiz-adv-x="983" d="M348 1229v41l205 286h307v-69l-409 -258h-103z" />
<glyph unicode="&#xb8;" horiz-adv-x="983" d="M328 -492l28 103h62q94 0 125 14q51 23 51 72q0 31 -23 51q-21 19 -73 19h-99l70 233h102l-34 -123h57q106 0 162 -39q63 -44 63 -131q0 -97 -102 -153q-54 -29 -119.5 -37.5t-165.5 -8.5h-104z" />
<glyph unicode="&#xbb;" horiz-adv-x="1024" d="M82 272l205 260l-205 261l49 57l381 -318l-381 -317zM246 139l389 393l-389 394l73 78l623 -472l-623 -471z" />
<glyph unicode="&#x2c6;" horiz-adv-x="983" d="M102 1229v41l246 286h287l246 -286v-41h-103l-286 164l-287 -164h-103z" />
<glyph unicode="&#x2da;" horiz-adv-x="983" d="M238 1380q0 99 75 164q65 53 179 53q113 0 178 -53q75 -65 75 -164t-75 -161q-66 -56 -178 -56q-113 0 -179 56q-75 62 -75 161zM360 1380q0 -60 33 -96q35 -39 99 -39q63 0 98 39q33 36 33 96q0 61 -33 97q-35 39 -98 39q-64 0 -99 -39q-33 -36 -33 -97z" />
<glyph unicode="&#x2dc;" horiz-adv-x="983" d="M131 1352q35 76 96 125q56 47 135 47q59 0 170 -54q74 -36 119 -36q39 0 74 30q25 22 45 60l82 -82q-35 -76 -96 -125q-56 -47 -135 -47q-61 0 -170 53q-76 37 -119 37q-38 0 -74 -31q-26 -23 -45 -59z" />
<glyph unicode="&#x401;" d="M70 0v90l102 33q41 15 41 61v1065q0 47 -41 62l-102 32v91h1097v-390h-123l-28 107q-24 71 -58 98q-39 33 -110 33h-266v-475h163q45 0 70 22q24 21 33 60l20 74h111v-471h-111l-20 81q-11 40 -33 60q-25 22 -70 22h-163v-454q0 -19 14.5 -34t34.5 -15h209q76 0 123 38 q45 32 65 84l49 125h123l-57 -399h-1073zM293 1679q0 67 48.5 115.5t115.5 48.5t115.5 -48.5t48.5 -115.5t-48 -115t-116 -48t-116 48t-48 115zM743 1679q0 67 48.5 115.5t115.5 48.5t115.5 -48.5t48.5 -115.5t-48 -115t-116 -48t-116 48t-48 115z" />
<glyph unicode="&#x402;" horiz-adv-x="1761" d="M41 1004v430h1311v-430h-123l-37 147q-14 63 -57 98q-39 33 -111 33h-164v-524q172 61 348 61q263 0 385 -135q99 -109 99 -295q0 -218 -129 -328q-107 -90 -326 -90q-134 0 -205 39q-90 50 -90 144q0 61 40.5 98t94.5 37q37 0 78 -33q0 -70 10 -106q16 -56 66 -56 q54 0 74 70q18 75 18 192q0 191 -57 256q-56 68 -172 68q-118 0 -234 -70v-610h-532v90l123 33q41 12 41 61v1098h-123q-72 0 -111 -33q-43 -35 -57 -98l-37 -147h-123z" />
<glyph unicode="&#x403;" horiz-adv-x="1187" d="M70 0v90l102 33q41 15 41 61v1065q0 47 -41 62l-102 32v91h1077v-430h-123l-37 147q-16 64 -59 98q-42 33 -109 33h-237v-1098q0 -49 41 -61l122 -33v-90h-675zM492 1556v41l286 267h328v-70l-512 -238h-102z" />
<glyph unicode="&#x404;" horiz-adv-x="1392" d="M94 731q0 179 68 326t180 241q196 164 526 164q102 0 252 -22q130 -22 187 -27l20 -389h-123l-28 90q-30 95 -93 146q-79 63 -215 63q-176 0 -274 -139q-50 -71 -78.5 -185t-30.5 -208h318q44 0 69 22q10 9 20 27t13 32l21 74h110v-471h-110l-21 82q-10 39 -33 59 q-26 23 -69 23h-318q4 -165 82 -317q114 -211 326 -211q115 0 194 75q26 25 51.5 64t39.5 74l43 106h122l-51 -369q-30 -5 -51.5 -10t-52.5 -14.5t-45 -13.5q-171 -52 -316 -52q-168 0 -307.5 57t-234.5 158q-92 98 -141.5 242.5t-49.5 302.5z" />
<glyph unicode="&#x405;" horiz-adv-x="1187" d="M82 41v389h111l16 -86q18 -93 70 -151q34 -37 91 -59.5t119 -22.5q117 0 185 57q71 59 71 158q0 37 -12 70t-26.5 53t-42 41.5t-41.5 29.5t-41 23l-238 129q-26 14 -49 29.5t-56.5 48t-57.5 69.5t-41 94.5t-17 122.5q0 234 180 346q127 80 359 80q73 0 217 -16 q78 -9 149 -12v-385h-110l-17 84q-15 75 -61 127q-60 63 -164 63q-76 0 -123 -31q-74 -46 -74 -143q0 -26 4.5 -47.5t17.5 -46.5t41 -49.5t70 -47.5l230 -127q29 -16 46.5 -26.5t49 -32.5t51 -41.5t44.5 -51.5t39 -65.5t24 -79t10 -96.5q0 -233 -176 -360 q-150 -107 -395 -107q-129 0 -314 45q-84 23 -139 25z" />
<glyph unicode="&#x406;" horiz-adv-x="794" d="M70 0v90l102 33q41 15 41 61v1065q0 47 -41 62l-102 32v91h655v-91l-102 -32q-41 -15 -41 -62v-1065q0 -46 41 -61l102 -33v-90h-655zM213 1679q0 77 54 131t130 54q77 0 131 -54t54 -131q0 -76 -54 -130t-131 -54t-130.5 53.5t-53.5 130.5z" />
<glyph unicode="&#x407;" horiz-adv-x="794" d="M33 1679q0 67 48.5 115.5t115.5 48.5t115 -48t48 -116q0 -67 -48 -115t-115 -48q-68 0 -116 48t-48 115zM70 0v90l102 33q41 15 41 61v1065q0 47 -41 62l-102 32v91h655v-91l-102 -32q-41 -15 -41 -62v-1065q0 -46 41 -61l102 -33v-90h-655zM434 1679q0 67 48 115.5 t116 48.5t116 -48.5t48 -115.5t-48 -115t-116 -48t-116 48t-48 115z" />
<glyph unicode="&#x408;" horiz-adv-x="794" d="M-279 -334q0 108 83 160t196 10q6 -50 32 -80t64 -30q73 0 109 84q28 62 28 190v1249q0 27 -11.5 43t-28.5 19l-144 32v91h696v-91l-102 -32q-41 -15 -41 -62v-1112q0 -80 -30 -163t-79.5 -153t-104 -126.5t-112.5 -100.5q-77 -59 -153 -86.5t-170 -27.5q-15 0 -29.5 1 t-45 6t-55 17.5t-49.5 31.5t-39 52.5t-14 77.5z" />
<glyph unicode="&#x409;" horiz-adv-x="2093" d="M33 150q0 74 43.5 115.5t99.5 41.5q25 0 57 -16q-1 -26 15 -44t41 -18q71 0 100 78q25 64 53 254q11 80 28 270.5t17 270.5q0 104 -32 149q-34 49 -99 64l-98 24v95h1188v-91l-103 -32q-40 -15 -40 -62v-430q108 21 215 21q253 0 383 -121q122 -115 122 -303 q0 -105 -40 -181t-97 -122q-65 -54 -166.5 -83.5t-203.5 -29.5h-725v90l102 33q41 15 41 61v1098h-152q-58 0 -90 -37q-30 -33 -43 -135q-7 -61 -17 -211t-14 -192q-22 -251 -57.5 -389.5t-87.5 -215.5q-88 -131 -242 -131q-84 0 -133 35q-65 44 -65 144zM1303 164 q70 -25 124 -25q107 0 168 70q60 69 60 209q0 139 -58 213q-52 69 -157 69q-62 0 -137 -28v-508z" />
<glyph unicode="&#x40a;" horiz-adv-x="2215" d="M70 0v90l102 33q41 15 41 61v1065q0 47 -41 62l-102 32v91h655v-91l-102 -32q-41 -15 -41 -62v-413h475v413q0 47 -41 62l-103 32v91h656v-91l-103 -32q-41 -15 -41 -62v-430q108 21 215 21q253 0 383 -121q123 -116 123 -303q0 -105 -40 -181t-97 -122 q-65 -54 -167 -83.5t-204 -29.5h-725v90l103 33q41 15 41 61v500h-475v-500q0 -46 41 -61l102 -33v-90h-655zM1425 164q70 -25 125 -25q107 0 168 70q60 69 60 209q0 139 -58 213q-52 69 -157 69q-63 0 -138 -28v-508z" />
<glyph unicode="&#x40b;" horiz-adv-x="1773" d="M41 1004v430h1311v-430h-123l-37 147q-14 63 -57 98q-39 33 -111 33h-164v-524q150 61 330 61q207 0 307 -71q113 -82 113 -226v-338q0 -46 41 -61l102 -33v-90h-655v90l102 33q41 15 41 61v336q0 85 -49 125q-43 35 -127 35q-109 0 -205 -70v-426q0 -46 41 -61l103 -33 v-90h-676v90l123 33q41 12 41 61v1098h-123q-72 0 -111 -33q-43 -35 -57 -98l-37 -147h-123z" />
<glyph unicode="&#x40c;" horiz-adv-x="1515" d="M70 0v90l102 33q41 15 41 61v1065q0 47 -41 62l-102 32v91h655v-91l-102 -32q-41 -15 -41 -62v-430h73q74 0 117 29q26 18 50 50.5t36 66.5l78 213q21 57 32 83.5t35.5 66t55.5 67.5q74 67 182 67q54 0 94.5 -16t61.5 -43t31 -56t10 -61q0 -96 -61.5 -135.5t-135.5 -15.5 q-1 25 -18 39t-45 14q-35 0 -60 -25t-47 -84l-59 -166q-6 -16 -14.5 -33t-26 -42.5t-47 -48t-66.5 -35.5v-4q110 -7 184 -72q19 -16 34.5 -34.5t28 -42.5t19 -37.5t18 -42t13.5 -34.5l86 -219q48 -125 150 -125q56 0 104 33v-123q-52 -32 -104 -51q-91 -31 -177 -31 q-100 0 -167 31q-104 46 -154 191l-102 299q-27 77 -58 120q-42 56 -110 56h-41v-484q0 -46 41 -61l102 -33v-90h-655zM614 1556v41l287 267h328v-70l-512 -238h-103z" />
<glyph unicode="&#x40e;" horiz-adv-x="1433" d="M41 1343v91h651v-91l-69 -16q-24 -6 -38 -17.5t-14 -39.5q0 -26 25 -74l254 -487l192 430q27 72 27 102q0 68 -78 86l-69 16v91h471v-91q-39 -6 -78 -26q-47 -26 -80 -94l-467 -1000q-62 -131 -123 -184q-80 -68 -190 -68q-96 0 -148 43q-57 46 -57 136q0 94 67.5 138.5 t149.5 6.5q2 -31 24 -50.5t58 -19.5q69 0 100 74l23 53l-475 885q-13 24 -24 39.5t-37 33.5t-60 25zM369 1724q0 57 47.5 88t115.5 31q63 0 119 -31q-5 -76 21 -120q39 -66 147 -66q109 0 148 66q25 43 20 120q56 31 119 31q68 0 116 -31t48 -88q0 -96 -111 -153 q-108 -55 -340 -55t-340 55q-110 56 -110 153z" />
<glyph unicode="&#x40f;" horiz-adv-x="1626" d="M70 0v90l102 33q41 15 41 61v1065q0 47 -41 62l-102 32v91h655v-91l-102 -32q-41 -15 -41 -62v-1097h462v1097q0 47 -40 62l-103 32v91h655v-91l-102 -32q-41 -15 -41 -62v-1065q0 -46 41 -61l102 -33v-90h-686l74 -393q-2 -53 -38 -90t-97 -37t-98 37.5t-37 93.5l69 389 h-673z" />
<glyph unicode="&#x410;" horiz-adv-x="1536" d="M20 0v90l43 12q35 10 68 39q26 24 45 72l436 1149q22 62 33 100h246q21 -71 33 -100l467 -1172q17 -42 51 -69q38 -27 74 -31v-90h-629v90l76 16q51 11 51 46q0 11 -15 55l-104 272h-451l-88 -243q-16 -50 -16 -78q0 -38 49 -52l62 -16v-90h-431zM492 623h348l-176 458 h-5z" />
<glyph unicode="&#x411;" horiz-adv-x="1372" d="M70 0v90l102 33q41 15 41 61v1065q0 47 -41 62l-102 32v91h1126v-390h-123l-29 107q-15 63 -57 96q-41 35 -110 35h-295v-463q86 12 194 12q124 0 226.5 -23.5t179.5 -94.5q55 -52 88 -129.5t33 -167.5q0 -96 -37.5 -173.5t-100.5 -129.5q-65 -54 -166.5 -83.5 t-203.5 -29.5h-725zM582 164q58 -25 116 -25q112 0 168 70q60 72 60 209q0 135 -58 207q-54 67 -157 67q-64 0 -129 -20v-508z" />
<glyph unicode="&#x412;" horiz-adv-x="1392" d="M70 0v90l102 33q41 15 41 61v1065q0 47 -41 62l-102 32v91h286q97 0 199 6q113 6 190 6q249 0 369 -90q115 -85 115 -234q0 -139 -90 -225q-80 -77 -201 -102v-4q139 -19 238 -89q135 -97 135 -284q0 -188 -137 -303q-140 -115 -375 -115h-729zM582 164q62 -25 118 -25 q123 0 183 82q51 69 51 205q0 132 -53 201q-20 26 -44.5 43t-53 24t-49.5 9t-52 2h-100v-541zM582 848h84q107 0 161 61t54 176q0 104 -41 158q-49 64 -150 64q-48 0 -108 -17v-442z" />
<glyph unicode="&#x413;" horiz-adv-x="1187" d="M70 0v90l102 33q41 15 41 61v1065q0 47 -41 62l-102 32v91h1077v-430h-123l-37 147q-16 64 -59 98q-42 33 -109 33h-237v-1098q0 -49 41 -61l122 -33v-90h-675z" />
<glyph unicode="&#x414;" horiz-adv-x="1515" d="M41 152h49q53 0 111 71q93 114 159 326q41 134 68 306t27 271q0 81 -33 125q-34 49 -98 64l-99 24v95h1188v-91l-102 -32q-41 -15 -41 -62v-1048q0 -19 14.5 -34t34.5 -15h135v-508h-135l-59 209q-17 60 -50 102q-38 45 -106 45h-713q-68 0 -106 -45q-31 -40 -49 -102 l-60 -209h-135v508zM356 152h545v1130h-151q-54 0 -84 -35q-31 -36 -39 -127q-39 -378 -111 -624q-58 -198 -160 -344z" />
<glyph unicode="&#x415;" d="M70 0v90l102 33q41 15 41 61v1065q0 47 -41 62l-102 32v91h1097v-390h-123l-28 107q-24 71 -58 98q-39 33 -110 33h-266v-475h163q45 0 70 22q24 21 33 60l20 74h111v-471h-111l-20 81q-11 40 -33 60q-25 22 -70 22h-163v-454q0 -19 14.5 -34t34.5 -15h209q76 0 123 38 q45 32 65 84l49 125h123l-57 -399h-1073z" />
<glyph unicode="&#x416;" horiz-adv-x="2088" d="M20 53v123q47 -33 105 -33q31 0 54.5 11.5t38 32.5t22 38.5t14.5 40.5l68 219q39 133 114 195q77 67 189 70v4q-55 20 -92.5 63.5t-53.5 95.5l-53 166q-18 61 -41 84q-25 25 -55 25q-24 0 -43.5 -13.5t-20.5 -39.5q-79 -26 -137.5 14.5t-58.5 130.5q0 76 48 129t148 53 q111 0 183 -67q28 -26 50.5 -64.5t34.5 -69.5t29 -83l70 -213q27 -83 74 -117q41 -29 104 -29h59v430q0 47 -41 62l-102 32v91h635v-91l-102 -32q-41 -15 -41 -62v-430h59q63 0 104 29q47 34 74 117l70 213q17 52 29 83t34.5 69.5t50.5 64.5q72 67 183 67q100 0 148 -53 t48 -129q0 -90 -58.5 -130.5t-137.5 -14.5q-1 26 -20.5 39.5t-43.5 13.5q-30 0 -55 -25q-23 -23 -41 -84l-53 -166q-16 -52 -53.5 -95.5t-92.5 -63.5v-4q112 -3 189 -70q75 -62 114 -195l68 -219q7 -23 14.5 -40.5t22 -38.5t38 -32.5t54.5 -11.5q57 0 104 33v-123 q-50 -35 -88 -51q-74 -31 -149 -31q-101 0 -168 31q-10 5 -18 9.5t-30.5 21.5t-39.5 36.5t-36.5 52.5t-29.5 71l-79 299q-22 79 -54 122q-43 54 -108 54h-49v-484q0 -46 41 -61l102 -33v-90h-635v90l102 33q41 15 41 61v484h-49q-65 0 -108 -54q-32 -43 -54 -122l-79 -299 q-10 -38 -29.5 -71t-36.5 -52.5t-39.5 -36.5t-30.5 -21.5t-18 -9.5q-67 -31 -168 -31q-75 0 -149 31q-41 17 -89 51z" />
<glyph unicode="&#x417;" horiz-adv-x="1187" d="M61 41v389h123l33 -102q12 -37 19 -56.5t25 -51.5t42 -54q59 -55 148 -55q106 0 172 69q77 80 77 236q0 146 -73 219q-65 65 -183 65q-70 0 -137 -20v160h168q92 0 139 63q45 64 45 193q0 116 -49 170q-53 57 -147 57q-76 0 -123 -33q-62 -41 -92 -155l-23 -86h-123v385 q72 2 174 12q152 16 230 16q267 0 391 -88q131 -94 131 -252q0 -137 -94 -231q-77 -77 -197 -105v-4q129 -18 217 -84q140 -100 140 -278q0 -43 -9 -85.5t-30.5 -90.5t-64 -93.5t-101.5 -80.5q-83 -49 -198.5 -74t-235.5 -25q-129 0 -244 33q-18 5 -45.5 13t-51 14t-53.5 10 z" />
<glyph unicode="&#x418;" horiz-adv-x="1679" d="M70 0v90l102 33q41 15 41 61v1065q0 47 -41 62l-102 32v91h655v-91l-102 -32q-41 -15 -41 -62v-770l516 729v41q0 47 -41 62l-103 32v91h656v-91l-103 -32q-41 -15 -41 -62v-1065q0 -46 41 -61l103 -33v-90h-656v90l103 33q41 15 41 61v783l-516 -729v-54q0 -46 41 -61 l102 -33v-90h-655z" />
<glyph unicode="&#x419;" horiz-adv-x="1679" d="M70 0v90l102 33q41 15 41 61v1065q0 47 -41 62l-102 32v91h655v-91l-102 -32q-41 -15 -41 -62v-770l516 729v41q0 47 -41 62l-103 32v91h656v-91l-103 -32q-41 -15 -41 -62v-1065q0 -46 41 -61l103 -33v-90h-656v90l103 33q41 15 41 61v783l-516 -729v-54q0 -46 41 -61 l102 -33v-90h-655zM389 1724q0 57 48 88t116 31q63 0 119 -31q-5 -77 20 -120q39 -66 148 -66q108 0 147 66q26 44 21 120q56 31 118 31q68 0 116 -31t48 -88q0 -97 -110 -153q-108 -55 -340 -55t-340 55q-111 57 -111 153z" />
<glyph unicode="&#x41a;" horiz-adv-x="1515" d="M70 0v90l102 33q41 15 41 61v1065q0 47 -41 62l-102 32v91h655v-91l-102 -32q-41 -15 -41 -62v-430h73q74 0 117 29q26 18 50 50.5t36 66.5l78 213q21 57 32 83.5t35.5 66t55.5 67.5q74 67 182 67q54 0 94.5 -16t61.5 -43t31 -56t10 -61q0 -96 -61.5 -135.5t-135.5 -15.5 q-1 25 -18 39t-45 14q-35 0 -60 -25t-47 -84l-59 -166q-6 -16 -14.5 -33t-26 -42.5t-47 -48t-66.5 -35.5v-4q110 -7 184 -72q19 -16 34.5 -34.5t28 -42.5t19 -37.5t18 -42t13.5 -34.5l86 -219q48 -125 150 -125q56 0 104 33v-123q-52 -32 -104 -51q-91 -31 -177 -31 q-100 0 -167 31q-104 46 -154 191l-102 299q-27 77 -58 120q-42 56 -110 56h-41v-484q0 -46 41 -61l102 -33v-90h-655z" />
<glyph unicode="&#x41b;" horiz-adv-x="1515" d="M33 150q0 74 43.5 115.5t99.5 41.5q25 0 57 -16q-1 -26 15 -44t41 -18q71 0 100 78q25 64 53 254q11 80 28 270.5t17 270.5q0 104 -32 149q-34 49 -99 64l-98 24v95h1188v-91l-103 -32q-40 -15 -40 -62v-1065q0 -46 40 -61l103 -33v-90h-655v90l102 33q41 15 41 61v1098 h-152q-58 0 -90 -37q-30 -33 -43 -135q-7 -61 -17 -211t-14 -192q-22 -251 -57.5 -389.5t-87.5 -215.5q-88 -131 -242 -131q-84 0 -133 35q-65 44 -65 144z" />
<glyph unicode="&#x41c;" horiz-adv-x="1925" d="M61 0v90l82 33q13 6 19 9.5t13.5 17t8.5 34.5l41 1065q0 49 -41 62l-102 32v91h512q7 -72 39 -160l317 -803h4l320 803q36 90 45 160h508v-91l-103 -32q-41 -12 -41 -62l37 -1065q0 -48 41 -61l103 -33v-90h-656v90l103 33q41 12 41 61l-25 809h-4l-356 -895 q-31 -77 -37 -127h-164q-3 49 -35 127l-360 895h-4l-23 -809q0 -49 41 -61l102 -33v-90h-426z" />
<glyph unicode="&#x41d;" horiz-adv-x="1638" d="M70 0v90l102 33q41 15 41 61v1065q0 47 -41 62l-102 32v91h655v-91l-102 -32q-41 -15 -41 -62v-413h475v413q0 47 -41 62l-103 32v91h656v-91l-103 -32q-41 -15 -41 -62v-1065q0 -46 41 -61l103 -33v-90h-656v90l103 33q41 15 41 61v500h-475v-500q0 -46 41 -61l102 -33 v-90h-655z" />
<glyph unicode="&#x41e;" horiz-adv-x="1597" d="M94 717q0 102 20 194t54 161t69.5 118.5t77.5 89.5q84 81 207 131.5t277 50.5t276.5 -50.5t206.5 -131.5q42 -40 77.5 -89.5t69.5 -118.5t54 -161t20 -194t-20 -194t-54 -161t-69.5 -118.5t-77.5 -89.5q-85 -81 -207 -132t-276 -51t-277 51t-207 132q-42 40 -77.5 89.5 t-69.5 118.5t-54 161t-20 194zM487 717q0 -116 16.5 -219t30 -143t23.5 -60q80 -184 242 -184q161 0 241 184q10 20 23.5 60t30 143t16.5 219t-16.5 219t-30 143t-23.5 60q-80 184 -241 184q-162 0 -242 -184q-10 -20 -23.5 -60t-30 -143t-16.5 -219z" />
<glyph unicode="&#x41f;" horiz-adv-x="1626" d="M70 0v90l102 33q41 15 41 61v1065q0 47 -41 62l-102 32v91h1486v-91l-102 -32q-41 -15 -41 -62v-1065q0 -46 41 -61l102 -33v-90h-655v90l103 33q40 15 40 61v1098h-462v-1098q0 -46 41 -61l102 -33v-90h-655z" />
<glyph unicode="&#x420;" horiz-adv-x="1351" d="M70 0v90l102 33q41 15 41 61v1065q0 47 -41 62l-102 32v91h286q29 0 185 6q147 6 211 6q250 0 374 -84q156 -108 156 -330q0 -110 -37.5 -191t-93.5 -130q-14 -12 -36.5 -26.5t-70.5 -37.5t-123.5 -38t-162.5 -15q-85 0 -176 16v-426q0 -49 41 -61l122 -33v-90h-675z M582 762q54 -29 123 -29q97 0 153 72q55 69 55 229q0 140 -51 203q-56 70 -166 70q-59 0 -114 -17v-528z" />
<glyph unicode="&#x421;" horiz-adv-x="1392" d="M94 709q0 186 72 336.5t192 248.5q207 168 525 168q129 0 243 -32q13 -4 35 -10.5t35.5 -10.5t37 -8.5t50.5 -7.5l43 -398h-123l-43 119q-29 84 -90 139q-78 70 -190 70q-179 0 -279 -139q-39 -54 -64.5 -125t-35 -142t-12.5 -111.5t-3 -76.5q0 -243 86 -407 q33 -63 77.5 -107.5t91 -65.5t86 -29.5t79.5 -8.5q108 0 185 77q22 22 49 63.5t39 72.5l41 106h122l-51 -369q-30 -5 -51.5 -10t-52.5 -14.5t-45 -13.5q-171 -52 -316 -52q-168 0 -307.5 57t-234.5 158q-91 99 -141 240t-50 283z" />
<glyph unicode="&#x422;" horiz-adv-x="1351" d="M41 1004v430h1270v-430h-123l-37 147q-14 63 -57 98q-39 33 -111 33h-123v-1098q0 -49 41 -61l123 -33v-90h-696v90l123 33q41 12 41 61v1098h-123q-72 0 -111 -33q-43 -35 -57 -98l-37 -147h-123z" />
<glyph unicode="&#x423;" horiz-adv-x="1433" d="M41 1343v91h651v-91l-69 -16q-24 -6 -38 -17.5t-14 -39.5q0 -26 25 -74l254 -487l192 430q27 72 27 102q0 68 -78 86l-69 16v91h471v-91q-39 -6 -78 -26q-47 -26 -80 -94l-467 -1000q-62 -131 -123 -184q-80 -68 -190 -68q-96 0 -148 43q-57 46 -57 136q0 94 67.5 138.5 t149.5 6.5q2 -31 24 -50.5t58 -19.5q69 0 100 74l23 53l-475 885q-13 24 -24 39.5t-37 33.5t-60 25z" />
<glyph unicode="&#x424;" horiz-adv-x="1884" d="M94 774q0 150 62 262t159 176q78 51 186 77t216 26h51v37q0 49 -41 61l-123 33v90h676v-90l-123 -33q-41 -12 -41 -61v-37h51q108 0 216 -26t186 -77q97 -64 159 -176t62 -262t-62 -262t-159 -176q-78 -51 -186 -77t-216 -26h-51v-49q0 -49 41 -61l123 -33v-90h-676v90 l123 33q41 12 41 61v49h-51q-108 0 -216 26t-186 77q-97 64 -159 176t-62 262zM451 774q0 -243 90 -350q81 -92 184 -92h43v885h-43q-102 0 -184 -93q-90 -107 -90 -350zM1116 332h43q47 0 93 23t65.5 41.5t25.5 27.5q91 107 91 350t-91 350q-6 9 -25.5 27.5t-65.5 42 t-93 23.5h-43v-885z" />
<glyph unicode="&#x425;" horiz-adv-x="1531" d="M41 0v90l61 21q49 16 104 66.5t95 109.5l285 405l-348 529q-59 88 -148 110l-49 12v91h680v-91l-72 -16q-47 -10 -47 -53q0 -30 35 -82l182 -277l182 277q39 60 39 82q0 43 -47 53l-71 16v91h483v-91q-66 -9 -109 -32q-65 -37 -120 -123l-263 -404l373 -567 q26 -38 70 -71.5t86 -43.5l49 -12v-90h-676v90l45 8q27 5 46.5 24t19.5 48q0 9 -2 18t-7.5 19.5t-9 16.5t-12 19.5t-10.5 16.5l-201 301l-209 -299q-37 -52 -37 -88q0 -12 3.5 -24.5t19.5 -27.5t43 -20l57 -12v-90h-520z" />
<glyph unicode="&#x426;" horiz-adv-x="1658" d="M70 0v90l102 33q41 15 41 61v1065q0 47 -41 62l-102 32v91h655v-91l-102 -32q-41 -15 -41 -62v-1097h462v1097q0 47 -40 62l-103 32v91h655v-91l-102 -32q-41 -15 -41 -62v-1048q0 -19 14.5 -34t34.5 -15h135v-508h-135l-59 209q-18 62 -49 102q-38 45 -107 45h-1177z " />
<glyph unicode="&#x427;" horiz-adv-x="1495" d="M20 1343v91h656v-91l-103 -32q-41 -15 -41 -62v-336q0 -84 50 -125q42 -34 125 -34q112 0 206 69v426q0 47 -41 62l-102 32v91h655v-91l-102 -32q-41 -15 -41 -62v-1065q0 -46 41 -61l102 -33v-90h-675v90l122 33q41 12 41 61v492q-152 -62 -329 -62q-206 0 -308 72 q-112 81 -112 225v338q0 47 -41 62z" />
<glyph unicode="&#x428;" horiz-adv-x="2293" d="M70 0v90l102 33q41 15 41 61v1065q0 47 -41 62l-102 32v91h655v-91l-102 -32q-41 -15 -41 -62v-1097h381v1097q0 47 -41 62l-103 32v91h656v-91l-103 -32q-41 -15 -41 -62v-1097h381v1097q0 47 -41 62l-102 32v91h655v-91l-102 -32q-41 -15 -41 -62v-1065q0 -46 41 -61 l102 -33v-90h-2154z" />
<glyph unicode="&#x429;" horiz-adv-x="2326" d="M70 0v90l102 33q41 15 41 61v1065q0 47 -41 62l-102 32v91h655v-91l-102 -32q-41 -15 -41 -62v-1097h381v1097q0 47 -41 62l-103 32v91h656v-91l-103 -32q-41 -15 -41 -62v-1097h381v1097q0 47 -41 62l-102 32v91h655v-91l-102 -32q-41 -15 -41 -62v-1048q0 -19 14.5 -34 t34.5 -15h135v-508h-135l-59 209q-17 60 -50 102q-38 45 -106 45h-1845z" />
<glyph unicode="&#x42a;" horiz-adv-x="1597" d="M41 1004v430h930v-91l-123 -32q-41 -12 -41 -62v-430q108 21 215 21q253 0 383 -121q123 -116 123 -303q0 -105 -40 -181t-97 -122q-65 -54 -167 -83.5t-204 -29.5h-725v90l102 33q41 15 41 61v1098h-69q-72 0 -111 -33q-43 -35 -57 -98l-37 -147h-123zM807 164 q70 -25 125 -25q107 0 168 70q59 68 59 209q0 140 -57 213q-52 69 -158 69q-62 0 -137 -28v-508z" />
<glyph unicode="&#x42b;" horiz-adv-x="2048" d="M70 0v90l102 33q41 15 41 61v1065q0 47 -41 62l-102 32v91h675v-91l-122 -32q-41 -12 -41 -62v-430q108 21 215 21q253 0 383 -121q123 -116 123 -303q0 -105 -40.5 -181t-97.5 -122q-65 -54 -166.5 -83.5t-203.5 -29.5h-725zM582 164q70 -25 125 -25q106 0 167 70 q60 69 60 209t-57 213q-52 69 -158 69q-62 0 -137 -28v-508zM1323 0v90l102 33q41 15 41 61v1065q0 47 -41 62l-102 32v91h655v-91l-102 -32q-41 -15 -41 -62v-1065q0 -46 41 -61l102 -33v-90h-655z" />
<glyph unicode="&#x42c;" horiz-adv-x="1372" d="M70 0v90l102 33q41 15 41 61v1065q0 47 -41 62l-102 32v91h675v-91l-122 -32q-41 -12 -41 -62v-430q108 21 215 21q253 0 383 -121q123 -116 123 -303q0 -105 -40.5 -181t-97.5 -122q-65 -54 -166.5 -83.5t-203.5 -29.5h-725zM582 164q70 -25 125 -25q106 0 167 70 q60 69 60 209t-57 213q-52 69 -158 69q-62 0 -137 -28v-508z" />
<glyph unicode="&#x42d;" horiz-adv-x="1404" d="M61 41v389h123l39 -106q11 -32 36.5 -74t49.5 -64q75 -75 197 -75q39 0 78 8.5t86 29.5t91 65.5t77 107.5q33 65 55 158.5t27 174.5h-318q-45 0 -70 -22q-21 -19 -32 -60l-21 -81h-110v471h110l21 -74q9 -40 32 -60q25 -22 70 -22h318q-3 89 -32.5 199t-76.5 178 q-95 139 -274 139q-54 0 -113.5 -16t-97.5 -47q-63 -52 -90 -146l-27 -90h-123v410q79 2 186 14q130 14 234 14q102 0 182.5 -9t186.5 -47.5t188 -107.5q112 -94 180 -241.5t68 -325.5q0 -168 -56.5 -306t-148.5 -232q-94 -96 -242 -159t-346 -63q-146 0 -309 39 q-96 23 -148 31z" />
<glyph unicode="&#x42e;" horiz-adv-x="2293" d="M70 0v90l102 33q41 15 41 61v1065q0 47 -41 62l-102 32v91h655v-91l-102 -32q-41 -15 -41 -62v-434h219q12 131 67 254.5t142 208.5q83 82 207.5 133t277.5 51q154 0 276.5 -50.5t206.5 -131.5q42 -40 77.5 -89.5t70 -118.5t54.5 -161t20 -194t-20 -194t-54.5 -161 t-70 -118.5t-77.5 -89.5q-85 -81 -207 -132t-276 -51q-98 0 -185.5 21.5t-148 55.5t-93.5 58.5t-58 49.5q-93 91 -149 226t-62 282h-217v-480q0 -46 41 -61l102 -33v-90h-655zM1184 717q0 -116 16.5 -219t29.5 -143t23 -60q80 -184 242 -184t242 184q10 20 23 60t29.5 143 t16.5 219t-16.5 219t-29.5 143t-23 60q-80 184 -242 184t-242 -184q-10 -20 -23 -60t-29.5 -143t-16.5 -219z" />
<glyph unicode="&#x42f;" horiz-adv-x="1495" d="M20 53v123q44 -33 101 -33q94 0 137 111l88 215q40 102 103 152q66 52 161 59v4q-151 0 -264 80q-141 100 -141 289q0 102 47.5 181t120.5 128q76 51 168.5 67.5t208.5 16.5q85 0 184 -6q117 -6 205 -6h286v-91l-102 -32q-41 -15 -41 -62v-1065q0 -46 41 -61l102 -33v-90 h-655v90l102 33q41 15 41 61v455h-41q-70 0 -108 -43q-27 -28 -51 -104l-103 -299q-47 -139 -157 -191q-74 -31 -172 -31q-80 0 -164 31q-52 20 -97 51zM573 1059q0 -134 64 -201t174 -67h102v499q-64 17 -116 17q-109 0 -166 -66q-58 -65 -58 -182z" />
<glyph unicode="&#x430;" horiz-adv-x="1126" d="M61 244q0 157 105 241q82 66 278 109l183 41v213q0 48 -19 72q-20 30 -76 30q-67 0 -110 -43q-55 -52 -37 -151q-90 -33 -160 -33q-131 0 -131 88q0 59 47.5 115.5t145.5 93.5q146 53 323 53q190 0 264 -59q89 -64 89 -207v-606q0 -36 22 -62q20 -20 51 -20q27 0 49 16 v-102q-117 -62 -221 -62q-88 0 -143 49q-38 33 -64 91q-60 -60 -118 -91q-88 -49 -187 -49q-110 0 -192 62q-99 72 -99 211zM381 283q0 -73 27 -111q28 -37 79 -37q53 0 97 47q43 47 43 123v207l-101 -25q-77 -18 -112 -69q-33 -49 -33 -135z" />
<glyph unicode="&#x431;" horiz-adv-x="1187" d="M74 590q0 302 61 502q30 97 73 168.5t97 115.5t110.5 69t125.5 38l182 35q15 3 56.5 9.5t70 13.5t55.5 18q68 27 82 79h103q-17 -184 -111 -284q-83 -88 -262 -123l-199 -39q-186 -37 -262 -195q-40 -86 -49 -215h8q42 104 119 166q110 96 278 96q103 0 191 -33.5 t149 -90.5q68 -63 115 -165.5t47 -246.5q0 -132 -43.5 -237.5t-118.5 -174.5q-139 -125 -358 -125q-226 0 -363 127q-51 48 -84.5 107t-48 127.5t-19.5 125t-5 132.5zM410 508q0 -201 41 -299q47 -115 143 -115t143 115q41 102 41 299t-41 299q-47 115 -143 115t-143 -115 q-41 -98 -41 -299z" />
<glyph unicode="&#x432;" horiz-adv-x="1167" d="M61 0v82l72 22q31 9 31 41v754q0 32 -31 41l-72 23v81h353q21 0 133 5q86 4 131 4q169 0 256 -56q102 -67 102 -192q0 -97 -63 -160q-56 -56 -135 -78v-4q103 -10 172 -74q84 -77 84 -196q0 -137 -107 -219q-99 -74 -274 -74h-652zM483 131q36 -8 92 -8q93 0 142 41 q57 46 57 135q0 86 -49 135q-47 45 -135 45h-107v-348zM483 602h68q89 0 137 45q45 43 45 123q0 73 -37 115q-43 45 -116 45q-56 0 -97 -8v-320z" />
<glyph unicode="&#x433;" horiz-adv-x="983" d="M61 0v82l72 22q31 9 31 41v754q0 32 -31 41l-72 23v81h861v-360h-115l-41 152q-7 31 -33 51q-22 18 -61 18h-189v-760q0 -33 31 -41l84 -22v-82h-537z" />
<glyph unicode="&#x434;" horiz-adv-x="1146" d="M20 139h50q23 0 42 14.5t44 63.5q63 121 108 328q35 163 35 258q0 65 -20 96q-20 32 -64 41l-96 23v81h958v-81l-71 -23q-31 -9 -31 -41v-739q0 -21 24 -21h107v-426h-115l-43 168q-11 48 -39 84q-18 22 -37.5 28.5t-48.5 6.5h-520q-19 0 -31 -1.5t-27 -9.5t-28 -24 q-28 -36 -39 -84l-43 -168h-115v426zM291 139h368v766h-116q-54 0 -78 -35q-13 -17 -17.5 -45.5t-11.5 -107.5q-23 -223 -65 -367q-32 -113 -80 -211z" />
<glyph unicode="&#x435;" horiz-adv-x="1064" d="M74 494q0 123 34 239t103 195q131 145 358 145q237 0 349 -149q86 -116 86 -303v-41l-58 -58h-536q0 -195 57 -282q66 -101 197 -101q133 0 278 90l57 -106q-68 -45 -172 -90q-152 -62 -264 -62q-109 0 -205 36t-157 102q-127 137 -127 385zM412 649h190q36 0 57 19 q25 20 25 65q0 31 -8.5 75t-20.5 71q-30 71 -96 71q-83 0 -119 -102q-28 -83 -28 -199z" />
<glyph unicode="&#x436;" horiz-adv-x="1699" d="M41 29v102q26 -16 53 -16q77 0 119 118q5 12 17 46t20 53.5t22 47t29 46.5q37 47 94 78.5t121 38.5v4q-89 11 -119 115l-35 110q-19 68 -73 68q-28 0 -45 -15.5t-15 -38.5q-66 -6 -106.5 35.5t-40.5 100.5q0 67 50 109t130 42q43 0 79 -16t56.5 -35.5t38 -50.5t23 -46.5 t12.5 -37.5l43 -148q25 -86 57 -114q26 -23 64 -23h65v297q0 32 -30 41l-72 23v81h504v-81l-72 -23q-31 -9 -31 -41v-297h66q37 0 63 23q33 29 58 114l43 148q7 22 12.5 37.5t23 46.5t38 50.5t56.5 35.5t79 16q80 0 130 -42t50 -109q0 -59 -41 -100.5t-107 -35.5 q2 23 -14.5 38.5t-44.5 15.5q-55 0 -74 -68l-34 -110q-30 -104 -119 -115v-4q64 -7 121 -38.5t94 -78.5q15 -19 29 -46.5t22 -47t20 -53.5t17 -46q42 -118 119 -118q27 0 53 16v-102q-90 -58 -203 -58q-90 0 -140.5 34.5t-84.5 98.5q-5 9 -9 18t-9.5 21t-9 20t-9.5 24.5 t-9.5 26t-11.5 32t-12 34.5t-14.5 42.5t-16.5 46.5q-8 24 -14 38.5t-18 33.5t-29 28.5t-39 9.5h-31v-334q0 -32 31 -41l72 -22v-82h-504v82l72 22q30 9 30 41v334h-30q-22 0 -39.5 -9.5t-29 -28t-18 -33.5t-14.5 -39q-9 -26 -23.5 -67.5t-20 -58t-15 -42.5t-15 -39 t-12.5 -28.5t-14 -29.5q-34 -64 -84.5 -98.5t-140.5 -34.5q-113 0 -203 58z" />
<glyph unicode="&#x437;" horiz-adv-x="1024" d="M61 168q0 61 40 100t112 39q55 0 102 -20q0 -87 23 -129q33 -64 121 -64q79 0 125 51q47 54 47 154q0 104 -43 147q-39 41 -133 41q-67 0 -123 -12v135h102q84 0 131 54q37 44 37 116q0 94 -53 135q-41 35 -123 35q-58 0 -98 -22q-40 -23 -60 -78l-51 -133h-115l25 327 q82 3 168 11q18 2 59 7t76 8t72 3q198 0 293 -55q114 -63 114 -193q0 -108 -63 -174q-58 -66 -152 -86v-4q109 -11 174 -67q82 -67 82 -195q0 -171 -149 -254q-127 -74 -367 -74q-177 0 -266 41q-107 51 -107 156z" />
<glyph unicode="&#x438;" horiz-adv-x="1310" d="M61 0v82l72 22q31 9 31 41v754q0 32 -31 41l-72 23v81h525v-81l-72 -23q-31 -9 -31 -41v-493l344 450v43q0 32 -30 41l-72 23v81h524v-81l-71 -23q-31 -9 -31 -41v-754q0 -32 31 -41l71 -22v-82h-524v82l72 22q30 9 30 41v506l-344 -450v-56q0 -32 31 -41l72 -22v-82 h-525z" />
<glyph unicode="&#x439;" horiz-adv-x="1310" d="M61 0v82l72 22q31 9 31 41v754q0 32 -31 41l-72 23v81h525v-81l-72 -23q-31 -9 -31 -41v-493l344 450v43q0 32 -30 41l-72 23v81h524v-81l-71 -23q-31 -9 -31 -41v-754q0 -32 31 -41l71 -22v-82h-524v82l72 22q30 9 30 41v506l-344 -450v-56q0 -32 31 -41l72 -22v-82 h-525zM266 1446q0 55 43 82.5t109 27.5q68 0 119 -30q-13 -37 -13 -70q0 -57 35 -90q35 -31 96 -31q62 0 97 31q34 32 34 90q0 36 -12 70q51 30 119 30q66 0 108.5 -27.5t42.5 -82.5q0 -47 -26 -89.5t-78 -72.5q-96 -55 -285 -55q-188 0 -284 55q-52 30 -78.5 73t-26.5 89z " />
<glyph unicode="&#x43a;" horiz-adv-x="1228" d="M61 0v82l72 22q31 9 31 41v754q0 32 -31 41l-72 23v81h525v-81l-72 -23q-31 -9 -31 -41v-289h60q45 0 84 27q45 34 73 108l54 146q66 182 227 182q73 0 115.5 -40t42.5 -101q0 -62 -42 -107.5t-106 -46.5q-2 16 -11 27t-21.5 15t-20 5.5t-14.5 1.5q-31 0 -51 -14t-37 -59 l-29 -76q-36 -92 -111 -115v-4q159 -17 232 -115q11 -14 20 -30t19.5 -40.5t15.5 -37.5t18 -49t17 -47q12 -30 19.5 -46t21.5 -37.5t32.5 -31.5t41.5 -10q26 0 55 16v-102q-104 -58 -223 -58q-79 0 -129 27q-69 37 -99 117l-98 262q-24 61 -44 85.5t-56 24.5h-56v-342 q0 -32 31 -41l72 -22v-82h-525z" />
<glyph unicode="&#x43b;" horiz-adv-x="1228" d="M20 125q0 84 57 117t120 8q0 -21 12 -35t33 -14q63 0 94 96q19 68 41 299q12 123 12 205q0 67 -20 98q-20 32 -64 41l-96 23v81h958v-81l-71 -23q-31 -9 -31 -41v-754q0 -32 31 -41l71 -22v-82h-524v82l72 22q30 9 30 41v760h-116q-54 0 -78 -35q-14 -19 -20 -54.5 t-11 -117.5q-7 -134 -27 -289t-47 -235q-67 -203 -251 -203q-17 0 -31 1t-43 9t-49 23t-36 46.5t-16 74.5z" />
<glyph unicode="&#x43c;" horiz-adv-x="1495" d="M49 0v82l80 22q31 9 31 41l35 754q1 16 -8 27t-23 14l-101 23v81h476q2 -35 16 -75l195 -535h4l209 537q14 40 14 73h444v-81l-80 -23q-30 -9 -30 -41l32 -754q0 -32 31 -41l72 -22v-82h-549v82l100 22q31 8 31 41l-24 570h-5l-233 -615q-24 -61 -33 -100h-131 q-4 20 -33 100l-243 615h-4l-19 -570q0 -33 31 -41l92 -22v-82h-377z" />
<glyph unicode="&#x43d;" d="M61 0v82l72 22q31 9 31 41v754q0 32 -31 41l-72 23v81h525v-81l-72 -23q-31 -9 -31 -41v-272h303v272q0 32 -30 41l-72 23v81h524v-81l-71 -23q-31 -9 -31 -41v-754q0 -32 31 -41l71 -22v-82h-524v82l72 22q30 9 30 41v342h-303v-342q0 -32 31 -41l72 -22v-82h-525z" />
<glyph unicode="&#x43e;" horiz-adv-x="1187" d="M74 522q0 136 44 247t118 179q137 125 358 125t358 -125q74 -68 118 -179t44 -247t-44 -247t-118 -179q-137 -125 -358 -125t-358 125q-74 68 -118 179t-44 247zM410 522q0 -210 41 -313q47 -115 143 -115t143 115q41 103 41 313q0 212 -41 314q-22 53 -55 83.5t-88 30.5 q-96 0 -143 -114q-41 -102 -41 -314z" />
<glyph unicode="&#x43f;" horiz-adv-x="1261" d="M61 0v82l72 22q31 9 31 41v754q0 32 -31 41l-72 23v81h1139v-81l-72 -23q-30 -9 -30 -41v-754q0 -32 30 -41l72 -22v-82h-524v82l72 22q30 9 30 41v760h-295v-760q0 -32 31 -41l72 -22v-82h-525z" />
<glyph unicode="&#x440;" horiz-adv-x="1249" d="M41 922v82q179 20 340 69h82v-151q45 57 106 96q89 55 203 55q179 0 281 -112q62 -66 92.5 -177.5t30.5 -238.5q0 -167 -48.5 -280t-119.5 -177q-60 -54 -145 -85.5t-161 -31.5q-50 0 -111.5 15.5t-107.5 54.5v-387q0 -18 10 -28.5t21 -12.5l133 -23v-82h-598v82l84 23 q31 8 31 41v1194q0 40 -41 51zM483 188q30 -43 72 -68.5t86 -25.5q96 0 147 96q52 99 52 299q0 220 -47 322q-45 98 -140 98q-69 0 -118 -57q-52 -61 -52 -170v-494z" />
<glyph unicode="&#x441;" horiz-adv-x="1024" d="M74 483q0 140 42.5 255t114.5 190q143 145 385 145q153 0 246 -53q101 -59 101 -160q0 -56 -42.5 -83t-105.5 -27q-44 0 -102 14v31q0 68 -31 112q-32 43 -84 43q-94 0 -141 -108t-47 -307q0 -194 59 -295q69 -117 199 -117q61 0 131.5 26.5t126.5 63.5l57 -90 q-63 -44 -168 -90q-144 -62 -266 -62q-73 0 -136.5 16t-107 42.5t-65.5 44t-39 35.5q-127 137 -127 374z" />
<glyph unicode="&#x442;" horiz-adv-x="1105" d="M61 684v360h983v-360h-114l-43 152q-12 36 -31 51q-26 18 -61 18h-82v-760q0 -33 30 -41l84 -22v-82h-548v82l83 22q31 8 31 41v760h-82q-35 0 -61 -18q-19 -15 -31 -51l-43 -152h-115z" />
<glyph unicode="&#x443;" horiz-adv-x="1146" d="M20 963v81h566v-81l-51 -9q-11 -2 -13.5 -2.5t-12.5 -4.5t-14 -8t-8 -12.5t-4 -19.5q0 -30 23 -82l182 -415h4l142 389q20 57 20 92q0 27 -14.5 39.5t-42.5 19.5l-52 13v81h381v-81q-36 -3 -61 -25q-16 -12 -29 -43l-415 -1067q-3 -7 -15 -39t-16.5 -42t-16 -36.5 t-19.5 -40t-20.5 -34.5t-26.5 -38t-30 -34q-81 -84 -188 -84q-92 0 -139.5 49.5t-47.5 118.5q0 28 9.5 56t28 53.5t52.5 38.5t78 7q5 -25 24.5 -39t31.5 -16t22 -2q86 0 127 113l51 141l-413 895q-14 29 -31 43q-25 22 -62 25z" />
<glyph unicode="&#x444;" horiz-adv-x="1638" d="M74 522q0 188 69.5 307t182.5 177q68 35 157.5 52.5t175.5 14.5v299q0 40 -41 51l-81 23v82q179 20 340 69h102v-524q86 3 176 -14.5t158 -52.5q113 -58 182.5 -177t69.5 -307q0 -187 -69.5 -306t-182.5 -177q-68 -35 -158 -53t-176 -15v-317q0 -18 10 -28.5t21 -12.5 l133 -23v-82h-647v82l133 23q11 2 20.5 12.5t9.5 28.5v317q-86 -3 -175.5 15t-157.5 53q-113 58 -182.5 177t-69.5 306zM410 522q0 -90 19 -185t60 -149q67 -91 191 -94v856q-124 -3 -191 -94q-41 -54 -60 -149t-19 -185zM958 94q124 3 191 94q41 54 60.5 149.5t19.5 184.5 t-19.5 184.5t-60.5 149.5q-67 91 -191 94v-856z" />
<glyph unicode="&#x445;" horiz-adv-x="1126" d="M41 0v82q49 20 84 53q59 54 86 92l203 273l-209 342q-30 45 -64 73q-48 40 -100 48v81h549v-81l-37 -9q-43 -10 -43 -43q0 -28 14 -49l105 -174l121 172q18 29 18 47q0 31 -31 41l-49 15v81h373v-81q-36 -3 -74 -27q-45 -31 -88 -92l-201 -283l207 -340q37 -60 90 -96 q49 -32 90 -43v-82h-553v82l43 14q41 14 41 45q0 9 -16 41l-113 191l-118 -166q-21 -29 -21 -53q0 -36 37 -54l49 -18v-82h-393z" />
<glyph unicode="&#x446;" d="M61 0v82l72 22q31 9 31 41v754q0 32 -31 41l-72 23v81h525v-81l-72 -23q-31 -9 -31 -41v-760h295v760q0 32 -30 41l-72 23v81h524v-81l-72 -23q-30 -9 -30 -41v-739q0 -21 24 -21h107v-426h-115l-43 168q-11 48 -39 84q-18 22 -37.5 28.5t-48.5 6.5h-885z" />
<glyph unicode="&#x447;" horiz-adv-x="1228" d="M41 963v81h532v-81l-59 -23q-31 -10 -31 -41v-248q0 -61 33 -90q30 -26 86 -26q81 0 143 45v319q0 31 -30 41l-60 23v81h512v-81l-71 -23q-31 -9 -31 -41v-754q0 -32 31 -41l71 -22v-82h-536v82l84 22q30 8 30 41v312q-131 -45 -274 -45q-165 0 -240 61q-88 72 -88 211 v215q0 32 -30 41z" />
<glyph unicode="&#x448;" horiz-adv-x="1740" d="M61 0v82l72 22q31 9 31 41v754q0 32 -31 41l-72 23v81h492v-81l-59 -23q-31 -10 -31 -41v-760h258v760q0 31 -31 41l-59 23v81h479v-81l-59 -23q-31 -10 -31 -41v-760h258v760q0 31 -31 41l-59 23v81h491v-81l-71 -23q-31 -9 -31 -41v-754q0 -32 31 -41l71 -22v-82h-1618 z" />
<glyph unicode="&#x449;" horiz-adv-x="1748" d="M61 0v82l72 22q31 9 31 41v754q0 32 -31 41l-72 23v81h492v-81l-59 -23q-31 -10 -31 -41v-760h258v760q0 31 -31 41l-59 23v81h479v-81l-59 -23q-31 -10 -31 -41v-760h258v760q0 31 -31 41l-59 23v81h491v-81l-71 -23q-31 -9 -31 -41v-739q0 -21 25 -21h106v-426h-115 l-43 168q-11 48 -39 84q-18 22 -37.5 28.5t-48.5 6.5h-1364z" />
<glyph unicode="&#x44a;" horiz-adv-x="1351" d="M61 684v360h750v-81l-72 -23q-30 -9 -30 -41v-276q88 16 190 16q194 0 293 -84q98 -81 98 -227q0 -157 -106 -244q-101 -84 -275 -84h-622v82l71 22q31 9 31 41v760h-78q-35 0 -61 -18q-19 -15 -31 -51l-43 -152h-115zM709 131q50 -8 77 -8q89 0 136 47q49 52 49 154 q0 84 -41 141q-42 51 -121 51q-42 0 -100 -16v-369z" />
<glyph unicode="&#x44b;" horiz-adv-x="1699" d="M61 0v82l72 22q31 9 31 41v754q0 32 -31 41l-72 23v81h525v-81l-72 -23q-31 -9 -31 -41v-276q88 16 191 16q194 0 293 -84q98 -81 98 -227q0 -156 -107 -244q-101 -84 -274 -84h-623zM483 131q50 -8 78 -8q88 0 135 47q49 52 49 154q0 85 -40 141q-42 51 -121 51 q-43 0 -101 -16v-369zM1114 0v82l72 22q31 9 31 41v754q0 32 -31 41l-72 23v81h524v-81l-71 -23q-31 -9 -31 -41v-754q0 -32 31 -41l71 -22v-82h-524z" />
<glyph unicode="&#x44c;" horiz-adv-x="1126" d="M61 0v82l72 22q31 9 31 41v754q0 32 -31 41l-72 23v81h525v-81l-72 -23q-31 -9 -31 -41v-276q88 16 191 16q194 0 293 -84q98 -81 98 -227q0 -156 -107 -244q-101 -84 -274 -84h-623zM483 131q50 -8 78 -8q88 0 135 47q49 52 49 154q0 85 -40 141q-42 51 -121 51 q-43 0 -101 -16v-369z" />
<glyph unicode="&#x44d;" horiz-adv-x="1064" d="M61 168q0 61 40 100t112 39q55 0 102 -20q0 -87 23 -129q33 -64 119 -64q66 0 105.5 33t62.5 96q17 46 24.5 123.5t5.5 140.5h-49q-167 0 -319 -32v155h368q2 62 -13 136t-44 118q-30 48 -70 67t-98 19q-70 0 -106 -24q-40 -23 -60 -76l-51 -133h-115l25 327q32 1 147 11 q158 18 199 18q90 0 184.5 -27t159.5 -79q85 -69 131.5 -184t46.5 -242q0 -134 -50.5 -253.5t-137.5 -193.5q-146 -123 -369 -123q-174 0 -266 41q-107 51 -107 156z" />
<glyph unicode="&#x44e;" horiz-adv-x="1781" d="M61 0v82l72 22q31 9 31 41v754q0 32 -31 41l-72 23v81h525v-81l-72 -23q-31 -9 -31 -41v-289h197q9 94 50 183.5t108 152.5q135 127 350 127q221 0 358 -125q74 -68 118 -179t44 -247t-44 -247t-118 -179q-137 -125 -358 -125q-215 0 -350 125q-68 63 -111.5 161.5 t-46.5 213.5h-197v-326q0 -32 31 -41l72 -22v-82h-525zM1004 522q0 -213 40 -313q47 -115 144 -115q96 0 143 115q41 102 41 313q0 212 -41 314q-22 53 -55 83.5t-88 30.5q-97 0 -144 -114q-40 -100 -40 -314z" />
<glyph unicode="&#x44f;" horiz-adv-x="1228" d="M41 29v102q28 -16 55 -16q63 0 99 100q2 4 11.5 31.5t14 37.5t14 31.5t19 37t20.5 30.5q71 91 195 109l-2 4q-54 2 -108.5 17.5t-90.5 41.5q-96 68 -96 201q0 96 41.5 158t95.5 92q82 47 277 47q56 0 114 -4q78 -5 119 -5h348v-81l-71 -23q-31 -9 -31 -41v-754 q0 -32 31 -41l71 -22v-82h-524v82l72 22q30 9 30 41v293h-40q-30 0 -53 -12t-37 -34t-20 -36.5t-13 -36.5q-2 -7 -11 -35.5t-11 -35.5t-9.5 -30t-11 -31t-10 -26t-11.5 -28t-12 -23t-14 -24q-37 -58 -90 -86.5t-138 -28.5q-122 0 -223 58zM492 739q0 -84 47 -131t133 -47 q40 0 73 8v351q-33 10 -71 10q-74 0 -121 -37q-61 -49 -61 -154z" />
<glyph unicode="&#x451;" horiz-adv-x="1064" d="M74 494q0 123 34 239t103 195q131 145 358 145q237 0 349 -149q86 -116 86 -303v-41l-58 -58h-536q0 -195 57 -282q66 -101 197 -101q133 0 278 90l57 -106q-68 -45 -172 -90q-152 -62 -264 -62q-109 0 -205 36t-157 102q-127 137 -127 385zM180 1413q0 67 48 115.5 t116 48.5t116 -48.5t48 -115.5t-48 -115.5t-116 -48.5t-116 48.5t-48 115.5zM412 649h190q36 0 57 19q25 20 25 65q0 31 -8.5 75t-20.5 71q-30 71 -96 71q-83 0 -119 -102q-28 -83 -28 -199zM631 1413q0 67 48.5 115.5t115.5 48.5t115 -48t48 -116t-48 -116t-115 -48 t-115.5 48.5t-48.5 115.5z" />
<glyph unicode="&#x452;" horiz-adv-x="1187" d="M-41 1200v123h184v49q0 40 -41 51l-82 23v82q179 20 340 69h103v-274h450v-123h-450v-270q54 56 119 90q95 53 200 53q145 0 228 -74q30 -28 49.5 -60.5t27 -70t9.5 -62.5t2 -63v-475q0 -260 -170 -469q-94 -117 -185 -163t-192 -46t-152 41.5t-51 98.5q0 56 48 92.5 t120 38.5q10 -36 43.5 -55t79.5 -19q64 0 100 41q39 43 39 133v737q0 113 -28 160q-30 51 -93 51q-76 0 -133 -63q-61 -67 -61 -168v-533q0 -32 31 -41l71 -22v-82h-524v82l72 22q30 9 30 41v1055h-184z" />
<glyph unicode="&#x453;" horiz-adv-x="983" d="M61 0v82l72 22q31 9 31 41v754q0 32 -31 41l-72 23v81h861v-360h-115l-41 152q-7 31 -33 51q-22 18 -61 18h-189v-760q0 -33 31 -41l84 -22v-82h-537zM410 1229v41l204 286h308v-69l-410 -258h-102z" />
<glyph unicode="&#x454;" horiz-adv-x="1024" d="M74 516q0 302 182 451q131 106 338 106q29 0 63 -3t75 -8t63 -7q115 -10 147 -11l25 -327h-115l-43 133q-16 49 -64 76q-39 24 -106 24q-119 0 -172 -86q-29 -44 -44 -118t-13 -136h368v-155q-152 32 -319 32h-49q-2 -60 13.5 -128t47.5 -119q64 -101 188 -101 q126 0 267 90l57 -106q-63 -44 -168 -90q-144 -62 -266 -62q-73 0 -136.5 16t-107 42.5t-65.5 44t-39 35.5q-127 136 -127 407z" />
<glyph unicode="&#x455;" horiz-adv-x="860" d="M41 319h115q19 -101 77 -159q66 -66 162 -66q64 0 101 29q36 28 36 84q0 67 -51 98l-254 158q-68 41 -108.5 116.5t-40.5 161.5q0 172 131 263q101 69 276 69q48 0 162 -14q35 -6 111 -15l8 -286h-115q-14 97 -55 143q-45 49 -117 49q-59 0 -94 -28q-37 -29 -37 -82 q0 -34 19 -64t45 -45l247 -158q160 -103 160 -282q0 -167 -137 -252q-108 -68 -285 -68q-97 0 -223 23q-20 3 -54.5 8.5t-58.5 9.5z" />
<glyph unicode="&#x456;" horiz-adv-x="647" d="M41 922v82q179 20 340 69h102v-928q0 -32 31 -41l72 -22v-82h-525v82l72 22q31 9 31 41v703q0 40 -41 51zM135 1413q0 77 53.5 130.5t130.5 53.5t131 -54t54 -130t-54 -130t-131 -54t-130.5 53.5t-53.5 130.5z" />
<glyph unicode="&#x457;" horiz-adv-x="696" d="M20 1413q0 72 43 121q41 43 109 43q66 0 109 -43q43 -49 43 -121t-43 -121q-43 -43 -109 -43q-68 0 -109 43q-43 49 -43 121zM66 922v82q179 20 340 69h102v-928q0 -32 31 -41l71 -22v-82h-524v82l72 22q30 9 30 41v703q0 40 -41 51zM373 1413q0 72 43 121q41 43 108 43 q66 0 109 -43q43 -49 43 -121t-43 -121q-43 -43 -109 -43q-67 0 -108 43q-43 49 -43 121z" />
<glyph unicode="&#x458;" horiz-adv-x="614" d="M-266 -381q0 68 48.5 112.5t119.5 47.5q10 -36 43.5 -55t79.5 -19q64 0 100 41q39 43 39 133v969q0 40 -41 51l-82 23v82q179 20 340 69h102v-915q0 -99 -28.5 -189t-65 -147.5t-92.5 -124.5q-95 -112 -177 -164.5t-183 -52.5q-94 0 -148.5 37.5t-54.5 101.5zM135 1413 q0 77 53.5 130.5t130.5 53.5t131 -54t54 -130t-54 -130t-131 -54t-130.5 53.5t-53.5 130.5z" />
<glyph unicode="&#x459;" horiz-adv-x="1708" d="M20 125q0 84 57 117t120 8q0 -21 12 -35t33 -14q63 0 94 96q19 68 41 299q12 123 12 205q0 67 -20 98q-20 32 -64 41l-96 23v81h958v-81l-71 -23q-31 -9 -31 -41v-276q88 16 190 16q194 0 293 -84q99 -82 99 -227q0 -156 -107 -244q-101 -84 -274 -84h-623v82l72 22 q30 9 30 41v760h-116q-54 0 -78 -35q-14 -19 -20 -54.5t-11 -117.5q-7 -134 -27 -289t-47 -235q-67 -203 -251 -203q-17 0 -31 1t-43 9t-49 23t-36 46.5t-16 74.5zM1065 131q50 -8 78 -8q88 0 135 47q49 52 49 154q0 84 -41 141q-42 51 -121 51q-42 0 -100 -16v-369z" />
<glyph unicode="&#x45a;" horiz-adv-x="1748" d="M61 0v82l72 22q31 9 31 41v754q0 32 -31 41l-72 23v81h525v-81l-72 -23q-31 -9 -31 -41v-272h303v272q0 32 -30 41l-72 23v81h524v-81l-71 -23q-31 -9 -31 -41v-276q88 16 190 16q194 0 293 -84q99 -82 99 -227q0 -156 -107 -244q-101 -84 -274 -84h-623v82l72 22 q30 9 30 41v342h-303v-342q0 -32 31 -41l72 -22v-82h-525zM1106 131q50 -8 78 -8q88 0 135 47q49 52 49 154q0 84 -41 141q-42 51 -121 51q-42 0 -100 -16v-369z" />
<glyph unicode="&#x45b;" horiz-adv-x="1261" d="M-41 1200v123h184v49q0 40 -41 51l-82 23v82q179 20 340 69h103v-274h450v-123h-450v-270q54 56 119 90q95 53 200 53q145 0 228 -74q30 -28 49.5 -60.5t27 -70t9.5 -62.5t2 -63v-598q0 -32 30 -41l72 -22v-82h-524v82l72 22q30 9 30 41v553q0 113 -28 160q-30 51 -93 51 q-76 0 -133 -63q-61 -67 -61 -168v-533q0 -32 31 -41l71 -22v-82h-524v82l72 22q30 9 30 41v1055h-184z" />
<glyph unicode="&#x45c;" horiz-adv-x="1228" d="M61 0v82l72 22q31 9 31 41v754q0 32 -31 41l-72 23v81h525v-81l-72 -23q-31 -9 -31 -41v-289h60q45 0 84 27q45 34 73 108l54 146q66 182 227 182q73 0 115.5 -40t42.5 -101q0 -62 -42 -107.5t-106 -46.5q-2 16 -11 27t-21.5 15t-20 5.5t-14.5 1.5q-31 0 -51 -14t-37 -59 l-29 -76q-36 -92 -111 -115v-4q159 -17 232 -115q11 -14 20 -30t19.5 -40.5t15.5 -37.5t18 -49t17 -47q12 -30 19.5 -46t21.5 -37.5t32.5 -31.5t41.5 -10q26 0 55 16v-102q-104 -58 -223 -58q-79 0 -129 27q-69 37 -99 117l-98 262q-24 61 -44 85.5t-56 24.5h-56v-342 q0 -32 31 -41l72 -22v-82h-525zM471 1229v41l205 286h307v-69l-410 -258h-102z" />
<glyph unicode="&#x45e;" horiz-adv-x="1146" d="M20 963v81h566v-81l-51 -9q-11 -2 -13.5 -2.5t-12.5 -4.5t-14 -8t-8 -12.5t-4 -19.5q0 -30 23 -82l182 -415h4l142 389q20 57 20 92q0 27 -14.5 39.5t-42.5 19.5l-52 13v81h381v-81q-36 -3 -61 -25q-16 -12 -29 -43l-415 -1067q-3 -7 -15 -39t-16.5 -42t-16 -36.5 t-19.5 -40t-20.5 -34.5t-26.5 -38t-30 -34q-81 -84 -188 -84q-92 0 -139.5 49.5t-47.5 118.5q0 28 9.5 56t28 53.5t52.5 38.5t78 7q5 -25 24.5 -39t31.5 -16t22 -2q86 0 127 113l51 141l-413 895q-14 29 -31 43q-25 22 -62 25zM266 1446q0 55 43 82.5t109 27.5q68 0 119 -30 q-13 -37 -13 -70q0 -57 35 -90q35 -31 96 -31q62 0 97 31q34 32 34 90q0 36 -12 70q51 30 119 30q66 0 108.5 -27.5t42.5 -82.5q0 -47 -26 -89.5t-78 -72.5q-96 -55 -285 -55q-188 0 -284 55q-52 30 -78.5 73t-26.5 89z" />
<glyph unicode="&#x45f;" horiz-adv-x="1261" d="M61 0v82l72 22q31 9 31 41v754q0 32 -31 41l-72 23v81h525v-81l-72 -23q-31 -9 -31 -41v-760h295v760q0 32 -30 41l-72 23v81h524v-81l-72 -23q-30 -9 -30 -41v-754q0 -32 30 -41l72 -22v-82h-508l62 -373q0 -55 -37 -87t-86 -32t-86 32t-37 87l61 373h-508z" />
<glyph unicode="&#x462;" horiz-adv-x="1597" d="M41 885v430h397v37q0 49 -41 61l-123 33v90h697v-90l-123 -33q-41 -12 -41 -61v-37h491v-389h-122l-27 106q-14 63 -57 98q-39 33 -111 33h-174v-364q106 20 215 20q111 0 208 -22.5t175 -91.5q123 -110 123 -289q0 -96 -37 -173.5t-100 -129.5q-65 -54 -167 -83.5 t-204 -29.5h-725v90l102 33q41 15 41 61v979h-69q-72 0 -111 -33q-43 -35 -57 -98l-37 -147h-123zM807 164q70 -25 125 -25q107 0 168 70q59 71 59 209q0 126 -57 196q-54 66 -158 66q-68 0 -137 -29v-487z" />
<glyph unicode="&#x463;" horiz-adv-x="1351" d="M61 684v360h328v328q0 40 -41 51l-82 23v82q179 20 340 69h103v-553h430v-339h-115l-37 131q-7 32 -31 51q-26 18 -61 18h-186v-323q91 16 190 16q193 0 293 -78q98 -76 98 -213q0 -147 -106 -229q-103 -78 -275 -78h-622v82l71 22q31 9 31 41v760h-78q-35 0 -61 -18 q-19 -15 -31 -51l-43 -152h-115zM709 131q39 -8 77 -8q93 0 136 43q49 49 49 137q0 86 -41 127q-42 45 -121 45q-42 0 -100 -16v-328z" />
<glyph unicode="&#x472;" horiz-adv-x="1597" d="M94 717q0 102 20 194t54 161t69.5 118.5t77.5 89.5q84 81 207 131.5t277 50.5t276.5 -50.5t206.5 -131.5q42 -40 77.5 -89.5t69.5 -118.5t54 -161t20 -194t-20 -194t-54 -161t-69.5 -118.5t-77.5 -89.5q-85 -81 -207 -132t-276 -51t-277 51t-207 132q-42 40 -77.5 89.5 t-69.5 118.5t-54 161t-20 194zM489 659q2 -93 19.5 -193.5t48.5 -170.5q80 -184 242 -184q161 0 241 184q31 70 48.5 170.5t19.5 193.5h-619zM492 811h614q-9 198 -66 328q-80 184 -241 184q-162 0 -242 -184q-56 -127 -65 -328z" />
<glyph unicode="&#x473;" horiz-adv-x="1187" d="M74 522q0 136 44 247t118 179q137 125 358 125t358 -125q74 -68 118 -179t44 -247t-44 -247t-118 -179q-137 -125 -358 -125t-358 125q-74 68 -118 179t-44 247zM412 465q0 -158 39 -256q47 -115 143 -115t143 115q39 101 39 256h-364zM412 604h364q0 132 -39 232 q-22 53 -55 83.5t-88 30.5q-96 0 -143 -114q-39 -97 -39 -232z" />
<glyph unicode="&#x474;" horiz-adv-x="1597" d="M20 1343v91h644v-91l-70 -16q-47 -10 -47 -57q0 -35 16 -78l268 -750h5l204 656q22 69 35 106t39 88t55 84q80 86 209 86q82 0 133 -35q66 -45 66 -143q0 -74 -43.5 -116t-99.5 -42q-24 0 -58 17q1 26 -14.5 43.5t-40.5 17.5q-41 0 -68 -24q-21 -19 -49 -90l-323 -986 q-21 -68 -33 -133h-246q-12 87 -31 138l-405 1126q-12 33 -41 61.5t-70 38.5z" />
<glyph unicode="&#x475;" horiz-adv-x="1249" d="M20 961v83h562v-81l-60 -13q-65 -11 -65 -67q0 -25 12 -56l162 -417h4l168 460q24 66 55.5 109.5t67.5 62.5t64.5 25t64.5 6q17 0 30.5 -1t43 -9t49 -22.5t35.5 -46t16 -74.5q0 -84 -57 -117t-119 -8q0 21 -12 35t-33 14t-37.5 -9t-27.5 -26.5t-16.5 -29t-13.5 -31.5 l-235 -635q-27 -84 -35 -142h-172q-2 71 -33 142l-342 780q-26 57 -76 68z" />
<glyph unicode="&#x490;" horiz-adv-x="1187" d="M70 0v90l102 33q41 15 41 61v1065q0 47 -41 62l-102 32v91h761q73 0 111 32q19 15 35 43t22 56l37 147h111v-430h-565v-1098q0 -49 41 -61l122 -33v-90h-675z" />
<glyph unicode="&#x491;" horiz-adv-x="983" d="M61 0v82l72 22q31 9 31 41v754q0 32 -31 41l-72 23v81h623q37 0 61 19q26 19 33 51l41 152h103v-361h-439v-760q0 -33 31 -41l84 -22v-82h-537z" />
<glyph unicode="&#x492;" horiz-adv-x="1187" d="M8 627v151h205v471q0 47 -41 62l-102 32v91h1077v-430h-123l-37 147q-16 64 -59 98q-42 33 -109 33h-237v-504h348v-151h-348v-443q0 -49 41 -61l122 -33v-90h-675v90l102 33q41 15 41 61v443h-205z" />
<glyph unicode="&#x493;" horiz-adv-x="983" d="M0 430v123h164v346q0 32 -31 41l-72 23v81h861v-360h-115l-41 152q-7 31 -33 51q-22 18 -61 18h-189v-352h246v-123h-246v-285q0 -33 31 -41l84 -22v-82h-537v82l72 22q31 9 31 41v285h-164z" />
<glyph unicode="&#x494;" horiz-adv-x="1482" d="M70 0v90l102 33q41 15 41 61v1065q0 47 -41 62l-102 32v91h1077v-430h-123l-37 147q-16 64 -59 98q-42 33 -109 33h-237v-524q172 61 348 61q263 0 385 -135q98 -108 98 -295q0 -218 -129 -328q-107 -90 -326 -90q-133 0 -204 39q-90 50 -90 144q0 61 40.5 98t94.5 37 q37 0 78 -33q0 -70 10 -106q16 -56 67 -56q23 0 39 13t21.5 25.5t11.5 31.5q18 59 18 192q0 79 -10.5 138t-46.5 106q-62 80 -172 80q-122 0 -233 -86v-594h-512z" />
<glyph unicode="&#x495;" horiz-adv-x="1212" d="M61 0v82l72 22q31 9 31 41v754q0 32 -31 41l-72 23v81h861v-360h-115l-41 152q-7 31 -33 51q-22 18 -61 18h-189v-467q37 39 99 76q86 47 178 47q155 0 252 -78q139 -113 139 -346q0 -174 -58.5 -290.5t-146.5 -176.5q-56 -37 -131.5 -58.5t-146.5 -21.5q-112 0 -183 31 q-84 34 -84 119q0 51 36.5 86t103.5 35q49 0 102 -21q0 -48 12 -82q18 -45 56 -45q22 0 46 19t40 61q34 87 34 270q0 171 -20 244q-30 111 -121 111q-75 0 -141 -62q-46 -44 -66 -90v-121q0 -33 31 -41l84 -22v-82h-537z" />
<glyph unicode="&#x496;" horiz-adv-x="2088" d="M20 53v123q47 -33 105 -33q31 0 54.5 11.5t38 32.5t22 38.5t14.5 40.5l68 219q39 133 114 195q77 67 189 70v4q-55 20 -92.5 63.5t-53.5 95.5l-53 166q-18 61 -41 84q-25 25 -55 25q-24 0 -43.5 -13.5t-20.5 -39.5q-79 -26 -137.5 14.5t-58.5 130.5q0 76 48 129t148 53 q111 0 183 -67q28 -26 50.5 -64.5t34.5 -69.5t29 -83l70 -213q27 -83 74 -117q41 -29 104 -29h59v430q0 47 -41 62l-102 32v91h635v-91l-102 -32q-41 -15 -41 -62v-430h59q63 0 104 29q47 34 74 117l70 213q17 52 29 83t34.5 69.5t50.5 64.5q72 67 183 67q100 0 148 -53 t48 -129q0 -90 -58.5 -130.5t-137.5 -14.5q-1 26 -20.5 39.5t-43.5 13.5q-30 0 -55 -25q-23 -23 -41 -84l-53 -166q-16 -52 -53.5 -95.5t-92.5 -63.5v-4q112 -3 189 -70q75 -62 114 -195l66 -217q19 -64 46 -90t63 -26h126v-508h-135l-59 209q-18 62 -49 102q-38 45 -107 45 h-10q-61 0 -109 39q-29 25 -54.5 67.5t-37.5 86.5l-77 299q-23 85 -54 122q-43 54 -108 54h-49v-484q0 -46 41 -61l102 -33v-90h-635v90l102 33q41 15 41 61v484h-49q-65 0 -108 -54q-32 -43 -54 -122l-79 -299q-10 -38 -29.5 -71t-36.5 -52.5t-39.5 -36.5t-30.5 -21.5 t-18 -9.5q-67 -31 -168 -31q-75 0 -149 31q-41 17 -89 51z" />
<glyph unicode="&#x497;" horiz-adv-x="1699" d="M41 29v102q26 -16 53 -16q77 0 119 118q5 12 17 46t20 53.5t22 47t29 46.5q37 47 94 78.5t121 38.5v4q-89 11 -119 115l-35 110q-19 68 -73 68q-28 0 -45 -15.5t-15 -38.5q-66 -6 -106.5 35.5t-40.5 100.5q0 67 50 109t130 42q43 0 79 -16t56.5 -35.5t38 -50.5t23 -46.5 t12.5 -37.5l43 -148q25 -86 57 -114q26 -23 64 -23h65v297q0 32 -30 41l-72 23v81h504v-81l-72 -23q-31 -9 -31 -41v-297h66q37 0 63 23q33 29 58 114l43 148q7 22 12.5 37.5t23 46.5t38 50.5t56.5 35.5t79 16q80 0 130 -42t50 -109q0 -59 -41 -100.5t-107 -35.5 q2 23 -14.5 38.5t-44.5 15.5q-55 0 -74 -68l-34 -110q-30 -104 -119 -115v-4q64 -7 121 -38.5t94 -78.5q35 -46 90 -193q19 -52 33 -69q21 -25 49 -25h88v-426h-115l-43 168q-11 48 -39 84q-32 35 -69 35h-19q-52 0 -92 35q-43 39 -78 129q-24 65 -74 205q-8 24 -14 38.5 t-18 33.5t-29 28.5t-39 9.5h-31v-334q0 -32 31 -41l72 -22v-82h-504v82l72 22q30 9 30 41v334h-30q-22 0 -39.5 -9.5t-29 -28t-18 -33.5t-14.5 -39q-9 -26 -23.5 -67.5t-20 -58t-15 -42.5t-15 -39t-12.5 -28.5t-14 -29.5q-34 -64 -84.5 -98.5t-140.5 -34.5q-113 0 -203 58z " />
<glyph unicode="&#x498;" horiz-adv-x="1187" d="M61 41v389h123l33 -102q12 -37 19 -56.5t25 -51.5t42 -54q59 -55 148 -55q106 0 172 69q77 80 77 236q0 146 -73 219q-65 65 -183 65q-70 0 -137 -20v160h168q92 0 139 63q45 64 45 193q0 116 -49 170q-53 57 -147 57q-76 0 -123 -33q-62 -41 -92 -155l-23 -86h-123v385 q72 2 174 12q152 16 230 16q267 0 391 -88q131 -94 131 -252q0 -137 -94 -231q-77 -77 -197 -105v-4q129 -18 217 -84q140 -104 140 -278q0 -43 -9 -85.5t-30.5 -90.5t-64 -93.5t-101.5 -80.5q-72 -42 -168.5 -66t-183.5 -29l69 -368q-2 -53 -38 -90t-97 -37t-98 37.5 t-37 93.5l65 362q-103 7 -190 31q-16 4 -37.5 10.5t-33.5 10t-33 8t-46 8.5z" />
<glyph unicode="&#x499;" horiz-adv-x="1024" d="M61 168q0 61 40 100t112 39q55 0 102 -20q0 -87 23 -129q33 -64 121 -64q79 0 125 51q47 54 47 154q0 104 -43 147q-39 41 -133 41q-67 0 -123 -12v135h102q84 0 131 54q37 44 37 116q0 94 -53 135q-41 35 -123 35q-58 0 -98 -22q-40 -23 -60 -78l-51 -133h-115l25 327 q82 3 168 11q18 2 59 7t76 8t72 3q198 0 293 -55q114 -63 114 -193q0 -108 -63 -174q-58 -66 -152 -86v-4q109 -11 174 -67q82 -67 82 -195q0 -171 -149 -254q-57 -31 -138.5 -50.5t-154.5 -21.5l57 -346q0 -55 -37 -87t-86 -32t-86 32t-37 87l58 346q-129 0 -209 39 q-107 51 -107 156z" />
<glyph unicode="&#x49a;" horiz-adv-x="1556" d="M70 0v90l102 33q41 15 41 61v1065q0 47 -41 62l-102 32v91h655v-91l-102 -32q-41 -15 -41 -62v-430h73q74 0 117 29q26 18 50 50.5t36 66.5l78 213q21 57 32 83.5t35.5 66t55.5 67.5q74 67 182 67q54 0 94.5 -16t61.5 -43t31 -56t10 -61q0 -96 -61.5 -135.5t-135.5 -15.5 q-1 25 -18 39t-45 14q-35 0 -60 -25t-47 -84l-59 -166q-6 -16 -14.5 -33t-26 -42.5t-47 -48t-66.5 -35.5v-4q110 -7 184 -72q19 -16 34.5 -34.5t28 -42.5t19 -37.5t18 -42t13.5 -34.5l86 -219q23 -59 57.5 -87.5t71.5 -28.5h125v-508h-135l-60 209q-18 62 -49 102 q-38 45 -106 45h-23q-65 0 -114 27q-73 39 -115 166l-102 299q-27 77 -58 120q-42 56 -110 56h-41v-484q0 -46 41 -61l102 -33v-90h-655z" />
<glyph unicode="&#x49b;" horiz-adv-x="1228" d="M61 0v82l72 22q31 9 31 41v754q0 32 -31 41l-72 23v81h525v-81l-72 -23q-31 -9 -31 -41v-289h60q45 0 84 27q45 34 73 108l54 146q66 182 227 182q73 0 115.5 -40t42.5 -101q0 -62 -42 -107.5t-106 -46.5q-2 16 -11 27t-21.5 15t-20 5.5t-14.5 1.5q-31 0 -51 -14t-37 -59 l-29 -76q-36 -92 -111 -115v-4q159 -17 232 -115q16 -21 31.5 -54t25 -58t33.5 -92q21 -59 35 -76q21 -25 49 -25h86v-426h-115l-43 168q-11 48 -39 84q-32 35 -69 35h-33q-57 0 -92 31q-40 33 -76 133l-82 213q-24 61 -44 85.5t-56 24.5h-56v-342q0 -32 31 -41l72 -22v-82 h-525z" />
<glyph unicode="&#x49c;" horiz-adv-x="1720" d="M70 0v90l102 33q41 15 41 61v1065q0 47 -41 62l-102 32v91h655v-91l-102 -32q-41 -15 -41 -62v-430h163v246h164v-246q48 -4 88 29q41 34 68 117l76 213q19 51 32 81.5t38 71t53 66.5q72 65 180 65q55 0 95.5 -16.5t61.5 -43.5t31 -56t10 -60q0 -96 -61 -135.5 t-135 -15.5q-1 25 -18.5 39t-45.5 14q-34 0 -59 -25t-47 -84l-59 -166q-12 -35 -23 -58t-40.5 -54t-70.5 -47v-4q101 -7 172 -72q10 -9 19 -20t15.5 -19.5t14.5 -24t12 -22t12.5 -26t10 -24.5t11 -28.5t10.5 -26.5l86 -219q47 -125 149 -125q57 0 105 33v-123 q-51 -32 -105 -51q-91 -31 -176 -31q-104 0 -168 31q-99 47 -139 191l-88 299q-26 91 -41 118q-14 26 -30.5 40t-43.5 18v-271h-164v271h-163v-484q0 -46 41 -61l102 -33v-90h-655z" />
<glyph unicode="&#x49d;" horiz-adv-x="1392" d="M61 0v82l72 22q31 9 31 41v754q0 32 -31 41l-72 23v81h525v-81l-72 -23q-31 -9 -31 -41v-289h123v185h131v-185q42 0 78 27q47 38 70 108l49 146q9 25 17.5 45.5t26.5 47.5t39.5 45t54.5 31t73 13q72 0 115 -41t43 -100q0 -62 -42 -107.5t-106 -46.5q-2 16 -11 27t-22 15 t-20.5 5.5t-14.5 1.5q-27 0 -44 -14.5t-31 -58.5l-25 -76q-30 -87 -96 -115v-4q71 -10 122 -36t87 -79q18 -25 29.5 -52.5t28 -78.5t24.5 -73q19 -57 44.5 -91t69.5 -34q27 0 56 16v-102q-101 -58 -224 -58q-80 0 -129 27q-57 31 -86 117l-86 262q-19 57 -38 80.5t-52 29.5 v-225h-131v225h-123v-342q0 -32 31 -41l72 -22v-82h-525z" />
<glyph unicode="&#x4a0;" horiz-adv-x="1740" d="M41 1004v430h909v-91l-102 -32q-41 -15 -41 -62v-430h74q73 0 116 29q26 18 50 50.5t36 66.5l78 213q21 57 32 83.5t35.5 66t55.5 67.5q74 67 182 67q54 0 94.5 -16t61.5 -43t31 -56t10 -61q0 -96 -61.5 -135.5t-135.5 -15.5q-1 25 -18 39t-45 14q-35 0 -60 -25t-47 -84 l-59 -166q-6 -16 -14.5 -33t-26 -42.5t-47 -48t-66.5 -35.5v-4q111 -7 185 -72q19 -16 34.5 -34.5t27.5 -42t19 -38.5t17.5 -42t13.5 -34l86 -219q48 -125 150 -125q56 0 104 33v-123q-52 -32 -104 -51q-91 -31 -176 -31q-101 0 -168 31q-104 46 -154 191l-102 299 q-27 77 -58 120q-42 56 -110 56h-41v-484q0 -46 41 -61l102 -33v-90h-655v90l102 33q41 15 41 61v1098h-69q-72 0 -111 -33q-43 -35 -57 -98l-37 -147h-123z" />
<glyph unicode="&#x4a1;" horiz-adv-x="1454" d="M61 684v360h750v-81l-72 -23q-30 -9 -30 -41v-289h59q45 0 84 27q47 35 74 108l53 146q66 182 227 182q73 0 115.5 -40t42.5 -101q0 -62 -41.5 -107.5t-105.5 -46.5q-2 16 -11 27t-22 15t-20.5 5.5t-14.5 1.5q-31 0 -51 -14t-37 -59l-29 -76q-36 -93 -110 -115v-4 q158 -16 231 -115q11 -14 20 -30t19.5 -40.5t15.5 -37.5t18 -49t17 -47q12 -30 19.5 -46t21.5 -37.5t32.5 -31.5t41.5 -10q26 0 55 16v-102q-104 -58 -223 -58q-79 0 -129 27q-68 36 -98 117l-99 262q-24 61 -44 85.5t-56 24.5h-55v-342q0 -32 30 -41l72 -22v-82h-524v82 l71 22q31 9 31 41v760h-78q-35 0 -61 -18q-19 -15 -31 -51l-43 -152h-115z" />
<glyph unicode="&#x4a2;" horiz-adv-x="1671" d="M70 0v90l102 33q41 15 41 61v1065q0 47 -41 62l-102 32v91h655v-91l-102 -32q-41 -15 -41 -62v-413h475v413q0 47 -41 62l-103 32v91h656v-91l-103 -32q-41 -15 -41 -62v-1048q0 -19 15 -34t35 -15h135v-508h-135l-60 209q-18 62 -49 102q-38 45 -106 45h-347v90l103 33 q41 15 41 61v500h-475v-500q0 -46 41 -61l102 -33v-90h-655z" />
<glyph unicode="&#x4a3;" horiz-adv-x="1277" d="M61 0v82l72 22q31 9 31 41v754q0 32 -31 41l-72 23v81h525v-81l-72 -23q-31 -9 -31 -41v-272h303v272q0 32 -30 41l-72 23v81h524v-81l-71 -23q-31 -9 -31 -41v-739q0 -21 24 -21h107v-426h-115l-43 168q-11 48 -39 84q-18 22 -37.5 28.5t-48.5 6.5h-270v82l72 22 q30 9 30 41v342h-303v-342q0 -32 31 -41l72 -22v-82h-525z" />
<glyph unicode="&#x4a4;" horiz-adv-x="1884" d="M70 0v90l102 33q41 15 41 61v1065q0 47 -41 62l-102 32v91h655v-91l-102 -32q-41 -15 -41 -62v-413h475v413q0 47 -41 62l-103 32v91h930v-430h-123l-37 147q-14 63 -57 98q-39 33 -110 33h-91v-1098q0 -46 41 -61l103 -33v-90h-656v90l103 33q41 15 41 61v500h-475v-500 q0 -46 41 -61l102 -33v-90h-655z" />
<glyph unicode="&#x4a5;" horiz-adv-x="1495" d="M61 0v82l72 22q31 9 31 41v754q0 32 -31 41l-72 23v81h525v-81l-72 -23q-31 -9 -31 -41v-272h303v272q0 32 -30 41l-72 23v81h750v-360h-115l-43 152q-12 36 -31 51q-26 18 -61 18h-78v-760q0 -32 31 -41l71 -22v-82h-524v82l72 22q30 9 30 41v342h-303v-342 q0 -32 31 -41l72 -22v-82h-525z" />
<glyph unicode="&#x4aa;" horiz-adv-x="1392" d="M94 709q0 186 72 336.5t192 248.5q207 168 525 168q129 0 243 -32q13 -4 35 -10.5t35.5 -10.5t37 -8.5t50.5 -7.5l43 -398h-123l-43 119q-29 84 -90 139q-78 70 -190 70q-179 0 -279 -139q-39 -54 -64.5 -125t-35 -142t-12.5 -111.5t-3 -76.5q0 -243 86 -407 q33 -63 77.5 -107.5t91 -65.5t86 -29.5t79.5 -8.5q108 0 185 77q22 22 49 63.5t39 72.5l41 106h122l-51 -369q-30 -5 -51.5 -10t-52.5 -14.5t-45 -13.5q-132 -40 -252 -48l70 -368q-2 -53 -38.5 -90t-97.5 -37t-98 37.5t-37 93.5l66 362q-140 9 -263 65.5t-208 147.5 q-91 99 -141 240t-50 283z" />
<glyph unicode="&#x4ab;" horiz-adv-x="1024" d="M74 483q0 140 42.5 255t114.5 190q143 145 385 145q153 0 246 -53q101 -59 101 -160q0 -56 -42.5 -83t-105.5 -27q-44 0 -102 14v31q0 68 -31 112q-32 43 -84 43q-94 0 -141 -108q-47 -94 -47 -307q0 -201 59 -295q64 -101 190 -101t267 90l57 -106q-63 -44 -168 -90 q-109 -47 -194 -58l57 -348q0 -55 -37 -87t-86 -32t-86 32t-37 87l57 348q-87 6 -161.5 42t-126.5 92q-127 134 -127 374z" />
<glyph unicode="&#x4ae;" horiz-adv-x="1392" d="M20 1343v91h680v-91l-67 -14q-51 -12 -51 -55q0 -28 30 -82l199 -352l182 331q29 56 29 93q0 17 -5.5 29.5t-16.5 19.5t-19 10.5t-23 7.5l-65 17v86h479v-91l-37 -8q-49 -11 -81 -46.5t-68 -100.5l-293 -537v-467q0 -49 41 -61l123 -33v-90h-697v90l123 33q41 12 41 61 v467l-331 570q-50 86 -130 110z" />
<glyph unicode="&#x4af;" horiz-adv-x="1105" d="M20 961v83h562v-81l-60 -13q-65 -11 -65 -67q0 -25 12 -56l162 -417h4l143 378q25 69 25 97q0 54 -55 65l-56 11v83h393v-81l-24 -7q-18 -5 -41 -28q-19 -26 -33 -60l-270 -725v-489q0 -18 10 -28.5t21 -12.5l133 -23v-82h-648v82l134 23q11 2 20.5 12.5t9.5 28.5v489 l-301 750q-9 24 -30 43t-46 25z" />
<glyph unicode="&#x4b0;" horiz-adv-x="1392" d="M20 1343v91h680v-91l-67 -14q-51 -12 -51 -55q0 -28 30 -82l199 -352l182 331q29 56 29 93q0 17 -5.5 29.5t-16.5 19.5t-19 10.5t-23 7.5l-65 17v86h479v-91l-37 -8q-49 -11 -81 -46.5t-68 -100.5l-293 -537v-90h287v-151h-287v-226q0 -49 41 -61l123 -33v-90h-697v90 l123 33q41 12 41 61v226h-286v151h286v90l-331 570q-50 86 -130 110z" />
<glyph unicode="&#x4b1;" horiz-adv-x="1105" d="M20 961v83h562v-81l-60 -13q-65 -11 -65 -67q0 -25 12 -56l162 -417h4l143 378q25 69 25 97q0 54 -55 65l-56 11v83h393v-81l-24 -7q-18 -5 -41 -28q-19 -26 -33 -60l-270 -725v-143h246v-123h-246v-223q0 -18 10 -28.5t21 -12.5l133 -23v-82h-648v82l134 23 q11 2 20.5 12.5t9.5 28.5v223h-245v123h245v143l-301 750q-9 24 -30 43t-46 25z" />
<glyph unicode="&#x4b2;" horiz-adv-x="1531" d="M41 0v90l61 21q49 16 104 66.5t95 109.5l285 405l-348 529q-59 88 -148 110l-49 12v91h676v-91l-55 -12q-56 -13 -56 -57q0 -34 31 -82l182 -277l174 277q31 55 31 82q0 43 -47 53l-72 16v91h500v-91q-66 -9 -109 -32q-65 -37 -120 -123l-263 -404l373 -567 q3 -6 13.5 -19t34.5 -29.5t48 -16.5h109v-508h-135l-60 209q-18 62 -49 102q-38 45 -106 45h-326v90l45 8q27 5 46.5 24t19.5 48q0 9 -2 18t-7.5 19.5t-9 16.5t-12 19.5t-10.5 16.5l-201 301l-197 -299q-28 -45 -28 -84q0 -63 65 -76l58 -12v-90h-541z" />
<glyph unicode="&#x4b3;" horiz-adv-x="1126" d="M41 0v82q49 20 84 53q59 54 86 92l203 273l-209 342q-30 45 -64 73q-48 40 -100 48v81h549v-81l-37 -9q-43 -10 -43 -43q0 -28 14 -49l105 -174l121 172q18 29 18 47q0 31 -31 41l-49 15v81h373v-81q-36 -3 -74 -27q-45 -31 -88 -92l-201 -283l207 -340q16 -25 27 -38.5 t35 -28.5t51 -15h67v-426h-114l-43 168q-11 48 -39 84q-18 22 -37.5 28.5t-48.5 6.5h-271v82l43 14q41 14 41 45q0 9 -16 41l-113 191l-118 -166q-21 -29 -21 -53q0 -36 37 -54l49 -18v-82h-393z" />
<glyph unicode="&#x4b6;" horiz-adv-x="1527" d="M20 1343v91h656v-91l-103 -32q-41 -15 -41 -62v-336q0 -84 50 -125q42 -34 125 -34q112 0 206 69v426q0 47 -41 62l-102 32v91h655v-91l-102 -32q-41 -15 -41 -62v-1048q0 -19 14.5 -34t34.5 -15h135v-508h-135l-59 209q-18 62 -49 102q-38 45 -107 45h-366v90l122 33 q41 12 41 61v492q-152 -62 -329 -62q-206 0 -308 72q-112 81 -112 225v338q0 47 -41 62z" />
<glyph unicode="&#x4b7;" horiz-adv-x="1236" d="M41 963v81h532v-81l-59 -23q-31 -10 -31 -41v-248q0 -61 33 -90q30 -26 86 -26q81 0 143 45v319q0 31 -30 41l-60 23v81h512v-81l-71 -23q-31 -9 -31 -41v-739q0 -21 25 -21h106v-426h-115l-43 168q-11 48 -39 84q-18 22 -37.5 28.5t-48.5 6.5h-282v82l84 22q30 8 30 41 v312q-131 -45 -274 -45q-165 0 -240 61q-88 72 -88 211v215q0 32 -30 41z" />
<glyph unicode="&#x4b8;" horiz-adv-x="1597" d="M20 1343v91h656v-91l-103 -32q-41 -15 -41 -62v-336q0 -42 15.5 -73t40.5 -47t51 -24t53 -9v264h164v-262q84 14 160 61v426q0 47 -41 62l-103 32v91h656v-91l-103 -32q-41 -15 -41 -62v-1065q0 -46 41 -61l103 -33v-90h-676v90l123 33q41 12 41 61v492q-72 -35 -160 -45 v-275h-164v258q-58 -2 -120.5 3t-137.5 24t-133 50t-97.5 88t-39.5 132v338q0 47 -41 62z" />
<glyph unicode="&#x4b9;" horiz-adv-x="1351" d="M41 963v81h532v-81l-59 -23q-31 -10 -31 -41v-248q0 -29 13.5 -54.5t35.5 -39.5q33 -20 78 -20v237h131v-235q56 4 127 41v319q0 31 -30 41l-60 23v81h512v-81l-71 -23q-31 -9 -31 -41v-754q0 -32 31 -41l71 -22v-82h-536v82l84 22q30 8 30 41v312q-62 -24 -127 -31v-221 h-131v209q-250 -2 -356 69q-67 44 -89 97.5t-22 119.5v199q0 32 -30 41z" />
<glyph unicode="&#x4ba;" horiz-adv-x="1495" d="M70 0v90l102 33q41 15 41 61v1065q0 47 -41 62l-102 32v91h675v-91l-122 -32q-41 -12 -41 -62v-450q150 61 329 61q206 0 308 -72q112 -81 112 -225v-379q0 -46 41 -61l103 -33v-90h-656v90l103 33q41 15 41 61v377q0 84 -50 125q-43 35 -127 35q-108 0 -204 -70v-467 q0 -46 41 -61l102 -33v-90h-655z" />
<glyph unicode="&#x4bb;" horiz-adv-x="1282" d="M41 1446v82q179 20 340 69h102v-667q54 56 119 90q95 53 201 53q144 0 227 -74q30 -28 49.5 -60.5t27 -70t9.5 -62.5t2 -63v-598q0 -32 31 -41l72 -22v-82h-525v82l72 22q31 9 31 41v553q0 112 -29 160q-30 51 -92 51q-76 0 -133 -63q-62 -69 -62 -168v-533q0 -32 31 -41 l72 -22v-82h-525v82l72 22q31 9 31 41v1227q0 40 -41 51z" />
<glyph unicode="&#x4c0;" horiz-adv-x="647" d="M61 0v82l72 22q31 9 31 41v1143q0 32 -31 41l-72 23v82h525v-82l-72 -23q-31 -9 -31 -41v-1143q0 -32 31 -41l72 -22v-82h-525z" />
<glyph unicode="&#x4c3;" horiz-adv-x="1511" d="M70 0v90l102 33q41 15 41 61v1065q0 47 -41 62l-102 32v91h655v-91l-102 -32q-41 -15 -41 -62v-430h73q74 0 117 29q26 18 50 50.5t36 66.5l78 213q21 57 32 83.5t35.5 66t55.5 67.5q74 67 182 67q54 0 94.5 -16t61.5 -43t31 -56t10 -61q0 -96 -61.5 -135.5t-135.5 -15.5 q-1 25 -18 39t-45 14q-35 0 -60 -25t-47 -84l-59 -166q-6 -16 -14.5 -33t-26 -42.5t-47 -48t-66.5 -35.5v-4q126 -5 254 -52.5t211 -146.5q119 -144 119 -393q0 -315 -182 -477q-146 -132 -396 -132q-151 0 -241 39q-62 28 -88.5 68.5t-26.5 79.5q0 52 39 96.5t123 44.5 q74 0 133 -33q0 -71 10 -102q17 -53 76 -53q50 0 75.5 24t41.5 68q43 121 43 342q0 64 -3 109t-13 109.5t-36 118.5t-67 95q-55 54 -139.5 83.5t-167.5 29.5h-41v-484q0 -46 41 -61l102 -33v-90h-655z" />
<glyph unicode="&#x4c4;" horiz-adv-x="1200" d="M61 0v82l72 22q31 9 31 41v754q0 32 -31 41l-72 23v81h525v-81l-72 -23q-31 -9 -31 -41v-289h60q45 0 84 27q45 34 73 108l54 146q66 182 227 182q73 0 115.5 -40t42.5 -101q0 -62 -42 -107.5t-106 -46.5q-2 16 -11 27t-21.5 15t-20 5.5t-14.5 1.5q-31 0 -51 -14t-37 -59 l-29 -76q-36 -92 -111 -115v-4q71 -1 137.5 -22.5t93.5 -38t42 -29.5q149 -115 149 -369q0 -297 -205 -430q-125 -80 -278 -80q-111 0 -182 31q-84 34 -84 119q0 51 36 86t103 35q50 0 102 -21q0 -45 13 -82q18 -45 55 -45q22 0 46 19t40 61q35 96 35 279q0 270 -80 354 q-59 61 -180 61h-56v-342q0 -32 31 -41l72 -22v-82h-525z" />
<glyph unicode="&#x4c7;" horiz-adv-x="1638" d="M70 0v90l102 33q41 15 41 61v1065q0 47 -41 62l-102 32v91h655v-91l-102 -32q-41 -15 -41 -62v-413h475v413q0 47 -41 62l-103 32v91h656v-91l-103 -32q-41 -15 -41 -62v-1282q0 -217 -133 -327q-110 -91 -336 -91q-164 0 -247 39q-62 28 -88.5 68.5t-26.5 79.5 q0 52 39 96.5t123 44.5q74 0 133 -33q0 -73 10 -102q9 -24 27.5 -38.5t40.5 -14.5q51 0 71 65q19 61 19 180v750h-475v-500q0 -46 41 -61l102 -33v-90h-655z" />
<glyph unicode="&#x4c8;" d="M61 0v82l72 22q31 9 31 41v754q0 32 -31 41l-72 23v81h525v-81l-72 -23q-31 -9 -31 -41v-272h303v272q0 32 -30 41l-72 23v81h524v-81l-71 -23q-31 -9 -31 -41v-762q0 -101 -20.5 -185t-54.5 -138.5t-65 -87.5t-65 -56q-56 -37 -131.5 -58.5t-146.5 -21.5q-112 0 -183 31 q-84 34 -84 119q0 51 36.5 86t103.5 35q50 0 102 -21q-1 -68 23 -97.5t53 -29.5q23 0 45.5 21t36.5 59q30 79 30 270v424h-303v-342q0 -32 31 -41l72 -22v-82h-525z" />
<glyph unicode="&#x4d0;" horiz-adv-x="1536" d="M20 0v90l43 12q35 10 68 39q26 24 45 72l436 1149q22 62 33 100h246q21 -71 33 -100l467 -1172q17 -42 51 -69q38 -27 74 -31v-90h-629v90l76 16q51 11 51 46q0 11 -15 55l-104 272h-451l-88 -243q-16 -50 -16 -78q0 -38 49 -52l62 -16v-90h-431zM317 1724q0 57 48 88 t116 31q63 0 119 -31q-5 -76 21 -120q39 -66 147 -66t147 66q26 44 21 120q56 31 119 31q68 0 116 -31t48 -88q0 -96 -111 -153q-108 -55 -340 -55t-340 55q-111 57 -111 153zM492 623h348l-176 458h-5z" />
<glyph unicode="&#x4d1;" horiz-adv-x="1126" d="M61 244q0 157 105 241q82 66 278 109l183 41v213q0 48 -19 72q-20 30 -76 30q-67 0 -110 -43q-55 -52 -37 -151q-90 -33 -160 -33q-131 0 -131 88q0 59 47.5 115.5t145.5 93.5q146 53 323 53q190 0 264 -59q89 -64 89 -207v-606q0 -36 22 -62q20 -20 51 -20q27 0 49 16 v-102q-117 -62 -221 -62q-88 0 -143 49q-38 33 -64 91q-60 -60 -118 -91q-88 -49 -187 -49q-110 0 -192 62q-99 72 -99 211zM174 1446q0 55 43 82.5t109 27.5q67 0 118 -30q-12 -34 -12 -70q0 -57 35 -90q35 -31 96 -31t96 31q35 33 35 90q0 36 -12 70q51 30 119 30 q66 0 108.5 -27.5t42.5 -82.5q0 -47 -26 -89.5t-78 -72.5q-96 -55 -285 -55q-188 0 -284 55q-52 30 -78.5 73t-26.5 89zM381 283q0 -73 27 -111q28 -37 79 -37q53 0 97 47q43 47 43 123v207l-101 -25q-77 -18 -112 -69q-33 -49 -33 -135z" />
<glyph unicode="&#x4d2;" horiz-adv-x="1536" d="M20 0v90l43 12q35 10 68 39q26 24 45 72l436 1149q22 62 33 100h246q21 -71 33 -100l467 -1172q17 -42 51 -69q38 -27 74 -31v-90h-629v90l76 16q51 11 51 46q0 11 -15 55l-104 272h-451l-88 -243q-16 -50 -16 -78q0 -38 49 -52l62 -16v-90h-431zM379 1679 q0 67 48.5 115.5t115.5 48.5t115.5 -48.5t48.5 -115.5t-48 -115t-116 -48t-116 48t-48 115zM492 623h348l-176 458h-5zM829 1679q0 67 48.5 115.5t115.5 48.5t115.5 -48.5t48.5 -115.5t-48 -115t-116 -48t-116 48t-48 115z" />
<glyph unicode="&#x4d3;" horiz-adv-x="1126" d="M61 244q0 157 105 241q82 66 278 109l183 41v213q0 48 -19 72q-20 30 -76 30q-67 0 -110 -43q-55 -52 -37 -151q-90 -33 -160 -33q-131 0 -131 88q0 59 47.5 115.5t145.5 93.5q146 53 323 53q190 0 264 -59q89 -64 89 -207v-606q0 -36 22 -62q20 -20 51 -20q27 0 49 16 v-102q-117 -62 -221 -62q-88 0 -143 49q-38 33 -64 91q-60 -60 -118 -91q-88 -49 -187 -49q-110 0 -192 62q-99 72 -99 211zM174 1413q0 67 48 115.5t116 48.5t116 -48.5t48 -115.5t-48 -115.5t-116 -48.5t-116 48.5t-48 115.5zM381 283q0 -73 27 -111q28 -37 79 -37 q53 0 97 47q43 47 43 123v207l-101 -25q-77 -18 -112 -69q-33 -49 -33 -135zM625 1413q0 68 48 116t115 48q68 0 116 -48.5t48 -115.5t-48 -115.5t-116 -48.5q-67 0 -115 48t-48 116z" />
<glyph unicode="&#x4d4;" horiz-adv-x="1994" d="M20 0v90l43 12q37 11 66 37q35 31 59 74l607 965q24 37 24 69q0 48 -57 62l-148 34v91h1278v-390h-123l-28 107q-24 71 -58 98q-39 33 -110 33h-266v-475h163q45 0 70 22q24 21 33 60l20 74h111v-471h-111l-20 81q-11 40 -33 60q-25 22 -70 22h-163v-454q0 -19 14.5 -34 t34.5 -15h209q76 0 123 38q45 32 65 84l49 125h123l-57 -399h-1073v90l102 33q41 15 41 61v295h-414l-147 -243q-2 -3 -8 -13.5t-8.5 -15.5t-6 -13.5t-5 -16t-1.5 -15.5q0 -42 49 -56l62 -16v-90h-439zM614 623h324v512h-4z" />
<glyph unicode="&#x4d5;" horiz-adv-x="1601" d="M61 244q0 157 105 241q82 66 278 109l183 41v213q0 48 -19 72q-20 30 -76 30q-67 0 -110 -43q-55 -52 -37 -151q-90 -33 -160 -33q-131 0 -131 88q0 59 47.5 116t145.5 93q145 53 313 53q116 0 180 -47q47 -33 66 -78q42 52 90 78q81 47 192 47q103 0 190 -41.5 t136 -107.5q86 -116 86 -303v-41l-57 -58h-537q0 -193 58 -282q66 -101 196 -101q134 0 279 90l57 -106q-68 -45 -172 -90q-154 -62 -264 -62q-141 0 -250 80q-70 52 -113 121q-65 -81 -153 -133q-119 -68 -232 -68q-110 0 -192 62q-99 72 -99 211zM381 283q0 -73 27 -111 q28 -37 79 -37q53 0 97 47q43 47 43 123v207l-101 -25q-77 -18 -112 -69q-33 -49 -33 -135zM948 649h191q36 0 57 19q25 20 25 65q0 31 -8.5 75t-20.5 71q-30 71 -96 71q-83 0 -119 -102q-29 -86 -29 -199z" />
<glyph unicode="&#x4d6;" d="M70 0v90l102 33q41 15 41 61v1065q0 47 -41 62l-102 32v91h1097v-390h-123l-28 107q-24 71 -58 98q-39 33 -110 33h-266v-475h163q45 0 70 22q24 21 33 60l20 74h111v-471h-111l-20 81q-11 40 -33 60q-25 22 -70 22h-163v-454q0 -19 14.5 -34t34.5 -15h209q76 0 123 38 q45 32 65 84l49 125h123l-57 -399h-1073zM205 1724q0 57 48 88t116 31q62 0 118 -31q-5 -76 21 -120q39 -66 147 -66q109 0 148 66q25 43 20 120q56 31 119 31q68 0 116 -31t48 -88q0 -96 -111 -153q-108 -55 -340 -55t-340 55q-110 56 -110 153z" />
<glyph unicode="&#x4d7;" horiz-adv-x="1064" d="M74 494q0 123 34 239t103 195q131 145 358 145q237 0 349 -149q86 -116 86 -303v-41l-58 -58h-536q0 -195 57 -282q66 -101 197 -101q133 0 278 90l57 -106q-68 -45 -172 -90q-152 -62 -264 -62q-109 0 -205 36t-157 102q-127 137 -127 385zM184 1446q0 55 43 82.5 t109 27.5q68 0 119 -30q-13 -37 -13 -70q0 -57 35 -90q35 -31 96 -31q62 0 97 31q35 33 35 90q0 33 -13 70q51 30 119 30q66 0 109 -27.5t43 -82.5q0 -46 -26.5 -89t-78.5 -73q-96 -55 -285 -55q-188 0 -284 55q-52 30 -78.5 73t-26.5 89zM412 649h190q36 0 57 19 q25 20 25 65q0 31 -8.5 75t-20.5 71q-30 71 -96 71q-83 0 -119 -102q-28 -83 -28 -199z" />
<glyph unicode="&#x4d8;" horiz-adv-x="1576" d="M90 657q0 65 10 150h992q-3 89 -32.5 199t-76.5 178q-55 78 -125 108.5t-174 30.5q-163 0 -244 -63q-60 -49 -92 -146l-29 -90h-122l41 410q41 1 71 3.5t64 6.5l51 6q108 12 254 12q76 0 136 -5t137 -20.5t149 -50.5t135 -88q114 -95 181 -247t67 -334q0 -175 -66.5 -321 t-173.5 -242q-99 -88 -239 -135.5t-285 -47.5q-275 0 -445 170q-91 91 -137.5 224.5t-46.5 291.5zM418 508q0 -165 82 -277q89 -120 229 -120q201 0 293 211q29 68 48 160t22 173h-584q-51 0 -70 -28q-20 -33 -20 -119z" />
<glyph unicode="&#x4d9;" horiz-adv-x="1064" d="M61 424v82l58 57h536q3 61 -12 129.5t-45 112.5q-65 100 -197 100q-128 0 -258 -90l-57 107q76 57 152 90q138 61 272 61q105 0 198.5 -35.5t155.5 -101.5q127 -137 127 -385q0 -123 -34 -239t-103 -195q-132 -146 -358 -146q-236 0 -349 150q-86 116 -86 303zM381 344 q0 -110 29 -176q33 -74 96 -74q82 0 119 103q32 94 28 239h-190q-37 0 -57 -18q-25 -20 -25 -74z" />
<glyph unicode="&#x4da;" horiz-adv-x="1576" d="M90 657q0 65 10 150h992q-3 89 -32.5 199t-76.5 178q-55 78 -125 108.5t-174 30.5q-163 0 -244 -63q-60 -49 -92 -146l-29 -90h-122l41 410q41 1 71 3.5t64 6.5l51 6q108 12 254 12q76 0 136 -5t137 -20.5t149 -50.5t135 -88q114 -95 181 -247t67 -334q0 -175 -66.5 -321 t-173.5 -242q-99 -88 -239 -135.5t-285 -47.5q-275 0 -445 170q-91 91 -137.5 224.5t-46.5 291.5zM307 1679q0 67 48.5 115.5t115.5 48.5t115.5 -48.5t48.5 -115.5t-48 -115t-116 -48t-116 48t-48 115zM418 508q0 -165 82 -277q89 -120 229 -120q201 0 293 211q29 68 48 160 t22 173h-584q-51 0 -70 -28q-20 -33 -20 -119zM758 1679q0 67 48 115.5t116 48.5q67 0 115 -48t48 -116q0 -67 -47.5 -115t-115.5 -48t-116 48t-48 115z" />
<glyph unicode="&#x4db;" horiz-adv-x="1064" d="M61 424v82l58 57h536q3 61 -12 129.5t-45 112.5q-65 100 -197 100q-128 0 -258 -90l-57 107q76 57 152 90q138 61 272 61q105 0 198.5 -35.5t155.5 -101.5q127 -137 127 -385q0 -123 -34 -239t-103 -195q-132 -146 -358 -146q-236 0 -349 150q-86 116 -86 303zM143 1413 q0 67 48.5 115.5t115.5 48.5t115.5 -48.5t48.5 -115.5t-48.5 -115.5t-115.5 -48.5t-115.5 48.5t-48.5 115.5zM381 344q0 -110 29 -176q33 -74 96 -74q82 0 119 103q32 94 28 239h-190q-37 0 -57 -18q-25 -20 -25 -74zM594 1413q0 67 48 115.5t116 48.5t116 -48.5t48 -115.5 t-48 -115.5t-116 -48.5t-116 48.5t-48 115.5z" />
<glyph unicode="&#x4dc;" horiz-adv-x="2088" d="M20 53v123q47 -33 105 -33q31 0 54.5 11.5t38 32.5t22 38.5t14.5 40.5l68 219q39 133 114 195q77 67 189 70v4q-55 20 -92.5 63.5t-53.5 95.5l-53 166q-18 61 -41 84q-25 25 -55 25q-24 0 -43.5 -13.5t-20.5 -39.5q-79 -26 -137.5 14.5t-58.5 130.5q0 76 48 129t148 53 q111 0 183 -67q28 -26 50.5 -64.5t34.5 -69.5t29 -83l70 -213q27 -83 74 -117q41 -29 104 -29h59v430q0 47 -41 62l-102 32v91h635v-91l-102 -32q-41 -15 -41 -62v-430h59q63 0 104 29q47 34 74 117l70 213q17 52 29 83t34.5 69.5t50.5 64.5q72 67 183 67q100 0 148 -53 t48 -129q0 -90 -58.5 -130.5t-137.5 -14.5q-1 26 -20.5 39.5t-43.5 13.5q-30 0 -55 -25q-23 -23 -41 -84l-53 -166q-16 -52 -53.5 -95.5t-92.5 -63.5v-4q112 -3 189 -70q75 -62 114 -195l68 -219q7 -23 14.5 -40.5t22 -38.5t38 -32.5t54.5 -11.5q57 0 104 33v-123 q-50 -35 -88 -51q-74 -31 -149 -31q-101 0 -168 31q-10 5 -18 9.5t-30.5 21.5t-39.5 36.5t-36.5 52.5t-29.5 71l-79 299q-22 79 -54 122q-43 54 -108 54h-49v-484q0 -46 41 -61l102 -33v-90h-635v90l102 33q41 15 41 61v484h-49q-65 0 -108 -54q-32 -43 -54 -122l-79 -299 q-10 -38 -29.5 -71t-36.5 -52.5t-39.5 -36.5t-30.5 -21.5t-18 -9.5q-67 -31 -168 -31q-75 0 -149 31q-41 17 -89 51zM655 1679q0 67 48.5 115.5t115.5 48.5t115.5 -48.5t48.5 -115.5t-48 -115t-116 -48t-116 48t-48 115zM1106 1679q0 67 48 115.5t116 48.5t116 -48.5 t48 -115.5t-48 -115t-116 -48t-116 48t-48 115z" />
<glyph unicode="&#x4dd;" horiz-adv-x="1699" d="M41 29v102q26 -16 53 -16q77 0 119 118q5 12 17 46t20 53.5t22 47t29 46.5q37 47 94 78.5t121 38.5v4q-89 11 -119 115l-35 110q-19 68 -73 68q-28 0 -45 -15.5t-15 -38.5q-66 -6 -106.5 35.5t-40.5 100.5q0 67 50 109t130 42q43 0 79 -16t56.5 -35.5t38 -50.5t23 -46.5 t12.5 -37.5l43 -148q25 -86 57 -114q26 -23 64 -23h65v297q0 32 -30 41l-72 23v81h504v-81l-72 -23q-31 -9 -31 -41v-297h66q37 0 63 23q33 29 58 114l43 148q7 22 12.5 37.5t23 46.5t38 50.5t56.5 35.5t79 16q80 0 130 -42t50 -109q0 -59 -41 -100.5t-107 -35.5 q2 23 -14.5 38.5t-44.5 15.5q-55 0 -74 -68l-34 -110q-30 -104 -119 -115v-4q64 -7 121 -38.5t94 -78.5q15 -19 29 -46.5t22 -47t20 -53.5t17 -46q42 -118 119 -118q27 0 53 16v-102q-90 -58 -203 -58q-90 0 -140.5 34.5t-84.5 98.5q-5 9 -9 18t-9.5 21t-9 20t-9.5 24.5 t-9.5 26t-11.5 32t-12 34.5t-14.5 42.5t-16.5 46.5q-8 24 -14 38.5t-18 33.5t-29 28.5t-39 9.5h-31v-334q0 -32 31 -41l72 -22v-82h-504v82l72 22q30 9 30 41v334h-30q-22 0 -39.5 -9.5t-29 -28t-18 -33.5t-14.5 -39q-9 -26 -23.5 -67.5t-20 -58t-15 -42.5t-15 -39 t-12.5 -28.5t-14 -29.5q-34 -64 -84.5 -98.5t-140.5 -34.5q-113 0 -203 58zM461 1413q0 67 48.5 115.5t115.5 48.5t115 -48t48 -116t-48 -116t-115 -48t-115.5 48.5t-48.5 115.5zM911 1413q0 67 48.5 115.5t115.5 48.5t115.5 -48.5t48.5 -115.5t-48.5 -115.5t-115.5 -48.5 t-115.5 48.5t-48.5 115.5z" />
<glyph unicode="&#x4de;" horiz-adv-x="1187" d="M61 41v389h123l33 -102q12 -37 19 -56.5t25 -51.5t42 -54q59 -55 148 -55q106 0 172 69q77 80 77 236q0 146 -73 219q-65 65 -183 65q-70 0 -137 -20v160h168q92 0 139 63q45 64 45 193q0 116 -49 170q-53 57 -147 57q-76 0 -123 -33q-62 -41 -92 -155l-23 -86h-123v385 q72 2 174 12q152 16 230 16q267 0 391 -88q131 -94 131 -252q0 -137 -94 -231q-77 -77 -197 -105v-4q129 -18 217 -84q140 -100 140 -278q0 -43 -9 -85.5t-30.5 -90.5t-64 -93.5t-101.5 -80.5q-83 -49 -198.5 -74t-235.5 -25q-129 0 -244 33q-18 5 -45.5 13t-51 14t-53.5 10 zM143 1679q0 67 48.5 115.5t115.5 48.5t115.5 -48.5t48.5 -115.5t-48 -115t-116 -48t-116 48t-48 115zM594 1679q0 67 48 115.5t116 48.5t116 -48.5t48 -115.5t-48 -115t-116 -48t-116 48t-48 115z" />
<glyph unicode="&#x4df;" horiz-adv-x="1024" d="M61 168q0 61 40 100t112 39q55 0 102 -20q0 -87 23 -129q33 -64 121 -64q79 0 125 51q47 54 47 154q0 104 -43 147q-39 41 -133 41q-67 0 -123 -12v135h102q84 0 131 54q37 44 37 116q0 94 -53 135q-41 35 -123 35q-58 0 -98 -22q-40 -23 -60 -78l-51 -133h-115l25 327 q82 3 168 11q18 2 59 7t76 8t72 3q198 0 293 -55q114 -63 114 -193q0 -108 -63 -174q-58 -66 -152 -86v-4q109 -11 174 -67q82 -67 82 -195q0 -171 -149 -254q-127 -74 -367 -74q-177 0 -266 41q-107 51 -107 156zM123 1413q0 67 48.5 115.5t115.5 48.5t115.5 -48.5 t48.5 -115.5t-48.5 -115.5t-115.5 -48.5t-115.5 48.5t-48.5 115.5zM573 1413q0 67 48.5 115.5t115.5 48.5t115.5 -48.5t48.5 -115.5t-48.5 -115.5t-115.5 -48.5t-115.5 48.5t-48.5 115.5z" />
<glyph unicode="&#x4e2;" horiz-adv-x="1679" d="M70 0v90l102 33q41 15 41 61v1065q0 47 -41 62l-102 32v91h655v-91l-102 -32q-41 -15 -41 -62v-770l516 729v41q0 47 -41 62l-103 32v91h656v-91l-103 -32q-41 -15 -41 -62v-1065q0 -46 41 -61l103 -33v-90h-656v90l103 33q41 15 41 61v783l-516 -729v-54q0 -46 41 -61 l102 -33v-90h-655zM512 1577v143h655v-143h-655z" />
<glyph unicode="&#x4e3;" horiz-adv-x="1310" d="M61 0v82l72 22q31 9 31 41v754q0 32 -31 41l-72 23v81h525v-81l-72 -23q-31 -9 -31 -41v-493l344 450v43q0 32 -30 41l-72 23v81h524v-81l-71 -23q-31 -9 -31 -41v-754q0 -32 31 -41l71 -22v-82h-524v82l72 22q30 9 30 41v506l-344 -450v-56q0 -32 31 -41l72 -22v-82 h-525zM369 1294v144h573v-144h-573z" />
<glyph unicode="&#x4e4;" horiz-adv-x="1679" d="M70 0v90l102 33q41 15 41 61v1065q0 47 -41 62l-102 32v91h655v-91l-102 -32q-41 -15 -41 -62v-770l516 729v41q0 47 -41 62l-103 32v91h656v-91l-103 -32q-41 -15 -41 -62v-1065q0 -46 41 -61l103 -33v-90h-656v90l103 33q41 15 41 61v783l-516 -729v-54q0 -46 41 -61 l102 -33v-90h-655zM451 1679q0 68 48 116t115 48q68 0 116 -48.5t48 -115.5t-48 -115t-116 -48t-115.5 48t-47.5 115zM901 1679q0 67 48.5 115.5t115.5 48.5t115.5 -48.5t48.5 -115.5t-48 -115t-116 -48t-116 48t-48 115z" />
<glyph unicode="&#x4e5;" horiz-adv-x="1310" d="M61 0v82l72 22q31 9 31 41v754q0 32 -31 41l-72 23v81h525v-81l-72 -23q-31 -9 -31 -41v-493l344 450v43q0 32 -30 41l-72 23v81h524v-81l-71 -23q-31 -9 -31 -41v-754q0 -32 31 -41l71 -22v-82h-524v82l72 22q30 9 30 41v506l-344 -450v-56q0 -32 31 -41l72 -22v-82 h-525zM266 1413q0 67 48 115.5t116 48.5t116 -48.5t48 -115.5t-48 -115.5t-116 -48.5t-116 48.5t-48 115.5zM717 1413q0 67 48.5 115.5t115.5 48.5t115 -48t48 -116t-48 -116t-115 -48t-115.5 48.5t-48.5 115.5z" />
<glyph unicode="&#x4e6;" horiz-adv-x="1597" d="M94 717q0 102 20 194t54 161t69.5 118.5t77.5 89.5q84 81 207 131.5t277 50.5t276.5 -50.5t206.5 -131.5q42 -40 77.5 -89.5t69.5 -118.5t54 -161t20 -194t-20 -194t-54 -161t-69.5 -118.5t-77.5 -89.5q-85 -81 -207 -132t-276 -51t-277 51t-207 132q-42 40 -77.5 89.5 t-69.5 118.5t-54 161t-20 194zM410 1679q0 68 48 116t115 48t115.5 -48.5t48.5 -115.5t-48 -115t-116 -48q-67 0 -115 48t-48 115zM487 717q0 -116 16.5 -219t30 -143t23.5 -60q80 -184 242 -184q161 0 241 184q10 20 23.5 60t30 143t16.5 219t-16.5 219t-30 143t-23.5 60 q-80 184 -241 184q-162 0 -242 -184q-10 -20 -23.5 -60t-30 -143t-16.5 -219zM860 1679q0 67 48 115.5t116 48.5t116 -48.5t48 -115.5t-48 -115t-116 -48t-116 48t-48 115z" />
<glyph unicode="&#x4e7;" horiz-adv-x="1187" d="M74 522q0 136 44 247t118 179q137 125 358 125t358 -125q74 -68 118 -179t44 -247t-44 -247t-118 -179q-137 -125 -358 -125t-358 125q-74 68 -118 179t-44 247zM205 1413q0 67 48.5 115.5t115.5 48.5t115 -48t48 -116t-48 -116t-115 -48t-115.5 48.5t-48.5 115.5z M410 522q0 -210 41 -313q47 -115 143 -115t143 115q41 103 41 313q0 212 -41 314q-22 53 -55 83.5t-88 30.5q-96 0 -143 -114q-41 -102 -41 -314zM655 1413q0 67 48.5 115.5t115.5 48.5t115.5 -48.5t48.5 -115.5t-48.5 -115.5t-115.5 -48.5t-115.5 48.5t-48.5 115.5z" />
<glyph unicode="&#x4e8;" horiz-adv-x="1597" d="M94 717q0 102 20 194t54 161t69.5 118.5t77.5 89.5q84 81 207 131.5t277 50.5t276.5 -50.5t206.5 -131.5q42 -40 77.5 -89.5t69.5 -118.5t54 -161t20 -194t-20 -194t-54 -161t-69.5 -118.5t-77.5 -89.5q-85 -81 -207 -132t-276 -51t-277 51t-207 132q-42 40 -77.5 89.5 t-69.5 118.5t-54 161t-20 194zM489 659q2 -93 19.5 -193.5t48.5 -170.5q80 -184 242 -184q161 0 241 184q31 70 48.5 170.5t19.5 193.5h-619zM492 811h614q-9 198 -66 328q-80 184 -241 184q-162 0 -242 -184q-56 -127 -65 -328z" />
<glyph unicode="&#x4e9;" horiz-adv-x="1187" d="M74 522q0 136 44 247t118 179q137 125 358 125t358 -125q74 -68 118 -179t44 -247t-44 -247t-118 -179q-137 -125 -358 -125t-358 125q-74 68 -118 179t-44 247zM412 465q0 -158 39 -256q47 -115 143 -115t143 115q39 101 39 256h-364zM412 604h364q0 132 -39 232 q-22 53 -55 83.5t-88 30.5q-96 0 -143 -114q-39 -97 -39 -232z" />
<glyph unicode="&#x4ea;" horiz-adv-x="1597" d="M94 717q0 102 20 194t54 161t69.5 118.5t77.5 89.5q84 81 207 131.5t277 50.5t276.5 -50.5t206.5 -131.5q42 -40 77.5 -89.5t69.5 -118.5t54 -161t20 -194t-20 -194t-54 -161t-69.5 -118.5t-77.5 -89.5q-85 -81 -207 -132t-276 -51t-277 51t-207 132q-42 40 -77.5 89.5 t-69.5 118.5t-54 161t-20 194zM410 1679q0 68 48 116t115 48t115.5 -48.5t48.5 -115.5t-48 -115t-116 -48q-67 0 -115 48t-48 115zM489 659q2 -93 19.5 -193.5t48.5 -170.5q80 -184 242 -184q161 0 241 184q31 70 48.5 170.5t19.5 193.5h-619zM492 811h614q-9 198 -66 328 q-80 184 -241 184q-162 0 -242 -184q-56 -127 -65 -328zM860 1679q0 67 48 115.5t116 48.5t116 -48.5t48 -115.5t-48 -115t-116 -48t-116 48t-48 115z" />
<glyph unicode="&#x4eb;" horiz-adv-x="1187" d="M74 522q0 136 44 247t118 179q137 125 358 125t358 -125q74 -68 118 -179t44 -247t-44 -247t-118 -179q-137 -125 -358 -125t-358 125q-74 68 -118 179t-44 247zM205 1413q0 67 48.5 115.5t115.5 48.5t115 -48t48 -116t-48 -116t-115 -48t-115.5 48.5t-48.5 115.5z M412 465q0 -158 39 -256q47 -115 143 -115t143 115q39 101 39 256h-364zM412 604h364q0 132 -39 232q-22 53 -55 83.5t-88 30.5q-96 0 -143 -114q-39 -97 -39 -232zM655 1413q0 67 48.5 115.5t115.5 48.5t115.5 -48.5t48.5 -115.5t-48.5 -115.5t-115.5 -48.5t-115.5 48.5 t-48.5 115.5z" />
<glyph unicode="&#x4ee;" horiz-adv-x="1433" d="M41 1343v91h651v-91l-69 -16q-24 -6 -38 -17.5t-14 -39.5q0 -26 25 -74l254 -487l192 430q27 72 27 102q0 68 -78 86l-69 16v91h471v-91q-39 -6 -78 -26q-47 -26 -80 -94l-467 -1000q-62 -131 -123 -184q-80 -68 -190 -68q-96 0 -148 43q-57 46 -57 136q0 94 67.5 138.5 t149.5 6.5q2 -31 24 -50.5t58 -19.5q69 0 100 74l23 53l-475 885q-13 24 -24 39.5t-37 33.5t-60 25zM492 1577v143h655v-143h-655z" />
<glyph unicode="&#x4ef;" horiz-adv-x="1146" d="M20 963v81h566v-81l-51 -9q-11 -2 -13.5 -2.5t-12.5 -4.5t-14 -8t-8 -12.5t-4 -19.5q0 -30 23 -82l182 -415h4l142 389q20 57 20 92q0 27 -14.5 39.5t-42.5 19.5l-52 13v81h381v-81q-36 -3 -61 -25q-16 -12 -29 -43l-415 -1067q-3 -7 -15 -39t-16.5 -42t-16 -36.5 t-19.5 -40t-20.5 -34.5t-26.5 -38t-30 -34q-81 -84 -188 -84q-92 0 -139.5 49.5t-47.5 118.5q0 28 9.5 56t28 53.5t52.5 38.5t78 7q5 -25 24.5 -39t31.5 -16t22 -2q86 0 127 113l51 141l-413 895q-14 29 -31 43q-25 22 -62 25zM369 1294v144h573v-144h-573z" />
<glyph unicode="&#x4f0;" horiz-adv-x="1433" d="M41 1343v91h651v-91l-69 -16q-24 -6 -38 -17.5t-14 -39.5q0 -26 25 -74l254 -487l192 430q27 72 27 102q0 68 -78 86l-69 16v91h471v-91q-39 -6 -78 -26q-47 -26 -80 -94l-467 -1000q-62 -131 -123 -184q-80 -68 -190 -68q-96 0 -148 43q-57 46 -57 136q0 94 67.5 138.5 t149.5 6.5q2 -31 24 -50.5t58 -19.5q69 0 100 74l23 53l-475 885q-13 24 -24 39.5t-37 33.5t-60 25zM430 1679q0 67 48 115.5t116 48.5t116 -48.5t48 -115.5t-48 -115t-116 -48t-116 48t-48 115zM881 1679q0 68 48 116t115 48q68 0 116 -48.5t48 -115.5t-48 -115t-116 -48 t-115.5 48t-47.5 115z" />
<glyph unicode="&#x4f1;" horiz-adv-x="1146" d="M20 963v81h566v-81l-51 -9q-11 -2 -13.5 -2.5t-12.5 -4.5t-14 -8t-8 -12.5t-4 -19.5q0 -30 23 -82l182 -415h4l142 389q20 57 20 92q0 27 -14.5 39.5t-42.5 19.5l-52 13v81h381v-81q-36 -3 -61 -25q-16 -12 -29 -43l-415 -1067q-3 -7 -15 -39t-16.5 -42t-16 -36.5 t-19.5 -40t-20.5 -34.5t-26.5 -38t-30 -34q-81 -84 -188 -84q-92 0 -139.5 49.5t-47.5 118.5q0 28 9.5 56t28 53.5t52.5 38.5t78 7q5 -25 24.5 -39t31.5 -16t22 -2q86 0 127 113l51 141l-413 895q-14 29 -31 43q-25 22 -62 25zM266 1413q0 67 48 115.5t116 48.5t116 -48.5 t48 -115.5t-48 -115.5t-116 -48.5t-116 48.5t-48 115.5zM717 1413q0 67 48.5 115.5t115.5 48.5t115 -48t48 -116t-48 -116t-115 -48t-115.5 48.5t-48.5 115.5z" />
<glyph unicode="&#x4f2;" horiz-adv-x="1433" d="M41 1343v91h651v-91l-69 -16q-24 -6 -38 -17.5t-14 -39.5q0 -26 25 -74l254 -487l192 430q27 72 27 102q0 68 -78 86l-69 16v91h471v-91q-39 -6 -78 -26q-47 -26 -80 -94l-467 -1000q-62 -131 -123 -184q-80 -68 -190 -68q-96 0 -148 43q-57 46 -57 136q0 94 67.5 138.5 t149.5 6.5q2 -31 24 -50.5t58 -19.5q69 0 100 74l23 53l-475 885q-13 24 -24 39.5t-37 33.5t-60 25zM451 1556v41l245 267h308v-70l-451 -238h-102zM922 1556v41l266 267h287v-70l-451 -238h-102z" />
<glyph unicode="&#x4f3;" horiz-adv-x="1146" d="M20 963v81h566v-81l-51 -9q-11 -2 -13.5 -2.5t-12.5 -4.5t-14 -8t-8 -12.5t-4 -19.5q0 -30 23 -82l182 -415h4l142 389q20 57 20 92q0 27 -14.5 39.5t-42.5 19.5l-52 13v81h381v-81q-36 -3 -61 -25q-16 -12 -29 -43l-415 -1067q-3 -7 -15 -39t-16.5 -42t-16 -36.5 t-19.5 -40t-20.5 -34.5t-26.5 -38t-30 -34q-81 -84 -188 -84q-92 0 -139.5 49.5t-47.5 118.5q0 28 9.5 56t28 53.5t52.5 38.5t78 7q5 -25 24.5 -39t31.5 -16t22 -2q86 0 127 113l51 141l-413 895q-14 29 -31 43q-25 22 -62 25zM328 1229v41l184 286h287v-69l-369 -258h-102z M717 1229v41l246 286h266v-69l-410 -258h-102z" />
<glyph unicode="&#x4f4;" horiz-adv-x="1495" d="M20 1343v91h656v-91l-103 -32q-41 -15 -41 -62v-336q0 -84 50 -125q42 -34 125 -34q112 0 206 69v426q0 47 -41 62l-102 32v91h655v-91l-102 -32q-41 -15 -41 -62v-1065q0 -46 41 -61l102 -33v-90h-675v90l122 33q41 12 41 61v492q-152 -62 -329 -62q-206 0 -308 72 q-112 81 -112 225v338q0 47 -41 62zM358 1679q0 67 48 115.5t116 48.5t116 -48.5t48 -115.5t-48 -115t-116 -48t-116 48t-48 115zM809 1679q0 67 48.5 115.5t115.5 48.5t115.5 -48.5t48.5 -115.5t-48 -115t-116 -48t-116 48t-48 115z" />
<glyph unicode="&#x4f5;" horiz-adv-x="1228" d="M41 963v81h532v-81l-59 -23q-31 -10 -31 -41v-248q0 -61 33 -90q30 -26 86 -26q81 0 143 45v319q0 31 -30 41l-60 23v81h512v-81l-71 -23q-31 -9 -31 -41v-754q0 -32 31 -41l71 -22v-82h-536v82l84 22q30 8 30 41v312q-131 -45 -274 -45q-165 0 -240 61q-88 72 -88 211 v215q0 32 -30 41zM225 1413q0 67 48.5 115.5t115.5 48.5t115.5 -48.5t48.5 -115.5t-48.5 -115.5t-115.5 -48.5t-115.5 48.5t-48.5 115.5zM676 1413q0 67 48 115.5t116 48.5t116 -48.5t48 -115.5t-48 -115.5t-116 -48.5t-116 48.5t-48 115.5z" />
<glyph unicode="&#x4f8;" horiz-adv-x="2048" d="M70 0v90l102 33q41 15 41 61v1065q0 47 -41 62l-102 32v91h675v-91l-122 -32q-41 -12 -41 -62v-430q108 21 215 21q253 0 383 -121q123 -116 123 -303q0 -105 -40.5 -181t-97.5 -122q-65 -54 -166.5 -83.5t-203.5 -29.5h-725zM582 164q70 -25 125 -25q106 0 167 70 q60 69 60 209t-57 213q-52 69 -158 69q-62 0 -137 -28v-508zM635 1679q0 67 48.5 115.5t115.5 48.5t115.5 -48.5t48.5 -115.5t-48 -115t-116 -48t-116 48t-48 115zM1085 1679q0 67 48.5 115.5t115.5 48.5t115.5 -48.5t48.5 -115.5t-48 -115t-116 -48t-116 48t-48 115z M1323 0v90l102 33q41 15 41 61v1065q0 47 -41 62l-102 32v91h655v-91l-102 -32q-41 -15 -41 -62v-1065q0 -46 41 -61l102 -33v-90h-655z" />
<glyph unicode="&#x4f9;" horiz-adv-x="1699" d="M61 0v82l72 22q31 9 31 41v754q0 32 -31 41l-72 23v81h525v-81l-72 -23q-31 -9 -31 -41v-276q88 16 191 16q194 0 293 -84q98 -81 98 -227q0 -156 -107 -244q-101 -84 -274 -84h-623zM461 1413q0 67 48.5 115.5t115.5 48.5t115 -48t48 -116t-48 -116t-115 -48 t-115.5 48.5t-48.5 115.5zM483 131q50 -8 78 -8q88 0 135 47q49 52 49 154q0 85 -40 141q-42 51 -121 51q-43 0 -101 -16v-369zM911 1413q0 67 48.5 115.5t115.5 48.5t115.5 -48.5t48.5 -115.5t-48.5 -115.5t-115.5 -48.5t-115.5 48.5t-48.5 115.5zM1114 0v82l72 22 q31 9 31 41v754q0 32 -31 41l-72 23v81h524v-81l-71 -23q-31 -9 -31 -41v-754q0 -32 31 -41l71 -22v-82h-524z" />
<glyph unicode="&#x2000;" horiz-adv-x="932" />
<glyph unicode="&#x2001;" horiz-adv-x="1864" />
<glyph unicode="&#x2002;" horiz-adv-x="932" />
<glyph unicode="&#x2003;" horiz-adv-x="1864" />
<glyph unicode="&#x2004;" horiz-adv-x="621" />
<glyph unicode="&#x2005;" horiz-adv-x="466" />
<glyph unicode="&#x2006;" horiz-adv-x="310" />
<glyph unicode="&#x2007;" horiz-adv-x="310" />
<glyph unicode="&#x2008;" horiz-adv-x="233" />
<glyph unicode="&#x2009;" horiz-adv-x="372" />
<glyph unicode="&#x200a;" horiz-adv-x="103" />
<glyph unicode="&#x2010;" horiz-adv-x="819" d="M102 512v205h615v-205h-615z" />
<glyph unicode="&#x2011;" horiz-adv-x="819" d="M102 512v205h615v-205h-615z" />
<glyph unicode="&#x2012;" horiz-adv-x="819" d="M102 512v205h615v-205h-615z" />
<glyph unicode="&#x2013;" d="M143 553v123h983v-123h-983z" />
<glyph unicode="&#x2014;" horiz-adv-x="1802" d="M205 553v123h1392v-123h-1392z" />
<glyph unicode="&#x2018;" horiz-adv-x="532" d="M90 1057q0 158 107 276q61 68 163 129l62 -88q-66 -36 -111 -78q-53 -49 -53 -88q0 -16 16 -26q3 -2 54 -17q114 -39 114 -151q0 -69 -42.5 -119.5t-120.5 -50.5q-91 0 -142 61q-47 55 -47 152z" />
<glyph unicode="&#x2019;" horiz-adv-x="532" d="M90 1292q0 69 43 119.5t121 50.5q90 0 141 -61q47 -55 47 -152q0 -159 -106 -276q-60 -67 -164 -129l-61 88q64 35 110 78q53 49 53 88q0 16 -16 26q-4 3 -53 17q-115 40 -115 151z" />
<glyph unicode="&#x201a;" horiz-adv-x="532" d="M90 162q0 69 43 119.5t121 50.5q89 0 141 -62q47 -55 47 -151q0 -160 -106 -277q-60 -67 -164 -129l-61 88q64 35 110 78q53 49 53 88q0 17 -16 27q-1 1 -53 16q-115 40 -115 152z" />
<glyph unicode="&#x201c;" horiz-adv-x="921" d="M90 1057q0 70 26 143.5t77 132.5q63 71 159 129l62 -88q-63 -36 -105 -78q-51 -51 -51 -88q0 -16 16 -26q4 -3 10 -4.5t17.5 -5t22.5 -7.5q106 -37 106 -149q0 -78 -46.5 -125t-115.5 -47q-82 0 -133 61q-45 57 -45 152zM492 1057q0 71 25.5 144t76.5 132q62 70 160 129 l61 -88q-61 -35 -104 -78q-52 -52 -52 -88q0 -16 17 -26l49 -17q106 -37 106 -149q0 -78 -46 -125t-115 -47q-82 0 -133 61q-45 57 -45 152z" />
<glyph unicode="&#x201d;" horiz-adv-x="921" d="M90 1290q0 78 46.5 125t115.5 47q82 0 133 -61q45 -57 45 -152q0 -71 -25.5 -144t-76.5 -132q-62 -70 -160 -129l-62 88q63 36 105 78q51 51 51 88q0 16 -16 26l-49 17q-107 38 -107 149zM492 1290q0 78 46 125t115 47q82 0 133 -61q45 -57 45 -152q0 -71 -25.5 -144 t-76.5 -132q-62 -70 -160 -129l-61 88q61 35 104 78q52 52 52 88q0 16 -17 26l-49 17q-106 37 -106 149z" />
<glyph unicode="&#x201e;" horiz-adv-x="921" d="M90 160q0 78 46.5 125t115.5 47q82 0 133 -62q45 -57 45 -151q0 -71 -26 -144.5t-76 -132.5q-62 -70 -160 -129l-62 88q63 36 105 78q51 51 51 88q0 17 -16 27q-4 3 -9.5 4.5l-16.5 4.5t-23 7q-107 38 -107 150zM492 160q0 78 46 125t115 47q82 0 133 -62q45 -57 45 -151 q0 -71 -26 -144.5t-76 -132.5q-62 -70 -160 -129l-61 88q61 35 104 78q52 52 52 88q0 17 -17 27q-4 3 -9.5 4.5l-16.5 4.5t-23 7q-106 37 -106 150z" />
<glyph unicode="&#x2026;" horiz-adv-x="1597" d="M86 152q0 74 53 127t127 53t127 -53t53 -127t-53.5 -127.5t-126.5 -53.5t-126.5 53.5t-53.5 127.5zM618 152q0 73 53.5 126.5t127.5 53.5q73 0 126.5 -53t53.5 -127t-53.5 -127.5t-126.5 -53.5t-127 53.5t-54 127.5zM1151 152q0 74 53.5 127t126.5 53t126.5 -53 t53.5 -127t-53.5 -127.5t-126.5 -53.5t-126.5 53.5t-53.5 127.5z" />
<glyph unicode="&#x202f;" horiz-adv-x="372" />
<glyph unicode="&#x2039;" horiz-adv-x="901" d="M102 532l623 472l74 -78l-369 -394l369 -393l-74 -78z" />
<glyph unicode="&#x203a;" horiz-adv-x="901" d="M102 139l369 393l-369 394l74 78l623 -472l-623 -471z" />
<glyph unicode="&#x205f;" horiz-adv-x="466" />
<glyph unicode="&#x20ac;" d="M-41 512l61 123h119q-7 78 -2 131h-178l61 123h132q21 124 78.5 229.5t134.5 175.5q84 78 205.5 123t271.5 45q119 0 219 -32q9 -3 29.5 -10t32 -11t34 -8.5t47.5 -7.5v-357h-123l-22 105q-20 89 -64 133q-31 32 -79 48.5t-97 16.5q-144 0 -225 -143 q-34 -59 -55.5 -143.5t-26.5 -163.5h543l-62 -123h-489q0 -86 2 -131h446l-61 -123h-373q10 -149 78 -266q89 -152 240 -152q101 0 168 82q22 27 43.5 72t27.5 76l23 106h123v-369q-51 -6 -148 -38q-154 -52 -287 -52q-137 0 -263 52t-218 163q-111 133 -147 326h-199z" />
<glyph unicode="&#x2122;" horiz-adv-x="2068" d="M53 1155v279h762v-279h-90l-23 88q-9 40 -34 60q-28 20 -66 20h-57v-618q0 -29 24 -37l74 -21v-74h-418v74l74 21q25 8 25 37v618h-58q-37 0 -65 -20q-26 -21 -35 -60l-23 -88h-90zM901 573v74l49 21q9 4 13 6.5t7.5 10t4.5 20.5l24 598q2 27 -24 36l-62 21v74h316 q0 -40 22 -97l191 -481h4l190 481q24 62 27 97h322v-74l-62 -21q-25 -8 -25 -36l23 -598q0 -28 25 -37l61 -21v-74h-393v74l61 21q25 9 25 37l-14 464h-3l-215 -536q-10 -24 -14 -39q0 -2 -1 -6t-1 -6q-1 -4 -3 -12.5t-3 -12.5h-115q0 26 -20 76l-211 536h-2l-13 -464 q0 -29 25 -37l61 -21v-74h-270z" />
<glyph unicode="&#x25fc;" horiz-adv-x="1044" d="M0 0v1044h1044v-1044h-1044z" />
</font>
</defs>
</svg>
