<?xml version="1.0" standalone="no"?>
<!DOCTYPE svg PUBLIC "-//W3C//DTD SVG 1.1//EN" "http://www.w3.org/Graphics/SVG/1.1/DTD/svg11.dtd" >
<svg xmlns="http://www.w3.org/2000/svg">
<metadata></metadata>
<defs>
<font id="octavabold_italic" horiz-adv-x="1269" >
<font-face units-per-em="2048" ascent="1638" descent="-410" />
<missing-glyph horiz-adv-x="477" />
<glyph horiz-adv-x="0" />
<glyph unicode="&#xd;" horiz-adv-x="2048" />
<glyph unicode=" "  horiz-adv-x="477" />
<glyph unicode="&#x09;" horiz-adv-x="477" />
<glyph unicode="&#xa0;" horiz-adv-x="477" />
<glyph unicode="!" horiz-adv-x="573" d="M106 109q0 77 50.5 125.5t124.5 48.5q63 0 100 -37.5t37 -100.5q0 -77 -50.5 -125.5t-123.5 -48.5q-63 0 -100.5 37.5t-37.5 100.5zM260 385l25 221q15 132 26 391q3 81 3.5 146t1 94.5t3.5 56.5q8 53 29.5 89t53 52t60 21.5t64.5 5.5q14 0 27.5 -1t38.5 -8.5t42.5 -20.5 t31.5 -40t14 -63q0 -51 -22.5 -120.5t-86.5 -231.5q-81 -208 -127 -371l-61 -221h-123z" />
<glyph unicode="&#x22;" horiz-adv-x="1024" d="M328 901l12 533h307l-192 -533h-127zM758 901l12 533h307l-192 -533h-127z" />
<glyph unicode="#" horiz-adv-x="1351" d="M102 338l37 197h213l60 339h-213l37 197h213l53 301h143l-53 -301h301l53 301h144l-54 -301h213l-37 -197h-213l-59 -339h213l-37 -197h-213l-53 -301h-143l53 301h-301l-53 -301h-144l53 301h-213zM496 535h301l59 339h-301z" />
<glyph unicode="$" horiz-adv-x="1146" d="M82 205q0 91 74.5 148t195.5 38q-24 -134 33 -221q35 -54 86 -72l119 498l-160 117q-166 122 -166 305q0 41 7.5 82t28 93t65 102t108.5 87q146 83 324 80l32 135h103l-33 -139q98 -5 178 -49q123 -66 123 -201q0 -51 -38 -80.5t-101 -29.5q-49 0 -96 16l2 31 q4 78 -23 127q-23 43 -76 57l-106 -448l123 -90q37 -27 62 -48t58.5 -58t54 -74.5t35.5 -91t15 -113.5q0 -232 -221 -351q-141 -76 -346 -84l-41 -176h-103l41 178q-59 0 -130.5 13.5t-123.5 44.5q-104 62 -104 174zM571 1128q0 -112 105 -182l92 393q-73 0 -127 -45 q-32 -28 -51 -72.5t-19 -93.5zM573 98q91 6 150 62q33 30 52.5 75t19.5 95q0 62 -30 116.5t-89 88.5z" />
<glyph unicode="%" horiz-adv-x="2027" d="M238 993q0 106 41 199t108 156q126 114 301 114q166 0 258 -114q70 -89 70 -224q0 -106 -41 -198.5t-109 -155.5q-127 -115 -301 -115q-166 0 -258 115q-69 88 -69 223zM471 0l1118 1434h144l-1119 -1434h-143zM479 948q0 -83 21 -131q24 -59 78 -59q39 0 77 28t64 84 q28 57 41.5 141.5t13.5 157.5q0 85 -20 131q-25 60 -78 60q-39 0 -76.5 -28.5t-64.5 -84.5q-28 -58 -42 -142.5t-14 -156.5zM1188 309q0 106 41 199t108 156q126 114 301 114q166 0 258 -114q70 -89 70 -224q0 -106 -41 -198.5t-108 -155.5q-127 -115 -301 -115 q-167 0 -259 115q-69 88 -69 223zM1430 264q0 -85 20 -131q24 -59 78 -59q39 0 77 28t64 84q28 57 41.5 141.5t13.5 157.5q0 85 -20 131q-25 60 -78 60q-39 0 -76.5 -28.5t-64.5 -84.5q-28 -57 -41.5 -141.5t-13.5 -157.5z" />
<glyph unicode="&#x26;" horiz-adv-x="1933" d="M184 387q0 97 39.5 184.5t112.5 151.5q18 16 42.5 33.5t88 47.5t131.5 44q-68 21 -112.5 63.5t-61 86.5t-16.5 92q0 18 2.5 38t15.5 55.5t34.5 68t65.5 70.5t103 67q147 73 368 73q169 0 269 -45q72 -33 106.5 -83t34.5 -99q0 -58 -49 -92q-77 -54 -217 -17 q8 106 -23 158q-39 64 -119 64q-89 0 -157 -64q-86 -80 -86 -215q0 -97 47.5 -142t118.5 -50l-29 -111q-173 38 -277 -80q-84 -98 -84 -264q0 -159 66 -252q90 -129 279 -129q131 0 247 65q118 66 179 169t61 198q0 90 -59 135q-47 35 -115 35q-42 0 -66 -25t-24 -57 q0 -34 33.5 -57.5t74.5 -26.5q-7 -50 -38 -88.5t-83 -38.5q-53 0 -87.5 38t-34.5 118q0 132 63 227q40 61 92.5 87t126.5 26q17 0 35 -1.5t31.5 -3t34 -5.5t31 -6t35 -9t32 -9t36.5 -10.5t36 -10.5q31 -9 69.5 -21t57 -17.5t39 -9.5t36.5 -4q34 0 51 16.5t17 39.5 q0 36 -36.5 76t-92.5 61q27 52 72 83.5t90 31.5q50 0 81 -48.5t31 -132.5q0 -103 -59 -211q-35 -64 -76.5 -97.5t-116.5 -33.5q-57 0 -147 25q35 -74 35 -158q0 -46 -13.5 -94.5t-44 -102t-89.5 -103.5t-140 -85q-90 -39 -209.5 -59.5t-226.5 -20.5q-25 0 -61.5 2.5 t-106 10.5t-144.5 30t-133 54q-63 36 -108 83t-67.5 97t-32 94.5t-9.5 89.5z" />
<glyph unicode="'" horiz-adv-x="614" d="M340 901v533h328l-205 -533h-123z" />
<glyph unicode="(" horiz-adv-x="1024" d="M246 305q0 184 61.5 365.5t175.5 341.5q106 150 263.5 290.5t334.5 241.5l66 -86q-237 -187 -397 -491q-95 -179 -142 -376.5t-47 -367.5q0 -195 53 -356q54 -161 164 -301l-98 -86q-160 115 -274 291q-160 248 -160 534z" />
<glyph unicode=")" horiz-adv-x="1024" d="M-82 -434q237 187 397 491q95 179 142 376.5t47 367.5q0 195 -53 356q-54 161 -164 301l98 86q160 -115 274 -291q160 -248 160 -534q0 -184 -61.5 -365.5t-175.5 -341.5q-106 -150 -263.5 -290.5t-334.5 -241.5z" />
<glyph unicode="*" horiz-adv-x="1024" d="M276 1135l263 -19l14 47l-221 142q35 60 90 102q46 36 125 55l65 -256h50l65 256q79 -19 125 -55q55 -42 90 -102l-221 -142l14 -47l262 19q8 -69 -14 -138q-19 -62 -68 -114l-202 164l-39 -29l96 -242q-66 -28 -133 -28t-133 28l96 242l-39 29l-203 -164q-47 50 -67 114 q-23 71 -15 138z" />
<glyph unicode="+" d="M143 553v123h430v430h123v-430h430v-123h-430v-430h-123v430h-430z" />
<glyph unicode="," horiz-adv-x="573" d="M66 -201q64 28 118 76q66 57 66 98q0 11 -6 17t-23 10q-52 15 -74 41q-41 41 -41 104q0 67 51 120.5t142 53.5q77 0 120.5 -46t43.5 -128q0 -106 -66 -202q-51 -73 -128.5 -133t-157.5 -97z" />
<glyph unicode="-" horiz-adv-x="901" d="M188 512l37 205h615l-37 -205h-615z" />
<glyph unicode="." horiz-adv-x="573" d="M106 121q0 89 55 143.5t140 54.5q69 0 109.5 -39t40.5 -110q0 -89 -55 -144t-140 -55q-69 0 -109.5 39.5t-40.5 110.5z" />
<glyph unicode="/" horiz-adv-x="1024" d="M-184 -492l1302 2008h144l-1303 -2008h-143z" />
<glyph unicode="0" d="M139 475q0 136 32.5 288t90.5 273q42 86 99.5 159.5t132.5 135t172 96.5t204 35q203 0 318 -135t115 -369q0 -136 -32.5 -288t-90.5 -273q-12 -25 -26.5 -50.5t-45 -70t-64.5 -83t-85.5 -81t-106.5 -72.5t-128.5 -49.5t-152.5 -19.5q-203 0 -317.5 134t-114.5 370z M467 305q0 -119 37 -169t92 -50q37 0 72 20t60.5 48t50 74t39.5 82.5t31.5 89.5t23 79.5t16.5 67.5q86 358 86 581q0 119 -37 169.5t-92 50.5q-37 0 -72 -20t-60.5 -48t-50 -74t-39.5 -82.5t-31.5 -89.5t-23 -79.5t-16.5 -67.5q-86 -358 -86 -582z" />
<glyph unicode="1" d="M172 0l16 90l179 37q78 16 90 80l192 991q1 10 2 24t-11.5 26t-37.5 12q-40 0 -104 -11q-89 -14 -136 -28l21 110q103 11 231 45q120 31 226 86h225q-30 -81 -61 -233l-201 -1024q-6 -18 -1.5 -31t8 -21t14 -13.5t17 -8t17.5 -4.5l170 -37l-16 -90h-840z" />
<glyph unicode="2" d="M41 0l16 82q361 288 480 401q165 157 247 271q138 191 138 391q0 17 -1 34t-9.5 50.5t-23.5 57t-46 42.5t-74 19q-72 0 -119.5 -42.5t-70.5 -107.5q-23 -62 -23 -151q-65 -33 -154 -33q-44 0 -74.5 12.5t-44.5 33t-20 40.5t-6 41q0 71 61 143t172 117q148 61 345 61 q218 0 327 -90q109 -89 109 -244q0 -74 -26 -144.5t-73 -131t-91 -104.5t-101 -91q-154 -128 -530 -391h491q66 0 107 27q40 22 65 67l45 78h111l-203 -438h-1024z" />
<glyph unicode="3" d="M49 182q0 91 62 140q42 35 105.5 40t111.5 -14q-12 -126 34 -192q49 -70 150 -70q62 0 125 25.5t106 64.5q56 49 90.5 128.5t34.5 170.5q0 94 -43 148q-55 71 -192 71q-84 0 -174 -32l20 118q211 13 324 123q110 107 110 266q0 80 -45 127q-47 52 -135 52 q-123 0 -178 -125q-25 -59 -29 -136q-75 -32 -149 -32q-14 0 -28 2t-39 9.5t-40.5 29.5t-15.5 55q0 71 71 140.5t181 111.5q148 59 340 59q199 0 299 -76q96 -71 96 -194q0 -148 -147 -266q-107 -83 -238 -127v-4q72 0 149 -20t119 -52q93 -69 93 -203q0 -242 -213 -391 q-227 -158 -594 -158q-160 0 -244 37q-117 55 -117 174z" />
<glyph unicode="4" d="M86 369l23 123q159 196 348 401q290 316 596 573h164q-26 -70 -43 -159l-140 -713q125 0 244 57h33l-152 -282h-168l-57 -285l-328 -113l78 398h-598zM358 594h369l96 496h-4q-137 -111 -260 -248q-108 -122 -201 -248z" />
<glyph unicode="5" d="M49 182q0 91 62 140q42 35 105.5 40t111.5 -14q-12 -126 34 -192q45 -70 150 -70q132 0 223 94q48 48 73.5 113t25.5 129q0 195 -201 270q-70 26 -171 35.5t-186 5.5l259 701h548h14.5h15t13.5 0.5t15 1t13 2t14.5 3.5t13 5t14.5 7t14 9q49 36 72 94h111l-158 -368 q-111 -21 -234 -21h-417l-76 -213q85 2 185.5 -11.5t174.5 -41.5q293 -110 293 -414q0 -77 -22.5 -144.5t-56.5 -115.5t-82 -87.5t-92.5 -64t-92.5 -42.5q-151 -62 -405 -62q-160 0 -244 37q-117 55 -117 174z" />
<glyph unicode="6" d="M139 432q0 178 88 356.5t246 323.5q129 119 305.5 212.5t374.5 137.5l49 -94q-295 -117 -485 -352q-109 -133 -179.5 -305.5t-70.5 -356.5q0 -124 53.5 -196t165.5 -72q104 0 180 80q50 54 77.5 146t27.5 182q0 208 -144 208q-36 0 -75.5 -18.5t-67.5 -44.5l-53 94 q179 125 336 125q148 0 233 -106q78 -100 78 -260q0 -246 -197 -396q-164 -125 -430 -125q-242 0 -370 113q-142 123 -142 348z" />
<glyph unicode="7" d="M233 963l173 471h1007l-12 -62q-81 -104 -187.5 -266.5t-193.5 -310.5q-200 -344 -410 -824l-348 111q196 310 529 717q163 199 325 368h-563q-56 0 -96 -26q-47 -30 -70 -84l-43 -94h-111z" />
<glyph unicode="8" d="M94 299q0 185 199 328q114 81 256 139q-91 62 -133 113q-76 90 -76 200q0 82 46 164t149 141q137 78 325 78q212 0 326 -80q108 -76 108 -204q0 -82 -36.5 -138t-100.5 -104q-95 -72 -215 -123q106 -62 176 -151q86 -109 86 -234q0 -222 -196 -350q-162 -107 -424 -107 q-238 0 -359 86q-61 44 -96 107t-35 135zM401 307q0 -89 48 -149q59 -72 163 -72q106 0 176 61q41 35 65 89t24 114q0 117 -86 213q-47 52 -127 109q-94 -48 -164 -127q-99 -114 -99 -238zM668 1145q0 -76 41 -135q36 -55 116 -109q69 46 111 86q92 89 92 191q0 61 -33 108 q-44 62 -131 62q-74 0 -123 -39q-73 -57 -73 -164z" />
<glyph unicode="9" d="M164 942q0 246 196 395q164 125 431 125q243 0 370 -112q142 -123 142 -342q0 -175 -91 -360t-243 -326q-128 -118 -306 -212.5t-374 -138.5l-49 95q290 115 485 352q135 166 192.5 346.5t57.5 312.5q0 55 -10.5 99t-25.5 71.5t-37.5 47.5t-41.5 30t-43 15.5t-36 6.5 t-25 1q-109 0 -181 -80q-50 -54 -77 -145.5t-27 -182.5q0 -209 143 -209q36 0 76 18.5t68 45.5l53 -95q-179 -125 -336 -125q-147 0 -233 107q-78 100 -78 260z" />
<glyph unicode=":" horiz-adv-x="573" d="M106 121q0 89 55 143.5t140 54.5q69 0 109.5 -39t40.5 -110q0 -89 -55 -144t-140 -55q-69 0 -109.5 39.5t-40.5 110.5zM233 854q0 89 55 144t140 55q69 0 109.5 -39.5t40.5 -110.5q0 -89 -55 -143.5t-140 -54.5q-69 0 -109.5 39t-40.5 110z" />
<glyph unicode=";" horiz-adv-x="573" d="M66 -201q64 28 118 76q66 57 66 98q0 11 -6 17t-23 10q-52 15 -74 41q-41 41 -41 104q0 67 51 120.5t142 53.5q77 0 120.5 -46t43.5 -128q0 -106 -66 -202q-51 -73 -128.5 -133t-157.5 -97zM233 854q0 89 55 144t140 55q69 0 109.5 -39.5t40.5 -110.5q0 -89 -55 -143.5 t-140 -54.5q-69 0 -109.5 39t-40.5 110z" />
<glyph unicode="&#x3c;" d="M123 553v123l971 461l53 -115l-860 -408l860 -407l-53 -115z" />
<glyph unicode="=" d="M143 389v123h983v-123h-983zM143 717v123h983v-123h-983z" />
<glyph unicode="&#x3e;" d="M123 207l860 407l-860 408l53 115l971 -461v-123l-971 -461z" />
<glyph unicode="?" horiz-adv-x="819" d="M102 109q0 77 50.5 125.5t123.5 48.5q63 0 100.5 -37.5t37.5 -100.5q0 -77 -50.5 -125.5t-123.5 -48.5q-63 0 -100.5 37.5t-37.5 100.5zM233 385l35 188q34 188 174 240l117 43q23 8 37.5 14t38.5 19t38 25.5t25 32.5t11 42q0 23 -10 41t-31.5 31t-36.5 19.5t-43 15.5 q-48 17 -70.5 26t-57 30t-59.5 48q-53 58 -53 125q0 61 37 99t123 38q143 0 235 -112q97 -119 97 -306q0 -331 -291 -448l-84 -35q-40 -15 -64 -40t-32 -72l-13 -64h-123z" />
<glyph unicode="@" horiz-adv-x="1781" d="M123 653q0 106 19.5 200.5t51 164.5t75.5 131t88.5 101.5t95.5 74.5q205 137 497 137q274 0 449 -106q75 -45 129 -105t81 -124t38.5 -122t11.5 -118q0 -121 -38 -227t-103 -179q-63 -70 -164 -130t-203 -60q-101 0 -152 76q-22 32 -33 78.5t-8 89.5h-2 q-61 -101 -122 -160q-84 -84 -181 -84q-76 0 -127 51q-59 59 -59 190q0 185 106 355q148 239 357 239q96 0 157 -57l123 57h97q-66 -151 -119 -335q-66 -229 -66 -291q0 -40 21.5 -63t56.5 -23q58 0 130 48t120 118q86 126 86 274q0 122 -51 222.5t-133 162.5 q-152 113 -404 113q-250 0 -424 -123q-53 -37 -98.5 -85t-88 -116.5t-67 -162.5t-24.5 -203q0 -291 203 -455q154 -125 391 -125q254 0 463 111l34 -97q-224 -125 -506 -125q-253 0 -432 123q-276 192 -276 559zM705 567q0 -38 10 -63q13 -23 37 -23q22 0 49 19.5t45 42.5 q25 29 53.5 78t38.5 86l72 256q-5 26 -25 49q-21 24 -51 24q-99 0 -168 -178q-61 -160 -61 -291z" />
<glyph unicode="A" horiz-adv-x="1474" d="M-41 0l16 90l31 12q49 21 88 60q48 48 80 110l657 1190h246q0 -85 17 -168l211 -1030q0 -2 2.5 -14.5t3 -15.5t3 -13.5t4 -15t4.5 -13t5.5 -14t6.5 -13t9 -13.5q32 -45 70 -56l21 -6l-17 -90h-606l16 90l78 16q18 4 28.5 8t22 18.5t11.5 37.5q0 16 -9 63l-45 246h-467 l-118 -223q-31 -60 -31 -92q0 -16 5.5 -28t17.5 -18.5t16.5 -8.5t15.5 -5l64 -14l-17 -90h-440zM530 623h355l-84 503h-4z" />
<glyph unicode="B" horiz-adv-x="1372" d="M20 0l17 90l98 33q42 14 51 61l207 1053q2 12 2 23q0 45 -41 55l-96 28l16 91h344q26 0 80.5 2.5t73.5 3.5q115 6 154 6q154 0 250 -55q65 -38 102 -103t37 -141q0 -125 -88 -219q-94 -100 -244 -135v-5q123 -16 205 -83q110 -90 110 -256q0 -223 -182 -347 q-150 -102 -373 -102h-723zM510 156q78 -25 139 -25q125 0 205 70q52 43 80.5 114.5t28.5 159.5q0 94 -43 152q-25 34 -60 52.5t-61 22t-64 3.5h-119zM643 848h84q100 0 166 53q12 10 24 23t30 40t29 68.5t11 89.5q0 90 -37 138q-42 55 -123 55q-47 0 -96 -17z" />
<glyph unicode="C" horiz-adv-x="1392" d="M164 606q0 198 66.5 348.5t162.5 253.5q243 254 639 254q134 0 252 -32q17 -4 48 -13t58 -14.5t64 -9.5l-43 -398h-123l-20 119q-16 93 -68 148q-65 69 -180 69q-124 0 -213.5 -57t-157.5 -170q-69 -115 -103 -261t-34 -292q0 -219 84 -340q77 -109 221 -109 q123 0 219 76q75 60 115 141l53 111h123l-90 -369q-42 -6 -143 -38q-161 -52 -314 -52q-233 0 -391 123q-225 179 -225 512z" />
<glyph unicode="D" horiz-adv-x="1576" d="M20 0l17 90l98 33q42 14 51 61l207 1053q2 12 2 23q0 45 -41 55l-96 28l16 91h275q62 0 180 8q189 12 219 12q132 0 241.5 -30t199.5 -111q180 -161 180 -465q0 -107 -21.5 -204t-54 -167.5t-78 -132.5t-85 -100.5t-83.5 -71.5q-105 -78 -243.5 -125t-280.5 -47h-703z M510 172q103 -41 207 -41q192 0 325 168q89 111 133 276t44 326q0 206 -78 311q-82 111 -226 111q-81 0 -188 -35z" />
<glyph unicode="E" horiz-adv-x="1249" d="M20 0l17 90l98 33q42 14 51 61l207 1053q2 12 2 23q0 45 -41 55l-96 28l16 91h1069l-75 -390h-123l-6 115q-1 27 -12.5 55t-26.5 43q-33 33 -105 33h-266l-92 -479h168q45 0 74 23q20 18 41 59l32 70h111l-90 -471h-111l-6 94q-5 42 -22 59q-23 23 -66 23h-160l-86 -443 q-9 -37 -1.5 -55t15.5 -22.5t23 -4.5h248q59 0 119 37q21 14 41.5 38.5t29.5 47.5l56 133h123l-78 -399h-1078z" />
<glyph unicode="F" horiz-adv-x="1187" d="M20 0l17 90l98 33q42 14 51 61l207 1053q2 12 2 23q0 45 -41 55l-96 28l16 91h1069l-75 -390h-123l-6 115q-1 27 -12.5 55t-26.5 43q-33 33 -105 33h-266l-96 -499h180q47 0 74 22q20 18 41 59l33 70h110l-90 -471h-111l-6 94q-5 43 -22 60q-22 22 -66 22h-172l-88 -450 q-8 -37 6 -55t33 -23l117 -29l-17 -90h-635z" />
<glyph unicode="G" horiz-adv-x="1515" d="M164 606q0 198 66.5 348.5t162.5 253.5q242 254 639 254q131 0 277 -32q21 -4 54 -13t62.5 -14.5t69.5 -9.5l-78 -398h-123l-10 119q-8 93 -63 148q-69 69 -201 69q-124 0 -213 -56t-158 -171q-69 -114 -103 -261t-34 -292q0 -219 84 -340q76 -109 211 -109q88 0 182 62 l64 336q3 13 3 24q0 43 -42 54l-96 28l16 90h614l-16 -90l-98 -33q-43 -14 -52 -61l-92 -471q-82 -7 -194 -29q-7 -1 -38 -7.5t-42.5 -8.5t-40 -7.5t-46.5 -7.5t-44.5 -5t-52 -4t-52.5 -1q-233 0 -391 123q-225 179 -225 512z" />
<glyph unicode="H" horiz-adv-x="1576" d="M20 0l17 90l98 33q42 14 51 61l207 1053q2 12 2 23q0 45 -41 55l-96 28l16 91h615l-17 -91l-98 -32q-42 -14 -51 -62l-82 -418h498l78 406q2 12 2 23q0 45 -41 55l-97 28l17 91h614l-16 -91l-99 -32q-42 -14 -51 -62l-207 -1052q-2 -12 -2 -23q0 -45 41 -55l97 -29 l-17 -90h-614l16 90l98 33q43 14 52 61l100 504h-498l-96 -491q-2 -12 -2 -23q0 -45 41 -55l96 -29l-16 -90h-615z" />
<glyph unicode="I" horiz-adv-x="753" d="M20 0l17 90l98 33q42 14 51 61l207 1053q2 12 2 23q0 45 -41 55l-96 28l16 91h615l-17 -91l-98 -32q-42 -14 -51 -62l-207 -1052q-2 -12 -2 -23q0 -45 41 -55l96 -29l-16 -90h-615z" />
<glyph unicode="J" horiz-adv-x="753" d="M-426 -342q0 62 33 113.5t93 74.5q25 9 54 9q41 0 90 -19v-9q0 -43 24 -71q28 -30 73 -30q70 0 118 55q49 54 74 176l260 1280q7 35 -5.5 54t-33.5 24l-96 28l16 91h615l-17 -91l-98 -32q-42 -14 -51 -62l-217 -1112q-17 -90 -54.5 -172.5t-78 -138.5t-91.5 -106 t-86.5 -76.5t-72.5 -49.5q-178 -114 -338 -114q-98 0 -154.5 52t-56.5 126z" />
<glyph unicode="K" horiz-adv-x="1495" d="M20 0l17 90l98 33q42 14 51 61l207 1053q2 12 2 23q0 45 -41 55l-96 28l16 91h615l-17 -91l-98 -32q-42 -14 -51 -62l-86 -442h4q45 0 89 22q46 23 79 56l297 291q15 12 37 43t22 57q0 40 -45 51l-63 16l16 91h557l-16 -91l-66 -14q-56 -12 -108 -41.5t-129 -103.5 l-363 -350l346 -609q18 -29 30 -46t38 -39.5t61 -37.5l29 -12l-18 -90h-656l19 90l71 27q54 20 54 67q0 36 -21 76l-184 356q-32 60 -86 60h-21l-94 -479q-2 -12 -2 -23q0 -45 41 -55l96 -29l-16 -90h-615z" />
<glyph unicode="L" horiz-adv-x="1187" d="M20 0l17 90l98 33q42 14 51 61l207 1053q2 12 2 23q0 45 -41 55l-96 28l16 91h615l-17 -91l-98 -32q-42 -14 -51 -62l-201 -1024q-9 -37 -1.5 -55t15.5 -22.5t23 -4.5h240q64 0 114 37q16 13 37.5 38.5t32.5 47.5l70 133h123l-78 -399h-1078z" />
<glyph unicode="M" horiz-adv-x="1904" d="M20 0l17 90l90 37q53 20 68 86l239 1024q3 13 3 24q0 40 -42 54l-96 28l16 91h471q0 -69 21 -177l178 -815h4l496 832q50 85 76 160h454l-16 -91l-98 -32q-46 -17 -52 -62l-170 -1052q-1 -9 -1 -18q0 -49 40 -60l97 -29l-17 -90h-614l16 90l98 33q46 17 52 61l133 809h-4 l-541 -895q-44 -72 -57 -127h-144q-4 103 -16 160l-191 862h-4l-178 -788q-6 -27 4 -50t35 -32l96 -33l-16 -90h-447z" />
<glyph unicode="N" horiz-adv-x="1556" d="M20 0l17 90l90 37q57 23 68 86l196 1020q-16 40 -39 63q-29 33 -82 47l17 91h409l527 -906l139 701q3 14 3 26q0 43 -40 56l-96 32l16 91h447l-17 -91l-90 -36q-53 -21 -65 -86l-244 -1250h-164q-22 90 -68 166l-528 916l-168 -848q-2 -12 -2 -23q0 -45 41 -59l96 -33 l-16 -90h-447z" />
<glyph unicode="O" horiz-adv-x="1556" d="M164 598q0 168 54 329t159 281q220 254 596 254q103 0 194 -25.5t176 -97.5q205 -177 205 -503q0 -187 -57.5 -343.5t-155.5 -267.5q-224 -254 -596 -254q-103 0 -194 25.5t-176 97.5q-205 173 -205 504zM512 549q0 -219 68 -338q61 -109 184 -109q193 0 315 228 q61 114 91 260.5t30 294.5q0 220 -67 338q-61 108 -185 108q-194 0 -315 -227q-61 -114 -91 -260.5t-30 -294.5z" />
<glyph unicode="P" horiz-adv-x="1331" d="M20 0l17 90l98 33q42 14 51 61l207 1053q2 12 2 23q0 45 -41 55l-96 28l16 91h258q37 0 166 6q169 6 191 6q256 0 364 -90q119 -102 119 -293q0 -244 -192 -373q-155 -104 -406 -104q-93 0 -178 16l-80 -405q-8 -37 6 -55t33 -23l117 -29l-17 -90h-635zM625 745 q61 -28 114 -28q46 0 95 16.5t84 48.5q50 46 78 133t28 164q0 112 -49 174q-50 62 -144 62q-47 0 -100 -17z" />
<glyph unicode="Q" horiz-adv-x="1556" d="M164 598q0 168 54 329t159 281q220 254 596 254q103 0 194 -25.5t176 -97.5q205 -177 205 -503q0 -186 -58 -345t-155 -266q-98 -109 -248 -184q45 -114 123 -205q133 -155 344 -155q161 0 371 94l-29 -152q-205 -74 -434 -74q-131 0 -260 32.5t-225 96.5 q-163 109 -238 293q-13 -1 -26 -1q-192 0 -344 124q-205 173 -205 504zM512 549q0 -219 68 -338q61 -109 184 -109q34 0 68.5 8.5t78 31t87.5 70.5t81 118q59 110 90 262t31 293q0 223 -67 338q-61 108 -185 108q-194 0 -315 -227q-61 -114 -91 -260.5t-30 -294.5z" />
<glyph unicode="R" horiz-adv-x="1351" d="M20 0l17 90l98 33q42 14 51 61l207 1053q2 12 2 23q0 45 -41 55l-96 28l16 91h293q66 0 176 10q113 10 166 10q204 0 318 -76q51 -36 88 -99t37 -153q0 -210 -178 -329q-111 -75 -267 -99v-6q59 -18 102.5 -62t75.5 -128l117 -307q33 -96 115 -105l-19 -90h-372l-209 582 q-29 77 -90 77h-21l-90 -462q-2 -12 -2 -23q0 -45 41 -55l96 -29l-16 -90h-615zM635 803q58 -12 94 -12q153 0 232 114q63 91 63 230q0 87 -45 139q-44 49 -119 49q-68 0 -133 -33z" />
<glyph unicode="S" horiz-adv-x="1085" d="M41 41l76 389h123l4 -86q5 -102 43 -158q56 -84 172 -84q128 0 205 80q65 65 65 170q0 41 -10.5 74.5t-31.5 59t-37 40t-42 33.5l-211 154q-166 122 -166 305q0 106 49 203t160 161q141 80 355 80q64 0 200 -16q30 -4 63 -6.5t58 -3.5t31 -2l-74 -385h-123l-4 84 q-6 94 -35 135q-42 63 -141 63q-96 0 -152 -45q-67 -54 -67 -160q0 -115 96 -184l205 -151q39 -29 59.5 -46t53 -51t49 -65t30 -78.5t13.5 -101.5q0 -80 -21 -148t-56 -115t-67.5 -76.5t-68.5 -52.5q-140 -86 -357 -86q-64 0 -121.5 7t-92 14.5t-95.5 23.5q-84 23 -137 25z " />
<glyph unicode="T" horiz-adv-x="1331" d="M176 1004l84 430h1227l-84 -430h-123l-10 143q-5 74 -41 110q-33 33 -99 33h-116l-213 -1093q-8 -37 6 -55t33 -23l116 -29l-16 -90h-655l16 90l119 33q40 11 51 61l215 1106h-127q-69 0 -113 -33q-42 -27 -75 -98l-72 -155h-123z" />
<glyph unicode="U" horiz-adv-x="1454" d="M220 290q-1 21 -2 38q0 24 2 41q4 29 11 69l154 799q2 12 2 23q0 45 -41 55l-96 28l16 91h615l-17 -91l-98 -32q-42 -14 -51 -62l-156 -811q-14 -71 -15 -127q0 -95 42 -145q56 -64 164 -64q126 0 217 64q122 86 157 260l158 811q3 12 3 23q0 42 -42 55l-96 28l16 91h447 l-17 -91l-98 -32q-42 -14 -51 -62l-160 -827q-10 -50 -23.5 -91t-38.5 -92t-67 -96t-98 -80q-69 -42 -163 -67t-189 -25q-89 0 -181.5 19t-150.5 53q-54 32 -88.5 75.5t-48.5 82.5t-16 89z" />
<glyph unicode="V" horiz-adv-x="1474" d="M205 1343l16 91h635l-16 -91l-74 -16q-31 -6 -45 -27q-16 -20 -16.5 -56t6.5 -62l127 -785h4l420 770q28 54 28 90q0 51 -61 68l-66 18l17 91h479l-17 -91l-36 -8q-50 -10 -95 -49q-50 -47 -94 -123l-586 -1059q-42 -73 -69 -133h-205q1 11 1 23q0 51 -11 115l-185 1075 q-10 63 -40 100t-70 47z" />
<glyph unicode="W" horiz-adv-x="1966" d="M205 1343l16 91h594l-16 -91l-74 -18q-31 -9 -45 -27q-16 -20 -16 -75q0 -18 2 -41l55 -699h4l383 787q61 122 80 192h164q-2 -25 -2 -54q0 -61 10 -138l104 -787h4l289 670q29 77 29 98q0 10 -4 22t-20 28.5t-42 23.5l-65 18l16 91h479l-16 -91l-37 -8q-49 -7 -96 -49 q-45 -43 -80 -123l-469 -1063q-35 -80 -47 -120h-205q0 63 -8 118l-107 811h-4l-399 -811q-39 -85 -53 -127h-205q-3 112 -4 129l-94 1084q-2 24 -5 40t-11 39.5t-24.5 40t-41.5 25.5z" />
<glyph unicode="X" horiz-adv-x="1433" d="M-41 0l16 90l64 21q106 34 233 176l365 405l-254 529q-41 86 -127 110l-43 12l16 91h643l-16 -91l-74 -16q-42 -9 -54 -37q-5 -11 -4 -25q0 -20 11 -44l137 -306l254 297q29 36 29 72t-41 43l-72 16l15 91h499l-14 -91l-45 -8q-45 -8 -90.5 -37.5t-68 -52t-52.5 -57.5 l-346 -400l262 -532q1 -1 8 -16t10 -19.5t11 -19t13 -21t14.5 -19t18 -19.5t19.5 -16t23.5 -14.5t26.5 -9.5l47 -12l-17 -90h-659l16 88l53 10q80 14 80 84q0 37 -37 115l-120 264l-267 -299q-47 -59 -47 -100q0 -20 13.5 -37t40.5 -23l63 -12l-16 -90h-537z" />
<glyph unicode="Y" horiz-adv-x="1351" d="M205 1343l16 91h627l-17 -86l-83 -19q-26 -6 -41 -19t-18.5 -30.5t-2 -34t7.5 -33.5l146 -393l293 373q11 14 20.5 36.5t9.5 35.5q0 43 -61 63l-70 21l17 86h487l-16 -91l-39 -8q-40 -8 -81.5 -39t-59 -52t-44.5 -56l-411 -537l-90 -454q-8 -37 6 -55t33 -23l116 -29 l-16 -90h-655l16 90l119 33q40 11 51 61l92 467l-213 570q-28 81 -100 108z" />
<glyph unicode="Z" horiz-adv-x="1228" d="M-20 0l18 90q50 41 100 105l836 1095h-332q-66 0 -110 -28q-50 -31 -80 -86l-97 -172h-122l83 430h1117l-17 -91q-52 -39 -100 -102l-830 -1098h353q78 0 129 37q16 12 30 27.5t20.5 25.5t20.5 33l99 164h123l-84 -430h-1157z" />
<glyph unicode="[" horiz-adv-x="880" d="M61 -492l390 2008h553l-21 -103h-221q-46 0 -55 -49l-328 -1702q-10 -51 35 -51h221l-21 -103h-553z" />
<glyph unicode="\" horiz-adv-x="1024" d="M287 1516h143l492 -2008h-144z" />
<glyph unicode="]" horiz-adv-x="880" d="M-53 -492l20 103h221q47 0 56 49l327 1702q10 51 -34 51h-222l21 103h553l-389 -2008h-553z" />
<glyph unicode="^" horiz-adv-x="1024" d="M143 819l451 643l450 -643h-204l-246 357l-246 -357h-205z" />
<glyph unicode="_" horiz-adv-x="1187" d="M0 -369h1188v-123h-1188v123z" />
<glyph unicode="`" horiz-adv-x="983" d="M389 1487l14 69h287l191 -286l-9 -41h-102z" />
<glyph unicode="a" horiz-adv-x="1187" d="M102 229q0 121 37.5 250.5t100.5 241.5q96 167 216 249.5t244 82.5q122 0 205 -74l160 74h123q-79 -184 -152 -435q-86 -289 -86 -393q0 -57 37 -57q20 0 56 24.5t63 49.5l57 -66l-139 -106q-124 -99 -225 -99q-61 0 -97 29q-47 37 -47 123q0 43 17 106l14 58h-4 q-74 -126 -160 -207q-55 -52 -109.5 -80.5t-123.5 -28.5q-78 0 -127 56q-60 69 -60 202zM410 319q0 -46 14 -73q16 -29 45 -29q53 0 123 80q38 46 72 106t47 107l94 330q-9 38 -33 65q-28 33 -70 33q-48 0 -106.5 -53t-108.5 -180q-30 -80 -53.5 -191t-23.5 -195z" />
<glyph unicode="b" horiz-adv-x="1126" d="M66 154q83 259 186 671q62 252 92 428q14 79 14 105q0 24 -7.5 39.5t-22 22t-26.5 8.5t-30 2q-46 0 -96 -7l17 82q131 18 219 39q102 22 196 53h129q-61 -148 -96 -311l-104 -446h4q57 81 112 127q99 86 221 86q100 0 162 -70q70 -79 70 -240q0 -103 -33.5 -214.5 t-85.5 -200.5q-37 -65 -87.5 -124.5t-116 -113.5t-148 -86.5t-168.5 -32.5q-114 0 -225 58q-95 50 -176 125zM369 176q14 -42 47.5 -66t66.5 -24q62 0 129.5 68.5t118.5 201.5q68 178 68 349q0 68 -21 104q-24 39 -63 39q-64 0 -135 -92q-21 -27 -38.5 -55t-32.5 -62 t-25 -56t-22.5 -62.5t-16.5 -54t-16 -58.5t-13 -50z" />
<glyph unicode="c" horiz-adv-x="921" d="M102 330q0 162 70.5 326.5t194.5 267.5q156 129 360 129q100 0 154 -41q61 -47 61 -135q0 -70 -39.5 -117t-107.5 -47q-46 0 -86 20q12 61 12 121q0 84 -55 84q-35 0 -74.5 -36.5t-67.5 -84.5q-51 -90 -82.5 -220t-31.5 -239q0 -97 34 -145q36 -53 101 -53q64 0 145 49 q81 51 133 110l66 -65q-90 -108 -197 -188q-134 -95 -270 -95q-125 0 -207 68q-113 99 -113 291z" />
<glyph unicode="d" horiz-adv-x="1167" d="M102 229q0 121 37.5 250.5t100.5 241.5q96 167 216 249.5t244 82.5q79 0 146 -41l63 274q11 50 11 72q0 34 -16.5 53t-69.5 19q-47 0 -97 -7l17 82q131 18 219 39q102 22 196 53h129q-70 -181 -102 -311l-164 -668q-8 -33 -18.5 -77t-16.5 -67t-13.5 -54.5t-11 -48 t-8 -38t-6.5 -34t-4.5 -27t-3 -25.5t-0.5 -22q0 -57 37 -57q20 0 56 24.5t63 49.5l57 -66l-139 -106q-124 -99 -225 -99q-63 0 -103.5 35.5t-40.5 116.5q0 43 17 106l14 58h-4q-74 -126 -160 -207q-55 -52 -109.5 -80.5t-123.5 -28.5q-78 0 -127 56q-60 69 -60 202zM410 319 q0 -46 14 -73q16 -29 45 -29q53 0 123 80q36 42 73.5 103t49.5 110l88 330q-9 38 -33 65q-30 33 -68 33q-20 0 -44 -10.5t-53.5 -34t-61 -72.5t-56.5 -116q-30 -80 -53.5 -191t-23.5 -195z" />
<glyph unicode="e" horiz-adv-x="983" d="M102 334q0 156 66 324t190 270q149 125 377 125q130 0 191 -41q78 -52 78 -152q0 -46 -16 -92.5t-50 -93.5t-94.5 -89t-141.5 -71q-139 -48 -284 -51q-8 -64 -8 -109q0 -91 36 -141q40 -53 111 -53q81 0 164 45q85 46 156 114l65 -65q-123 -127 -215 -188 q-142 -95 -293 -95q-135 0 -217 68q-115 93 -115 295zM442 586q91 10 152 49q65 40 94 101.5t29 121.5q0 80 -62 80q-42 0 -82.5 -39.5t-72.5 -112.5q-40 -88 -58 -200z" />
<glyph unicode="f" horiz-adv-x="737" d="M-451 -375q0 83 51.5 138.5t135.5 64.5q10 -131 98 -131q41 0 83 27.5t73 66.5q62 79 100 238l195 831q-106 0 -197 -12l37 135h184l39 174q26 119 129.5 220.5t233.5 158.5q140 61 288 61q92 0 150.5 -39.5t58.5 -105.5q0 -81 -66 -146q-58 -58 -151 -58q-12 0 -24 1 q2 20 2 38q0 65 -28 106q-36 53 -85 53q-55 0 -119 -68q-71 -79 -106 -248l-33 -147h229l-36 -135q-86 12 -173 12h-47l-153 -688q-42 -184 -168 -336q-62 -75 -145.5 -150.5t-157.5 -123.5q-124 -82 -232 -82q-72 0 -110 28q-56 39 -56 117z" />
<glyph unicode="g" horiz-adv-x="1024" d="M-61 -303q0 101 88 170q87 69 211 92q-21 6 -42 15.5t-46 27.5t-40.5 48t-15.5 67q0 77 70 143q60 55 133 76q-74 30 -117 94.5t-43 155.5q0 204 156 340q146 127 334 127q112 0 196 -60q38 53 100.5 93t133.5 40q60 0 95.5 -28.5t35.5 -73.5q0 -48 -35.5 -84t-91.5 -43 q-28 64 -90 64q-46 0 -78 -39q72 -90 72 -203q0 -99 -40 -183t-106 -137q-61 -51 -151.5 -78.5t-186.5 -27.5q-23 0 -69 4q-21 -9 -36.5 -28.5t-15.5 -37.5q0 -24 20 -37t60 -26l297 -90q91 -27 142 -92t51 -148q0 -184 -193 -280q-155 -78 -383 -78q-195 0 -303 55 q-112 57 -112 162zM205 -262q0 -65 49 -105q50 -39 145 -39q109 0 183 46q61 39 61 98q0 26 -11.5 47t-31 33.5t-33.5 19t-28 10.5l-199 66q-49 -27 -86 -64q-49 -52 -49 -112zM403 530q0 -68 25 -95t59 -27q39 0 79 30t69 90q28 55 45.5 137t17.5 154q0 119 -84 119 q-77 0 -135 -98q-33 -58 -54.5 -145.5t-21.5 -164.5z" />
<glyph unicode="h" horiz-adv-x="1187" d="M61 61q93 240 232 764q70 270 100 432q15 76 15 101q0 24 -7.5 39.5t-22 22t-26.5 8.5t-30 2q-47 0 -97 -7l17 82q131 18 219 39q102 22 196 53h129q0 -1 -11 -30.5t-22.5 -60.5t-30.5 -92t-38 -128l-168 -590h4q89 135 201 236q132 121 244 121q72 0 114 -54 q39 -49 39 -127q0 -80 -45 -225l-102 -330q-17 -62 -17 -94q0 -55 37 -55q20 0 56 24.5t63 49.5l57 -66l-139 -106q-131 -99 -225 -99q-60 0 -98 41q-50 56 -50 154q0 67 35 174l103 317q18 52 18 101t-39 49q-29 0 -80 -51q-145 -145 -239 -428q-35 -101 -72 -258l-246 -99 z" />
<glyph unicode="i" horiz-adv-x="655" d="M106 913q82 17 220 60q122 39 211 80h122q-31 -59 -55 -146l-166 -590q-16 -67 -16 -94q0 -55 37 -55q20 0 56 24.5t63 49.5l57 -66l-139 -106q-131 -99 -226 -99q-60 0 -98 41q-49 55 -49 148q0 52 35 180l108 387q15 60 15 74q0 47 -41 47q-49 0 -113 -33zM389 1370 q0 52 19 97.5t62.5 77.5t102.5 32q64 0 104 -36.5t40 -104.5q0 -81 -48.5 -144t-136.5 -63q-64 0 -103.5 36.5t-39.5 104.5z" />
<glyph unicode="j" horiz-adv-x="634" d="M-430 -375q0 83 51 138.5t135 64.5q10 -131 99 -131q41 0 83.5 27.5t71.5 66.5q67 91 101 238l157 698q13 53 13 74q0 47 -41 47q-49 0 -113 -33l-21 98q82 17 220 60q122 39 211 80h122q-40 -78 -55 -146l-166 -735q-41 -179 -168 -336q-62 -75 -145.5 -150.5 t-157.5 -123.5q-124 -82 -231 -82q-73 0 -111 28q-55 39 -55 117zM389 1370q0 52 19 97.5t62.5 77.5t102.5 32q64 0 104 -36.5t40 -104.5q0 -81 -48.5 -144t-136.5 -63q-64 0 -103.5 36.5t-39.5 104.5z" />
<glyph unicode="k" horiz-adv-x="1167" d="M61 61q107 283 232 764q41 152 96 428q14 71 14 105q0 24 -7.5 39.5t-21.5 22t-26.5 8.5t-30.5 2q-46 0 -96 -7l17 82q131 18 219 39q102 22 196 53h129q-29 -82 -94 -311q-65 -231 -137 -528h4q84 116 184 192q135 103 271 103q86 0 131 -45q47 -44 47 -117 q0 -154 -164 -273q-108 -80 -244 -120q16 -17 26.5 -34.5t14.5 -28.5t13 -40l38 -119q11 -34 20 -53.5t26.5 -37t39.5 -17.5t66.5 27.5t65.5 46.5l57 -66l-139 -106q-127 -99 -222 -99q-40 0 -70.5 18t-49 51.5t-28.5 61t-20 66.5l-47 184q-14 61 -51 84l-53 -6l-86 -360 l-246 -99zM489 520q97 8 175 39q112 43 174.5 107.5t62.5 126.5q0 27 -16 41t-43 14q-61 0 -154 -82q-133 -116 -199 -246z" />
<glyph unicode="l" horiz-adv-x="573" d="M66 160q0 44 34 180l244 946q10 33 10 72q0 34 -16.5 53t-69.5 19q-46 0 -96 -7l16 82q133 18 220 39q102 22 196 53h129q-62 -156 -102 -311l-230 -889q-36 -131 -36 -174q0 -55 36 -55q20 0 56 24.5t63 49.5l58 -66l-140 -106q-131 -99 -225 -99q-60 0 -98 41 q-49 55 -49 148z" />
<glyph unicode="m" horiz-adv-x="1740" d="M86 61q99 256 154 465q57 216 57 273q0 49 -41 49q-49 0 -113 -33l-20 98q110 24 219 62q134 47 211 84h84l-100 -363h4q83 131 192 236q136 127 242 127q66 0 104 -55q35 -47 35 -138q0 -64 -14 -129h4q70 106 162 191q143 131 252 131q73 0 114 -53q39 -49 39 -127 q0 -81 -45 -226l-102 -329q-17 -62 -17 -95q0 -55 37 -55q20 0 56 24.5t63 49.5l57 -66l-139 -106q-131 -99 -225 -99q-61 0 -99 41q-49 55 -49 154q0 67 35 174l103 318q18 56 18 98q0 51 -39 51q-49 0 -145 -131q-105 -146 -170 -348q-42 -127 -68 -264l-246 -99l-73 90 q35 93 79 228q67 200 97 319q24 101 24 150q0 55 -39 55q-50 0 -145 -133q-101 -143 -166 -352q-40 -128 -67 -258l-246 -99z" />
<glyph unicode="n" horiz-adv-x="1208" d="M86 61q99 256 154 465q57 216 57 273q0 49 -41 49q-49 0 -113 -33l-20 98q79 16 219 60q122 39 211 80h82l-98 -357h4q91 137 200 236q132 121 244 121q73 0 115 -54q39 -49 39 -127q0 -80 -45 -225l-103 -330q-16 -58 -16 -94q0 -55 37 -55q38 0 118 74l58 -66 l-139 -106q-131 -99 -226 -99q-60 0 -98 41q-49 55 -49 154q0 67 35 174l102 317q18 52 18 101t-38 49q-45 0 -148 -131q-103 -137 -172 -348q-38 -110 -67 -258l-246 -99z" />
<glyph unicode="o" horiz-adv-x="1167" d="M111 408q0 159 63.5 300t181.5 230q153 115 367 115q169 0 268 -97q123 -119 123 -340q0 -158 -64 -299.5t-182 -230.5q-153 -115 -366 -115q-170 0 -269 97q-122 118 -122 340zM418 231q0 -69 18 -104q21 -41 66 -41q48 0 100.5 52t95.5 159q44 112 76.5 253t32.5 243 q0 67 -19 104q-21 41 -65 41q-49 0 -101.5 -52t-95.5 -159q-44 -111 -76 -252.5t-32 -243.5z" />
<glyph unicode="p" horiz-adv-x="1167" d="M-156 -492l17 82q59 14 100 58q43 46 66 131l192 747q57 220 57 273q0 49 -40 49q-49 0 -113 -33l-21 98q82 17 220 60q118 38 210 80h82l-73 -275h4q84 132 149 189q95 86 221 86q100 0 162 -70q70 -79 70 -240q0 -100 -32.5 -210t-86.5 -205q-91 -161 -222.5 -259 t-256.5 -98q-47 0 -89 15t-58 26.5t-25 20.5l-64 -254q-12 -50 -12 -80q0 -37 16.5 -52.5t44.5 -23.5l113 -33l-16 -82h-615zM412 176q14 -40 43.5 -65t66.5 -25q63 0 131 68.5t119 201.5q68 178 68 349q0 68 -21 104q-24 39 -63 39q-64 0 -135 -92q-35 -45 -61.5 -95 t-48 -114.5t-29 -91.5t-25.5 -97z" />
<glyph unicode="q" horiz-adv-x="1146" d="M102 229q0 121 37.5 250.5t100.5 241.5q96 167 216 249.5t244 82.5q122 0 205 -74l160 74h123q-24 -48 -43.5 -102t-29.5 -90.5t-34 -131.5l-245 -950q-11 -41 -11 -70q0 -25 9 -41q17 -33 63 -49l80 -29l-16 -82h-635l16 82l76 23q100 32 125 139l61 248l94 287h-4 q-91 -135 -172 -211q-114 -105 -233 -105q-78 0 -127 56q-60 69 -60 202zM410 319q0 -46 14 -73q16 -29 45 -29q53 0 123 80q36 41 72.5 102t50.5 111l90 330q-9 38 -33 65q-28 33 -70 33q-48 0 -106.5 -53t-108.5 -180q-30 -80 -53.5 -191t-23.5 -195z" />
<glyph unicode="r" horiz-adv-x="962" d="M86 61q90 253 143 465q47 186 47 273q0 49 -40 49q-49 0 -113 -33l-21 98q82 17 220 60q118 38 210 80h82l-98 -357h4q59 96 119 166q162 191 309 191q10 0 20.5 -1t30 -8.5t34 -19.5t25.5 -37.5t11 -60.5q0 -69 -41 -127.5t-117 -77.5q-7 34 -29 60t-61 26 q-61 0 -131 -66q-63 -58 -123.5 -164t-103.5 -249q-42 -129 -57 -258l-246 -99z" />
<glyph unicode="s" horiz-adv-x="860" d="M20 154q0 91 70 135q47 31 113 31q13 0 26 -1q0 -85 35 -151q45 -82 121 -82q46 0 78 35q29 29 29 72q0 85 -64 149l-172 174q-104 104 -104 213q0 120 98 201q148 123 387 123q138 0 201 -41t63 -119q0 -82 -59 -121q-48 -35 -124 -35h-16q-3 67 -32 127q-39 74 -109 74 q-50 0 -88 -33q-27 -27 -27 -65q0 -58 72 -135l180 -191q28 -30 46 -52.5t36.5 -67t18.5 -91.5q0 -140 -123 -227q-75 -53 -185 -79t-206 -26q-112 0 -179 39q-86 51 -86 144z" />
<glyph unicode="t" horiz-adv-x="737" d="M102 848l37 135h187l12 41q26 94 43 205l235 123h123q-33 -65 -61 -150q-27 -77 -55 -178l-13 -41h230l-37 -135q-82 12 -172 12h-49l-148 -543q-16 -61 -16 -92q0 -6 1 -12t6 -18t18.5 -19.5t33.5 -7.5q41 0 99.5 32.5t99.5 69.5l57 -65l-196 -135q-145 -99 -248 -99 q-72 0 -115 41q-55 51 -55 148q0 52 35 180l143 520q-99 0 -195 -12z" />
<glyph unicode="u" horiz-adv-x="1228" d="M106 913q82 17 220 60q122 39 211 80h122l-149 -473q-80 -251 -80 -308q0 -33 11 -48t26 -15q31 0 82 51q129 129 237 434q44 125 74 248l246 111h123q-73 -172 -152 -435q-86 -296 -86 -393q0 -57 37 -57q20 0 56 24.5t63 49.5l57 -66l-139 -106q-38 -29 -66 -47 t-72.5 -35t-86.5 -17q-58 0 -95 29q-49 40 -49 121q0 59 23 141l24 86h-4q-94 -150 -211 -256q-132 -121 -243 -121q-70 0 -115 54q-47 55 -47 135q0 55 21.5 140t80.5 271q56 171 56 230q0 47 -41 47q-49 0 -113 -33z" />
<glyph unicode="v" horiz-adv-x="1105" d="M41 913q127 54 186 78q54 22 80 31.5t68 20t74 10.5q86 0 126 -47q54 -66 54 -328q0 -84 -11 -264q-9 -116 -12 -148h4q72 72 118 130.5t81 133.5q59 115 59 242q0 112 -69 207q37 39 90.5 56.5t101.5 17.5q42 0 72.5 -13t46 -30.5t24.5 -41t11 -37.5t2 -28 q0 -114 -84 -268q-42 -74 -105 -151t-97 -111.5t-134 -132.5q-78 -78 -119 -115q-14 -14 -41 -39.5t-41 -38.5q-42 -42 -63 -76h-184q15 73 22 133q21 189 21 357q0 210 -21 321q-15 99 -80 99q-45 0 -147 -62z" />
<glyph unicode="w" horiz-adv-x="1597" d="M41 913q74 32 180 78q147 62 219 62q81 0 121 -43q53 -57 53 -281q0 -147 -22 -319q-6 -55 -23 -144h4q75 108 119 185q96 169 126 292q22 88 21 167q0 31 -3 61l196 82h82q23 -171 23 -363q0 -78 -9 -262q-2 -53 -10 -162h4q88 101 117 144q53 76 87 175.5t34 186.5 q0 110 -70 207q38 39 92 56.5t105 17.5q76 0 113.5 -42.5t37.5 -113.5q0 -117 -86 -262q-40 -70 -100 -147t-100.5 -121.5t-116.5 -124.5q-133 -139 -178 -195q-28 -33 -49 -76h-185q11 71 17 140q14 186 14 401h-4q-76 -138 -184 -285q-50 -69 -134 -174q-53 -72 -61 -82 h-184q13 101 16 131q19 211 19 373q0 196 -21 307q-9 47 -26 73t-54 26q-45 0 -147 -62z" />
<glyph unicode="x" horiz-adv-x="1097" d="M-8 117q0 73 39 121q33 42 90 57q9 -29 31 -45.5t47 -16.5q42 0 90 41q20 18 48.5 52.5t45.5 60.5l57 88l-53 238q-21 90 -37 123q-22 45 -65 45q-23 0 -61.5 -20t-67.5 -42l-33 94l78 35q109 50 151 66q100 39 150 39q29 0 48 -10.5t36 -36.5q13 -19 22.5 -47.5t15 -51 t15.5 -73.5l31 -154l88 135q74 115 125 166q74 72 155 72q56 0 88 -37q33 -41 33 -101q0 -57 -31 -110q-27 -45 -77 -68q-9 34 -34.5 52t-60.5 18q-22 0 -42.5 -8.5t-31.5 -17.5t-30 -27q-58 -58 -98 -123l-52 -80l37 -152q30 -121 54 -170q31 -61 79 -61q28 0 61 23t58 51 l58 -66l-115 -90q-32 -26 -47 -37t-50 -34t-67 -33.5t-63 -10.5q-81 0 -136 80q-19 27 -34.5 68t-21 64.5t-17.5 76.5l-21 86l-86 -145q-67 -111 -123 -162q-74 -68 -141 -68q-57 0 -96 39t-39 107z" />
<glyph unicode="y" horiz-adv-x="1085" d="M-82 -365q0 77 42.5 127.5t115.5 53.5q8 -31 30 -52.5t56 -21.5q33 0 74 23t67 53l33 41q6 132 6 247q0 182 -15.5 385t-45.5 304q-11 40 -28.5 63t-51.5 23q-46 0 -148 -62l-33 94q98 42 187 78q147 62 221 62q79 0 115 -47q50 -65 73 -328q13 -133 13 -264 q0 -47 -6 -230h4q45 68 98 167.5t78 166.5q45 126 45 254q0 114 -70 207q37 39 91 56.5t102 17.5q42 0 72.5 -13t46 -30.5t24 -41t10.5 -37.5t2 -28q0 -115 -73 -268q-46 -98 -132.5 -225.5t-248.5 -337.5l-156 -201q-190 -246 -278 -311q-88 -72 -177 -72q-67 0 -105 39.5 t-38 107.5z" />
<glyph unicode="z" horiz-adv-x="983" d="M0 70q171 160 418 411q140 139 284 301l-4 4q-55 -30 -108 -30q-45 0 -129 39q-70 34 -113 34q-37 0 -59.5 -18.5t-22.5 -56.5q0 -40 29.5 -67t69.5 -32q-6 -57 -41 -97t-86 -40q-47 0 -81 33t-34 96q0 76 45 209q15 41 30 71.5t40 61.5t61.5 47.5t83.5 16.5 q40 0 154 -31q154 -41 231 -41q110 0 174 72l94 -99q-159 -149 -391 -389q-148 -155 -239 -264q13 1 26 1q77 0 166 -44q7 -4 28 -15t28.5 -15t24.5 -11.5t27 -10.5t23 -6t25 -3q33 0 51 20t18 47q0 44 -32 87.5t-82 54.5q12 48 48 89.5t97 41.5q57 0 89 -39.5t32 -110.5 q0 -60 -21 -136t-55 -136q-41 -71 -94.5 -107.5t-136.5 -36.5q-80 0 -209 43q-6 2 -41 13.5t-49.5 15.5t-42 9t-50.5 5q-103 0 -182 -86z" />
<glyph unicode="{" horiz-adv-x="892" d="M184 451l23 122q101 8 168 93q57 74 86 225q13 66 21 138t16 112q24 116 79.5 192.5t161.5 132.5q135 70 305 78l-24 -123q-78 -12 -129 -63q-54 -54 -74 -158q-8 -41 -18.5 -123t-18.5 -123q-36 -188 -147 -307q-93 -98 -215 -135q111 -39 164 -135q45 -78 45 -178 q0 -65 -54 -273q-30 -117 -30 -178q0 -67 36.5 -102.5t86.5 -42.5l-23 -123q-67 2 -142.5 21.5t-131.5 56.5q-125 86 -125 231q0 67 39 217q2 8 12 45t13 51.5t9.5 45t8.5 57t2 55.5q0 52 -10 89t-42 65q-44 34 -92 37z" />
<glyph unicode="|" horiz-adv-x="655" d="M246 -492v2089h164v-2089h-164z" />
<glyph unicode="}" horiz-adv-x="892" d="M-61 -520l24 123q78 12 129 63q54 54 74 158q8 41 18.5 123t18.5 123q36 188 147 307q93 98 215 135q-111 39 -164 135q-45 78 -45 178q0 65 54 273q30 117 30 178q0 67 -36.5 102.5t-86.5 42.5l23 123q67 -2 142.5 -21.5t131.5 -56.5q125 -86 125 -231q0 -67 -39 -217 q-2 -8 -12 -45t-13 -51.5t-9.5 -45t-8.5 -57t-2 -55.5q0 -52 10 -89t42 -65q44 -34 92 -37l-23 -122q-101 -8 -168 -93q-57 -74 -86 -225q-13 -66 -21 -138t-16 -112q-24 -116 -79.5 -192.5t-161.5 -132.5q-135 -70 -305 -78z" />
<glyph unicode="~" d="M184 463q25 91 68 166q84 141 225 141q95 0 207 -49l64 -27q113 -47 161 -47q58 0 97 47q19 24 30 56h131q-25 -94 -67 -166q-84 -142 -226 -142q-92 0 -206 50l-64 26q-113 47 -162 47q-56 0 -94 -47q-18 -20 -33 -55h-131z" />
<glyph unicode="&#xa2;" d="M225 582q0 62 13.5 129.5t43 144.5t88 152.5t138.5 132.5q148 106 317 119l43 174h103l-41 -172q90 0 160 -39q77 -44 77 -127q0 -64 -39.5 -108t-101.5 -44q-34 0 -72 21q10 32 12 68t-15 69.5t-50 42.5l-188 -774q60 -1 98 9.5t84 39.5q80 52 133 110l66 -65 q-93 -111 -197 -189q-112 -82 -229 -92l-45 -184h-103l45 186q-116 13 -196 72q-64 46 -104 129t-40 195zM512 610q0 -103 28.5 -150.5t73.5 -70.5l187 756q-82 -29 -148 -109q-73 -89 -107 -201t-34 -225z" />
<glyph unicode="&#xa3;" d="M57 90q34 11 78 31.5t66 38.5q69 55 90 196l55 353l-192 -21l24 143h189q5 60 18 120.5t37.5 132t68.5 137.5t103 114q155 127 416 127q167 0 247 -53q82 -52 82 -147q0 -84 -67 -136q-61 -48 -162 -45q-6 99 -39 164q-25 54 -60 78.5t-87 24.5q-100 0 -158 -97 q-45 -75 -68 -241l-24 -179h336l-25 -143l-332 21q-32 -200 -114 -347q-53 -92 -123 -149l2 -4q153 78 262 78q79 0 174 -37q8 -3 32 -12.5t32 -13t26.5 -10t29 -8.5t25 -4.5t27.5 -2.5q44 0 75 25t66 77l86 -74q-77 -93 -125 -141q-55 -55 -111.5 -85t-144.5 -30 q-36 0 -78 7t-65.5 13.5t-81.5 22.5q-175 47 -260 47q-138 0 -270 -90z" />
<glyph unicode="&#xa5;" d="M172 1352l16 82h607l-15 -78l-84 -19q-35 -7 -54.5 -40.5t-0.5 -84.5l152 -409l307 389q43 53 43 88q0 16 -13 33t-40 24l-72 19l14 78h451l-17 -82l-36 -9q-38 -8 -73 -33.5t-56.5 -50t-57.5 -71.5l-375 -483h260l-24 -123h-287l-26 -131h288l-24 -123h-287l-29 -140 q-13 -62 39 -77l117 -29l-14 -82h-635l14 82l119 33q47 14 53 61l29 152h-287l25 123h286l25 131h-287l25 123h260l-197 516q-21 57 -44.5 81.5t-53.5 34.5z" />
<glyph unicode="&#xa8;" horiz-adv-x="983" d="M328 1376q0 79 44 129.5t120 50.5q16 0 30.5 -3t38.5 -13.5t38.5 -38.5t14.5 -71q0 -79 -43.5 -130t-119.5 -51q-12 0 -23 1t-30.5 8.5t-33.5 19.5t-25 37.5t-11 60.5zM758 1376q0 79 44 129.5t120 50.5q16 0 30.5 -3t38.5 -13.5t38.5 -38.5t14.5 -71q0 -79 -43.5 -130 t-119.5 -51q-12 0 -23 1t-30.5 8.5t-33.5 19.5t-25 37.5t-11 60.5z" />
<glyph unicode="&#xa9;" horiz-adv-x="1761" d="M123 717q0 152 59.5 290t160.5 237.5t242 158.5t296 59t295.5 -59t241.5 -158.5t160.5 -237.5t59.5 -290q0 -203 -100.5 -374.5t-275 -271.5t-381.5 -100q-155 0 -296 59t-242 159t-160.5 238t-59.5 290zM254 717q0 -128 49 -243t132.5 -198.5t200 -132.5t245.5 -49 q172 0 316 83t227 226.5t83 313.5t-83 313t-227 226t-316 83t-316.5 -83t-227.5 -226t-83 -313zM461 715q0 124 46 214t116 142q61 48 143 72t166 24q80 0 158 -20q73 -20 94 -23l26 -237h-90l-26 71q-15 42 -56 72q-45 35 -112 35q-98 0 -156 -80q-63 -91 -63 -258 q0 -140 47 -229q33 -61 84.5 -91t103.5 -30q60 0 111 39q41 32 53 69l24 64h91l-31 -221q-29 -4 -90 -23q-103 -31 -189 -31q-207 0 -331 129q-119 126 -119 312z" />
<glyph unicode="&#xab;" horiz-adv-x="1105" d="M164 532l696 472l62 -78l-451 -394l291 -405l-82 -66zM606 532l430 318l49 -57l-254 -261l154 -268l-61 -49z" />
<glyph unicode="&#xad;" horiz-adv-x="901" d="M188 512l37 205h615l-37 -205h-615z" />
<glyph unicode="&#xae;" horiz-adv-x="1761" d="M123 717q0 152 59.5 290t160.5 237.5t242 158.5t296 59t295.5 -59t241.5 -158.5t160.5 -237.5t59.5 -290q0 -203 -100.5 -374.5t-275 -271.5t-381.5 -100q-155 0 -296 59t-242 159t-160.5 238t-59.5 290zM254 717q0 -128 49 -243t132.5 -198.5t200 -132.5t245.5 -49 q172 0 316 83t227 226.5t83 313.5t-83 313t-227 226t-316 83t-316.5 -83t-227.5 -226t-83 -313zM508 307v74l59 18q25 7 25 37v582q0 30 -25 37l-59 18v74h184q63 0 125 6q63 6 117 6q130 0 199 -51q37 -27 60.5 -73t23.5 -95q0 -94 -76 -160q-57 -48 -154 -63v-4 q40 -6 73 -28t49.5 -44t33.5 -53l82 -152q27 -51 61 -55v-74h-244l-153 326q-24 49 -70 49h-12v-246q0 -29 24 -37l60 -18v-74h-383zM807 788q27 -10 55 -10q76 0 111 49q26 36 26 105q0 64 -30 94q-31 31 -86 31q-45 0 -76 -15v-254z" />
<glyph unicode="&#xb4;" horiz-adv-x="983" d="M586 1229l8 41l262 286h307l-14 -69l-461 -258h-102z" />
<glyph unicode="&#xb8;" horiz-adv-x="983" d="M233 -492l48 103h81q76 0 113 12q60 20 60 76q0 34 -25 51q-24 17 -78 17h-78l115 233h102l-59 -123h37q35 0 53.5 -1t47 -10t52.5 -26q64 -46 64 -123q0 -123 -123 -174q-80 -35 -266 -35h-144z" />
<glyph unicode="&#xbb;" horiz-adv-x="1105" d="M143 272l254 260l-153 269l61 49l318 -318l-430 -317zM307 139l451 393l-291 406l82 66l516 -472l-696 -471z" />
<glyph unicode="&#x2c6;" horiz-adv-x="983" d="M258 1229l8 41l301 286h287l190 -286l-8 -41h-102l-236 164l-338 -164h-102z" />
<glyph unicode="&#x2da;" horiz-adv-x="983" d="M483 1360q0 116 95 184q75 53 182 53q110 0 170 -55q61 -55 61 -141q0 -117 -94 -184q-73 -54 -180 -54q-111 0 -172 56q-62 56 -62 141zM606 1360q0 -47 23 -76q31 -39 94 -39t102 39q43 43 43 117q0 48 -22 76q-31 39 -94 39q-64 0 -103 -39q-43 -43 -43 -117z" />
<glyph unicode="&#x2dc;" horiz-adv-x="983" d="M311 1352q48 72 121 125q65 47 146 47q59 0 159 -54q1 0 13 -6.5t14.5 -8t13.5 -6.5t16.5 -6.5t15.5 -4t19 -3.5t19 -1q40 0 80 30q33 26 57 60l68 -82q-64 -84 -123 -125q-65 -47 -144 -47q-67 0 -159 53q-72 37 -113 37q-38 0 -80 -31q-37 -30 -55 -59z" />
<glyph unicode="&#x401;" horiz-adv-x="1249" d="M20 0l17 90l98 33q42 14 51 61l207 1053q12 65 -39 78l-96 28l16 91h1069l-75 -390h-123l-6 115q-1 27 -12.5 55t-26.5 43q-33 33 -105 33h-266l-92 -479h168q45 0 74 23q20 18 41 59l32 70h111l-90 -471h-111l-6 94q-5 42 -22 59q-23 23 -66 23h-160l-86 -443 q-9 -37 -1.5 -55t15.5 -22.5t23 -4.5h248q59 0 119 37q21 14 41.5 38.5t29.5 47.5l56 133h123l-78 -399h-1078zM514 1655q0 77 44 122.5t114 45.5q63 0 98 -37.5t35 -102.5q0 -77 -44 -122t-114 -45q-63 0 -98 37t-35 102zM928 1655q0 77 43.5 122.5t113.5 45.5 q63 0 98.5 -37.5t35.5 -102.5q0 -77 -44 -122t-114 -45q-63 0 -98 37t-35 102z" />
<glyph unicode="&#x402;" horiz-adv-x="1720" d="M176 1004l84 430h1247l-84 -430h-123l-10 143q-5 74 -41 110q-33 33 -98 33h-139l-99 -512q149 41 301 41q204 0 316 -82q137 -99 137 -288q0 -185 -135 -316q-167 -162 -434 -162q-123 0 -178 47q-56 44 -56 115q0 69 43.5 115.5t122.5 46.5q48 0 98 -21q-19 -75 0 -113 t64 -38q38 0 67 30t46 70q34 80 34 183q0 127 -53 196q-33 45 -75.5 59.5t-96.5 14.5q-119 0 -231 -53l-121 -623h-479l16 90l119 33q40 11 51 61l215 1106h-125q-69 0 -113 -33q-42 -27 -75 -98l-72 -155h-123z" />
<glyph unicode="&#x403;" horiz-adv-x="1167" d="M20 0l17 90l98 33q42 14 51 61l207 1053q12 65 -39 78l-96 28l16 91h1049l-84 -430h-123l-10 149q-7 76 -39 104q-33 33 -104 33h-234l-213 -1093q-8 -37 6 -55t33 -23l117 -29l-17 -90h-635zM668 1556l8 41l340 267h327l-14 -70l-559 -238h-102z" />
<glyph unicode="&#x404;" horiz-adv-x="1392" d="M164 606q0 198 66.5 348.5t162.5 253.5q243 254 639 254q134 0 252 -32q17 -4 48 -13t58 -14.5t64 -9.5l-43 -398h-111l-20 119q-14 90 -72 148q-69 69 -188 69q-124 0 -213.5 -57t-157.5 -170q-81 -132 -110 -293h319q44 0 74 23q28 21 43 59l29 70h102l-90 -471h-103 l-10 94q-5 44 -20 59q-20 23 -66 23h-301q-11 -121 6 -248.5t74 -208.5q77 -109 221 -109q127 0 227 76q78 57 119 141l54 111h110l-90 -369q-42 -6 -143 -38q-161 -52 -314 -52q-233 0 -391 123q-225 179 -225 512z" />
<glyph unicode="&#x405;" horiz-adv-x="1085" d="M41 41l76 389h110v-86q0 -96 45 -158q59 -84 187 -84q129 0 205 80q65 65 65 170q0 41 -10.5 74.5t-31.5 59t-37 40t-42 33.5l-211 154q-166 122 -166 305q0 106 49 203t160 161q141 80 355 80q64 0 200 -16q30 -4 63 -6.5t58 -3.5t31 -2l-74 -385h-110v84q0 83 -41 135 q-49 63 -152 63q-96 0 -152 -45q-67 -54 -67 -160q0 -115 96 -184l205 -151q39 -29 59.5 -46t53 -51t49 -65t30 -78.5t13.5 -101.5q0 -80 -21 -148t-56 -115t-67.5 -76.5t-68.5 -52.5q-140 -86 -357 -86q-64 0 -121.5 7t-92 14.5t-95.5 23.5q-84 23 -137 25z" />
<glyph unicode="&#x406;" horiz-adv-x="753" d="M20 0l17 90l98 33q42 14 51 61l207 1053q12 65 -39 78l-96 28l16 91h615l-17 -91l-98 -32q-42 -14 -51 -62l-207 -1052q-12 -65 39 -78l96 -29l-16 -90h-615z" />
<glyph unicode="&#x407;" horiz-adv-x="753" d="M20 0l17 90l98 33q42 14 51 61l207 1053q12 65 -39 78l-96 28l16 91h615l-17 -91l-98 -32q-42 -14 -51 -62l-207 -1052q-12 -65 39 -78l96 -29l-16 -90h-615zM266 1655q0 77 44 122.5t114 45.5q63 0 98 -37.5t35 -102.5q0 -77 -44 -122t-114 -45q-63 0 -98 37t-35 102z M659 1655q0 77 44 122.5t114 45.5q63 0 98 -37.5t35 -102.5q0 -77 -43.5 -122t-113.5 -45q-63 0 -98.5 37t-35.5 102z" />
<glyph unicode="&#x408;" horiz-adv-x="753" d="M-426 -342q0 100 84 148.5t186 9.5q-3 -47 25 -79t72 -32q65 0 118 59q49 56 64 130l270 1343q13 66 -39 78l-96 28l16 91h615l-17 -91l-98 -32q-42 -14 -51 -62l-217 -1112q-17 -90 -54.5 -172.5t-78 -138.5t-91.5 -106t-86.5 -76.5t-72.5 -49.5q-178 -114 -338 -114 q-98 0 -154.5 52t-56.5 126z" />
<glyph unicode="&#x409;" horiz-adv-x="1998" d="M-41 129q0 86 41 133q26 31 66 42.5t90 -9.5q-2 -30 16.5 -50t50.5 -20q93 0 152 127q46 99 131 416q86 322 86 422q0 99 -98 125l-95 24l19 95h1138l-16 -91l-98 -32q-42 -14 -51 -62l-84 -430q111 21 184 21q209 0 328 -99q127 -107 127 -292q0 -221 -174 -345 q-71 -49 -163 -76.5t-175 -27.5h-746l17 90l98 33q42 14 51 61l215 1106h-156q-54 0 -96 -37q-22 -20 -39.5 -54t-25.5 -59.5t-19 -66.5q-11 -42 -23.5 -95.5t-26 -105.5t-34.5 -127q-78 -282 -127 -413.5t-129 -229.5q-107 -131 -252 -131q-79 0 -127 39q-55 44 -55 119z M1178 156q78 -25 139 -25q117 0 190 70q47 45 75 117.5t28 162.5q0 92 -37 148q-52 80 -160 80q-59 0 -133 -29z" />
<glyph unicode="&#x40a;" horiz-adv-x="2154" d="M20 0l17 90l98 33q42 14 51 61l207 1053q12 65 -39 78l-96 28l16 91h615l-17 -91l-98 -32q-42 -14 -51 -62l-82 -418h498l78 406q12 65 -39 78l-97 28l17 91h614l-16 -91l-99 -32q-42 -14 -51 -62l-84 -430q111 21 185 21q208 0 327 -99q127 -107 127 -292 q0 -221 -174 -345q-71 -49 -163 -76.5t-175 -27.5h-745l16 90l98 33q43 14 52 61l100 504h-498l-96 -491q-12 -65 39 -78l96 -29l-16 -90h-615zM1333 156q78 -25 140 -25q117 0 190 70q46 45 74 117.5t28 162.5q0 93 -36 148q-52 80 -160 80q-59 0 -133 -29z" />
<glyph unicode="&#x40b;" horiz-adv-x="1699" d="M176 1004l84 430h1247l-84 -430h-123l-10 143q-5 74 -41 110q-33 33 -98 33h-139l-99 -512q138 41 281 41q181 0 270 -53q141 -85 105 -283l-58 -286q-12 -60 39 -78l84 -29l-16 -90h-602l16 90l98 33q43 14 52 61l67 344q16 86 -30 125q-39 35 -119 35q-116 0 -215 -53 l-86 -438q-13 -61 39 -78l84 -29l-17 -90h-622l16 90l119 33q40 11 51 61l215 1106h-125q-69 0 -113 -33q-42 -27 -75 -98l-72 -155h-123z" />
<glyph unicode="&#x40c;" horiz-adv-x="1474" d="M20 0l17 90l98 33q42 14 51 61l207 1053q12 65 -39 78l-96 28l16 91h615l-17 -91l-98 -32q-42 -14 -51 -62l-84 -430h66q70 0 120 29q55 31 107 117l160 274l13.5 22.5l13.5 22.5l12 20t13.5 21l13.5 18t16 19.5t16.5 17t19.5 17.5q79 65 185 65q90 0 136 -46.5 t46 -112.5q0 -90 -68 -144q-59 -46 -137 -37q-2 31 -20.5 52.5t-48.5 21.5q-32 0 -66 -27q-27 -23 -51 -69l-105 -189q-66 -120 -166 -157q84 -18 136 -76q40 -45 77 -172l72 -246q7 -27 13.5 -43.5t21.5 -39.5t40.5 -34.5t61.5 -11.5q54 0 109 31l-21 -111 q-184 -80 -297 -80q-94 0 -153 37q-48 30 -70.5 75t-38.5 110l-82 317q-21 83 -36 108q-34 58 -97 58h-41l-94 -479q-12 -65 39 -78l96 -29l-16 -90h-615zM831 1556l9 41l340 267h327l-14 -70l-559 -238h-103z" />
<glyph unicode="&#x40e;" horiz-adv-x="1392" d="M205 1343l16 91h635l-16 -91l-74 -16q-80 -18 -51 -106l174 -525h4l283 471q34 57 34 86q0 31 -19 48.5t-44 23.5l-66 18l17 91h471l-17 -91l-36 -8q-50 -10 -95 -49q-40 -34 -94 -123l-571 -940q-76 -123 -162 -186q-92 -66 -203 -66q-80 0 -123 37q-49 43 -49 125 q0 79 45 129q37 41 93 51t104 -10q-2 -32 16.5 -55t57.5 -23q35 0 63 21q10 6 27.5 24.5t23.5 28.5l31 47l-303 854q-16 50 -47 84q-25 29 -82 47zM676 1704q0 56 39.5 97.5t118.5 41.5q66 0 116 -18q-20 -39 -20 -80q0 -56 35 -84q32 -23 77 -23q94 0 193 54 q107 59 186 151l74 -74q-90 -104 -209 -172q-141 -81 -317 -81q-153 0 -224 55q-69 51 -69 133z" />
<glyph unicode="&#x40f;" horiz-adv-x="1556" d="M20 0l17 90l98 33q42 14 51 61l207 1053q12 65 -39 78l-96 28l16 91h615l-17 -91l-98 -32q-42 -14 -51 -62l-219 -1106h477l215 1094q12 65 -39 78l-96 28l16 91h615l-17 -91l-98 -32q-42 -14 -51 -62l-207 -1052q-12 -65 39 -78l96 -29l-16 -90h-625v-397 q-13 -58 -57 -90.5t-103 -32.5q-57 0 -92.5 33t-32.5 90l146 397h-654z" />
<glyph unicode="&#x410;" horiz-adv-x="1474" d="M-41 0l16 90l31 12q49 21 88 60q48 48 80 110l657 1190h246q0 -85 17 -168l211 -1030q0 -2 2.5 -14.5t3 -15.5t3 -13.5t4 -15t4.5 -13t5.5 -14t6.5 -13t9 -13.5q32 -45 70 -56l21 -6l-17 -90h-606l16 90l78 16q18 4 28.5 8t22 18.5t11.5 37.5q0 16 -9 63l-45 246h-467 l-118 -223q-31 -60 -31 -92q0 -16 5.5 -28t17.5 -18.5t16.5 -8.5t15.5 -5l64 -14l-17 -90h-440zM530 623h355l-84 503h-4z" />
<glyph unicode="&#x411;" horiz-adv-x="1331" d="M20 0l17 90l98 33q42 14 51 61l207 1053q12 65 -39 78l-96 28l16 91h1078l-76 -390h-123l-8 115q-4 68 -37 98q-33 33 -104 33h-275l-90 -471q111 21 184 21q209 0 328 -99q127 -107 127 -292q0 -221 -174 -345q-71 -49 -163 -76.5t-175 -27.5h-746zM510 156 q78 -25 139 -25q118 0 191 70q46 45 74 117.5t28 162.5q0 92 -37 148q-53 80 -157 80q-65 0 -136 -29z" />
<glyph unicode="&#x412;" horiz-adv-x="1372" d="M20 0l17 90l98 33q42 14 51 61l207 1053q12 65 -39 78l-96 28l16 91h344q26 0 80.5 2.5t73.5 3.5q115 6 154 6q154 0 250 -55q65 -38 102 -103t37 -141q0 -125 -88 -219q-94 -100 -244 -135v-5q123 -16 205 -83q110 -90 110 -256q0 -223 -182 -347q-150 -102 -373 -102 h-723zM510 156q78 -25 139 -25q125 0 205 70q52 43 80.5 114.5t28.5 159.5q0 94 -43 152q-25 34 -60 52.5t-61 22t-64 3.5h-119zM643 848h84q100 0 166 53q12 10 24 23t30 40t29 68.5t11 89.5q0 90 -37 138q-42 55 -123 55q-47 0 -96 -17z" />
<glyph unicode="&#x413;" horiz-adv-x="1167" d="M20 0l17 90l98 33q42 14 51 61l207 1053q12 65 -39 78l-96 28l16 91h1049l-84 -430h-123l-10 149q-7 76 -39 104q-33 33 -104 33h-234l-213 -1093q-8 -37 6 -55t33 -23l117 -29l-17 -90h-635z" />
<glyph unicode="&#x414;" horiz-adv-x="1392" d="M-90 -356l98 499h41q101 0 252 281q92 170 162 389q90 283 90 375q0 104 -100 127l-95 24l19 95h1151l-17 -91l-98 -32q-42 -14 -51 -62l-203 -1024q-9 -37 -1.5 -55t15.5 -22.5t23 -4.5h154l-99 -499h-131l-22 209q-5 63 -29 102q-19 29 -42.5 37t-55.5 8h-641 q-70 0 -115 -45q-43 -43 -70 -102l-104 -209h-131zM315 143h504l221 1147h-155q-57 0 -94 -35q-41 -38 -66 -131q-4 -16 -24.5 -90.5t-31.5 -112.5t-34.5 -114t-42.5 -130t-47 -123t-56 -128q-78 -163 -174 -283z" />
<glyph unicode="&#x415;" horiz-adv-x="1249" d="M20 0l17 90l98 33q42 14 51 61l207 1053q12 65 -39 78l-96 28l16 91h1069l-75 -390h-123l-6 115q-1 27 -12.5 55t-26.5 43q-33 33 -105 33h-266l-92 -479h168q45 0 74 23q20 18 41 59l32 70h111l-90 -471h-111l-6 94q-5 42 -22 59q-23 23 -66 23h-160l-86 -443 q-9 -37 -1.5 -55t15.5 -22.5t23 -4.5h248q59 0 119 37q21 14 41.5 38.5t29.5 47.5l56 133h123l-78 -399h-1078z" />
<glyph unicode="&#x416;" horiz-adv-x="2048" d="M-41 51l21 111q48 -31 94 -31q76 0 131 94l147 262q73 132 150 191q88 69 203 76q-36 15 -60 49t-41 110l-43 187q-12 53 -26 76q-21 28 -58 28q-26 0 -47 -16t-27 -45q-60 -23 -110.5 15t-50.5 108q0 79 54 137.5t157 58.5q108 0 168 -67q54 -62 86 -217l45 -213 q15 -78 57 -117q31 -29 90 -29h59l82 418q12 65 -39 78l-96 28l17 91h594l-17 -91l-98 -32q-42 -14 -51 -62l-86 -430h73q57 0 101 29q44 30 90 115l145 274q57 108 121 160q80 65 184 65q89 0 135 -46t46 -109q0 -86 -68 -133q-55 -41 -135 -33q-1 31 -21.5 47t-44.5 16 q-36 0 -65 -26q-21 -18 -51 -76l-99 -189q-65 -122 -176 -159q88 -14 150 -76q36 -36 51 -75.5t24 -96.5l39 -246q3 -17 5.5 -29t12 -32.5t23 -34t38 -23.5t56.5 -10q57 0 111 31l-20 -111q-173 -80 -277 -80q-94 0 -153 37q-92 59 -109 185l-41 317q-9 75 -37 113 q-35 53 -96 53h-41l-92 -479q-12 -65 39 -78l96 -29l-16 -90h-594l16 90l98 33q43 14 52 61l96 492h-58q-63 0 -112 -49q-11 -12 -23 -29.5t-17.5 -28t-21 -40t-18.5 -35.5l-152 -301q-74 -144 -184 -191q-73 -31 -172 -31q-104 0 -213 80z" />
<glyph unicode="&#x417;" horiz-adv-x="1167" d="M41 41l76 389h123l12 -102q14 -112 57 -164q51 -62 142 -62q120 0 198 78q51 49 78 125t27 156q0 108 -39 170q-29 46 -69.5 62t-94.5 16q-64 0 -139 -21l30 152h168q79 0 140 61q73 77 73 211q0 108 -43 162q-43 57 -139 57q-71 0 -123 -35q-28 -19 -51.5 -47.5 t-35.5 -50.5t-28 -57l-43 -92h-122l73 385q74 2 168 12q144 16 213 16q190 0 303 -55q50 -25 85 -59t51 -69.5t22 -63t6 -54.5q0 -60 -26 -121.5t-74 -111.5q-106 -111 -273 -135v-5q123 -16 205 -83q111 -93 111 -254q0 -80 -24 -148t-64.5 -115.5t-79 -78.5t-82.5 -54 q-162 -84 -412 -84q-135 0 -250 33q-18 5 -44.5 13t-50 14t-54.5 10z" />
<glyph unicode="&#x418;" horiz-adv-x="1597" d="M20 0l17 90l98 33q42 14 51 61l207 1053q12 65 -39 78l-96 28l16 91h615l-17 -91l-98 -32q-42 -14 -51 -62l-152 -770l660 729l6 29q7 35 -5.5 54t-33.5 24l-96 28l16 91h615l-17 -91l-98 -32q-42 -14 -51 -62l-207 -1052q-12 -65 39 -78l96 -29l-16 -90h-615l17 90 l98 33q42 14 51 61l154 783l-658 -729l-10 -41q-12 -62 39 -78l96 -29l-16 -90h-615z" />
<glyph unicode="&#x419;" horiz-adv-x="1597" d="M20 0l17 90l98 33q42 14 51 61l207 1053q12 65 -39 78l-96 28l16 91h615l-17 -91l-98 -32q-42 -14 -51 -62l-152 -770l660 729l6 29q7 35 -5.5 54t-33.5 24l-96 28l16 91h615l-17 -91l-98 -32q-42 -14 -51 -62l-207 -1052q-12 -65 39 -78l96 -29l-16 -90h-615l17 90 l98 33q42 14 51 61l154 783l-658 -729l-10 -41q-12 -62 39 -78l96 -29l-16 -90h-615zM696 1704q0 56 39.5 97.5t118.5 41.5q67 0 117 -18q-21 -41 -21 -80q0 -56 35 -84q32 -23 78 -23q93 0 192 54q109 60 187 151l74 -74q-90 -104 -209 -172q-141 -81 -318 -81 q-152 0 -223 55q-70 52 -70 133z" />
<glyph unicode="&#x41a;" horiz-adv-x="1474" d="M20 0l17 90l98 33q42 14 51 61l207 1053q12 65 -39 78l-96 28l16 91h615l-17 -91l-98 -32q-42 -14 -51 -62l-84 -430h66q70 0 120 29q55 31 107 117l160 274l13.5 22.5l13.5 22.5l12 20t13.5 21l13.5 18t16 19.5t16.5 17t19.5 17.5q79 65 185 65q90 0 136 -46.5 t46 -112.5q0 -90 -68 -144q-59 -46 -137 -37q-2 31 -20.5 52.5t-48.5 21.5q-32 0 -66 -27q-27 -23 -51 -69l-105 -189q-66 -120 -166 -157q84 -18 136 -76q40 -45 77 -172l72 -246q7 -27 13.5 -43.5t21.5 -39.5t40.5 -34.5t61.5 -11.5q54 0 109 31l-21 -111 q-184 -80 -297 -80q-94 0 -153 37q-48 30 -70.5 75t-38.5 110l-82 317q-21 83 -36 108q-34 58 -97 58h-41l-94 -479q-12 -65 39 -78l96 -29l-16 -90h-615z" />
<glyph unicode="&#x41b;" horiz-adv-x="1433" d="M-41 129q0 86 41 133q26 31 66 42.5t90 -9.5q-2 -30 16.5 -50t50.5 -20q93 0 152 127q46 99 131 416q86 322 86 422q0 99 -98 125l-95 24l19 95h1151l-17 -91l-110 -32q-42 -14 -51 -62l-209 -1065q-12 -47 30 -61l97 -33l-19 -90h-614l18 90l109 33q42 14 51 61 l215 1106h-156q-54 0 -96 -37q-22 -20 -39.5 -54t-25.5 -59.5t-19 -66.5q-11 -42 -23.5 -95.5t-26 -105.5t-34.5 -127q-78 -282 -127 -413.5t-129 -229.5q-107 -131 -252 -131q-79 0 -127 39q-55 44 -55 119z" />
<glyph unicode="&#x41c;" horiz-adv-x="1904" d="M20 0l17 90l90 37q53 20 68 86l239 1024q15 60 -39 78l-96 28l16 91h471q0 -69 21 -177l178 -815h4l496 832q50 85 76 160h454l-16 -91l-98 -32q-46 -17 -52 -62l-170 -1052q-8 -65 39 -78l97 -29l-17 -90h-614l16 90l98 33q46 17 52 61l133 809h-4l-541 -895 q-44 -72 -57 -127h-144q-4 103 -16 160l-191 862h-4l-178 -788q-6 -27 4 -50t35 -32l96 -33l-16 -90h-447z" />
<glyph unicode="&#x41d;" horiz-adv-x="1576" d="M20 0l17 90l98 33q42 14 51 61l207 1053q12 65 -39 78l-96 28l16 91h615l-17 -91l-98 -32q-42 -14 -51 -62l-82 -418h498l78 406q12 65 -39 78l-97 28l17 91h614l-16 -91l-99 -32q-42 -14 -51 -62l-207 -1052q-12 -65 39 -78l97 -29l-17 -90h-614l16 90l98 33 q43 14 52 61l100 504h-498l-96 -491q-12 -65 39 -78l96 -29l-16 -90h-615z" />
<glyph unicode="&#x41e;" horiz-adv-x="1556" d="M164 598q0 168 54 329t159 281q220 254 596 254q103 0 194 -25.5t176 -97.5q205 -177 205 -503q0 -187 -57.5 -343.5t-155.5 -267.5q-224 -254 -596 -254q-103 0 -194 25.5t-176 97.5q-205 173 -205 504zM512 549q0 -219 68 -338q61 -109 184 -109q193 0 315 228 q61 114 91 260.5t30 294.5q0 220 -67 338q-61 108 -185 108q-194 0 -315 -227q-61 -114 -91 -260.5t-30 -294.5z" />
<glyph unicode="&#x41f;" horiz-adv-x="1556" d="M20 0l17 90l98 33q42 14 51 61l207 1053q12 65 -39 78l-96 28l16 91h1418l-17 -91l-98 -32q-42 -14 -51 -62l-207 -1052q-12 -65 39 -78l96 -29l-16 -90h-615l17 90l98 33q42 14 51 61l219 1106h-477l-215 -1093q-12 -65 39 -78l96 -29l-16 -90h-615z" />
<glyph unicode="&#x420;" horiz-adv-x="1331" d="M20 0l17 90l98 33q42 14 51 61l207 1053q12 65 -39 78l-96 28l16 91h258q37 0 166 6q169 6 191 6q256 0 364 -90q119 -102 119 -293q0 -244 -192 -373q-155 -104 -406 -104q-93 0 -178 16l-80 -405q-8 -37 6 -55t33 -23l117 -29l-17 -90h-635zM625 745q61 -28 114 -28 q46 0 95 16.5t84 48.5q50 46 78 133t28 164q0 112 -49 174q-50 62 -144 62q-47 0 -100 -17z" />
<glyph unicode="&#x421;" horiz-adv-x="1392" d="M164 606q0 198 66.5 348.5t162.5 253.5q243 254 639 254q134 0 252 -32q17 -4 48 -13t58 -14.5t64 -9.5l-43 -398h-123l-20 119q-16 93 -68 148q-65 69 -180 69q-124 0 -213.5 -57t-157.5 -170q-69 -115 -103 -261t-34 -292q0 -219 84 -340q77 -109 221 -109 q123 0 219 76q75 60 115 141l53 111h123l-90 -369q-42 -6 -143 -38q-161 -52 -314 -52q-233 0 -391 123q-225 179 -225 512z" />
<glyph unicode="&#x422;" horiz-adv-x="1331" d="M176 1004l84 430h1227l-84 -430h-123l-10 143q-5 74 -41 110q-33 33 -99 33h-116l-213 -1093q-8 -37 6 -55t33 -23l116 -29l-16 -90h-655l16 90l119 33q40 11 51 61l215 1106h-127q-69 0 -113 -33q-42 -27 -75 -98l-72 -155h-123z" />
<glyph unicode="&#x423;" horiz-adv-x="1392" d="M205 1343l16 91h635l-16 -91l-74 -16q-80 -18 -51 -106l174 -525h4l283 471q34 57 34 86q0 31 -19 48.5t-44 23.5l-66 18l17 91h471l-17 -91l-36 -8q-50 -10 -95 -49q-40 -34 -94 -123l-571 -940q-76 -123 -162 -186q-92 -66 -203 -66q-80 0 -123 37q-49 43 -49 125 q0 79 45 129q37 41 93 51t104 -10q-2 -32 16.5 -55t57.5 -23q35 0 63 21q10 6 27.5 24.5t23.5 28.5l31 47l-303 854q-16 50 -47 84q-25 29 -82 47z" />
<glyph unicode="&#x424;" horiz-adv-x="1843" d="M164 711q0 93 26 178.5t79.5 162t144 136t209.5 90.5q159 41 333 37l5 24q1 11 2 25.5t-9.5 31t-31.5 21.5l-117 29l16 90h635l-16 -90l-119 -33q-42 -11 -51 -61l-6 -37q85 0 183.5 -21.5t176.5 -66.5q219 -129 219 -389q0 -92 -26.5 -177.5t-79.5 -162.5t-142 -137 t-206 -91q-150 -41 -336 -37l-9 -36q-8 -37 6.5 -55t32.5 -23l117 -29l-16 -90h-635l16 90l119 33q40 11 51 61l10 49q-85 0 -182.5 21.5t-177.5 67.5q-221 128 -221 389zM512 686q0 -165 72 -254q68 -85 184 -88l166 860q-109 -3 -197 -51q-109 -60 -167 -190.5t-58 -276.5 zM1075 344q109 3 197 51q107 59 165 185t58 286q0 163 -70 250q-68 85 -184 88z" />
<glyph unicode="&#x425;" horiz-adv-x="1433" d="M-41 0l16 90l64 21q106 34 233 176l365 405l-254 529q-41 86 -127 110l-43 12l16 91h643l-16 -91l-74 -16q-41 -9 -53.5 -37.5t6.5 -68.5l137 -306l254 297q29 36 29 72t-41 43l-72 16l15 91h499l-14 -91l-45 -8q-45 -8 -90.5 -37.5t-68 -52t-52.5 -57.5l-346 -400 l262 -532q1 -1 8 -16t10 -19.5t11 -19t13 -21t14.5 -19t18 -19.5t19.5 -16t23.5 -14.5t26.5 -9.5l47 -12l-17 -90h-659l16 88l53 10q80 14 80 84q0 37 -37 115l-120 264l-267 -299q-47 -59 -47 -100q0 -20 13.5 -37t40.5 -23l63 -12l-16 -90h-537z" />
<glyph unicode="&#x426;" horiz-adv-x="1556" d="M20 0l17 90l98 33q42 14 51 61l207 1053q12 65 -39 78l-96 28l16 91h615l-17 -91l-98 -32q-42 -14 -51 -62l-219 -1106h477l215 1094q12 65 -39 78l-96 28l16 91h615l-17 -91l-98 -32q-42 -14 -51 -62l-203 -1024q-9 -37 -1.5 -55t15.5 -22.5t23 -4.5h153l-98 -499h-131 l-22 209q-5 63 -29 102q-19 29 -42.5 37t-55.5 8h-1115z" />
<glyph unicode="&#x427;" horiz-adv-x="1413" d="M205 1343l16 91h615l-17 -91l-98 -32q-42 -14 -51 -62l-68 -344q-15 -85 31 -125q39 -35 119 -35q115 0 215 54l86 438q13 61 -39 78l-84 28l16 91h602l-16 -91l-98 -32q-43 -14 -52 -62l-206 -1052q-12 -65 38 -78l97 -29l-17 -90h-635l17 90l119 33q40 11 51 61l92 471 q-138 -41 -281 -41q-180 0 -270 54q-140 84 -104 282l57 287q13 66 -39 78z" />
<glyph unicode="&#x428;" horiz-adv-x="2232" d="M20 0l17 90l98 33q42 14 51 61l207 1053q12 65 -39 78l-96 28l16 91h615l-17 -91l-98 -32q-42 -14 -51 -62l-217 -1106h412l215 1094q12 65 -39 78l-97 28l17 91h614l-16 -91l-99 -32q-42 -14 -51 -62l-217 -1106h412l215 1094q12 65 -39 78l-96 28l16 91h614l-16 -91 l-98 -32q-42 -14 -51 -62l-207 -1052q-12 -65 39 -78l96 -29l-16 -90h-2094z" />
<glyph unicode="&#x429;" horiz-adv-x="2232" d="M20 0l17 90l98 33q42 14 51 61l207 1053q12 65 -39 78l-96 28l16 91h615l-17 -91l-98 -32q-42 -14 -51 -62l-217 -1106h412l215 1094q12 65 -39 78l-97 28l17 91h614l-16 -91l-99 -32q-42 -14 -51 -62l-217 -1106h412l215 1094q12 65 -39 78l-96 28l16 91h614l-16 -91 l-98 -32q-42 -14 -51 -62l-203 -1024q-9 -37 -1.5 -55t15.5 -22.5t23 -4.5h153l-98 -499h-131l-23 209q-5 65 -28 102q-19 29 -42.5 37t-56.5 8h-1790z" />
<glyph unicode="&#x42a;" horiz-adv-x="1597" d="M176 1004l84 430h895l-16 -91l-99 -32q-42 -14 -51 -62l-84 -430q111 21 185 21q208 0 327 -99q127 -107 127 -292q0 -221 -174 -345q-71 -49 -163 -76.5t-175 -27.5h-745l16 90l98 33q43 14 52 61l215 1106h-109q-69 0 -113 -33q-42 -27 -75 -98l-72 -155h-123zM776 156 q78 -25 139 -25q118 0 191 70q46 45 74 117.5t28 162.5q0 92 -37 148q-52 80 -159 80q-59 0 -133 -29z" />
<glyph unicode="&#x42b;" horiz-adv-x="2007" d="M20 0l17 90l98 33q42 14 51 61l207 1053q12 65 -39 78l-96 28l16 91h615l-17 -91l-98 -32q-42 -14 -51 -62l-84 -430q111 21 184 21q209 0 328 -99q127 -107 127 -292q0 -221 -174 -345q-71 -49 -163 -76.5t-175 -27.5h-746zM510 156q78 -25 139 -25q118 0 191 70 q46 45 74 117.5t28 162.5q0 92 -37 148q-52 80 -160 80q-59 0 -133 -29zM1274 0l16 90l99 33q42 14 51 61l207 1053q12 65 -39 78l-97 28l17 91h614l-16 -91l-98 -32q-43 -14 -52 -62l-207 -1052q-12 -65 39 -78l97 -29l-17 -90h-614z" />
<glyph unicode="&#x42c;" horiz-adv-x="1331" d="M20 0l17 90l98 33q42 14 51 61l207 1053q12 65 -39 78l-96 28l16 91h615l-17 -91l-98 -32q-42 -14 -51 -62l-84 -430q111 21 184 21q209 0 328 -99q127 -107 127 -292q0 -221 -174 -345q-71 -49 -163 -76.5t-175 -27.5h-746zM510 156q78 -25 139 -25q118 0 191 70 q46 45 74 117.5t28 162.5q0 92 -37 148q-52 80 -160 80q-59 0 -133 -29z" />
<glyph unicode="&#x42d;" horiz-adv-x="1392" d="M41 41l76 389h123l18 -111q16 -96 76 -151q73 -66 194 -66q252 0 387 228q45 77 70.5 169t32.5 169h-295q-43 0 -78 -23q-32 -25 -51 -63l-45 -90h-111l90 471h111l8 -70q4 -40 23 -59q23 -23 63 -23h299q10 105 -7.5 222.5t-68.5 189.5q-76 108 -233 108 q-113 0 -201 -65q-54 -39 -104 -131l-58 -111h-122l79 410q73 0 191 8q38 3 124.5 11.5t133.5 8.5q244 0 397 -123q221 -175 221 -514q0 -180 -57 -335.5t-156 -264.5q-236 -254 -655 -254q-168 0 -334 39q-107 26 -141 31z" />
<glyph unicode="&#x42e;" horiz-adv-x="2252" d="M20 0l17 90l98 33q42 14 51 61l207 1053q12 65 -39 78l-96 28l16 91h615l-17 -91l-98 -32q-42 -14 -51 -62l-82 -418h262q49 230 199 396q115 126 255.5 180.5t311.5 54.5q226 0 371 -123q205 -177 205 -503q0 -187 -57.5 -343.5t-155.5 -267.5q-224 -254 -596 -254 q-103 0 -190 24.5t-169 98.5q-50 44 -87.5 98.5t-59 111t-34.5 110.5t-16 108t-3 92t4 74h-269l-96 -491q-12 -65 39 -78l96 -29l-16 -90h-615zM1208 549q0 -219 68 -338q61 -109 184 -109q194 0 316 228q61 114 90.5 260.5t29.5 294.5q0 220 -67 338q-61 108 -184 108 q-195 0 -316 -227q-61 -114 -91 -260.5t-30 -294.5z" />
<glyph unicode="&#x42f;" horiz-adv-x="1433" d="M-41 51l21 111q48 -31 102 -31q46 0 84.5 27t64.5 69l146 242q5 9 16.5 28.5t16.5 27.5t16.5 23.5t21.5 25.5t25.5 22.5t34.5 24.5q81 53 174 59v4q-58 5 -121.5 26.5t-107.5 55.5q-111 83 -111 233q0 112 54 211t165 160q135 76 359 76q45 0 204 -6q108 -6 211 -6h234 l-17 -91l-98 -32q-42 -14 -51 -62l-207 -1052q-12 -65 39 -78l96 -29l-16 -90h-615l17 90l98 33q42 14 51 61l90 463h-41q-71 0 -116 -45q-13 -12 -25 -28.5t-17.5 -26.5t-16 -30t-13.5 -25l-172 -299q-85 -147 -195 -191q-76 -31 -172 -31q-120 0 -229 80zM690 1006 q0 -98 37 -146q23 -29 66 -49t102 -20h90l98 507q-53 17 -104 17q-117 0 -191 -66q-98 -89 -98 -243z" />
<glyph unicode="&#x430;" horiz-adv-x="1187" d="M102 229q0 121 37.5 250.5t100.5 241.5q96 167 216 249.5t244 82.5q122 0 205 -74l160 74h123q-79 -184 -152 -435q-86 -289 -86 -393q0 -57 37 -57q20 0 56 24.5t63 49.5l57 -66l-139 -106q-124 -99 -225 -99q-61 0 -97 29q-47 37 -47 123q0 43 17 106l14 58h-4 q-74 -126 -160 -207q-55 -52 -109.5 -80.5t-123.5 -28.5q-78 0 -127 56q-60 69 -60 202zM410 319q0 -46 14 -73q16 -29 45 -29q53 0 123 80q38 46 72 106t47 107l94 330q-9 38 -33 65q-28 33 -70 33q-48 0 -106.5 -53t-108.5 -180q-30 -80 -53.5 -191t-23.5 -195z" />
<glyph unicode="&#x431;" horiz-adv-x="1146" d="M111 401q0 139 53 359.5t121 363.5q46 97 102 167.5t118.5 111.5t123 63t131.5 31l147 19q21 3 64.5 7.5t61 7t42.5 8.5t43 15q59 29 70 84h110q-20 -131 -84 -227q-59 -88 -137.5 -127t-181.5 -53l-145 -21q-107 -15 -193 -54t-151 -128q-45 -61 -74 -152t-35 -180h4 q86 156 238 244q124 72 260 72q137 0 219 -101q76 -99 76 -286q0 -213 -103 -371q-84 -130 -218 -206.5t-284 -76.5q-160 0 -256 92q-122 113 -122 338zM418 231q0 -65 20 -106q19 -39 58 -39q57 0 119.5 73t109.5 214q61 185 61 372q0 69 -16 105q-16 39 -53 39 q-105 0 -199 -227q-40 -96 -70 -218t-30 -213z" />
<glyph unicode="&#x432;" horiz-adv-x="1064" d="M102 336q0 150 68 306t199 267q89 74 186 109t221 35q142 0 211 -43q78 -47 78 -142q0 -111 -96 -194q-86 -75 -199 -103v-4q99 -8 154 -55q67 -55 67 -160q0 -191 -170 -297q-136 -84 -340 -84q-156 0 -245 64q-134 93 -134 301zM410 225q0 -56 18 -88q29 -51 92 -51 q89 0 137 82q39 67 39 168q0 61 -20 98q-25 45 -78 45q-29 0 -100 -18l-54 -15q-34 -134 -34 -221zM473 569l86 25q111 32 166 98q53 66 53 150q0 43 -17 69.5t-50 26.5q-72 0 -125 -80q-66 -97 -113 -289z" />
<glyph unicode="&#x433;" horiz-adv-x="819" d="M61 217q0 161 156 277l156 116q71 53 95 98.5t24 96.5q0 52 -25.5 78t-63.5 26q-50 0 -153 -71l-98 -68l-58 74l148 100q162 109 336 109q99 0 159 -43q37 -27 59.5 -74t22.5 -105q0 -125 -147 -245l-166 -135q-55 -44 -86 -89.5t-31 -111.5q0 -49 25 -71.5t63 -22.5 q51 0 125 43q68 39 143 104l58 -74q-90 -93 -217 -170q-148 -88 -275 -88q-98 0 -168 62q-82 73 -82 184z" />
<glyph unicode="&#x434;" horiz-adv-x="1146" d="M102 377q0 261 158 457q88 109 200 164t222 55q80 0 154 -43q10 100 -7 209.5t-77 183.5q-65 80 -183 80q-78 0 -145 -49l-49 118q128 45 252 45q270 0 405 -204q39 -59 65 -140t35.5 -162.5t12 -125.5t2.5 -84q0 -316 -125 -549q-97 -179 -245 -270t-308 -91 q-145 0 -238 74q-129 104 -129 332zM410 283q0 -197 98 -197q17 0 35.5 6t45 26.5t51.5 53.5t52.5 94t50.5 142q52 187 78 430q-9 56 -40.5 78t-63.5 22q-54 0 -110.5 -55t-100.5 -160q-44 -106 -70 -224.5t-26 -215.5z" />
<glyph unicode="&#x435;" horiz-adv-x="983" d="M102 334q0 156 66 324t190 270q149 125 377 125q130 0 191 -41q78 -52 78 -152q0 -46 -16 -92.5t-50 -93.5t-94.5 -89t-141.5 -71q-139 -48 -284 -51q-8 -64 -8 -109q0 -91 36 -141q40 -53 111 -53q81 0 164 45q85 46 156 114l65 -65q-123 -127 -215 -188 q-142 -95 -293 -95q-135 0 -217 68q-115 93 -115 295zM442 586q91 10 152 49q65 40 94 101.5t29 121.5q0 80 -62 80q-42 0 -82.5 -39.5t-72.5 -112.5q-40 -88 -58 -200z" />
<glyph unicode="&#x436;" horiz-adv-x="1884" d="M0 147q0 61 39 97q38 35 94 35q41 0 88 -21q-12 -44 -12 -86q0 -27 6.5 -45.5t16.5 -26.5t18 -11t16 -3q27 0 59 30.5t58 92.5q40 96 66 244.5t26 253.5q0 83 -22 120t-66 37q-53 0 -108 -47q-60 -49 -99 -104l-82 65q98 124 174 183q118 92 252 92q96 0 150 -62 q71 -78 71 -237q0 -80 -18 -148h147q34 190 46 344l225 103h102q-95 -205 -151 -430h151q60 177 180 295q135 135 312 135q94 0 151 -43q56 -42 56 -123q0 -64 -41 -101q-35 -32 -90 -32q-46 0 -91 20q13 54 13 80q0 47 -17 65.5t-37 18.5q-78 0 -133 -141 q-100 -251 -100 -480q0 -79 29 -120q27 -37 73 -37q58 0 115 47q52 42 98 104l82 -65q-84 -114 -166 -183q-115 -92 -241 -92q-100 0 -164 56q-96 85 -96 258q0 117 32 223l-145 -16q-59 -263 -72 -451l-217 -92l-65 92q74 176 137 446l-158 -20q-28 -94 -79 -192t-111 -164 q-126 -140 -295 -140q-98 0 -154 49q-53 48 -53 127z" />
<glyph unicode="&#x437;" horiz-adv-x="901" d="M20 168q0 61 38 100t108 39q59 0 108 -16q-12 -102 13 -152q27 -53 92 -53q75 0 129 72q53 70 53 174q0 75 -33 117q-36 45 -106 45q-63 0 -143 -39l28 143l76 6q110 9 166 78q45 60 45 139q0 56 -30.5 86.5t-82.5 30.5q-75 0 -110 -64q-31 -55 -35 -129q-33 -8 -78 -8 q-71 0 -103 30t-32 75q0 107 125 162q104 49 278 49q190 0 279 -54q96 -55 96 -159q0 -100 -96 -178q-78 -64 -193 -99v-4q43 -2 92.5 -14t79.5 -31q84 -55 84 -162q0 -175 -174 -284q-72 -46 -171.5 -71.5t-205.5 -25.5q-136 0 -215 49q-82 57 -82 148z" />
<glyph unicode="&#x438;" horiz-adv-x="1228" d="M106 913q82 17 220 60q122 39 211 80h122l-149 -473q-80 -253 -80 -308q0 -63 39 -63q30 0 80 53q134 144 237 432q43 119 74 248l246 111h123q-73 -172 -152 -435q-86 -296 -86 -393q0 -57 37 -57q20 0 56 24.5t63 49.5l57 -66l-139 -106q-38 -29 -66 -47t-72.5 -35 t-86.5 -17q-58 0 -95 29q-49 40 -49 121q0 59 23 141l24 86h-4q-94 -150 -211 -256q-132 -121 -243 -121q-70 0 -115 54q-47 55 -47 135q0 55 21.5 140t80.5 271q56 171 56 230q0 47 -41 47q-49 0 -113 -33z" />
<glyph unicode="&#x439;" horiz-adv-x="1228" d="M106 913q82 17 220 60q122 39 211 80h122l-149 -473q-80 -251 -80 -308q0 -33 11 -48t26 -15q31 0 82 51q129 129 237 434q44 125 74 248l246 111h123q-73 -172 -152 -435q-86 -296 -86 -393q0 -57 37 -57q20 0 56 24.5t63 49.5l57 -66l-139 -106q-38 -29 -66 -47 t-72.5 -35t-86.5 -17q-58 0 -95 29q-49 40 -49 121q0 59 23 141l24 86h-4q-94 -150 -211 -256q-132 -121 -243 -121q-70 0 -115 54q-47 55 -47 135q0 55 21.5 140t80.5 271q56 171 56 230q0 47 -41 47q-49 0 -113 -33zM512 1417q0 67 48 113.5t132 46.5q85 0 144 -41 q-29 -49 -29 -94q0 -43 27 -70q25 -20 63 -20q98 0 197 71q80 58 151 154l66 -57q-75 -110 -185 -183q-164 -108 -342 -108q-125 0 -198 51q-74 52 -74 137z" />
<glyph unicode="&#x43a;" horiz-adv-x="1187" d="M86 61q99 256 154 465q57 216 57 273q0 49 -41 49q-49 0 -113 -33l-20 98q79 16 219 60q122 39 211 80h123q-94 -259 -156 -480q68 5 107 23q31 14 57 38t39.5 43.5t32.5 51.5l69 125q65 118 119 158q57 41 131 41q42 0 73 -12.5t46 -29t23.5 -38.5t10 -34t1.5 -24 q0 -66 -41 -112q-44 -49 -105 -49q-6 34 -30.5 53.5t-59.5 19.5q-20 0 -36 -7.5t-30.5 -25t-23.5 -31t-24 -40.5l-37 -68q-44 -82 -113 -110q107 -20 139 -150l31 -119q6 -23 11 -37.5t14.5 -33t24 -28t34.5 -9.5q24 0 65 24.5t70 49.5l58 -66l-140 -106q-127 -99 -221 -99 q-127 0 -168 197l-37 184q-5 24 -9 38t-13 32t-23.5 26.5t-34.5 8.5q-6 0 -36 -6q-59 -224 -88 -381l-246 -99z" />
<glyph unicode="&#x43b;" horiz-adv-x="1228" d="M-20 121q0 70 42 117t115 41q1 -27 20.5 -44.5t43.5 -17.5q48 0 94 57q54 65 135 293q74 210 74 275q0 59 -39 82q-26 18 -80 18h-39l27 82h815q-50 -107 -96 -262q-47 -155 -84 -330q-33 -160 -33 -207q0 -57 37 -57q38 0 118 74l58 -66l-139 -106q-131 -99 -226 -99 q-60 0 -98 41q-49 55 -49 148q0 56 43 213l147 528h-63q-51 0 -86.5 -21t-65.5 -83q-16 -33 -30.5 -72t-41.5 -116.5t-47 -131.5q-106 -291 -202 -405q-44 -51 -91.5 -76t-111.5 -25q-41 0 -70.5 13.5t-44 30.5t-22.5 41.5t-9 37t-1 27.5z" />
<glyph unicode="&#x43c;" horiz-adv-x="1597" d="M-20 121q0 70 42 117t115 41q1 -27 20.5 -44.5t43.5 -17.5q48 0 94 57q53 60 135 293q74 212 74 269q0 45 -47 45q-54 0 -148 -62l-33 94q32 14 98.5 41.5t88.5 36.5q92 36 134 49t73 13q60 0 96 -52q24 -34 35.5 -89.5t21.5 -163.5q18 -192 31 -461h4q92 134 186 301 q93 169 177 354l254 111h122q-69 -164 -151 -435q-86 -296 -86 -393q0 -57 37 -57q20 0 56 24.5t63 49.5l57 -66l-139 -106q-131 -99 -226 -99q-60 0 -98 41q-49 55 -49 148q0 48 37 180l71 258h-4l-131 -221q-88 -151 -274 -406h-164q0 268 -29 647h-4l-41 -141 q-31 -105 -81.5 -220.5t-110.5 -184.5q-88 -101 -203 -101q-41 0 -70.5 13.5t-44 30.5t-22.5 41.5t-9 37t-1 27.5z" />
<glyph unicode="&#x43d;" horiz-adv-x="1228" d="M86 61q99 256 154 465q57 216 57 273q0 49 -41 49q-49 0 -113 -33l-20 98q79 16 219 60q122 39 211 80h123q-101 -283 -141 -439h262q39 175 63 328l246 111h123q-73 -172 -152 -435q-86 -296 -86 -393q0 -57 37 -57q20 0 56 24.5t63 49.5l57 -66l-139 -106 q-131 -99 -225 -99q-61 0 -99 41q-49 55 -49 148q0 47 35 180l39 152l-72 -5q-102 -6 -196 -24q-65 -233 -92 -393l-246 -99z" />
<glyph unicode="&#x43e;" horiz-adv-x="1167" d="M111 408q0 159 63.5 300t181.5 230q153 115 367 115q169 0 268 -97q123 -119 123 -340q0 -158 -64 -299.5t-182 -230.5q-153 -115 -366 -115q-170 0 -269 97q-122 118 -122 340zM418 231q0 -69 18 -104q21 -41 66 -41q48 0 100.5 52t95.5 159q44 112 76.5 253t32.5 243 q0 67 -19 104q-21 41 -65 41q-49 0 -101.5 -52t-95.5 -159q-44 -111 -76 -252.5t-32 -243.5z" />
<glyph unicode="&#x43f;" horiz-adv-x="1208" d="M86 61q99 256 154 465q57 216 57 273q0 49 -41 49q-49 0 -113 -33l-20 98q79 16 219 60q122 39 211 80h82l-98 -357h4q91 137 200 236q132 121 244 121q73 0 115 -54q39 -49 39 -127q0 -80 -45 -225l-103 -330q-16 -58 -16 -94q0 -55 37 -55q38 0 118 74l58 -66 l-139 -106q-131 -99 -226 -99q-60 0 -98 41q-49 55 -49 154q0 67 35 174l102 317q18 52 18 101t-38 49q-45 0 -148 -131q-103 -137 -172 -348q-38 -110 -67 -258l-246 -99z" />
<glyph unicode="&#x440;" horiz-adv-x="1167" d="M-156 -492l17 82q59 14 100 58q43 46 66 131l192 747q57 220 57 273q0 49 -40 49q-49 0 -113 -33l-21 98q82 17 220 60q118 38 210 80h82l-73 -275h4q84 132 149 189q95 86 221 86q100 0 162 -70q70 -79 70 -240q0 -100 -32.5 -210t-86.5 -205q-91 -161 -222.5 -259 t-256.5 -98q-47 0 -89 15t-58 26.5t-25 20.5l-64 -254q-12 -50 -12 -80q0 -37 16.5 -52.5t44.5 -23.5l113 -33l-16 -82h-615zM412 176q14 -40 43.5 -65t66.5 -25q63 0 131 68.5t119 201.5q68 178 68 349q0 68 -21 104q-24 39 -63 39q-64 0 -135 -92q-35 -45 -61.5 -95 t-48 -114.5t-29 -91.5t-25.5 -97z" />
<glyph unicode="&#x441;" horiz-adv-x="921" d="M102 330q0 162 70.5 326.5t194.5 267.5q156 129 360 129q100 0 154 -41q61 -47 61 -135q0 -70 -39.5 -117t-107.5 -47q-46 0 -86 20q12 61 12 121q0 84 -55 84q-35 0 -74.5 -36.5t-67.5 -84.5q-51 -90 -82.5 -220t-31.5 -239q0 -97 34 -145q36 -53 101 -53q64 0 145 49 q81 51 133 110l66 -65q-90 -108 -197 -188q-134 -95 -270 -95q-125 0 -207 68q-113 99 -113 291z" />
<glyph unicode="&#x442;" horiz-adv-x="1740" d="M86 61q99 256 154 465q57 216 57 273q0 49 -41 49q-49 0 -113 -33l-20 98q110 24 219 62q134 47 211 84h84l-100 -363h4q83 131 192 236q136 127 242 127q66 0 104 -55q35 -47 35 -138q0 -64 -14 -129h4q70 106 162 191q143 131 252 131q73 0 114 -53q39 -49 39 -127 q0 -81 -45 -226l-102 -329q-17 -62 -17 -95q0 -55 37 -55q20 0 56 24.5t63 49.5l57 -66l-139 -106q-131 -99 -225 -99q-61 0 -99 41q-49 55 -49 154q0 67 35 174l103 318q18 56 18 98q0 51 -39 51q-49 0 -145 -131q-105 -146 -170 -348q-42 -127 -68 -264l-246 -99l-73 90 q35 93 79 228q67 200 97 319q24 101 24 150q0 55 -39 55q-50 0 -145 -133q-101 -143 -166 -352q-40 -128 -67 -258l-246 -99z" />
<glyph unicode="&#x443;" horiz-adv-x="1085" d="M-82 -365q0 77 42.5 127.5t115.5 53.5q8 -31 30 -52.5t56 -21.5q33 0 74 23t67 53l33 41q6 132 6 247q0 182 -15.5 385t-45.5 304q-11 40 -28.5 63t-51.5 23q-46 0 -148 -62l-33 94q98 42 187 78q147 62 221 62q79 0 115 -47q50 -65 73 -328q13 -133 13 -264 q0 -47 -6 -230h4q45 68 98 167.5t78 166.5q45 126 45 254q0 114 -70 207q37 39 91 56.5t102 17.5q42 0 72.5 -13t46 -30.5t24 -41t10.5 -37.5t2 -28q0 -115 -73 -268q-46 -98 -132.5 -225.5t-248.5 -337.5l-156 -201q-190 -246 -278 -311q-88 -72 -177 -72q-67 0 -105 39.5 t-38 107.5z" />
<glyph unicode="&#x444;" horiz-adv-x="1597" d="M102 291q0 112 35.5 245.5t100.5 237.5q75 123 190.5 201t222.5 78q82 0 148 -54l67 287q11 46 11 72q0 33 -16.5 52.5t-65.5 19.5q-33 0 -103 -7l17 82q95 14 219 39q104 22 198 53h123q-41 -87 -73 -223l-107 -442h4q55 48 107 78q77 43 153 43q98 0 154 -68 q69 -83 69 -244q0 -126 -39 -267t-100 -238q-73 -116 -185.5 -190.5t-223.5 -74.5q-87 0 -152 62l-59 -254q-20 -81 -2 -114t63 -46l100 -29l-16 -82h-651l16 82l76 23q99 29 125 139l80 348h-4q-44 -44 -105 -82q-80 -47 -151 -47q-90 0 -152 70q-74 85 -74 250zM410 334 q0 -89 22 -133q22 -45 57 -45q32 0 68 26q46 30 72 88l119 516q3 59 -21 109q-22 43 -57 43q-50 0 -106.5 -63t-98.5 -203q-23 -72 -39 -168t-16 -170zM911 242q-3 -59 19 -109q20 -47 61 -47q12 0 23 2t34 15t43.5 36t46 71t46.5 114q25 78 45 183t20 179t-20 131 q-19 51 -62 51q-33 0 -71 -30q-48 -38 -74 -105z" />
<glyph unicode="&#x445;" horiz-adv-x="1097" d="M-8 117q0 73 39 121q33 42 90 57q9 -29 31 -45.5t47 -16.5q42 0 90 41q20 18 48.5 52.5t45.5 60.5l57 88l-53 238q-21 90 -37 123q-22 45 -65 45q-23 0 -61.5 -20t-67.5 -42l-33 94l78 35q109 50 151 66q100 39 150 39q29 0 48 -10.5t36 -36.5q13 -19 22.5 -47.5t15 -51 t15.5 -73.5l31 -154l88 135q74 115 125 166q74 72 155 72q56 0 88 -37q33 -41 33 -101q0 -57 -31 -110q-27 -45 -77 -68q-9 34 -34.5 52t-60.5 18q-22 0 -42.5 -8.5t-31.5 -17.5t-30 -27q-58 -58 -98 -123l-52 -80l37 -152q30 -121 54 -170q31 -61 79 -61q28 0 61 23t58 51 l58 -66l-115 -90q-32 -26 -47 -37t-50 -34t-67 -33.5t-63 -10.5q-81 0 -136 80q-19 27 -34.5 68t-21 64.5t-17.5 76.5l-21 86l-86 -145q-67 -111 -123 -162q-74 -68 -141 -68q-57 0 -96 39t-39 107z" />
<glyph unicode="&#x446;" horiz-adv-x="1228" d="M106 913q82 17 220 60q122 39 211 80h122l-149 -473q-80 -251 -80 -308q0 -63 39 -63q29 0 80 51q128 131 237 434q44 125 74 248l246 111h123q-73 -172 -152 -435q-86 -296 -86 -393q0 -57 37 -57q20 0 56 24.5t63 49.5l57 -66q-32 -41 -47 -74q-24 -57 -24 -116 q0 -27 2 -39q1 -11 4.5 -44.5t3.5 -52.5q0 -68 -33 -112q-35 -44 -129 -103l-135 -86l-49 78l67 41q22 13 33 21t21 27t10 46q0 14 -3 37t-3 29q0 64 69 158l60 84l-4 4l-80 -56q-66 -47 -138 -47q-47 0 -84 29q-49 38 -49 121q0 59 23 141l24 86h-4q-94 -150 -211 -256 q-132 -121 -243 -121q-70 0 -115 54q-47 55 -47 135q0 55 21.5 140t80.5 271q56 171 56 230q0 47 -41 47q-49 0 -113 -33z" />
<glyph unicode="&#x447;" horiz-adv-x="1187" d="M86 913q82 18 209 60q110 38 201 80h122l-83 -269q-41 -132 -41 -190q0 -49 38 -49q31 0 70 20q89 48 143 158q44 88 74 219l246 111h123q-73 -172 -152 -435q-86 -296 -86 -393q0 -57 37 -57q20 0 56 24.5t63 49.5l57 -66l-139 -106q-131 -99 -225 -99q-62 0 -99 41 q-41 48 -41 123q0 71 41 205l72 233h-4q-80 -99 -193 -172q-127 -82 -227 -82q-75 0 -115 46q-36 41 -36 114q0 62 22 133l25 80q20 74 20 111q0 45 -41 45q-53 0 -117 -33z" />
<glyph unicode="&#x448;" horiz-adv-x="1761" d="M106 913q82 17 220 60q122 39 211 80h122l-149 -473q-80 -251 -80 -308q0 -63 39 -63q50 0 141 135q99 154 164 350q40 114 72 248l246 111h122q-85 -198 -155 -435q-82 -268 -82 -346q0 -63 39 -63q50 0 141 135q99 154 164 350q40 114 72 248l245 111h123 q-69 -164 -151 -435q-86 -296 -86 -393q0 -57 37 -57q38 0 118 74l58 -66l-140 -106q-38 -29 -66 -47t-72.5 -35t-86.5 -17q-57 0 -94 29q-49 40 -49 121q0 63 22 141l25 86h-4q-86 -144 -205 -256q-61 -56 -118.5 -88.5t-123.5 -32.5q-58 0 -94 29q-49 40 -49 121 q0 59 23 141l24 86h-4q-86 -144 -205 -256q-129 -121 -235 -121q-70 0 -115 54q-47 55 -47 135q0 55 21.5 140t80.5 271q56 171 56 230q0 47 -41 47q-49 0 -113 -33z" />
<glyph unicode="&#x449;" horiz-adv-x="1761" d="M106 913q82 17 220 60q122 39 211 80h122l-149 -473q-80 -251 -80 -308q0 -63 39 -63q50 0 141 135q99 154 164 350q40 114 72 248l246 111h122q-85 -198 -155 -435q-82 -268 -82 -346q0 -63 39 -63q50 0 141 135q99 154 164 350q40 114 72 248l245 111h123 q-69 -164 -151 -435q-86 -296 -86 -393q0 -57 37 -57q38 0 118 74l58 -66q-32 -41 -47 -74q-25 -59 -25 -116q0 -27 2 -39q1 -11 4.5 -44.5t3.5 -52.5q0 -68 -33 -112q-35 -44 -129 -103l-135 -86l-49 78l68 41q22 13 33 21t20.5 27t9.5 46q0 14 -3 37t-3 29q0 63 70 158 l59 84l-4 4l-80 -56q-70 -47 -135 -47q-49 0 -86 29q-49 38 -49 121q0 63 22 141l25 86h-4q-86 -144 -205 -256q-61 -56 -118.5 -88.5t-123.5 -32.5q-58 0 -94 29q-49 40 -49 121q0 59 23 141l24 86h-4q-86 -144 -205 -256q-129 -121 -235 -121q-70 0 -115 54 q-47 55 -47 135q0 55 21.5 140t80.5 271q56 171 56 230q0 47 -41 47q-49 0 -113 -33z" />
<glyph unicode="&#x44a;" horiz-adv-x="1249" d="M82 702q0 123 127 263q39 44 78.5 66t95.5 22q52 0 149 -37q1 0 22.5 -9t27.5 -11t26 -8.5t32.5 -9t31.5 -5t37 -2.5q126 0 217 82l57 -66q-154 -167 -242 -373q157 54 236 54q124 0 190 -86q54 -70 54 -170q0 -106 -55 -198t-150 -153q-140 -90 -334 -90q-130 0 -217 45 q-129 73 -129 228q0 168 178 372q97 112 236 213l-5 5q-47 -28 -104.5 -48t-99.5 -20q-72 0 -140 61q-22 21 -31 28.5t-28.5 16.5t-40.5 9q-27 0 -42 -15.5t-15 -42.5q0 -58 75 -108q-9 -63 -47.5 -101.5t-85.5 -38.5q-43 0 -73.5 35t-30.5 92zM643 240q0 -69 23 -109 q27 -45 73 -45q38 0 74 23t59 63q46 77 46 205q0 66 -23 106q-24 41 -72 41q-53 0 -123 -32q-57 -135 -57 -252z" />
<glyph unicode="&#x44b;" horiz-adv-x="1617" d="M102 913q82 17 220 60q118 38 210 80h123q-98 -215 -163 -439q138 54 239 54q141 0 209 -88q55 -71 55 -177q0 -104 -54.5 -194.5t-149.5 -149.5q-143 -88 -330 -88q-132 0 -209 45q-121 70 -121 226q0 114 82 344q3 8 8 22q50 138 54 176q1 10 1 19q0 45 -40 45 q-49 0 -113 -33zM418 242q0 -76 22 -111q27 -45 76 -45q84 0 135 86q49 80 49 197q0 75 -26 114q-30 41 -86 41q-55 0 -125 -32l-21 -78q-24 -90 -24 -172zM1065 913q79 16 219 60q122 39 211 80h123q-31 -59 -55 -146l-166 -590q-17 -71 -17 -94q0 -55 37 -55q20 0 56 24.5 t63 49.5l57 -66l-139 -106q-131 -99 -225 -99q-61 0 -99 41q-49 55 -49 148q0 52 35 180l109 387q14 56 14 74q0 47 -41 47q-49 0 -113 -33z" />
<glyph unicode="&#x44c;" horiz-adv-x="1024" d="M102 913q82 17 220 60q118 38 210 80h123q-98 -215 -163 -439q138 54 239 54q141 0 209 -88q55 -71 55 -177q0 -104 -54.5 -194.5t-149.5 -149.5q-140 -88 -336 -88q-127 0 -203 45q-121 68 -121 228q0 112 82 342q3 8 8 22q50 138 54 176q1 10 1 19q0 45 -40 45 q-49 0 -113 -33zM418 242q0 -76 22 -111q27 -45 76 -45q38 0 75 23t62 63q47 74 47 197q0 78 -26 114q-30 41 -86 41q-55 0 -125 -32l-21 -78q-24 -90 -24 -172z" />
<glyph unicode="&#x44d;" horiz-adv-x="1003" d="M20 168q0 61 38 100t108 39q59 0 108 -16q-12 -102 13 -152q25 -53 92 -53q49 0 97.5 37.5t82.5 107.5q53 110 68 248q-66 -2 -174 -16q-94 -14 -146 -33l33 164h299q4 38 5.5 81t-8 105.5t-32.5 98.5q-38 59 -110 59q-71 0 -111 -64q-31 -55 -35 -129q-33 -8 -78 -8 q-71 0 -103 30t-32 75q0 107 125 162q106 49 279 49q29 0 65.5 -5t95 -25.5t103.5 -55.5q147 -113 147 -344q0 -116 -40.5 -237t-118.5 -212q-76 -90 -196 -146.5t-278 -56.5q-141 0 -215 49q-82 57 -82 148z" />
<glyph unicode="&#x44e;" horiz-adv-x="1740" d="M86 61q99 256 154 465q57 216 57 273q0 49 -41 49q-49 0 -113 -33l-20 98q79 16 219 60q122 39 211 80h123q-61 -162 -146 -439h201q28 93 83 181t128 145q146 113 358 113q166 0 265 -97q123 -119 123 -340q0 -158 -64 -299.5t-182 -230.5q-153 -115 -367 -115 q-159 0 -254 97q-116 116 -116 329q0 48 10 103q-112 -5 -223 -33q-67 -251 -86 -397l-246 -99zM991 231q0 -67 19 -104q21 -41 65 -41q49 0 101.5 52t95.5 159q44 111 76 252.5t32 243.5q0 69 -18 104q-21 41 -66 41q-48 0 -100.5 -52t-95.5 -159q-44 -112 -76.5 -253 t-32.5 -243z" />
<glyph unicode="&#x44f;" horiz-adv-x="1167" d="M-82 41l12 102q37 -37 76 -37q40 0 80 35q42 39 70 86l51 80q46 72 104 115t162 55v4q-104 3 -174 54q-82 55 -82 161q0 76 40 150t110 123q121 84 344 84q117 0 241 -29l92 29h123q-69 -164 -151 -435q-86 -296 -86 -393q0 -57 37 -57q38 0 118 74l58 -66l-139 -106 q-131 -99 -226 -99q-60 0 -98 41q-49 55 -49 148q0 54 35 180l26 94h-22q-48 0 -95 -47q-35 -35 -67 -88l-90 -141q-65 -98 -144 -144q-76 -43 -165 -43q-92 0 -191 70zM512 694q0 -71 35 -108q33 -37 92 -37q44 0 90 16l98 336q-59 37 -122 37q-83 0 -138 -66t-55 -178z " />
<glyph unicode="&#x451;" horiz-adv-x="983" d="M102 334q0 156 66 324t190 270q149 125 377 125q130 0 191 -41q78 -52 78 -152q0 -46 -16 -92.5t-50 -93.5t-94.5 -89t-141.5 -71q-139 -48 -284 -51q-8 -64 -8 -109q0 -91 36 -141q40 -53 111 -53q81 0 164 45q85 46 156 114l65 -65q-123 -127 -215 -188 q-142 -95 -293 -95q-135 0 -217 68q-115 93 -115 295zM369 1376q0 79 43.5 129.5t119.5 50.5q12 0 23 -1t30.5 -8t33.5 -19t25 -37.5t11 -60.5q0 -79 -43.5 -130t-119.5 -51q-12 0 -23 1t-30.5 8.5t-33.5 19.5t-25 37.5t-11 60.5zM442 586q91 10 152 49q65 40 94 101.5 t29 121.5q0 80 -62 80q-42 0 -82.5 -39.5t-72.5 -112.5q-40 -88 -58 -200zM799 1376q0 79 44 129.5t120 50.5q16 0 30.5 -3t38.5 -13.5t38.5 -38.5t14.5 -71q0 -79 -43.5 -130t-119.5 -51q-12 0 -23 1t-30.5 8.5t-33.5 19.5t-25 37.5t-11 60.5z" />
<glyph unicode="&#x452;" horiz-adv-x="1159" d="M61 61q104 270 232 764q51 197 90 383h-205l27 103h198v6q0 7 2.5 20.5t2.5 20.5q0 24 -8 39.5t-22.5 22t-26.5 8.5t-29 2q-47 0 -97 -7l17 82q131 18 219 39q102 22 196 53h129q-49 -119 -94 -286h365l-27 -103h-368l-146 -512h4q88 133 201 236q132 121 240 121 q87 0 129 -80q32 -63 32 -191q0 -215 -63.5 -433.5t-153.5 -366.5q-121 -197 -291 -310q-120 -82 -231 -82q-72 0 -111 29q-55 39 -55 121q0 63 39.5 107t105.5 51q11 -41 42 -72t85 -31q98 0 177 142q67 125 112 345.5t45 372.5q0 73 -8 105q-13 47 -45 47 q-29 0 -74.5 -46.5t-81.5 -96.5q-97 -139 -174 -377q-40 -125 -59 -217l-246 -99z" />
<glyph unicode="&#x453;" horiz-adv-x="819" d="M61 217q0 161 156 277l156 116q71 53 95 98.5t24 96.5q0 52 -25.5 78t-63.5 26q-50 0 -153 -71l-98 -68l-58 74l148 100q162 109 336 109q99 0 159 -43q37 -27 59.5 -74t22.5 -105q0 -125 -147 -245l-166 -135q-55 -44 -86 -89.5t-31 -111.5q0 -49 25 -71.5t63 -22.5 q51 0 125 43q68 39 143 104l58 -74q-90 -93 -217 -170q-148 -88 -275 -88q-98 0 -168 62q-82 73 -82 184zM504 1229l8 41l262 286h307l-14 -69l-461 -258h-102z" />
<glyph unicode="&#x454;" horiz-adv-x="921" d="M102 330q0 162 70.5 326.5t194.5 267.5q156 129 360 129q102 0 156 -39q59 -42 59 -113q0 -59 -40 -97t-101 -38q-51 0 -92 29q10 33 10 73q0 70 -57 70q-74 0 -138 -121q-52 -96 -78 -203h306l-33 -163q-48 19 -121 32q-113 17 -178 17q-16 -69 -11 -156.5t35 -130.5 q36 -53 101 -53q64 0 145 49q81 51 133 110l66 -65q-90 -108 -197 -188q-134 -95 -270 -95q-125 0 -207 68q-113 99 -113 291z" />
<glyph unicode="&#x455;" horiz-adv-x="860" d="M20 133q0 62 49.5 102.5t118.5 43.5q22 -85 73.5 -139t111.5 -54q55 0 90 35q29 29 29 72q0 82 -64 149l-172 174q-104 104 -104 213q0 120 98 201q147 123 387 123q138 0 201 -37q63 -38 63 -107q0 -56 -40 -98.5t-107 -52.5q-26 77 -80 128.5t-117 51.5q-51 0 -84 -33 q-27 -27 -27 -65q0 -58 72 -135l180 -191q28 -30 46 -52.5t36.5 -67t18.5 -91.5q0 -140 -123 -227q-83 -60 -193.5 -82.5t-197.5 -22.5q-109 0 -179 35q-86 45 -86 127z" />
<glyph unicode="&#x456;" horiz-adv-x="655" d="M106 913q82 17 220 60q122 39 211 80h122q-31 -59 -55 -146l-166 -590q-16 -67 -16 -94q0 -55 37 -55q20 0 56 24.5t63 49.5l57 -66l-139 -106q-131 -99 -226 -99q-60 0 -98 41q-49 55 -49 148q0 52 35 180l108 387q15 60 15 74q0 47 -41 47q-49 0 -113 -33zM389 1370 q0 52 19 97.5t62.5 77.5t102.5 32q64 0 104 -36.5t40 -104.5q0 -81 -48.5 -144t-136.5 -63q-64 0 -103.5 36.5t-39.5 104.5z" />
<glyph unicode="&#x457;" horiz-adv-x="655" d="M106 913q82 17 220 60q122 39 211 80h122q-31 -59 -55 -146l-166 -590q-16 -67 -16 -94q0 -55 37 -55q20 0 56 24.5t63 49.5l57 -66l-139 -106q-131 -99 -226 -99q-60 0 -98 41q-49 55 -49 148q0 52 35 180l108 387q15 60 15 74q0 47 -41 47q-49 0 -113 -33zM217 1376 q0 79 44 129.5t120 50.5q12 0 23 -1t30.5 -8t33.5 -19t25 -37.5t11 -60.5q0 -79 -44 -130t-120 -51q-12 0 -23 1t-30.5 8.5t-33.5 19.5t-25 37.5t-11 60.5zM565 1376q0 79 44 129.5t120 50.5q12 0 23 -1t30.5 -8t33.5 -19t25 -37.5t11 -60.5q0 -79 -44 -130t-120 -51 q-12 0 -23 1t-30.5 8.5t-33.5 19.5t-25 37.5t-11 60.5z" />
<glyph unicode="&#x458;" horiz-adv-x="634" d="M-430 -375q0 83 51 138.5t135 64.5q10 -131 99 -131q41 0 83.5 27.5t71.5 66.5q67 91 101 238l157 698q13 53 13 74q0 47 -41 47q-49 0 -113 -33l-21 98q82 17 220 60q122 39 211 80h122q-40 -78 -55 -146l-166 -735q-41 -179 -168 -336q-62 -75 -145.5 -150.5 t-157.5 -123.5q-124 -82 -231 -82q-73 0 -111 28q-55 39 -55 117zM389 1370q0 52 19 97.5t62.5 77.5t102.5 32q64 0 104 -36.5t40 -104.5q0 -81 -48.5 -144t-136.5 -63q-64 0 -103.5 36.5t-39.5 104.5z" />
<glyph unicode="&#x459;" horiz-adv-x="1601" d="M-20 121q0 70 42 117t115 41q1 -27 20.5 -44.5t43.5 -17.5q48 0 94 57q54 65 135 293q74 210 74 275q0 59 -39 82q-26 18 -80 18h-39l27 82h745q-31 -130 -47 -229q-24 -134 -31 -189q171 62 269 62q141 0 209 -88q55 -71 55 -177q0 -104 -55 -194t-150 -150 q-144 -88 -336 -88q-120 0 -192 45q-115 72 -115 242q0 63 18 162l82 481h-39q-47 0 -76.5 -20.5t-58.5 -83.5q-19 -43 -38 -92.5t-44.5 -123.5t-36.5 -104q-108 -296 -202 -405q-44 -51 -91.5 -76t-111.5 -25q-41 0 -70.5 13.5t-44 30.5t-22.5 41.5t-9 37t-1 27.5zM995 233 q0 -67 23 -102q27 -45 76 -45q38 0 75 23t62 63q47 74 47 197q0 76 -27 114q-30 41 -86 41q-41 0 -141 -37l-12 -84q-17 -115 -17 -170z" />
<glyph unicode="&#x45a;" horiz-adv-x="1601" d="M86 61q99 256 154 465q57 216 57 273q0 49 -41 49q-49 0 -113 -33l-20 98q79 16 219 60q122 39 211 80h123q-101 -283 -141 -439h260q39 159 65 328l246 111h123q-88 -210 -152 -437q131 52 232 52q137 0 209 -88q55 -71 55 -177q0 -104 -55 -194t-150 -150 q-144 -88 -336 -88q-120 0 -192 45q-115 73 -115 228q0 61 16 143l23 105l-70 -5q-102 -6 -196 -24q-65 -233 -92 -393l-246 -99zM995 242q0 -74 23 -111q27 -45 76 -45q38 0 75 23t62 63q47 74 47 197q0 76 -27 114q-30 41 -86 41q-55 0 -125 -32l-20 -78q-25 -94 -25 -172 z" />
<glyph unicode="&#x45b;" horiz-adv-x="1187" d="M61 61q104 270 232 764q51 197 90 383h-205l27 103h198v6q0 7 2.5 20.5t2.5 20.5q0 24 -8 39.5t-22.5 22t-26.5 8.5t-29 2q-47 0 -97 -7l17 82q131 18 219 39q102 22 196 53h129q-49 -119 -94 -286h365l-27 -103h-368l-146 -512h4q89 135 201 236q132 121 244 121 q72 0 114 -54q39 -49 39 -127q0 -80 -45 -225l-102 -330q-17 -62 -17 -94q0 -55 37 -55q20 0 56 24.5t63 49.5l57 -66l-139 -106q-131 -99 -225 -99q-60 0 -98 41q-50 56 -50 154q0 67 35 174l103 317q18 52 18 101t-39 49q-29 0 -80 -51q-145 -145 -239 -428 q-35 -101 -72 -258l-246 -99z" />
<glyph unicode="&#x45c;" horiz-adv-x="1187" d="M86 61q99 256 154 465q57 216 57 273q0 49 -41 49q-49 0 -113 -33l-20 98q79 16 219 60q122 39 211 80h123q-94 -259 -156 -480q68 5 107 23q31 14 57 38t39.5 43.5t32.5 51.5l69 125q65 118 119 158q57 41 131 41q42 0 73 -12.5t46 -29t23.5 -38.5t10 -34t1.5 -24 q0 -66 -41 -112q-44 -49 -105 -49q-6 34 -30.5 53.5t-59.5 19.5q-20 0 -36 -7.5t-30.5 -25t-23.5 -31t-24 -40.5l-37 -68q-44 -82 -113 -110q107 -20 139 -150l31 -119q6 -23 11 -37.5t14.5 -33t24 -28t34.5 -9.5q24 0 65 24.5t70 49.5l58 -66l-140 -106q-127 -99 -221 -99 q-127 0 -168 197l-37 184q-5 24 -9 38t-13 32t-23.5 26.5t-34.5 8.5q-6 0 -36 -6q-59 -224 -88 -381l-246 -99zM688 1229l8 41l262 286h308l-15 -69l-460 -258h-103z" />
<glyph unicode="&#x45e;" horiz-adv-x="1085" d="M-82 -365q0 77 42.5 127.5t115.5 53.5q8 -31 30 -52.5t56 -21.5q33 0 74 23t67 53l33 41q6 132 6 247q0 182 -15.5 385t-45.5 304q-11 40 -28.5 63t-51.5 23q-46 0 -148 -62l-33 94q98 42 187 78q147 62 221 62q79 0 115 -47q50 -65 73 -328q13 -133 13 -264 q0 -47 -6 -230h4q45 68 98 167.5t78 166.5q45 126 45 254q0 114 -70 207q37 39 91 56.5t102 17.5q42 0 72.5 -13t46 -30.5t24 -41t10.5 -37.5t2 -28q0 -115 -73 -268q-46 -98 -132.5 -225.5t-248.5 -337.5l-156 -201q-190 -246 -278 -311q-88 -72 -177 -72q-67 0 -105 39.5 t-38 107.5zM451 1417q0 67 48 113.5t132 46.5t143 -41q-29 -49 -29 -94q0 -43 27 -70q25 -20 64 -20q97 0 196 71q82 59 152 154l65 -57q-76 -111 -184 -183q-163 -108 -342 -108q-126 0 -199 51q-73 52 -73 137z" />
<glyph unicode="&#x45f;" horiz-adv-x="1228" d="M106 913q82 17 220 60q122 39 211 80h122l-149 -473q-80 -251 -80 -308q0 -33 11 -48t26 -15q31 0 82 51q129 129 237 434q44 125 74 248l246 111h123q-73 -172 -152 -435q-86 -296 -86 -393q0 -57 37 -57q20 0 56 24.5t63 49.5l57 -66l-139 -106q-38 -29 -66 -47 t-72.5 -35t-86.5 -17q-58 0 -95 29q-49 40 -49 121q0 59 23 141l24 86h-4q-94 -150 -211 -256q-132 -121 -243 -121q-70 0 -115 54q-47 55 -47 135q0 55 21.5 140t80.5 271q56 171 56 230q0 47 -41 47q-49 0 -113 -33zM432 -463q68 84 68 131q0 30 -23 88q-22 59 -22 88 q0 23 8.5 48t16.5 39t26 40.5t22 32.5l41 66l78 -29q-22 -50 -22 -84q0 -8 3.5 -18t6.5 -15.5t11.5 -18t10.5 -16.5q31 -48 31 -100q0 -17 -3.5 -34.5t-12.5 -36.5t-15.5 -32t-22 -34t-21.5 -29t-24.5 -30.5t-21.5 -26.5l-61 -78z" />
<glyph unicode="&#x462;" horiz-adv-x="1617" d="M176 885l84 430h434l4 24q1 11 2 25.5t-9.5 31t-31.5 21.5l-116 29l16 90h655l-16 -90l-119 -33q-42 -11 -51 -61l-6 -37h485l-75 -389h-123l-9 102q-6 79 -40 111q-32 32 -99 32h-168l-71 -372q106 20 184 20q213 0 330 -92q129 -100 129 -287q0 -214 -174 -336 q-71 -49 -163 -76.5t-175 -27.5h-746l17 90l98 33q42 14 51 61l193 987h-107q-68 0 -113 -32q-45 -33 -75 -99l-72 -155h-123zM797 156q78 -25 139 -25q113 0 190 70q48 45 74.5 115.5t26.5 154.5q0 82 -39 137q-58 80 -160 80q-55 0 -133 -29z" />
<glyph unicode="&#x463;" horiz-adv-x="1581" d="M86 55q99 256 154 465q57 216 57 273q0 49 -41 49q-49 0 -113 -33l-20 98q118 26 219 62q138 49 213 84h82l-100 -363h4q78 130 192 236q133 127 244 127q17 0 33.5 -2.5t39.5 -13t39.5 -28t28.5 -50t12 -76.5q0 -73 -57 -230l-14 -39q126 54 229 54q137 0 209 -88 q55 -71 55 -177q0 -104 -54.5 -194.5t-149.5 -149.5q-140 -88 -336 -88q-127 0 -203 45q-121 68 -121 230q0 93 41 211q13 39 39 102t37 98q18 53 18 93q0 57 -39 57q-49 0 -145 -133q-101 -143 -166 -352q-40 -126 -67 -259l-246 -98zM975 233q0 -62 20 -102q27 -45 78 -45 q38 0 75 23t62 63q47 74 47 197q0 78 -26 114q-30 41 -86 41q-59 0 -121 -32l-23 -78q-26 -93 -26 -181z" />
<glyph unicode="&#x472;" horiz-adv-x="1556" d="M164 598q0 168 54 329t159 281q220 254 596 254q103 0 194 -25.5t176 -97.5q205 -177 205 -503q0 -187 -57.5 -343.5t-155.5 -267.5q-224 -254 -596 -254q-103 0 -194 25.5t-176 97.5q-205 173 -205 504zM516 680q-10 -126 4 -258.5t60 -210.5q61 -109 184 -109 q34 0 68.5 8.5t78 31t87.5 70.5t81 118q82 154 107 350h-670zM537 823h661q6 97 -9 212.5t-56 187.5q-61 108 -185 108q-195 0 -315 -227q-67 -124 -96 -281z" />
<glyph unicode="&#x473;" horiz-adv-x="1167" d="M111 408q0 159 63.5 300t181.5 230q153 115 367 115q169 0 268 -97q123 -119 123 -340q0 -158 -64 -299.5t-182 -230.5q-153 -115 -366 -115q-170 0 -269 97q-122 118 -122 340zM418 231q0 -69 18 -104q21 -41 66 -41q42 0 89.5 40.5t90.5 133.5q52 113 74 211 q-7 0 -20.5 -1t-20.5 -1q-18 -1 -51.5 -2t-51.5 -2q-70 -2 -168 -14q-26 -107 -26 -220zM481 594h303q23 122 23 199q0 66 -19 104q-21 41 -65 41t-88 -39.5t-76 -97.5q-55 -99 -78 -207z" />
<glyph unicode="&#x474;" horiz-adv-x="1597" d="M205 1343l16 91h635l-16 -91l-74 -16q-31 -6 -45 -27q-16 -20 -16.5 -56t6.5 -62l127 -785h4l366 709q33 64 52 98t51.5 80.5t66.5 79.5q101 98 221 98q77 0 127 -39q56 -45 56 -118q0 -87 -41 -134q-26 -31 -66 -42t-90 10q2 30 -16.5 49.5t-50.5 19.5q-51 0 -91 -28 q-42 -31 -75 -99l-521 -977q-6 -11 -17 -30.5t-23.5 -43.5t-28.5 -59h-205q3 60 -10 138l-185 1075q-10 63 -40 100t-70 47z" />
<glyph unicode="&#x475;" horiz-adv-x="1290" d="M41 913q127 54 186 78q54 22 80 31.5t68 20t74 10.5q86 0 126 -47q54 -63 54 -295q0 -111 -23 -404h4q60 138 131 268q146 269 254 377q101 101 211 101q40 0 69.5 -13.5t43.5 -31t22.5 -42t9.5 -37t1 -26.5q0 -70 -42.5 -117t-115.5 -41q-1 29 -22.5 45.5t-51.5 16.5 q-67 0 -131 -68q-43 -48 -101 -139t-106 -180q-117 -217 -196 -449h-275q11 225 11 490q0 204 -21 321q-15 99 -80 99q-45 0 -147 -62z" />
<glyph unicode="&#x490;" horiz-adv-x="1167" d="M20 0l17 90l98 33q42 14 51 61l207 1053q12 65 -39 78l-96 28l16 91h719q74 0 117 32q21 14 44.5 43.5t33.5 55.5l41 94h123l-72 -369h-551l-213 -1093q-8 -37 6 -55t33 -23l117 -29l-17 -90h-635z" />
<glyph unicode="&#x491;" horiz-adv-x="819" d="M74 61q90 233 153 465q60 221 60 310q0 64 -39 88q-26 18 -80 18h-39l27 82h542q40 0 66 18q31 20 47 52l82 151h111l-101 -368q-74 24 -196 24h-103q-33 -105 -104 -364q-79 -294 -107 -467l-246 -99z" />
<glyph unicode="&#x492;" horiz-adv-x="1167" d="M20 0l17 90l98 33q42 14 51 61l103 525h-205l25 122h204l80 406q12 65 -39 78l-96 28l16 91h1049l-84 -430h-123l-10 149q-7 76 -39 104q-33 33 -104 33h-234l-88 -459h307l-24 -122h-308l-100 -512q-8 -37 6 -55t33 -23l117 -29l-17 -90h-635z" />
<glyph unicode="&#x493;" horiz-adv-x="917" d="M37 424l26 102h164q20 60 40 158t20 152q0 64 -39 88q-26 18 -80 18h-39l27 82h860l-82 -344h-111l-6 151q0 34 -18 52t-58 18h-137q-53 -162 -106 -375h245l-26 -102h-246q-58 -230 -78 -354l-246 -99l-73 90q62 153 127 363h-164z" />
<glyph unicode="&#x494;" horiz-adv-x="1437" d="M20 0l17 90l98 33q42 14 51 61l207 1053q12 65 -39 78l-96 28l16 91h1051l-84 -430h-123l-10 149q-7 76 -39 104q-33 33 -104 33h-234l-100 -512q149 41 301 41q203 0 315 -82q137 -99 137 -288q0 -185 -135 -316q-168 -162 -436 -162q-121 0 -176 47q-55 43 -55 115 q0 69 43.5 115.5t122.5 46.5q48 0 98 -21q-18 -69 -1 -110t60 -41q31 0 63 24.5t54 75.5q35 82 35 183q0 127 -53 196q-33 45 -75.5 59.5t-97.5 14.5q-119 0 -231 -53l-121 -623h-459z" />
<glyph unicode="&#x495;" horiz-adv-x="1073" d="M74 61q90 233 153 465q60 221 60 310q0 64 -39 88q-26 18 -80 18h-39l27 82h860l-82 -344h-111l-6 151q0 34 -18 52t-58 18h-137q-87 -298 -90 -309l-29 -109q162 58 265 58q153 0 225 -92q61 -77 61 -218q0 -148 -92 -286q-61 -92 -174 -191q-35 -30 -63 -51t-76.5 -51 t-104 -46t-112.5 -16q-63 0 -111 29q-55 39 -55 121q0 63 39.5 107t105.5 51q30 -103 127 -103q89 0 148 76q82 104 82 326q0 99 -27 147q-32 53 -96 53q-33 0 -85.5 -18t-90.5 -39q-43 -174 -58 -270l-246 -99z" />
<glyph unicode="&#x496;" horiz-adv-x="2048" d="M-41 51l21 111q48 -31 94 -31q76 0 131 94l147 262q73 132 150 191q88 69 203 76q-36 15 -60 49t-41 110l-43 187q-12 53 -26 76q-21 28 -58 28q-26 0 -47 -16t-27 -45q-60 -23 -110.5 15t-50.5 108q0 79 54 137.5t157 58.5q108 0 168 -67q54 -62 86 -217l45 -213 q15 -78 57 -117q31 -29 90 -29h59l82 418q12 65 -39 78l-96 28l17 91h594l-17 -91l-98 -32q-42 -14 -51 -62l-86 -430h73q57 0 101 29q44 30 90 115l145 274q57 108 121 160q80 65 184 65q89 0 135 -46t46 -109q0 -86 -68 -133q-55 -41 -135 -33q-1 31 -21.5 47t-44.5 16 q-36 0 -65 -26q-21 -18 -51 -76l-99 -189q-65 -122 -176 -159q88 -14 150 -76q36 -36 51 -75.5t24 -96.5l39 -248q2 -16 6.5 -32t15 -37.5t31.5 -34.5t50 -13h139l-98 -499h-131l-23 208q-9 76 -29 103q-30 45 -86 45h-8q-70 0 -120.5 56.5t-59.5 135.5l-41 320 q-9 75 -37 113q-35 53 -96 53h-41l-92 -479q-12 -65 39 -78l96 -29l-16 -90h-594l16 90l98 33q43 14 52 61l96 492h-58q-63 0 -112 -49q-11 -12 -23 -29.5t-17.5 -28t-21 -40t-18.5 -35.5l-152 -301q-74 -144 -184 -191q-73 -31 -172 -31q-104 0 -213 80z" />
<glyph unicode="&#x497;" horiz-adv-x="1884" d="M0 147q0 61 39 97q38 35 94 35q41 0 88 -21q-12 -44 -12 -86q0 -27 6.5 -45.5t16.5 -26.5t18 -11t16 -3q27 0 59 30.5t58 92.5q40 96 66 244.5t26 253.5q0 83 -22 120t-66 37q-53 0 -108 -47q-60 -49 -99 -104l-82 65q98 124 174 183q118 92 252 92q96 0 150 -62 q71 -78 71 -237q0 -80 -18 -148h147q34 190 46 344l225 103h102q-95 -205 -151 -430h151q60 177 180 295q135 135 312 135q94 0 151 -43q56 -42 56 -123q0 -64 -41 -101q-35 -32 -90 -32q-46 0 -91 20q13 54 13 80q0 47 -17 65.5t-37 18.5q-78 0 -133 -141 q-100 -251 -100 -480q0 -79 29 -120q27 -37 73 -37q58 0 115 47q52 42 98 104l82 -65q-63 -67 -90 -123q-35 -66 -35 -141q0 -23 2 -35q1 -13 5 -46t4 -51q0 -68 -33 -112q-35 -44 -129 -103l-135 -86l-50 78l68 41q22 13 33 21t21 27t10 46q0 14 -3.5 37t-3.5 29 q0 59 70 158l43 63l-4 4q-85 -82 -195 -82q-83 0 -149 56q-96 82 -96 258q0 117 32 223l-145 -16q-59 -263 -72 -451l-217 -92l-65 92q74 176 137 446l-158 -20q-28 -94 -79 -192t-111 -164q-126 -140 -295 -140q-98 0 -154 49q-53 48 -53 127z" />
<glyph unicode="&#x498;" horiz-adv-x="1167" d="M41 41l76 389h123l12 -102q14 -112 57 -164q51 -62 142 -62q120 0 198 78q51 49 78 125t27 156q0 108 -39 170q-29 46 -69.5 62t-94.5 16q-64 0 -139 -21l30 152h168q79 0 140 61q73 77 73 211q0 108 -43 162q-43 57 -139 57q-71 0 -123 -35q-28 -19 -51.5 -47.5 t-35.5 -50.5t-28 -57l-43 -92h-122l73 385q74 2 168 12q144 16 213 16q190 0 303 -55q50 -25 85 -59t51 -69.5t22 -63t6 -54.5q0 -60 -26 -121.5t-74 -111.5q-106 -111 -273 -135v-5q123 -16 205 -83q111 -93 111 -254q0 -80 -24 -148.5t-64.5 -116t-79.5 -78.5t-82 -53 q-130 -66 -309 -80v-372q-13 -58 -57 -90.5t-103 -32.5q-57 0 -92.5 33t-32.5 90l137 368q-96 3 -205 33q-96 28 -149 37z" />
<glyph unicode="&#x499;" horiz-adv-x="901" d="M20 168q0 61 38 100t108 39q59 0 108 -16q-12 -102 13 -152q27 -53 92 -53q75 0 129 72q53 70 53 174q0 75 -33 117q-36 45 -106 45q-63 0 -143 -39l28 143l76 6q110 9 166 78q45 60 45 139q0 56 -30.5 86.5t-82.5 30.5q-75 0 -110 -64q-31 -55 -35 -129q-33 -8 -78 -8 q-71 0 -103 30t-32 75q0 107 125 162q104 49 278 49q190 0 279 -54q96 -55 96 -159q0 -100 -96 -178q-78 -64 -193 -99v-4q43 -2 92.5 -14t79.5 -31q84 -55 84 -162q0 -172 -174 -284q-111 -72 -258 -86q-18 -16 -18 -45q0 -8 4.5 -17t15.5 -25t17 -26q30 -51 30 -100 q0 -20 -6.5 -42.5t-13 -38t-23 -40t-24 -35t-28.5 -37t-25 -31.5l-46 -57l-73 49q27 37 39 61t12 50q0 30 -23 88q-22 59 -22 88q0 61 65 147q-51 -2 -113 10t-102 39q-82 53 -82 148z" />
<glyph unicode="&#x49a;" horiz-adv-x="1474" d="M20 0l17 90l98 33q42 14 51 61l207 1053q12 65 -39 78l-96 28l16 91h615l-17 -91l-98 -32q-42 -14 -51 -62l-84 -430h66q70 0 120 29q55 31 107 117l160 274l13.5 22.5l13.5 22.5l12 20t13.5 21l13.5 18t16 19.5t16.5 17t19.5 17.5q79 65 185 65q90 0 136 -46.5 t46 -112.5q0 -90 -68 -144q-59 -46 -137 -37q-2 31 -20.5 52.5t-48.5 21.5q-32 0 -66 -27q-27 -23 -51 -69l-105 -189q-66 -120 -166 -157q84 -18 136 -76q40 -45 77 -172l72 -246q7 -24 13.5 -40.5t18 -36t30 -30t41.5 -10.5h139l-99 -499h-131l-22 209q-9 75 -29 102 q-30 45 -90 45h-8q-14 0 -27.5 2t-40 13t-48.5 29.5t-45 57t-36 91.5l-82 317q-21 83 -36 108q-34 58 -97 58h-41l-94 -479q-12 -65 39 -78l96 -29l-16 -90h-615z" />
<glyph unicode="&#x49b;" horiz-adv-x="1187" d="M86 61q99 256 154 465q57 216 57 273q0 49 -41 49q-49 0 -113 -33l-20 98q79 16 219 60q122 39 211 80h123q-94 -259 -156 -480q68 5 107 23q31 14 57 38t39.5 43.5t32.5 51.5l69 125q65 118 119 158q57 41 131 41q42 0 73 -12.5t46 -29t23.5 -38.5t10 -34t1.5 -24 q0 -66 -41 -112q-44 -49 -105 -49q-6 34 -30.5 53.5t-59.5 19.5q-20 0 -36 -7.5t-30.5 -25t-23.5 -31t-24 -40.5l-37 -68q-44 -82 -113 -110q107 -20 139 -150l31 -119q6 -23 11 -37.5t14.5 -33t24 -28t34.5 -9.5q24 0 65 24.5t70 49.5l58 -66q-35 -43 -48 -74 q-24 -57 -24 -116q0 -27 2 -39q1 -11 4.5 -44.5t3.5 -52.5q0 -68 -33 -112q-35 -44 -129 -103l-135 -86l-49 78l68 41q22 13 33 21t20.5 27t9.5 46q0 14 -3 37t-3 29q0 63 70 158l59 84l-4 4l-72 -56q-62 -47 -125 -47q-132 0 -174 197l-37 184q-5 24 -9 38t-13 32 t-23.5 26.5t-34.5 8.5q-6 0 -36 -6q-59 -224 -88 -381l-246 -99z" />
<glyph unicode="&#x49c;" horiz-adv-x="1679" d="M20 0l17 90l98 33q42 14 51 61l207 1053q12 65 -39 78l-96 28l16 91h615l-17 -91l-98 -32q-42 -14 -51 -62l-84 -430h149l52 266h143l-51 -266q57 -3 106 25q55 35 103 121l155 274q24 41 35.5 60t34.5 48t49 50q79 65 184 65q91 0 137 -46.5t46 -112.5q0 -90 -68 -144 q-59 -46 -137 -37q-2 30 -21 52t-49 22q-31 0 -65 -27q-27 -23 -51 -69l-105 -189q-66 -120 -166 -157q83 -18 135 -76q41 -47 78 -172l72 -246q7 -27 13.5 -43.5t21.5 -39.5t40.5 -34.5t61.5 -11.5q54 0 109 31l-21 -111q-184 -80 -297 -80q-94 0 -153 37q-83 52 -109 185 l-61 317q-3 20 -14.5 55.5t-20.5 52.5q-25 46 -72 58l-57 -299h-144l58 299h-150l-94 -479q-12 -65 39 -78l96 -29l-16 -90h-615z" />
<glyph unicode="&#x49d;" horiz-adv-x="1351" d="M86 61q99 256 154 465q57 216 57 273q0 49 -41 49q-49 0 -113 -33l-20 98q79 16 219 60q122 39 211 80h123q-94 -259 -156 -480h113l55 213h123l-55 -213q26 -3 51 13q9 5 18 12.5t16 13.5t15.5 17.5t13.5 17t13.5 20t11.5 19.5t13 22t12 21l69 125q65 118 119 158 q57 41 131 41q42 0 73 -12.5t46 -29t23.5 -38.5t10 -34t1.5 -24q0 -66 -41 -112q-44 -49 -105 -49q-6 34 -30.5 53.5t-59.5 19.5q-20 0 -36.5 -7.5t-31 -24.5t-23.5 -31.5t-24 -40.5l-36 -68q-44 -82 -113 -110q107 -20 139 -150l31 -119q6 -23 11 -37.5t14.5 -33t24 -28 t34.5 -9.5q24 0 65 24.5t70 49.5l57 -66l-139 -106q-128 -99 -221 -99q-20 0 -39 6.5t-42.5 25t-42 61t-28.5 104.5l-28 184q-9 59 -26 82t-48 25l-59 -234h-123l59 234l-115 -13q-60 -255 -81 -376l-246 -99z" />
<glyph unicode="&#x4a0;" horiz-adv-x="1740" d="M176 1004l84 430h895l-16 -91l-99 -32q-42 -14 -51 -62l-84 -430h66q71 0 121 29q53 30 106 117l160 274q53 90 81 122q18 19 38 36q79 65 184 65q90 0 136 -46.5t46 -112.5q0 -91 -67 -144q-59 -46 -138 -37q-2 31 -20.5 52.5t-48.5 21.5q-32 0 -66 -27q-27 -23 -51 -69 l-104 -189q-66 -120 -166 -157q83 -18 135 -76q41 -47 78 -172l71 -246q7 -27 13.5 -43.5t21.5 -39.5t41 -34.5t62 -11.5q53 0 108 31l-20 -111q-184 -80 -297 -80q-95 0 -154 37q-34 21 -57 55t-32 60.5t-19 69.5l-82 317q-20 80 -37 108q-34 58 -96 58h-41l-95 -479 q-12 -65 39 -78l97 -29l-17 -90h-614l16 90l98 33q43 14 52 61l215 1106h-109q-69 0 -113 -33q-42 -27 -75 -98l-72 -155h-123z" />
<glyph unicode="&#x4a1;" horiz-adv-x="1515" d="M82 702q0 123 127 263q78 88 174 88q51 0 127 -37q92 -45 154 -45q51 0 111 20.5t106 61.5h123q-94 -259 -156 -480q66 5 106 23q31 14 57 38t39.5 43.5t32.5 51.5l70 125q65 118 119 158q57 41 131 41q42 0 73 -12.5t46 -28.5t23.5 -39t9.5 -34.5t1 -23.5 q0 -67 -40 -112q-44 -49 -105 -49q-6 34 -30.5 53.5t-59.5 19.5q-20 0 -36.5 -7.5t-31 -24.5t-23.5 -31.5t-24 -40.5l-37 -68q-45 -82 -112 -110q107 -20 139 -150l31 -119q6 -23 11 -37.5t14.5 -33t24 -28t34.5 -9.5q24 0 65 24.5t70 49.5l57 -66l-139 -106 q-127 -99 -221 -99q-127 0 -168 197l-37 184q-5 24 -9 38t-13 32t-23.5 26.5t-34.5 8.5q-7 0 -37 -6q-59 -224 -88 -381l-246 -99l-73 90q87 225 157 465q62 210 95 318q-30 -31 -75 -54.5t-83 -23.5q-25 0 -48.5 11t-36 21.5t-30.5 28.5q-47 54 -92 54q-24 0 -40.5 -14.5 t-16.5 -43.5q0 -58 75 -108q-9 -63 -47.5 -101.5t-85.5 -38.5q-43 0 -73.5 35t-30.5 92z" />
<glyph unicode="&#x4a2;" horiz-adv-x="1576" d="M20 0l17 90l98 33q42 14 51 61l207 1053q12 65 -39 78l-96 28l16 91h615l-17 -91l-98 -32q-42 -14 -51 -62l-82 -418h498l78 406q12 65 -39 78l-97 28l17 91h614l-16 -91l-99 -32q-42 -14 -51 -62l-203 -1024q-9 -37 -1.5 -55t15.5 -22.5t23 -4.5h154l-98 -499h-131 l-23 209q-5 63 -29 102q-19 29 -42.5 37t-55.5 8h-311l16 90l98 33q43 14 52 61l100 504h-498l-96 -491q-12 -65 39 -78l96 -29l-16 -90h-615z" />
<glyph unicode="&#x4a3;" horiz-adv-x="1228" d="M86 61q99 256 154 465q57 216 57 273q0 49 -41 49q-49 0 -113 -33l-20 98q79 16 219 60q122 39 211 80h123q-101 -283 -141 -439h262q39 175 63 328l246 111h123q-73 -172 -152 -435q-86 -296 -86 -393q0 -57 37 -57q20 0 56 24.5t63 49.5l57 -66q-32 -41 -47 -74 q-24 -57 -24 -116q0 -27 2 -39q1 -11 4.5 -44.5t3.5 -52.5q0 -68 -33 -112q-35 -44 -129 -103l-135 -86l-49 78l67 41q22 13 33 21t21 27t10 46q0 14 -3 37t-3 29q0 64 69 158l60 84l-4 4l-80 -56q-72 -47 -138 -47q-52 0 -88 41q-24 26 -36.5 68t-12.5 80q0 47 35 180 l39 152l-72 -5q-102 -6 -196 -24q-65 -233 -92 -393l-246 -99z" />
<glyph unicode="&#x4a4;" horiz-adv-x="1863" d="M20 0l17 90l98 33q42 14 51 61l207 1053q12 65 -39 78l-96 28l16 91h615l-17 -91l-98 -32q-42 -14 -51 -62l-82 -418h498l78 406q12 65 -39 78l-97 28l17 91h921l-84 -430h-123l-10 143q-5 74 -41 110q-33 33 -98 33h-111l-213 -1093q-12 -65 39 -78l97 -29l-17 -90h-614 l16 90l98 33q43 14 52 61l100 504h-498l-96 -491q-12 -65 39 -78l96 -29l-16 -90h-615z" />
<glyph unicode="&#x4a5;" horiz-adv-x="1413" d="M86 61q99 256 154 465q57 216 57 273q0 49 -41 49q-49 0 -113 -33l-20 98q79 16 219 60q122 39 211 80h123q-101 -283 -141 -439h264q45 153 45 248q0 43 -21 62q-18 18 -43 18l27 82h704l-81 -344h-111l-6 151q0 33 -19 52q-18 18 -57 18h-94q-45 -163 -92 -375 q-74 -345 -88 -456l-246 -99l-74 90q67 200 127 431l-76 -5q-106 -6 -196 -24q-65 -233 -92 -393l-246 -99z" />
<glyph unicode="&#x4aa;" horiz-adv-x="1392" d="M164 606q0 198 66.5 348.5t162.5 253.5q243 254 639 254q134 0 252 -32q17 -4 48 -13t58 -14.5t64 -9.5l-43 -398h-123l-20 119q-16 93 -68 148q-65 69 -180 69q-124 0 -213.5 -57t-157.5 -170q-69 -115 -103 -261t-34 -292q0 -219 84 -340q77 -109 221 -109 q123 0 219 76q75 60 115 141l53 111h123l-90 -369q-42 -6 -143 -38q-118 -37 -228 -48v-372q-13 -58 -56.5 -90.5t-102.5 -32.5q-57 0 -92.5 33t-32.5 90l137 372q-183 5 -330 119q-225 179 -225 512z" />
<glyph unicode="&#x4ab;" horiz-adv-x="921" d="M102 330q0 162 70.5 326.5t194.5 267.5q156 129 360 129q100 0 154 -41q61 -47 61 -135q0 -70 -39.5 -117t-107.5 -47q-46 0 -86 20q12 61 12 121q0 84 -55 84q-35 0 -74.5 -36.5t-67.5 -84.5q-51 -90 -82.5 -220t-31.5 -239q0 -97 34 -145q36 -53 101 -53q64 0 145 49 q81 51 133 110l66 -65q-107 -124 -197 -188q-90 -67 -178 -84q-12 -24 -12 -45q0 -8 4.5 -16.5t15 -24t17.5 -27.5q30 -51 30 -100q0 -20 -6.5 -42.5t-13 -38t-23 -40t-24 -35t-28.5 -37t-25 -31.5l-46 -57l-73 49q27 37 39 61t12 50q0 30 -23 88q-22 59 -22 88q0 61 65 147 q-112 4 -186 68q-113 95 -113 291z" />
<glyph unicode="&#x4ae;" horiz-adv-x="1351" d="M205 1343l16 91h627l-17 -86l-83 -19q-26 -6 -41 -19t-18.5 -30.5t-2 -34t7.5 -33.5l146 -393l293 373q11 14 20.5 36.5t9.5 35.5q0 43 -61 63l-70 21l17 86h487l-16 -91l-39 -8q-40 -8 -81.5 -39t-59 -52t-44.5 -56l-411 -537l-90 -454q-8 -37 6 -55t33 -23l116 -29 l-16 -90h-655l16 90l119 33q40 11 51 61l92 467l-213 570q-28 81 -100 108z" />
<glyph unicode="&#x4af;" horiz-adv-x="1105" d="M8 -492l17 82l75 23q99 29 125 139l66 287q31 129 31 422q0 203 -21 321q-15 99 -80 99q-45 0 -147 -62l-33 94q127 54 186 78q54 22 80 31.5t68 20t74 10.5q86 0 126 -47q54 -66 54 -328q0 -84 -11 -264q-9 -116 -12 -148h4q72 72 118 130.5t81 133.5q59 115 59 242 q0 112 -69 207q37 39 90.5 56.5t101.5 17.5q42 0 72.5 -13t46 -30.5t24.5 -41t11 -37.5t2 -28q0 -124 -84 -268q-41 -73 -100.5 -147t-106.5 -121.5t-129 -126.5l-96 -93q-38 -38 -51 -88l-66 -280q-20 -81 -2 -114t63 -46l101 -29l-17 -82h-651z" />
<glyph unicode="&#x4b0;" horiz-adv-x="1351" d="M205 1343l16 91h627l-17 -86l-83 -19q-26 -6 -41 -19t-18.5 -30.5t-2 -34t7.5 -33.5l146 -393l293 373q11 14 20.5 36.5t9.5 35.5q0 43 -61 63l-70 21l17 86h487l-16 -91l-39 -8q-40 -8 -81.5 -39t-59 -52t-44.5 -56l-411 -537l-21 -98h307l-22 -123h-307l-47 -233 q-8 -37 6 -55t33 -23l116 -29l-16 -90h-655l16 90l119 33q40 11 51 61l49 246h-307l24 123h308l18 98l-213 570q-28 81 -100 108z" />
<glyph unicode="&#x4b1;" horiz-adv-x="1105" d="M8 -492l17 82l75 23q99 29 125 139l33 146h-246l25 102h246l8 39q31 147 31 422q0 203 -21 321q-15 99 -80 99q-45 0 -147 -62l-33 94q127 54 186 78q54 22 80 31.5t68 20t74 10.5q86 0 126 -47q54 -66 54 -328q0 -84 -11 -264q-9 -116 -12 -148h4q72 72 118 130.5 t81 133.5q59 115 59 242q0 112 -69 207q37 39 90.5 56.5t101.5 17.5q42 0 72.5 -13t46 -30.5t24.5 -41t11 -37.5t2 -28q0 -124 -84 -268q-41 -73 -100.5 -147t-106.5 -121.5t-129 -126.5l-96 -93q-39 -39 -51 -88l-15 -59h246l-23 -102h-245l-29 -119q-20 -81 -1.5 -114 t62.5 -46l101 -29l-17 -82h-651z" />
<glyph unicode="&#x4b2;" horiz-adv-x="1433" d="M-41 0l16 90l64 21q106 34 233 176l365 405l-254 529q-41 86 -127 110l-43 12l16 91h643l-16 -91l-74 -16q-41 -9 -53.5 -37.5t6.5 -68.5l137 -306l254 297q29 36 29 72t-41 43l-72 16l15 91h499l-14 -91l-45 -8q-45 -8 -90.5 -37.5t-68 -52t-52.5 -57.5l-346 -400 l262 -532q35 -68 58 -89q27 -24 57 -24h90l-98 -499h-131l-23 209q-5 63 -29 102q-19 29 -42.5 37t-55.5 8h-311l16 88l53 10q80 14 80 84q0 37 -37 115l-120 264l-267 -299q-47 -59 -47 -100q0 -20 13.5 -37t40.5 -23l63 -12l-16 -90h-537z" />
<glyph unicode="&#x4b3;" horiz-adv-x="1097" d="M-8 117q0 73 39 121q33 42 90 57q9 -29 31 -45.5t47 -16.5q42 0 90 41q20 18 48.5 52.5t45.5 60.5l57 88l-53 238q-21 90 -37 123q-22 45 -65 45q-23 0 -61.5 -20t-67.5 -42l-33 94l78 35q109 50 151 66q100 39 150 39q29 0 48 -10.5t36 -36.5q13 -19 22.5 -47.5t15 -51 t15.5 -73.5l31 -154l88 135q74 115 125 166q74 72 155 72q56 0 88 -37q33 -41 33 -101q0 -57 -31 -110q-27 -45 -77 -68q-9 34 -34.5 52t-60.5 18q-22 0 -42.5 -8.5t-31.5 -17.5t-30 -27q-58 -58 -98 -123l-52 -80l37 -152q30 -121 54 -170q31 -61 79 -61q28 0 61 23t58 51 l58 -66q-35 -43 -48 -74q-24 -57 -24 -116q0 -27 2 -39q1 -11 4.5 -44.5t3.5 -52.5q0 -68 -33 -112q-35 -44 -129 -103l-135 -86l-49 78l68 41q22 13 33 21t20.5 27t9.5 46q0 14 -3 37t-3 29q0 63 70 158l59 84l-4 4l-72 -56q-62 -47 -125 -47q-75 0 -125 80q-37 58 -71 209 l-21 86l-86 -145q-67 -111 -123 -162q-74 -68 -141 -68q-57 0 -96 39t-39 107z" />
<glyph unicode="&#x4b6;" horiz-adv-x="1413" d="M205 1343l16 91h615l-17 -91l-98 -32q-42 -14 -51 -62l-68 -344q-15 -85 31 -125q39 -35 119 -35q115 0 215 54l86 438q13 61 -39 78l-84 28l16 91h602l-16 -91l-98 -32q-43 -14 -52 -62l-202 -1024q-9 -37 -1.5 -55t15.5 -22.5t23 -4.5h153l-98 -499h-131l-23 209 q-5 65 -28 102q-19 29 -42.5 37t-56.5 8h-332l17 90l119 33q40 11 51 61l92 471q-138 -41 -281 -41q-180 0 -270 54q-140 84 -104 282l57 287q13 66 -39 78z" />
<glyph unicode="&#x4b7;" horiz-adv-x="1187" d="M86 913q82 18 209 60q110 38 201 80h122l-83 -269q-41 -132 -41 -190q0 -49 38 -49q31 0 70 20q89 48 143 158q44 88 74 219l246 111h123q-73 -172 -152 -435q-86 -296 -86 -393q0 -57 37 -57q20 0 56 24.5t63 49.5l57 -66q-32 -41 -47 -74q-24 -57 -24 -116q0 -27 2 -39 q1 -11 4.5 -44.5t3.5 -52.5q0 -68 -33 -112q-35 -44 -129 -103l-135 -86l-49 78l67 41q22 13 33 21t21 27t10 46q0 14 -3 37t-3 29q0 64 69 158l60 84l-4 4l-80 -56q-72 -47 -138 -47q-52 0 -88 41q-41 45 -41 123q0 71 41 205l72 233h-4q-80 -99 -193 -172 q-127 -82 -227 -82q-75 0 -115 46q-36 41 -36 114q0 62 22 133l25 80q20 74 20 111q0 45 -41 45q-53 0 -117 -33z" />
<glyph unicode="&#x4b8;" horiz-adv-x="1536" d="M205 1343l16 91h615l-17 -91l-98 -32q-42 -14 -51 -62l-68 -344q-16 -86 31 -125q48 -41 119 -35l67 340h144l-64 -331q103 15 191 45l86 438q13 61 -39 78l-84 28l16 91h602l-16 -91l-99 -32q-42 -14 -51 -62l-207 -1052q-12 -65 39 -78l97 -29l-17 -90h-635l17 90 l119 33q40 11 51 61l92 471q-94 -26 -191 -32l-45 -246h-143l47 239q-231 -13 -342 52q-140 84 -104 282l57 287q13 66 -39 78z" />
<glyph unicode="&#x4b9;" horiz-adv-x="1351" d="M86 913q82 18 209 60q110 38 201 80h122l-83 -269q-41 -133 -41 -190q0 -35 12.5 -56.5t32.5 -28t39 -6t36 6.5l74 276h123l-61 -233q99 50 159 170q47 93 74 219l246 111h123q-73 -172 -152 -435q-86 -296 -86 -393q0 -57 37 -57q20 0 56 24.5t63 49.5l57 -66l-139 -106 q-131 -99 -225 -99q-62 0 -99 41q-41 41 -41 123q0 72 54 258l51 180h-4q-89 -99 -209 -159l-62 -230h-123l48 183q-117 -48 -230 -48q-74 0 -115 46q-36 41 -36 114q0 62 22 133l25 80q20 74 20 111q0 45 -41 45q-53 0 -117 -33z" />
<glyph unicode="&#x4ba;" horiz-adv-x="1413" d="M20 0l17 90l98 33q42 14 51 61l207 1053q12 65 -39 78l-96 28l16 91h635l-16 -91l-119 -32q-40 -11 -51 -62l-92 -471q138 41 280 41q182 0 271 -53q140 -84 104 -283l-57 -286q-12 -60 39 -78l84 -29l-17 -90h-602l17 90l98 33q42 14 51 61l68 344q15 85 -31 125 q-39 35 -119 35q-116 0 -215 -53l-86 -438q-13 -61 39 -78l84 -29l-16 -90h-603z" />
<glyph unicode="&#x4bb;" horiz-adv-x="1187" d="M61 61q93 240 232 764q70 270 100 432q15 76 15 101q0 24 -7.5 39.5t-22 22t-26.5 8.5t-30 2q-47 0 -97 -7l17 82q131 18 219 39q102 22 196 53h129q0 -1 -11 -30.5t-22.5 -60.5t-30.5 -92t-38 -128l-168 -590h4q89 135 201 236q132 121 244 121q72 0 114 -54 q39 -49 39 -127q0 -80 -45 -225l-102 -330q-17 -62 -17 -94q0 -55 37 -55q20 0 56 24.5t63 49.5l57 -66l-139 -106q-131 -99 -225 -99q-60 0 -98 41q-50 56 -50 154q0 67 35 174l103 317q18 52 18 101t-39 49q-29 0 -80 -51q-145 -145 -239 -428q-35 -101 -72 -258l-246 -99 z" />
<glyph unicode="&#x4c0;" horiz-adv-x="712" d="M20 0l17 90l98 33q42 14 51 61l207 1053q12 65 -39 78l-96 28l16 91h574l-17 -91l-98 -32q-42 -14 -51 -62l-207 -1052q-12 -65 39 -78l96 -29l-16 -90h-574z" />
<glyph unicode="&#x4c3;" horiz-adv-x="1474" d="M20 0l17 90l98 33q42 14 51 61l207 1053q12 65 -39 78l-96 28l16 91h615l-17 -91l-98 -32q-42 -14 -51 -62l-84 -430h66q70 0 120 29q55 31 107 117l160 274l13.5 22.5l13.5 22.5l12 20t13.5 21l13.5 18t16 19.5t16.5 17t19.5 17.5q79 65 185 65q90 0 136 -46.5 t46 -112.5q0 -90 -68 -144q-59 -46 -137 -37q-2 31 -20.5 52.5t-48.5 21.5q-32 0 -66 -27q-27 -23 -51 -69l-105 -189q-66 -120 -166 -157q165 -10 287 -82q66 -39 115.5 -95.5t83 -151t33.5 -212.5q0 -345 -256 -541q-86 -66 -172.5 -94.5t-200.5 -28.5q-123 0 -180 48 q-56 48 -56 122q0 67 44 110.5t118 43.5q57 0 103 -20q-20 -77 -1.5 -114.5t58.5 -37.5q80 0 139 115q76 144 76 385q0 261 -145 379q-116 96 -310 96h-41l-94 -479q-12 -65 39 -78l96 -29l-16 -90h-615z" />
<glyph unicode="&#x4c4;" horiz-adv-x="1187" d="M86 61q99 256 154 465q57 216 57 273q0 49 -41 49q-49 0 -113 -33l-20 98q79 16 219 60q122 39 211 80h123q-94 -259 -156 -480q68 5 107 23q31 14 57 38t39.5 43.5t32.5 51.5l69 125q65 118 119 158q57 41 131 41q42 0 73 -12.5t46 -29t23.5 -38.5t10 -34t1.5 -24 q0 -66 -41 -112q-44 -49 -105 -49q-6 34 -30.5 53.5t-59.5 19.5q-20 0 -36 -7.5t-30.5 -25t-23.5 -31t-24 -40.5l-37 -68q-44 -82 -113 -110q80 -6 154.5 -42t120.5 -95q73 -94 73 -236t-88 -270q-68 -99 -174 -176q-185 -136 -319 -136q-72 0 -111 29q-34 22 -44.5 51.5 t-10.5 69.5q0 63 38.5 107t106.5 51q29 -103 123 -103q77 0 127 64q66 86 66 268q0 156 -56 238q-61 92 -180 92q-34 0 -61 -6q-59 -224 -88 -381l-246 -99z" />
<glyph unicode="&#x4c7;" horiz-adv-x="1576" d="M20 0l17 90l98 33q42 14 51 61l207 1053q12 65 -39 78l-96 28l16 91h615l-17 -91l-98 -32q-42 -14 -51 -62l-82 -418h498l78 406q12 65 -39 78l-97 28l17 91h614l-16 -91l-99 -32q-42 -14 -51 -62l-209 -1071q-35 -177 -111.5 -306.5t-176.5 -205.5q-82 -62 -171.5 -89.5 t-201.5 -27.5q-123 0 -180 48q-56 44 -56 116q0 65 41 112.5t121 47.5q57 0 103 -20q-20 -77 -1.5 -114.5t58.5 -37.5q80 0 139 104q44 79 66 195l143 688h-498l-96 -491q-12 -65 39 -78l96 -29l-16 -90h-615z" />
<glyph unicode="&#x4c8;" horiz-adv-x="1228" d="M86 61q99 256 154 465q57 216 57 273q0 49 -41 49q-49 0 -113 -33l-20 98q79 16 219 60q122 39 211 80h123q-101 -283 -141 -439h262q39 175 63 328l246 111h123q-83 -192 -131 -391l-117 -490q-20 -85 -49.5 -145t-85.5 -129q-101 -126 -254 -226q-127 -82 -232 -82 q-71 0 -110 29q-55 39 -55 121q0 63 39.5 107t105.5 51q4 -15 11 -29.5t21 -33t38 -29.5t55 -11q73 0 125 76q46 65 67 158l109 463l-72 -5q-102 -6 -196 -24q-65 -233 -92 -393l-246 -99z" />
<glyph unicode="&#x4d0;" horiz-adv-x="1474" d="M-41 0l16 90l31 12q49 21 88 60q48 48 80 110l657 1190h246q0 -85 17 -168l211 -1030q0 -2 2.5 -14.5t3 -15.5t3 -13.5t4 -15t4.5 -13t5.5 -14t6.5 -13t9 -13.5q32 -45 70 -56l21 -6l-17 -90h-606l16 90l78 16q18 4 28.5 8t22 18.5t11.5 37.5q0 16 -9 63l-45 246h-467 l-118 -223q-31 -60 -31 -92q0 -16 5.5 -28t17.5 -18.5t16.5 -8.5t15.5 -5l64 -14l-17 -90h-440zM530 623h355l-84 503h-4zM635 1704q0 56 39.5 97.5t118.5 41.5q66 0 116 -18q-20 -39 -20 -80q0 -56 35 -84q32 -23 77 -23q94 0 193 54q107 59 186 151l74 -74 q-90 -104 -209 -172q-141 -81 -317 -81q-152 0 -223 55q-70 52 -70 133z" />
<glyph unicode="&#x4d1;" horiz-adv-x="1187" d="M102 229q0 121 37.5 250.5t100.5 241.5q96 167 216 249.5t244 82.5q122 0 205 -74l160 74h123q-79 -184 -152 -435q-86 -289 -86 -393q0 -57 37 -57q20 0 56 24.5t63 49.5l57 -66l-139 -106q-124 -99 -225 -99q-61 0 -97 29q-47 37 -47 123q0 43 17 106l14 58h-4 q-74 -126 -160 -207q-55 -52 -109.5 -80.5t-123.5 -28.5q-78 0 -127 56q-60 69 -60 202zM410 319q0 -46 14 -73q16 -29 45 -29q53 0 123 80q38 46 72 106t47 107l94 330q-9 38 -33 65q-28 33 -70 33q-48 0 -106.5 -53t-108.5 -180q-30 -80 -53.5 -191t-23.5 -195zM492 1417 q0 67 48 113.5t132 46.5t143 -41q-29 -49 -29 -94q0 -43 27 -70q25 -20 64 -20q97 0 196 71q82 59 152 154l65 -57q-76 -111 -184 -183q-164 -108 -342 -108q-126 0 -199 51q-73 52 -73 137z" />
<glyph unicode="&#x4d2;" horiz-adv-x="1474" d="M-41 0l16 90l31 12q49 21 88 60q48 48 80 110l657 1190h246q0 -85 17 -168l211 -1030q0 -2 2.5 -14.5t3 -15.5t3 -13.5t4 -15t4.5 -13t5.5 -14t6.5 -13t9 -13.5q32 -45 70 -56l21 -6l-17 -90h-606l16 90l78 16q18 4 28.5 8t22 18.5t11.5 37.5q0 16 -9 63l-45 246h-467 l-118 -223q-31 -60 -31 -92q0 -16 5.5 -28t17.5 -18.5t16.5 -8.5t15.5 -5l64 -14l-17 -90h-440zM530 623h355l-84 503h-4zM606 1655q0 77 44 122.5t114 45.5q63 0 98 -37.5t35 -102.5q0 -77 -44 -122t-114 -45q-63 0 -98 37t-35 102zM1020 1655q0 77 44 122.5t114 45.5 q63 0 98 -37.5t35 -102.5q0 -77 -44 -122t-114 -45q-63 0 -98 37t-35 102z" />
<glyph unicode="&#x4d3;" horiz-adv-x="1187" d="M102 229q0 121 37.5 250.5t100.5 241.5q96 167 216 249.5t244 82.5q122 0 205 -74l160 74h123q-79 -184 -152 -435q-86 -289 -86 -393q0 -57 37 -57q20 0 56 24.5t63 49.5l57 -66l-139 -106q-124 -99 -225 -99q-61 0 -97 29q-47 37 -47 123q0 43 17 106l14 58h-4 q-74 -126 -160 -207q-55 -52 -109.5 -80.5t-123.5 -28.5q-78 0 -127 56q-60 69 -60 202zM410 319q0 -46 14 -73q16 -29 45 -29q53 0 123 80q38 46 72 106t47 107l94 330q-9 38 -33 65q-28 33 -70 33q-48 0 -106.5 -53t-108.5 -180q-30 -80 -53.5 -191t-23.5 -195zM430 1376 q0 79 44 129.5t120 50.5q12 0 23 -1t30.5 -8t33.5 -19t25 -37.5t11 -60.5q0 -79 -44 -130t-120 -51q-12 0 -23 1t-30.5 8.5t-33.5 19.5t-25 37.5t-11 60.5zM860 1376q0 79 44 129.5t120 50.5q12 0 23 -1t30.5 -8t33.5 -19t25 -37.5t11 -60.5q0 -79 -44 -130t-120 -51 q-12 0 -23 1t-30.5 8.5t-33.5 19.5t-25 37.5t-11 60.5z" />
<glyph unicode="&#x4d4;" horiz-adv-x="1974" d="M-41 0l18 90l46 10q27 6 71 39q31 22 74 74l795 965q36 46 36 75q0 46 -45 56l-139 34l16 91h1237l-75 -390h-111l-6 115q-1 27 -12.5 55t-26.5 43q-33 33 -104 33h-279l-92 -479h180q45 0 74 23q5 3 9 7l6.5 6.5t6 7.5t4.5 6.5t4 7.5t3.5 7.5t4 8.5t3.5 8l29 70h102 l-90 -471h-103l-2 94q0 37 -22 59q-23 23 -66 23h-172l-86 -443q-9 -37 -1.5 -55t15.5 -22.5t23 -4.5h260q59 0 119 37q21 14 42 39t30 47l55 133h111l-78 -399h-1078l17 90l98 33q42 14 51 61l58 295h-414l-195 -243q-43 -54 -43 -86q0 -20 13 -30.5t26 -13.5l60 -16 l-19 -90h-438zM674 623h323l101 512h-4z" />
<glyph unicode="&#x4d5;" horiz-adv-x="1556" d="M102 229q0 121 37.5 250.5t100.5 241.5q96 167 216 249.5t244 82.5q98 0 172 -74l109 74h70l-31 -113q123 113 309 113q105 0 170 -41q78 -52 78 -152q0 -46 -16 -92.5t-49.5 -93.5t-94 -89t-141.5 -71q-139 -48 -285 -51q-8 -64 -8 -109q0 -90 37 -141q40 -53 110 -53 q81 0 164 45q85 46 156 114l66 -65q-121 -125 -216 -188q-142 -95 -292 -95q-135 0 -217 68q-84 67 -99 174q-67 -94 -155 -156q-122 -86 -248 -86q-78 0 -127 56q-60 69 -60 202zM410 319q0 -46 14 -73q16 -29 45 -29q53 0 123 80q38 46 72 106t47 107l94 330q-9 38 -33 65 q-28 33 -70 33q-48 0 -106.5 -53t-108.5 -180q-30 -80 -53.5 -191t-23.5 -195zM1016 586q90 10 151 49q65 40 94 101.5t29 121.5q0 80 -61 80q-42 0 -83 -39.5t-73 -112.5q-39 -84 -57 -200z" />
<glyph unicode="&#x4d6;" horiz-adv-x="1249" d="M20 0l17 90l98 33q42 14 51 61l207 1053q12 65 -39 78l-96 28l16 91h1069l-75 -390h-123l-6 115q-1 27 -12.5 55t-26.5 43q-33 33 -105 33h-266l-92 -479h168q45 0 74 23q20 18 41 59l32 70h111l-90 -471h-111l-6 94q-5 42 -22 59q-23 23 -66 23h-160l-86 -443 q-9 -37 -1.5 -55t15.5 -22.5t23 -4.5h248q59 0 119 37q21 14 41.5 38.5t29.5 47.5l56 133h123l-78 -399h-1078zM522 1704q0 56 39.5 97.5t118.5 41.5q67 0 117 -18q-21 -41 -21 -80q0 -56 35 -84q32 -23 78 -23q93 0 192 54q109 60 187 151l73 -74q-91 -105 -208 -172 q-141 -81 -318 -81q-152 0 -223 55q-70 52 -70 133z" />
<glyph unicode="&#x4d7;" horiz-adv-x="983" d="M102 334q0 156 66 324t190 270q149 125 377 125q130 0 191 -41q78 -52 78 -152q0 -46 -16 -92.5t-50 -93.5t-94.5 -89t-141.5 -71q-139 -48 -284 -51q-8 -64 -8 -109q0 -91 36 -141q40 -53 111 -53q81 0 164 45q85 46 156 114l65 -65q-123 -127 -215 -188 q-142 -95 -293 -95q-135 0 -217 68q-115 93 -115 295zM389 1417q0 67 48 113.5t132 46.5q85 0 144 -41q-29 -49 -29 -94q0 -43 27 -70q25 -20 63 -20q98 0 197 71q80 58 151 154l66 -57q-76 -111 -184 -183q-164 -108 -342 -108q-126 0 -199 51q-74 52 -74 137zM442 586 q91 10 152 49q65 40 94 101.5t29 121.5q0 80 -62 80q-42 0 -82.5 -39.5t-72.5 -112.5q-40 -88 -58 -200z" />
<glyph unicode="&#x4d8;" horiz-adv-x="1482" d="M141 582q0 91 23 209h958q4 58 4 92q0 230 -79 340q-76 108 -234 108q-120 0 -217 -65q-77 -54 -111 -131l-47 -111h-110l80 410q72 0 190 8q41 3 126 11.5t132 8.5q237 0 393 -123q226 -175 226 -514q0 -164 -49 -326t-140 -274q-29 -35 -62 -66t-86.5 -67t-113 -61.5 t-143.5 -42.5t-176 -17q-236 0 -377 123q-90 77 -138.5 205t-48.5 283zM430 455q0 -147 59 -240q73 -113 207 -113q215 0 326 228q63 132 86 317h-576q-49 0 -73 -33q-29 -42 -29 -159z" />
<glyph unicode="&#x4d9;" horiz-adv-x="983" d="M29 209q0 101 68 185.5t210 127.5q126 39 307 39q9 72 9 109q0 90 -37 141q-40 53 -111 53q-81 0 -164 -45q-82 -45 -155 -114l-66 65q123 127 215 188q142 95 293 95q135 0 217 -68q115 -93 115 -297q0 -176 -72 -337.5t-184 -254.5q-149 -125 -383 -125q-113 0 -180 54 q-82 65 -82 184zM311 186q0 -53 19 -76.5t47 -23.5q36 0 77 33.5t78 118.5q42 96 58 200q-154 -10 -223 -90q-56 -65 -56 -162z" />
<glyph unicode="&#x4da;" horiz-adv-x="1482" d="M141 582q0 91 23 209h958q4 58 4 92q0 230 -79 340q-76 108 -234 108q-120 0 -217 -65q-77 -54 -111 -131l-47 -111h-110l80 410q72 0 190 8q41 3 126 11.5t132 8.5q237 0 393 -123q226 -175 226 -514q0 -164 -49 -326t-140 -274q-29 -35 -62 -66t-86.5 -67t-113 -61.5 t-143.5 -42.5t-176 -17q-236 0 -377 123q-90 77 -138.5 205t-48.5 283zM430 455q0 -147 59 -240q73 -113 207 -113q215 0 326 228q63 132 86 317h-576q-49 0 -73 -33q-29 -42 -29 -159zM545 1655q0 77 43.5 122.5t113.5 45.5q63 0 98.5 -37.5t35.5 -102.5q0 -77 -44 -122 t-114 -45q-63 0 -98 37t-35 102zM958 1655q0 77 44 122.5t114 45.5q63 0 98 -37.5t35 -102.5q0 -77 -43.5 -122t-113.5 -45q-63 0 -98.5 37t-35.5 102z" />
<glyph unicode="&#x4db;" horiz-adv-x="983" d="M29 209q0 101 68 185.5t210 127.5q126 39 307 39q9 72 9 109q0 90 -37 141q-40 53 -111 53q-81 0 -164 -45q-82 -45 -155 -114l-66 65q123 127 215 188q142 95 293 95q135 0 217 -68q115 -93 115 -297q0 -176 -72 -337.5t-184 -254.5q-149 -125 -383 -125q-113 0 -180 54 q-82 65 -82 184zM311 186q0 -53 19 -76.5t47 -23.5q36 0 77 33.5t78 118.5q42 96 58 200q-154 -10 -223 -90q-56 -65 -56 -162zM328 1376q0 79 44 129.5t120 50.5q16 0 30.5 -3t38.5 -13.5t38.5 -38.5t14.5 -71q0 -79 -43.5 -130t-119.5 -51q-12 0 -23 1t-30.5 8.5 t-33.5 19.5t-25 37.5t-11 60.5zM758 1376q0 79 44 129.5t120 50.5q16 0 30.5 -3t38.5 -13.5t38.5 -38.5t14.5 -71q0 -79 -43.5 -130t-119.5 -51q-12 0 -23 1t-30.5 8.5t-33.5 19.5t-25 37.5t-11 60.5z" />
<glyph unicode="&#x4dc;" horiz-adv-x="2048" d="M-41 51l21 111q48 -31 94 -31q76 0 131 94l147 262q73 132 150 191q88 69 203 76q-36 15 -60 49t-41 110l-43 187q-12 53 -26 76q-21 28 -58 28q-26 0 -47 -16t-27 -45q-60 -23 -110.5 15t-50.5 108q0 79 54 137.5t157 58.5q108 0 168 -67q54 -62 86 -217l45 -213 q15 -78 57 -117q31 -29 90 -29h59l82 418q12 65 -39 78l-96 28l17 91h594l-17 -91l-98 -32q-42 -14 -51 -62l-86 -430h73q57 0 101 29q44 30 90 115l145 274q57 108 121 160q80 65 184 65q89 0 135 -46t46 -109q0 -86 -68 -133q-55 -41 -135 -33q-1 31 -21.5 47t-44.5 16 q-36 0 -65 -26q-21 -18 -51 -76l-99 -189q-65 -122 -176 -159q88 -14 150 -76q36 -36 51 -75.5t24 -96.5l39 -246q3 -17 5.5 -29t12 -32.5t23 -34t38 -23.5t56.5 -10q57 0 111 31l-20 -111q-173 -80 -277 -80q-94 0 -153 37q-92 59 -109 185l-41 317q-9 75 -37 113 q-35 53 -96 53h-41l-92 -479q-12 -65 39 -78l96 -29l-16 -90h-594l16 90l98 33q43 14 52 61l96 492h-58q-63 0 -112 -49q-11 -12 -23 -29.5t-17.5 -28t-21 -40t-18.5 -35.5l-152 -301q-74 -144 -184 -191q-73 -31 -172 -31q-104 0 -213 80zM893 1655q0 77 44 122.5t114 45.5 q63 0 98 -37.5t35 -102.5q0 -77 -44 -122t-114 -45q-63 0 -98 37t-35 102zM1307 1655q0 77 43.5 122.5t113.5 45.5q63 0 98 -37.5t35 -102.5q0 -77 -43.5 -122t-113.5 -45q-63 0 -98 37t-35 102z" />
<glyph unicode="&#x4dd;" horiz-adv-x="1884" d="M0 147q0 61 39 97q38 35 94 35q41 0 88 -21q-12 -44 -12 -86q0 -27 6.5 -45.5t16.5 -26.5t18 -11t16 -3q27 0 59 30.5t58 92.5q40 96 66 244.5t26 253.5q0 83 -22 120t-66 37q-53 0 -108 -47q-60 -49 -99 -104l-82 65q98 124 174 183q118 92 252 92q96 0 150 -62 q71 -78 71 -237q0 -80 -18 -148h147q34 190 46 344l225 103h102q-95 -205 -151 -430h151q60 177 180 295q135 135 312 135q94 0 151 -43q56 -42 56 -123q0 -64 -41 -101q-35 -32 -90 -32q-46 0 -91 20q13 54 13 80q0 47 -17 65.5t-37 18.5q-78 0 -133 -141 q-100 -251 -100 -480q0 -79 29 -120q27 -37 73 -37q58 0 115 47q52 42 98 104l82 -65q-84 -114 -166 -183q-115 -92 -241 -92q-100 0 -164 56q-96 85 -96 258q0 117 32 223l-145 -16q-59 -263 -72 -451l-217 -92l-65 92q74 176 137 446l-158 -20q-28 -94 -79 -192t-111 -164 q-126 -140 -295 -140q-98 0 -154 49q-53 48 -53 127zM778 1376q0 79 44 129.5t120 50.5q12 0 23 -1t30.5 -8t33.5 -19t25 -37.5t11 -60.5q0 -79 -44 -130t-120 -51q-12 0 -23 1t-30.5 8.5t-33.5 19.5t-25 37.5t-11 60.5zM1208 1376q0 79 44 129.5t120 50.5q12 0 23 -1 t30.5 -8t33.5 -19t25 -37.5t11 -60.5q0 -79 -44 -130t-120 -51q-12 0 -23 1t-30.5 8.5t-33.5 19.5t-25 37.5t-11 60.5z" />
<glyph unicode="&#x4de;" horiz-adv-x="1167" d="M41 41l76 389h123l12 -102q14 -112 57 -164q51 -62 142 -62q120 0 198 78q51 49 78 125t27 156q0 108 -39 170q-29 46 -69.5 62t-94.5 16q-64 0 -139 -21l30 152h168q79 0 140 61q73 77 73 211q0 108 -43 162q-43 57 -139 57q-71 0 -123 -35q-28 -19 -51.5 -47.5 t-35.5 -50.5t-28 -57l-43 -92h-122l73 385q74 2 168 12q144 16 213 16q190 0 303 -55q50 -25 85 -59t51 -69.5t22 -63t6 -54.5q0 -60 -26 -121.5t-74 -111.5q-106 -111 -273 -135v-5q123 -16 205 -83q111 -93 111 -254q0 -80 -24 -148t-64.5 -115.5t-79 -78.5t-82.5 -54 q-162 -84 -412 -84q-135 0 -250 33q-18 5 -44.5 13t-50 14t-54.5 10zM453 1655q0 77 43.5 122.5t113.5 45.5q63 0 98 -37.5t35 -102.5q0 -77 -43.5 -122t-113.5 -45q-63 0 -98 37t-35 102zM866 1655q0 77 44 122.5t114 45.5q63 0 98 -37.5t35 -102.5q0 -77 -44 -122 t-114 -45q-63 0 -98 37t-35 102z" />
<glyph unicode="&#x4df;" horiz-adv-x="901" d="M20 168q0 61 38 100t108 39q59 0 108 -16q-12 -102 13 -152q27 -53 92 -53q75 0 129 72q53 70 53 174q0 75 -33 117q-36 45 -106 45q-63 0 -143 -39l28 143l76 6q110 9 166 78q45 60 45 139q0 56 -30.5 86.5t-82.5 30.5q-75 0 -110 -64q-31 -55 -35 -129q-33 -8 -78 -8 q-71 0 -103 30t-32 75q0 107 125 162q104 49 278 49q190 0 279 -54q96 -55 96 -159q0 -100 -96 -178q-78 -64 -193 -99v-4q43 -2 92.5 -14t79.5 -31q84 -55 84 -162q0 -175 -174 -284q-72 -46 -171.5 -71.5t-205.5 -25.5q-136 0 -215 49q-82 57 -82 148zM246 1376 q0 79 44 129.5t120 50.5q16 0 30.5 -3t38.5 -13.5t38.5 -38.5t14.5 -71q0 -79 -43.5 -130t-119.5 -51q-12 0 -23 1t-30.5 8.5t-33.5 19.5t-25 37.5t-11 60.5zM676 1376q0 79 44 129.5t120 50.5q12 0 23 -1t30.5 -8t33.5 -19t25 -37.5t11 -60.5q0 -79 -44 -130t-120 -51 q-12 0 -23 1t-30.5 8.5t-33.5 19.5t-25 37.5t-11 60.5z" />
<glyph unicode="&#x4e2;" horiz-adv-x="1597" d="M20 0l17 90l98 33q42 14 51 61l207 1053q12 65 -39 78l-96 28l16 91h615l-17 -91l-98 -32q-42 -14 -51 -62l-152 -770l660 729l6 29q7 35 -5.5 54t-33.5 24l-96 28l16 91h615l-17 -91l-98 -32q-42 -14 -51 -62l-207 -1052q-12 -65 39 -78l96 -29l-16 -90h-615l17 90 l98 33q42 14 51 61l154 783l-658 -729l-10 -41q-12 -62 39 -78l96 -29l-16 -90h-615zM655 1577l29 143h655l-28 -143h-656z" />
<glyph unicode="&#x4e3;" horiz-adv-x="1228" d="M106 913q82 17 220 60q122 39 211 80h122l-149 -473q-80 -253 -80 -308q0 -63 39 -63q30 0 80 53q134 144 237 432q43 119 74 248l246 111h123q-73 -172 -152 -435q-86 -296 -86 -393q0 -57 37 -57q20 0 56 24.5t63 49.5l57 -66l-139 -106q-38 -29 -66 -47t-72.5 -35 t-86.5 -17q-58 0 -95 29q-49 40 -49 121q0 59 23 141l24 86h-4q-94 -150 -211 -256q-132 -121 -243 -121q-70 0 -115 54q-47 55 -47 135q0 55 21.5 140t80.5 271q56 171 56 230q0 47 -41 47q-49 0 -113 -33zM496 1294l28 144h574l-29 -144h-573z" />
<glyph unicode="&#x4e4;" horiz-adv-x="1597" d="M20 0l17 90l98 33q42 14 51 61l207 1053q12 65 -39 78l-96 28l16 91h615l-17 -91l-98 -32q-42 -14 -51 -62l-152 -770l660 729l6 29q7 35 -5.5 54t-33.5 24l-96 28l16 91h615l-17 -91l-98 -32q-42 -14 -51 -62l-207 -1052q-12 -65 39 -78l96 -29l-16 -90h-615l17 90 l98 33q42 14 51 61l154 783l-658 -729l-10 -41q-12 -62 39 -78l96 -29l-16 -90h-615zM668 1655q0 77 43.5 122.5t113.5 45.5q63 0 98 -37.5t35 -102.5q0 -77 -43.5 -122t-113.5 -45q-63 0 -98 37t-35 102zM1081 1655q0 77 44 122.5t114 45.5q63 0 98 -37.5t35 -102.5 q0 -77 -44 -122t-114 -45q-63 0 -98 37t-35 102z" />
<glyph unicode="&#x4e5;" horiz-adv-x="1228" d="M106 913q82 17 220 60q122 39 211 80h122l-149 -473q-80 -253 -80 -308q0 -63 39 -63q30 0 80 53q134 144 237 432q43 119 74 248l246 111h123q-73 -172 -152 -435q-86 -296 -86 -393q0 -57 37 -57q20 0 56 24.5t63 49.5l57 -66l-139 -106q-38 -29 -66 -47t-72.5 -35 t-86.5 -17q-58 0 -95 29q-49 40 -49 121q0 59 23 141l24 86h-4q-94 -150 -211 -256q-132 -121 -243 -121q-70 0 -115 54q-47 55 -47 135q0 55 21.5 140t80.5 271q56 171 56 230q0 47 -41 47q-49 0 -113 -33zM451 1376q0 79 43.5 129.5t119.5 50.5q12 0 23 -1t30.5 -8 t33.5 -19t25 -37.5t11 -60.5q0 -79 -44 -130t-120 -51q-12 0 -23 1t-30.5 8.5t-33.5 19.5t-24.5 37.5t-10.5 60.5zM881 1376q0 79 43.5 129.5t119.5 50.5q12 0 23 -1t30.5 -8t33.5 -19t25 -37.5t11 -60.5q0 -79 -43.5 -130t-119.5 -51q-12 0 -23 1t-30.5 8.5t-33.5 19.5 t-25 37.5t-11 60.5z" />
<glyph unicode="&#x4e6;" horiz-adv-x="1556" d="M164 598q0 168 54 329t159 281q220 254 596 254q103 0 194 -25.5t176 -97.5q205 -177 205 -503q0 -187 -57.5 -343.5t-155.5 -267.5q-224 -254 -596 -254q-103 0 -194 25.5t-176 97.5q-205 173 -205 504zM512 549q0 -219 68 -338q61 -109 184 -109q193 0 315 228 q61 114 91 260.5t30 294.5q0 220 -67 338q-61 108 -185 108q-194 0 -315 -227q-61 -114 -91 -260.5t-30 -294.5zM647 1655q0 77 44 122.5t114 45.5q63 0 98 -37.5t35 -102.5q0 -77 -44 -122t-114 -45q-63 0 -98 37t-35 102zM1061 1655q0 77 44 122.5t114 45.5q63 0 98 -37.5 t35 -102.5q0 -77 -44 -122t-114 -45q-63 0 -98 37t-35 102z" />
<glyph unicode="&#x4e7;" horiz-adv-x="1167" d="M111 408q0 159 63.5 300t181.5 230q153 115 367 115q169 0 268 -97q123 -119 123 -340q0 -158 -64 -299.5t-182 -230.5q-153 -115 -366 -115q-170 0 -269 97q-122 118 -122 340zM418 231q0 -69 18 -104q21 -41 66 -41q48 0 100.5 52t95.5 159q44 112 76.5 253t32.5 243 q0 67 -19 104q-21 41 -65 41q-49 0 -101.5 -52t-95.5 -159q-44 -111 -76 -252.5t-32 -243.5zM420 1376q0 79 44 129.5t120 50.5q12 0 23 -1t30.5 -8t33.5 -19t25 -37.5t11 -60.5q0 -79 -44 -130t-120 -51q-12 0 -23 1t-30.5 8.5t-33.5 19.5t-25 37.5t-11 60.5zM850 1376 q0 79 44 129.5t120 50.5q12 0 23 -1t30.5 -8t33.5 -19t25 -37.5t11 -60.5q0 -79 -44 -130t-120 -51q-12 0 -23 1t-30.5 8.5t-33.5 19.5t-25 37.5t-11 60.5z" />
<glyph unicode="&#x4e8;" horiz-adv-x="1556" d="M164 598q0 168 54 329t159 281q220 254 596 254q103 0 194 -25.5t176 -97.5q205 -177 205 -503q0 -187 -57.5 -343.5t-155.5 -267.5q-224 -254 -596 -254q-103 0 -194 25.5t-176 97.5q-205 173 -205 504zM516 680q-10 -126 4 -258.5t60 -210.5q61 -109 184 -109 q34 0 68.5 8.5t78 31t87.5 70.5t81 118q82 154 107 350h-670zM537 823h661q6 97 -9 212.5t-56 187.5q-61 108 -185 108q-195 0 -315 -227q-67 -124 -96 -281z" />
<glyph unicode="&#x4e9;" horiz-adv-x="1167" d="M111 408q0 159 63.5 300t181.5 230q153 115 367 115q169 0 268 -97q123 -119 123 -340q0 -158 -64 -299.5t-182 -230.5q-153 -115 -366 -115q-170 0 -269 97q-122 118 -122 340zM418 231q0 -69 18 -104q21 -41 66 -41q42 0 89.5 40.5t90.5 133.5q52 113 74 211 q-7 0 -20.5 -1t-20.5 -1q-18 -1 -51.5 -2t-51.5 -2q-70 -2 -168 -14q-26 -107 -26 -220zM481 594h303q23 122 23 199q0 66 -19 104q-21 41 -65 41t-88 -39.5t-76 -97.5q-55 -99 -78 -207z" />
<glyph unicode="&#x4ea;" horiz-adv-x="1556" d="M164 598q0 168 54 329t159 281q220 254 596 254q103 0 194 -25.5t176 -97.5q205 -177 205 -503q0 -187 -57.5 -343.5t-155.5 -267.5q-224 -254 -596 -254q-103 0 -194 25.5t-176 97.5q-205 173 -205 504zM516 680q-10 -126 4 -258.5t60 -210.5q61 -109 184 -109 q34 0 68.5 8.5t78 31t87.5 70.5t81 118q82 154 107 350h-670zM537 823h661q6 97 -9 212.5t-56 187.5q-61 108 -185 108q-195 0 -315 -227q-67 -124 -96 -281zM647 1655q0 77 44 122.5t114 45.5q63 0 98 -37.5t35 -102.5q0 -77 -44 -122t-114 -45q-63 0 -98 37t-35 102z M1061 1655q0 77 44 122.5t114 45.5q63 0 98 -37.5t35 -102.5q0 -77 -44 -122t-114 -45q-63 0 -98 37t-35 102z" />
<glyph unicode="&#x4eb;" horiz-adv-x="1167" d="M111 408q0 159 63.5 300t181.5 230q153 115 367 115q169 0 268 -97q123 -119 123 -340q0 -158 -64 -299.5t-182 -230.5q-153 -115 -366 -115q-170 0 -269 97q-122 118 -122 340zM418 231q0 -69 18 -104q21 -41 66 -41q42 0 89.5 40.5t90.5 133.5q52 113 74 211 q-7 0 -20.5 -1t-20.5 -1q-18 -1 -51.5 -2t-51.5 -2q-70 -2 -168 -14q-26 -107 -26 -220zM420 1376q0 79 44 129.5t120 50.5q12 0 23 -1t30.5 -8t33.5 -19t25 -37.5t11 -60.5q0 -79 -44 -130t-120 -51q-12 0 -23 1t-30.5 8.5t-33.5 19.5t-25 37.5t-11 60.5zM481 594h303 q23 122 23 199q0 66 -19 104q-21 41 -65 41t-88 -39.5t-76 -97.5q-55 -99 -78 -207zM850 1376q0 79 44 129.5t120 50.5q12 0 23 -1t30.5 -8t33.5 -19t25 -37.5t11 -60.5q0 -79 -44 -130t-120 -51q-12 0 -23 1t-30.5 8.5t-33.5 19.5t-25 37.5t-11 60.5z" />
<glyph unicode="&#x4ee;" horiz-adv-x="1392" d="M205 1343l16 91h635l-16 -91l-74 -16q-80 -18 -51 -106l174 -525h4l283 471q34 57 34 86q0 31 -19 48.5t-44 23.5l-66 18l17 91h471l-17 -91l-36 -8q-50 -10 -95 -49q-40 -34 -94 -123l-571 -940q-76 -123 -162 -186q-92 -66 -203 -66q-80 0 -123 37q-49 43 -49 125 q0 79 45 129q37 41 93 51t104 -10q-2 -32 16.5 -55t57.5 -23q35 0 63 21q10 6 27.5 24.5t23.5 28.5l31 47l-303 854q-16 50 -47 84q-25 29 -82 47zM635 1577l29 143h655l-29 -143h-655z" />
<glyph unicode="&#x4ef;" horiz-adv-x="1085" d="M-82 -365q0 77 42.5 127.5t115.5 53.5q8 -31 30 -52.5t56 -21.5q33 0 74 23t67 53l33 41q6 132 6 247q0 182 -15.5 385t-45.5 304q-11 40 -28.5 63t-51.5 23q-46 0 -148 -62l-33 94q98 42 187 78q147 62 221 62q79 0 115 -47q50 -65 73 -328q13 -133 13 -264 q0 -47 -6 -230h4q45 68 98 167.5t78 166.5q45 126 45 254q0 114 -70 207q37 39 91 56.5t102 17.5q42 0 72.5 -13t46 -30.5t24 -41t10.5 -37.5t2 -28q0 -115 -73 -268q-46 -98 -132.5 -225.5t-248.5 -337.5l-156 -201q-190 -246 -278 -311q-88 -72 -177 -72q-67 0 -105 39.5 t-38 107.5zM434 1294l29 144h573l-28 -144h-574z" />
<glyph unicode="&#x4f0;" horiz-adv-x="1392" d="M205 1343l16 91h635l-16 -91l-74 -16q-80 -18 -51 -106l174 -525h4l283 471q34 57 34 86q0 31 -19 48.5t-44 23.5l-66 18l17 91h471l-17 -91l-36 -8q-50 -10 -95 -49q-40 -34 -94 -123l-571 -940q-76 -123 -162 -186q-92 -66 -203 -66q-80 0 -123 37q-49 43 -49 125 q0 79 45 129q37 41 93 51t104 -10q-2 -32 16.5 -55t57.5 -23q35 0 63 21q10 6 27.5 24.5t23.5 28.5l31 47l-303 854q-16 50 -47 84q-25 29 -82 47zM647 1655q0 77 44 122.5t114 45.5q63 0 98 -37.5t35 -102.5q0 -77 -44 -122t-114 -45q-63 0 -98 37t-35 102zM1061 1655 q0 77 44 122.5t114 45.5q63 0 98 -37.5t35 -102.5q0 -77 -44 -122t-114 -45q-63 0 -98 37t-35 102z" />
<glyph unicode="&#x4f1;" horiz-adv-x="1085" d="M-82 -365q0 77 42.5 127.5t115.5 53.5q8 -31 30 -52.5t56 -21.5q33 0 74 23t67 53l33 41q6 132 6 247q0 182 -15.5 385t-45.5 304q-11 40 -28.5 63t-51.5 23q-46 0 -148 -62l-33 94q98 42 187 78q147 62 221 62q79 0 115 -47q50 -65 73 -328q13 -133 13 -264 q0 -47 -6 -230h4q45 68 98 167.5t78 166.5q45 126 45 254q0 114 -70 207q37 39 91 56.5t102 17.5q42 0 72.5 -13t46 -30.5t24 -41t10.5 -37.5t2 -28q0 -115 -73 -268q-46 -98 -132.5 -225.5t-248.5 -337.5l-156 -201q-190 -246 -278 -311q-88 -72 -177 -72q-67 0 -105 39.5 t-38 107.5zM389 1376q0 79 44 129.5t120 50.5q12 0 23 -1t30.5 -8t33.5 -19t25 -37.5t11 -60.5q0 -79 -44 -130t-120 -51q-12 0 -23 1t-30.5 8.5t-33.5 19.5t-25 37.5t-11 60.5zM819 1376q0 79 44 129.5t120 50.5q12 0 23 -1t30.5 -8t33.5 -19t25 -37.5t11 -60.5 q0 -79 -44 -130t-120 -51q-12 0 -23 1t-30.5 8.5t-33.5 19.5t-25 37.5t-11 60.5z" />
<glyph unicode="&#x4f2;" horiz-adv-x="1392" d="M205 1343l16 91h635l-16 -91l-74 -16q-80 -18 -51 -106l174 -525h4l283 471q34 57 34 86q0 31 -19 48.5t-44 23.5l-66 18l17 91h471l-17 -91l-36 -8q-50 -10 -95 -49q-40 -34 -94 -123l-571 -940q-76 -123 -162 -186q-92 -66 -203 -66q-80 0 -123 37q-49 43 -49 125 q0 79 45 129q37 41 93 51t104 -10q-2 -32 16.5 -55t57.5 -23q35 0 63 21q10 6 27.5 24.5t23.5 28.5l31 47l-303 854q-16 50 -47 84q-25 29 -82 47zM610 1556l8 41l297 267h308l-15 -70l-495 -238h-103zM1081 1556l9 41l317 267h285l-15 -70l-493 -238h-103z" />
<glyph unicode="&#x4f3;" horiz-adv-x="1085" d="M-82 -365q0 77 42.5 127.5t115.5 53.5q8 -31 30 -52.5t56 -21.5q33 0 74 23t67 53l33 41q6 132 6 247q0 182 -15.5 385t-45.5 304q-11 40 -28.5 63t-51.5 23q-46 0 -148 -62l-33 94q98 42 187 78q147 62 221 62q79 0 115 -47q50 -65 73 -328q13 -133 13 -264 q0 -47 -6 -230h4q45 68 98 167.5t78 166.5q45 126 45 254q0 114 -70 207q37 39 91 56.5t102 17.5q42 0 72.5 -13t46 -30.5t24 -41t10.5 -37.5t2 -28q0 -115 -73 -268q-46 -98 -132.5 -225.5t-248.5 -337.5l-156 -201q-190 -246 -278 -311q-88 -72 -177 -72q-67 0 -105 39.5 t-38 107.5zM410 1229v41l184 286h287v-69l-369 -258h-102zM799 1229v41l245 286h267v-69l-410 -258h-102z" />
<glyph unicode="&#x4f4;" horiz-adv-x="1413" d="M205 1343l16 91h615l-17 -91l-98 -32q-42 -14 -51 -62l-68 -344q-15 -85 31 -125q39 -35 119 -35q115 0 215 54l86 438q13 61 -39 78l-84 28l16 91h602l-16 -91l-98 -32q-43 -14 -52 -62l-206 -1052q-12 -65 38 -78l97 -29l-17 -90h-635l17 90l119 33q40 11 51 61l92 471 q-138 -41 -281 -41q-180 0 -270 54q-140 84 -104 282l57 287q13 66 -39 78zM575 1655q0 77 44 122.5t114 45.5q63 0 98 -37.5t35 -102.5q0 -77 -43.5 -122t-113.5 -45q-63 0 -98.5 37t-35.5 102zM989 1655q0 77 44 122.5t114 45.5q63 0 98 -37.5t35 -102.5q0 -77 -44 -122 t-114 -45q-63 0 -98 37t-35 102z" />
<glyph unicode="&#x4f5;" horiz-adv-x="1187" d="M86 913q82 18 209 60q110 38 201 80h122l-83 -269q-41 -132 -41 -190q0 -49 38 -49q31 0 70 20q89 48 143 158q44 88 74 219l246 111h123q-73 -172 -152 -435q-86 -296 -86 -393q0 -57 37 -57q20 0 56 24.5t63 49.5l57 -66l-139 -106q-131 -99 -225 -99q-62 0 -99 41 q-41 48 -41 123q0 71 41 205l72 233h-4q-80 -99 -193 -172q-127 -82 -227 -82q-75 0 -115 46q-36 41 -36 114q0 62 22 133l25 80q20 74 20 111q0 45 -41 45q-53 0 -117 -33zM451 1376q0 79 43.5 129.5t119.5 50.5q12 0 23 -1t30.5 -8t33.5 -19t25 -37.5t11 -60.5 q0 -79 -44 -130t-120 -51q-12 0 -23 1t-30.5 8.5t-33.5 19.5t-24.5 37.5t-10.5 60.5zM881 1376q0 79 43.5 129.5t119.5 50.5q12 0 23 -1t30.5 -8t33.5 -19t25 -37.5t11 -60.5q0 -79 -43.5 -130t-119.5 -51q-12 0 -23 1t-30.5 8.5t-33.5 19.5t-25 37.5t-11 60.5z" />
<glyph unicode="&#x4f8;" horiz-adv-x="2007" d="M20 0l17 90l98 33q42 14 51 61l207 1053q12 65 -39 78l-96 28l16 91h615l-17 -91l-98 -32q-42 -14 -51 -62l-84 -430q111 21 184 21q209 0 328 -99q127 -107 127 -292q0 -221 -174 -345q-71 -49 -163 -76.5t-175 -27.5h-746zM510 156q78 -25 139 -25q118 0 191 70 q46 45 74 117.5t28 162.5q0 92 -37 148q-52 80 -160 80q-59 0 -133 -29zM872 1655q0 77 44 122.5t114 45.5q63 0 98 -37.5t35 -102.5q0 -77 -43.5 -122t-113.5 -45q-63 0 -98.5 37t-35.5 102zM1274 0l16 90l99 33q42 14 51 61l207 1053q12 65 -39 78l-97 28l17 91h614 l-16 -91l-98 -32q-43 -14 -52 -62l-207 -1052q-12 -65 39 -78l97 -29l-17 -90h-614zM1286 1655q0 77 44 122.5t114 45.5q63 0 98 -37.5t35 -102.5q0 -77 -44 -122t-114 -45q-63 0 -98 37t-35 102z" />
<glyph unicode="&#x4f9;" horiz-adv-x="1617" d="M102 913q82 17 220 60q118 38 210 80h123q-98 -215 -163 -439q138 54 239 54q141 0 209 -88q55 -71 55 -177q0 -104 -54.5 -194.5t-149.5 -149.5q-143 -88 -330 -88q-132 0 -209 45q-121 70 -121 226q0 114 82 344q3 8 8 22q50 138 54 176q1 10 1 19q0 45 -40 45 q-49 0 -113 -33zM418 242q0 -76 22 -111q27 -45 76 -45q84 0 135 86q49 80 49 197q0 75 -26 114q-30 41 -86 41q-55 0 -125 -32l-21 -78q-24 -90 -24 -172zM655 1376q0 79 44 129.5t120 50.5q12 0 23 -1t30.5 -8t33.5 -19t25 -37.5t11 -60.5q0 -79 -44 -130t-120 -51 q-12 0 -23 1t-30.5 8.5t-33.5 19.5t-25 37.5t-11 60.5zM1065 913q79 16 219 60q122 39 211 80h123q-31 -59 -55 -146l-166 -590q-17 -71 -17 -94q0 -55 37 -55q20 0 56 24.5t63 49.5l57 -66l-139 -106q-131 -99 -225 -99q-61 0 -99 41q-49 55 -49 148q0 52 35 180l109 387 q14 56 14 74q0 47 -41 47q-49 0 -113 -33zM1085 1376q0 79 44 129.5t120 50.5q12 0 23 -1t30.5 -8t33.5 -19t25 -37.5t11 -60.5q0 -79 -44 -130t-120 -51q-12 0 -23 1t-30.5 8.5t-33.5 19.5t-25 37.5t-11 60.5z" />
<glyph unicode="&#x2000;" horiz-adv-x="932" />
<glyph unicode="&#x2001;" horiz-adv-x="1864" />
<glyph unicode="&#x2002;" horiz-adv-x="932" />
<glyph unicode="&#x2003;" horiz-adv-x="1864" />
<glyph unicode="&#x2004;" horiz-adv-x="621" />
<glyph unicode="&#x2005;" horiz-adv-x="466" />
<glyph unicode="&#x2006;" horiz-adv-x="310" />
<glyph unicode="&#x2007;" horiz-adv-x="310" />
<glyph unicode="&#x2008;" horiz-adv-x="233" />
<glyph unicode="&#x2009;" horiz-adv-x="372" />
<glyph unicode="&#x200a;" horiz-adv-x="103" />
<glyph unicode="&#x2010;" horiz-adv-x="901" d="M188 512l37 205h615l-37 -205h-615z" />
<glyph unicode="&#x2011;" horiz-adv-x="901" d="M188 512l37 205h615l-37 -205h-615z" />
<glyph unicode="&#x2012;" horiz-adv-x="901" d="M188 512l37 205h615l-37 -205h-615z" />
<glyph unicode="&#x2013;" horiz-adv-x="1331" d="M213 555l25 123h983l-25 -123h-983z" />
<glyph unicode="&#x2014;" horiz-adv-x="1740" d="M213 555l25 123h1392l-24 -123h-1393z" />
<glyph unicode="&#x2018;" horiz-adv-x="573" d="M217 1030q0 107 66 203q51 73 128 132.5t158 96.5l45 -86q-64 -28 -118 -76q-66 -57 -66 -98q0 -11 6 -16.5t23 -9.5q50 -15 73 -41q41 -41 41 -105q0 -67 -50.5 -120.5t-141.5 -53.5q-77 0 -120.5 46t-43.5 128z" />
<glyph unicode="&#x2019;" horiz-adv-x="573" d="M217 942q66 29 119 76q65 56 65 98q0 11 -5.5 17t-22.5 10q-52 15 -74 41q-41 41 -41 104q0 67 51 120.5t142 53.5q77 0 120 -46t43 -128q0 -108 -65 -203q-51 -73 -128.5 -132.5t-158.5 -96.5z" />
<glyph unicode="&#x201a;" horiz-adv-x="573" d="M66 -201q64 28 118 76q66 57 66 98q0 11 -6 17t-23 10q-52 15 -74 41q-41 41 -41 104q0 67 51 120.5t142 53.5q77 0 120.5 -46t43.5 -128q0 -106 -66 -202q-51 -73 -128.5 -133t-157.5 -97z" />
<glyph unicode="&#x201c;" horiz-adv-x="1024" d="M217 1032q0 104 64 201q45 66 119 127t161 102l45 -86q-66 -29 -119 -76q-65 -56 -65 -98q0 -11 6 -16.5t23 -9.5q40 -12 67 -41q39 -45 39 -105q0 -68 -47.5 -121t-134.5 -53q-72 0 -115 47t-43 129zM676 1032q0 106 63 201q44 66 118.5 127t162.5 102l45 -86 q-66 -29 -119 -76q-65 -56 -65 -98q0 -11 5.5 -16.5t22.5 -9.5q42 -13 68 -41q39 -45 39 -105q0 -68 -47.5 -121t-134.5 -53q-72 0 -115 47t-43 129z" />
<glyph unicode="&#x201d;" horiz-adv-x="1024" d="M217 942q66 29 119 76q65 56 65 98q0 11 -5.5 17t-22.5 10q-42 13 -68 41q-39 45 -39 104q0 67 48 120.5t135 53.5q71 0 114 -47t43 -129q0 -106 -63 -201q-44 -66 -118.5 -127t-162.5 -102zM676 942q66 29 119 76q65 56 65 98q0 11 -6 17t-23 10q-40 12 -67 41 q-39 45 -39 104q0 68 47.5 121t134.5 53q72 0 115 -47t43 -129q0 -104 -64 -201q-45 -66 -119 -127t-161 -102z" />
<glyph unicode="&#x201e;" horiz-adv-x="1024" d="M66 -201q64 28 118 76q66 57 66 98q0 11 -6 17t-23 10q-40 12 -67 41q-39 45 -39 104q0 68 47.5 121t134.5 53q72 0 115 -47t43 -129q0 -103 -64 -200q-45 -67 -119 -128t-161 -102zM524 -201q66 29 119 76q66 57 66 98q0 11 -6 17t-23 10q-42 13 -68 41q-39 45 -39 104 q0 67 48 120.5t135 53.5q71 0 114 -47t43 -129q0 -105 -63 -200q-45 -66 -119.5 -127.5t-161.5 -102.5z" />
<glyph unicode="&#x2026;" horiz-adv-x="1597" d="M86 121q0 89 55 143.5t140 54.5q69 0 109 -39t40 -110q0 -89 -54.5 -144t-139.5 -55q-69 0 -109.5 39.5t-40.5 110.5zM618 121q0 89 55 143.5t140 54.5q69 0 109.5 -39t40.5 -110q0 -89 -55 -144t-140 -55q-69 0 -109.5 39.5t-40.5 110.5zM1151 121q0 89 54.5 143.5 t140.5 54.5q69 0 109 -39t40 -110q0 -89 -55 -144t-140 -55q-68 0 -108.5 39.5t-40.5 110.5z" />
<glyph unicode="&#x202f;" horiz-adv-x="372" />
<glyph unicode="&#x2039;" horiz-adv-x="942" d="M164 532l717 472l61 -78l-450 -394l290 -405l-82 -66z" />
<glyph unicode="&#x203a;" horiz-adv-x="942" d="M143 139l451 393l-291 406l82 66l537 -472l-717 -471z" />
<glyph unicode="&#x205f;" horiz-adv-x="466" />
<glyph unicode="&#x20ac;" d="M-39 512l70 123h137q6 69 18 131h-176l70 123h139q53 166 152 295q217 278 579 278q97 0 211 -32q11 -3 32 -9t32 -9t29 -7t36.5 -7t40.5 -5l-39 -357h-123l-18 109q-15 90 -57 139q-56 64 -152 64q-64 0 -117 -19.5t-92.5 -56.5t-68 -80t-54.5 -100q-41 -92 -67 -203 h594l-70 -123h-553q-13 -79 -16 -131h503l-69 -123h-440q-3 -235 65 -334q61 -92 178 -92q108 0 193 82q60 57 104 151l49 111h123l-90 -369q-59 -9 -143 -38q-154 -52 -281 -52q-200 0 -332 107q-84 68 -139.5 177.5t-54.5 256.5h-203z" />
<glyph unicode="&#x2122;" horiz-adv-x="2068" d="M53 1155v279h762v-279h-90l-23 88q-9 40 -34 60q-28 20 -66 20h-57v-618q0 -29 24 -37l74 -21v-74h-418v74l74 21q25 8 25 37v618h-58q-37 0 -65 -20q-26 -21 -35 -60l-23 -88h-90zM901 573v74l49 21q9 4 13 6.5t7.5 10t4.5 20.5l24 598q2 27 -24 36l-62 21v74h316 q0 -40 22 -97l191 -481h4l190 481q24 62 27 97h322v-74l-62 -21q-25 -8 -25 -36l23 -598q0 -28 25 -37l61 -21v-74h-393v74l61 21q25 9 25 37l-14 464h-3l-215 -536q-10 -24 -14 -39q0 -2 -1 -6t-1 -6q-1 -4 -3 -12.5t-3 -12.5h-115q0 26 -20 76l-211 536h-2l-13 -464 q0 -29 25 -37l61 -21v-74h-270z" />
<glyph unicode="&#x25fc;" horiz-adv-x="1054" d="M0 0v1055h1055v-1055h-1055z" />
</font>
</defs>
</svg>
